<svg width="20" height="20" viewBox="0 0 20 20" fill="none" xmlns="http://www.w3.org/2000/svg">
<path fill-rule="evenodd" clip-rule="evenodd" d="M10 16.6C13.8102 16.6 16.7113 13.539 16.7113 10C16.7113 6.46105 13.8102 3.4 10 3.4C6.18981 3.4 3.2887 6.46105 3.2887 10C3.2887 13.539 6.18981 16.6 10 16.6ZM10 19C14.9706 19 19 14.9706 19 10C19 5.02944 14.9706 1 10 1C5.02944 1 1 5.02944 1 10C1 14.9706 5.02944 19 10 19Z" fill="#EBEFF5"/>
<path d="M4.00012 5.69727L5.69718 4.00021L15.8795 14.1825L14.1825 15.8796L4.00012 5.69727Z" fill="#EBEFF5"/>
</svg>
