<svg xmlns="http://www.w3.org/2000/svg" width="178" height="190" viewBox="0 0 178 190">
  <g fill="none" fill-rule="evenodd" transform="translate(-11 -5)">
    <rect width="200" height="200" fill="#FF1B1B" fill-rule="nonzero" opacity="0"/>
    <g transform="translate(14.75 9.75)">
      <path stroke="#FFF" stroke-opacity=".583" stroke-width="8" d="M1.35598873,89.6094402 L1.34545656,89.5165223 C-3.01654736,46.5516094 30.1563178,9.00243289 74.7736724,1.1597568 C94.557422,-2.29880972 115.316259,2.53664763 133.22106,13.8155372 C150.060487,24.4233092 162.893558,39.9040232 167.892503,55.8555666 C172.311938,69.9804287 170.394993,81.6295593 161.07581,92.6744981 C149.773092,106.003632 141.004809,117.008283 121.69394,141.760748 C121.620996,141.854248 121.620996,141.854248 121.548051,141.947748 C116.11088,148.917057 113.642807,152.07524 110.585129,155.968285 C104.943618,163.162506 97.2670032,167.619348 87.4656039,170.103571 C74.757521,173.308314 61.7929791,176.240235 44.0995577,179.998936 C32.3345257,182.516684 21.5025127,176.861271 18.3968503,165.698889 C9.18916535,132.661401 3.88979268,109.846678 1.35598873,89.6094402 Z"/>
      <path fill="#DDD" fill-opacity=".624" fill-rule="nonzero" d="M5.325,89.1125 C0.97875977,46.3028564 35.2125,12.175 75.4625,5.1 C115.075,-1.825 154.65,26.975 164.075,57.05 C167.9,69.275 166.8,79.6875 158.025,90.0875 C140.525,110.725 124.1375,132.2375 107.4375,153.5 C101.9875,160.45 94.625,164.1625 86.4875,166.225 C72.1625,169.8375 57.7375,173.0125 43.2625,176.0875 C33.8,178.1125 24.8375,173.925 22.25,164.625 C14.9375,138.3875 8.1875,111.975 5.325,89.1125 Z M15.325,86.5375 C18.875,110.975 25.775,136.525 31.825,162.1625 C32.7,165.9375 35.8625,167.7875 39.95,167.7125 C44.0375,167.6375 46.45,165.425 47.925,161.825 C49.4,158.225 48.9,154.475 49.2875,150.725 C49.5875,147.95 50.45,145.35 53.5375,144.475 C56.4265081,143.513716 59.6019229,144.597755 61.3,147.125 C63.0125,149.5125 64.2,152.225 65.8375,154.625 C68.1375,158 70.8875,161.0375 75.5125,160.075 C79.825,159.175 82.1625,155.95 83.275,151.9125 C83.8061949,149.901675 84.0709595,147.829787 84.0625,145.75 C84.0625,141.6125 84.2375,137.4 89.0625,136.0625 C93.8875,134.725 95.85,139.05 98.1125,142.225 C99.7,144.5 100.7,148.375 104.3625,146.8375 C107.625,145.475 106.925,141.675 106.275,139 C104.425,131.325 102.2625,123.65 99.9125,116.15 C95.8375,103.0125 101.425,92.4375 114.775,88.9875 C124.85,86.3875 135,84.025 145.1625,81.7875 C156.8125,79.225 159.8125,73.9125 156.2375,62.3875 C147.2125,33.3375 115.675,10.85 82.2125,13.8625 C43.175,17.375 12.3868408,51.9882812 15.325,86.5375 Z"/>
      <path fill="#FFF" fill-opacity=".596" fill-rule="nonzero" d="M15.325,86.5375 C12.3868408,51.9882813 43.175,17.375 82.2125,13.8625 C115.675,10.85 147.2125,33.3375 156.2375,62.3875 C159.8125,73.9125 156.8125,79.225 145.1625,81.7875 C135,84.025 124.85,86.3875 114.775,88.9875 C101.425,92.4375 95.8375,103.0125 99.9125,116.15 C102.2625,123.65 104.425,131.325 106.275,139 C106.925,141.675 107.625,145.475 104.3625,146.8375 C100.7,148.375 99.7,144.5 98.1125,142.225 C95.85,139.05 93.8875,134.725 89.0625,136.0625 C84.2375,137.4 84.0625,141.6125 84.0625,145.75 C84.0709595,147.829787 83.8061949,149.901675 83.275,151.9125 C82.1625,155.95 79.825,159.175 75.5125,160.075 C70.8875,161.0375 68.1375,158 65.8375,154.625 C64.2,152.225 63.0125,149.5125 61.3,147.125 C59.6019229,144.597755 56.4265081,143.513716 53.5375,144.475 C50.45,145.35 49.5875,147.95 49.2875,150.725 C48.9,154.475 49.4,158.225 47.925,161.825 C46.45,165.425 44.0375,167.6375 39.95,167.7125 C35.8625,167.7875 32.7,165.9375 31.825,162.1625 C25.775,136.525 18.875,110.975 15.325,86.5375 Z"/>
      <path fill="#282828" fill-opacity=".103" fill-rule="nonzero" d="M79.8382625,51.535521 C83.3418002,44.1259167 90.8847891,39 99.625,39 C111.706229,39 121.5,48.7937711 121.5,60.875 C121.5,72.9562289 111.706229,82.75 99.625,82.75 C94.3167291,82.75 89.4500663,80.859251 85.6617375,77.714479 C82.1581998,85.1240833 74.6152109,90.25 65.875,90.25 C53.7937711,90.25 44,80.4562289 44,68.375 C44,56.2937711 53.7937711,46.5 65.875,46.5 C71.1832709,46.5 76.0499337,48.390749 79.8382625,51.535521 Z M69.9098171,68.2993357 L76.1196739,58.8773863 C76.8514252,57.7671313 76.4955042,56.3045672 75.324702,55.6106579 C74.1538999,54.9167485 72.6115756,55.2542633 71.8798242,56.3645183 L65.7993357,65.5901829 L56.3773863,59.3803261 C55.2671313,58.6485748 53.8045672,59.0044958 53.1106579,60.175298 C52.4167485,61.3461001 52.7542633,62.8884244 53.8645183,63.6201758 L63.0901829,69.7006643 L56.8803261,79.1226137 C56.1485748,80.2328687 56.5044958,81.6954328 57.675298,82.3893421 C58.8461001,83.0832515 60.3884244,82.7457367 61.1201758,81.6354817 L67.2006643,72.4098171 L76.6226137,78.6196739 C77.7328687,79.3514252 79.1954328,78.9955042 79.8893421,77.824702 C80.5832515,76.6538999 80.2457367,75.1115756 79.1354817,74.3798242 L69.9098171,68.2993357 Z M103.659817,59.5493357 L109.869674,50.1273863 C110.601425,49.0171313 110.245504,47.5545672 109.074702,46.8606579 C107.9039,46.1667485 106.361576,46.5042633 105.629824,47.6145183 L99.5493357,56.8401829 L90.1273863,50.6303261 C89.0171313,49.8985748 87.5545672,50.2544958 86.8606579,51.425298 C86.1667485,52.5961001 86.5042633,54.1384244 87.6145183,54.8701758 L96.8401829,60.9506643 L90.6303261,70.3726137 C89.8985748,71.4828687 90.2544958,72.9454328 91.425298,73.6393421 C92.5961001,74.3332515 94.1384244,73.9957367 94.8701758,72.8854817 L100.950664,63.6598171 L110.372614,69.8696739 C111.482869,70.6014252 112.945433,70.2455042 113.639342,69.074702 C114.333251,67.9038999 113.995737,66.3615756 112.885482,65.6298242 L103.659817,59.5493357 Z"/>
    </g>
  </g>
</svg>
