<svg xmlns="http://www.w3.org/2000/svg" width="81" height="83" viewBox="0 0 84 84">
  <path fill="#E9EDF3" d="M2026.13718,1610.23713 C2041.10731,1610.23713 2053.243,1598.10258 2053.243,1583.13386 C2053.243,1568.16514 2041.10731,1556.0306 2026.13718,1556.0306 C2011.16705,1556.0306 1999.03136,1568.16514 1999.03136,1583.13386 C1999.03136,1598.10258 2011.16705,1610.23713 2026.13718,1610.23713 Z M2052.75153,1606.07378 L2070.83375,1624.15601 C2072.39585,1625.7181 2072.39585,1628.25076 2070.83375,1629.81286 L2070.81158,1629.83503 C2069.24948,1631.39713 2066.71682,1631.39713 2065.15473,1629.83503 L2046.84247,1611.52278 C2041.03584,1615.76425 2033.8789,1618.26772 2026.13718,1618.26772 C2006.73145,1618.26772 1991,1602.53776 1991,1583.13386 C1991,1563.72997 2006.73145,1548 2026.13718,1548 C2045.54291,1548 2061.27436,1563.72997 2061.27436,1583.13386 C2061.27436,1591.90127 2058.06267,1599.91861 2052.75153,1606.07378 Z" transform="translate(-1991 -1548)"/>
</svg>
