<?xml version="1.0" encoding="UTF-8"?>
<svg width="60px" height="60px" viewBox="0 0 60 60" version="1.1" xmlns="http://www.w3.org/2000/svg" xmlns:xlink="http://www.w3.org/1999/xlink">
    <!-- Generator: Sketch 52.5 (67469) - http://www.bohemiancoding.com/sketch -->
    <title>Group 3</title>
    <desc>Created with Sketch.</desc>
    <defs>
        <linearGradient x1="50%" y1="100%" x2="50%" y2="3.061617e-15%" id="linearGradient-1">
            <stop stop-color="#ADB2B8" offset="0%"></stop>
            <stop stop-color="#D8DCE3" offset="100%"></stop>
        </linearGradient>
    </defs>
    <g id="Page-1" stroke="none" stroke-width="1" fill="none" fill-rule="evenodd">
        <g id="Group-3">
            <circle id="Oval-Copy-3" fill="url(#linearGradient-1)" fill-rule="nonzero" cx="30" cy="30" r="30"></circle>
            <path d="M20.5,23.1640625 C20.5,21.9270771 20.8971314,20.6738345 21.6914062,19.4042969 C22.4856811,18.1347593 23.6445236,17.0833375 25.1679688,16.25 C26.6914139,15.4166625 28.4687398,15 30.5,15 C32.3880303,15 34.0546803,15.3483038 35.5,16.0449219 C36.9453197,16.7415399 38.061845,17.6887961 38.8496094,18.8867188 C39.6373737,20.0846414 40.03125,21.3867117 40.03125,22.7929688 C40.03125,23.8997451 39.8066429,24.8697875 39.3574219,25.703125 C38.9082009,26.5364625 38.3743521,27.2558563 37.7558594,27.8613281 C37.1373667,28.4667999 36.0273518,29.4856699 34.4257812,30.9179688 C33.9830707,31.3216166 33.6282565,31.6764308 33.3613281,31.9824219 C33.0943997,32.288413 32.895834,32.5683581 32.765625,32.8222656 C32.635416,33.0761731 32.5345056,33.3300769 32.4628906,33.5839844 C32.3912757,33.8378919 32.2838549,34.283851 32.140625,34.921875 C31.8932279,36.2760484 31.1184961,36.953125 29.8164062,36.953125 C29.1393195,36.953125 28.5696638,36.731773 28.1074219,36.2890625 C27.64518,35.846352 27.4140625,35.1888064 27.4140625,34.3164062 C27.4140625,33.2226508 27.5833316,32.2753946 27.921875,31.4746094 C28.2604184,30.6738241 28.7096326,29.9707062 29.2695312,29.3652344 C29.8294299,28.7597626 30.5846307,28.0403687 31.5351562,27.2070312 C32.3684937,26.4778609 32.9707013,25.9277362 33.3417969,25.5566406 C33.7128925,25.185545 34.0253894,24.7721377 34.2792969,24.3164062 C34.5332044,23.8606748 34.6601562,23.3658881 34.6601562,22.8320312 C34.6601562,21.7903594 34.2727903,20.9114619 33.4980469,20.1953125 C32.7233034,19.4791631 31.7239645,19.1210938 30.5,19.1210938 C29.0677012,19.1210938 28.0130242,19.4824183 27.3359375,20.2050781 C26.6588508,20.927738 26.0859398,21.9921805 25.6171875,23.3984375 C25.174477,24.869799 24.3346416,25.6054688 23.0976562,25.6054688 C22.3684859,25.6054688 21.7532577,25.3483099 21.2519531,24.8339844 C20.7506485,24.3196589 20.5,23.7630238 20.5,23.1640625 Z M30.03125,44.5703125 C29.2369752,44.5703125 28.5436228,44.3131536 27.9511719,43.7988281 C27.358721,43.2845026 27.0625,42.5651088 27.0625,41.640625 C27.0625,40.8203084 27.3489555,40.1302111 27.921875,39.5703125 C28.4947945,39.0104139 29.1979125,38.7304688 30.03125,38.7304688 C30.8515666,38.7304688 31.5416639,39.0104139 32.1015625,39.5703125 C32.6614611,40.1302111 32.9414062,40.8203084 32.9414062,41.640625 C32.9414062,42.5520879 32.6484404,43.2682266 32.0625,43.7890625 C31.4765596,44.3098984 30.799483,44.5703125 30.03125,44.5703125 Z" id="?-copy" fill="#FFFFFF"></path>
        </g>
    </g>
</svg>