<svg width="20" height="20" viewBox="0 0 20 20" fill="none" xmlns="http://www.w3.org/2000/svg">
<path fill-rule="evenodd" clip-rule="evenodd" d="M3.75 5C3.33579 5 3 5.33579 3 5.75C3 6.16421 3.33579 6.5 3.75 6.5H16.25C16.6642 6.5 17 6.16421 17 5.75C17 5.33579 16.6642 5 16.25 5H3.75ZM3 9.75C3 9.33579 3.33579 9 3.75 9H16.25C16.6642 9 17 9.33579 17 9.75C17 10.1642 16.6642 10.5 16.25 10.5H3.75C3.33579 10.5 3 10.1642 3 9.75ZM3 13.75C3 13.3358 3.33579 13 3.75 13H16.25C16.6642 13 17 13.3358 17 13.75C17 14.1642 16.6642 14.5 16.25 14.5H3.75C3.33579 14.5 3 14.1642 3 13.75Z" fill="white"/>
</svg>
