<svg xmlns="http://www.w3.org/2000/svg" xmlns:xlink="http://www.w3.org/1999/xlink" width="20" height="20" viewBox="0 0 20 20">
  <defs>
    <path id="{close}-a" d="M10,8.58578644 L16.2928932,2.29289322 C17.2357023,1.35008418 18.6499158,2.76429774 17.7071068,3.70710678 L10.7071068,10.7071068 C10.3165825,11.0976311 9.68341751,11.0976311 9.29289322,10.7071068 L2.29289322,3.70710678 C1.35008418,2.76429774 2.76429774,1.35008418 3.70710678,2.29289322 L10,8.58578644 Z M10,11.4142136 L3.70710678,17.7071068 C2.76429774,18.6499158 1.35008418,17.2357023 2.29289322,16.2928932 L9.29289322,9.29289322 C9.68341751,8.90236893 10.3165825,8.90236893 10.7071068,9.29289322 L17.7071068,16.2928932 C18.6499158,17.2357023 17.2357023,18.6499158 16.2928932,17.7071068 L10,11.4142136 Z"/>
  </defs>
  <g fill="none" fill-rule="evenodd">
    <rect width="20" height="20"/>
    <use fill="#454545" fill-rule="nonzero" xlink:href="#{close}-a"/>
  </g>
</svg>
