<svg xmlns="http://www.w3.org/2000/svg" xmlns:xlink="http://www.w3.org/1999/xlink" width="20" height="20" viewBox="0 0 20 20">
  <defs>
    <path id="download_icon-a" d="M8.803393,15.1894923 L8.803393,1.49660624 C8.803393,0.835738441 9.3391322,0.299999237 10,0.299999237 C10.6608678,0.299999237 11.196607,0.835738441 11.196607,1.49660624 L11.196607,15.1894923 L15.7279641,10.6581351 C16.1952682,10.190831 16.9529179,10.190831 17.420222,10.6581351 C17.8875261,11.1254392 17.8875261,11.8830889 17.420222,12.350393 L11.1097903,18.6608247 C10.8086375,18.9619775 10.3869008,19.0690532 10,18.9820519 C9.61309924,19.0690532 9.19136247,18.9619775 8.8902097,18.6608247 L2.57977802,12.350393 C2.11247392,11.8830889 2.11247392,11.1254392 2.57977802,10.6581351 C3.04708212,10.190831 3.80473177,10.190831 4.27203587,10.6581351 L8.803393,15.1894923 Z"/>
  </defs>
  <g fill="none" fill-rule="evenodd">
    <use fill="#FFF" xlink:href="#download_icon-a"/>
  </g>
</svg>
