<svg xmlns="http://www.w3.org/2000/svg" xmlns:xlink="http://www.w3.org/1999/xlink" width="20" height="20" viewBox="0 0 20 20">
  <defs>
    <path id="file-a" d="M15.49,9.91600335 L11.6904759,9.91600335 C10.0973189,9.91600335 8.8017316,8.56884919 8.78711973,6.89708815 L8.75150376,2.82222222 L4.89347826,2.82222222 C4.68168907,2.82222222 4.51,3.00238976 4.51,3.22463768 L4.51,16.7753623 C4.51,16.9976102 4.68168907,17.1777778 4.89347826,17.1777778 L15.1065217,17.1777778 C15.3183109,17.1777778 15.49,16.9976102 15.49,16.7753623 L15.49,9.91600335 Z M9.97132443,1.61692216 C9.98526904,1.62908133 9.99912324,1.6423145 10.0128784,1.65666199 L16.5704803,8.49061584 C16.627934,8.5505435 16.6713886,8.61556016 16.7014435,8.6833661 C16.7318455,8.72362614 16.75,8.77453439 16.75,8.82989224 L16.75,8.86660746 C16.7538585,8.90560478 16.7538253,8.94483572 16.75,8.98391805 L16.75,16.7753623 C16.75,17.7278534 16.0141897,18.5 15.1065217,18.5 L4.89347826,18.5 C3.98581028,18.5 3.25,17.7278534 3.25,16.7753623 L3.25,3.22463768 C3.25,2.27214659 3.98581028,1.5 4.89347826,1.5 L9.77705424,1.5 C9.85983701,1.5 9.93225195,1.54693708 9.97132443,1.61692216 Z M10.0191283,3.68849258 L10.0470667,6.8849612 C10.0553376,7.83124104 10.7886889,8.59378112 11.6904759,8.59378112 L14.7500576,8.59378112 L10.0191283,3.68849258 Z"/>
  </defs>
  <g fill="none" fill-rule="evenodd">
    <use fill="#454545" xlink:href="#file-a"/>
  </g>
</svg>
