<svg xmlns="http://www.w3.org/2000/svg" xmlns:xlink="http://www.w3.org/1999/xlink" width="20" height="20" viewBox="0 0 20 20">
  <defs>
    <path id="micro-a" d="M3.32118984,10.2592593 C3.32040002,10.2448353 3.31999993,10.2303075 3.31999993,10.2156863 L3.31999993,9.93246187 C3.31999993,9.49929736 3.67114915,9.14814815 4.10431366,9.14814815 C4.53747817,9.14814815 4.88862738,9.49929736 4.88862738,9.93246187 L4.88862738,10.2156863 C4.88862738,10.2303075 4.8882273,10.2448353 4.88743748,10.2592593 L4.88996502,10.2592593 C4.95264293,12.9289415 7.21006023,15.0740741 9.9866666,15.0740741 C12.7630597,15.0740741 15.0206875,12.9290746 15.0833682,10.2592593 L15.0847058,10.2592593 L15.0847058,9.87731481 C15.0847058,9.47460718 15.4111649,9.14814815 15.8138725,9.14814815 L15.9241666,9.14814815 C16.3268742,9.14814815 16.6533333,9.47460718 16.6533333,9.87731481 L16.6533333,10.2592593 L16.6533333,10.5175242 C16.6533333,13.6125239 14.0832706,16.1627232 10.7709803,16.5142201 L10.7709803,17.9934641 C10.7709803,18.4266286 10.4198311,18.7777778 9.9866666,18.7777778 C9.55350209,18.7777778 9.20235287,18.4266286 9.20235287,17.9934641 L9.20235287,16.5142266 C5.88944343,16.1627126 3.31999993,13.6119604 3.31999993,10.5175242 L3.31999993,10.2592593 L3.32118984,10.2592593 Z M8.2494117,4.23074041 L8.2494117,9.62111144 C8.2494117,10.6414125 9.03633392,11.4518519 9.9866666,11.4518519 C10.9364176,11.4518519 11.7239215,10.6407274 11.7239215,9.62111144 L11.7239215,4.23074041 C11.7239215,3.2104393 10.9369993,2.4 9.9866666,2.4 C9.03691562,2.4 8.2494117,3.21112445 8.2494117,4.23074041 Z M6.8494117,4.23074041 C6.8494117,2.44734047 8.25400856,1 9.9866666,1 C11.7197056,1 13.1239215,2.44645175 13.1239215,4.23074041 L13.1239215,9.62111144 C13.1239215,11.4045114 11.7193246,12.8518519 9.9866666,12.8518519 C8.2536276,12.8518519 6.8494117,11.4054001 6.8494117,9.62111144 L6.8494117,4.23074041 Z"/>
  </defs>
  <g fill="none" fill-rule="evenodd">
    <use fill="#A8ADB8" fill-rule="nonzero" xlink:href="#micro-a"/>
  </g>
</svg>
