<svg xmlns="http://www.w3.org/2000/svg" xmlns:xlink="http://www.w3.org/1999/xlink" width="180" height="180" viewBox="0 0 180 180">
  <defs>
    <path id="happy_cat-a" d="M81.3151855,46.4188199 C86.1795524,47.0088885 89.7826527,47.6292499 92.1244864,48.2799039 C94.4663201,48.930558 97.5953161,50.1806394 101.511475,52.0301481 L115.9729,39.9371305 C118.279215,38.4503141 120.107096,38.2242399 121.456543,39.2589078 C123.480713,40.8109098 123.812179,46.1393732 122.740967,59.3724332 C122.026825,68.1944732 120.088023,77.2009023 116.924561,86.3917203 C122.273903,80.7107727 126.00722,76.9172343 128.124512,75.0111051 C134.878418,68.9307828 138.591064,67.0965543 138.591064,67.0965543 C138.591064,67.0965543 145.668701,63.719357 147.389404,66.6995817 C148.53654,68.6863981 146.986979,71.4569059 142.740723,75.0111051 C144.588867,77.9303759 144.777588,80.7592333 143.306885,83.4976774 C142.39005,85.2048208 138.759275,90.4712107 132.00415,96.8138395 C129.020826,99.6149901 122.978182,104.842611 113.876221,112.496701 C113.815974,114.656472 113.815974,116.854308 113.876221,119.090207 C113.966591,122.444055 114.044666,123.916599 114.234863,125.806759 C114.425061,127.696919 114.922553,128.899711 115.276611,129.444211 C115.63067,129.98871 116.123254,129.95104 116.600098,129.444211 C120.843669,124.933786 124.292541,119.989903 126.661621,117.739132 C130.614555,113.983604 131.856689,112.859494 137.102539,110.50964 C142.348389,108.159787 149.260742,106.964718 150.731201,111.614621 C152.20166,116.264523 150.933107,120.348821 141.753662,129.444211 C135.634032,135.507804 128.246174,139.849926 119.590088,142.470578 C121.549589,149.780367 122.347766,155.188895 121.984619,158.696164 C121.439899,163.957066 118.920898,167.720947 116.600098,168.706543 C114.279297,169.692139 111.939453,169.692139 103.579102,167.610714 C95.21875,165.52929 84.9075603,160.004398 75.0437012,159.639279 C68.4677951,159.395866 61.9098524,161.65262 55.369873,166.409543 C51.2402925,169.263547 47.5316337,169.663938 44.2438965,167.610714 C40.9561593,165.557491 38.4836658,161.296912 36.826416,154.828976 C34.275472,141.715067 33,132.040995 33,125.806759 C33,111.79764 34.275472,99.4100257 36.826416,88.6439176 C39.5777485,77.8907747 43.4402973,68.1336133 48.4140625,59.3724332 C55.8747102,46.2306631 69.2414551,31.2669645 69.2414551,31.2669645 C69.2414551,31.2669645 75.9777958,23.9015384 79.6616211,28.5245328 C81.923784,31.3634206 80.6315803,37.5604134 79.6616211,45.2911344 C79.6062461,45.7324818 80.1574342,46.108377 81.3151855,46.4188199 Z"/>
  </defs>
  <g fill="none" fill-rule="evenodd">
    <rect width="180" height="180" y="1"/>
    <g stroke-linecap="round" stroke-linejoin="round">
      <use fill="#C7AA93" xlink:href="#happy_cat-a"/>
      <path stroke="#FFF" stroke-width="5" d="M82.3460386,44.026929 C86.958938,44.6042808 90.4287388,45.2140583 92.7937342,45.8711475 C94.9879839,46.4807969 97.7571651,47.554273 101.125623,49.0939024 L114.488055,37.9198922 L114.618309,37.8359205 C117.716496,35.8386066 120.633789,35.4777929 122.977707,37.2749574 C126.054853,39.6343128 126.403093,45.1173077 125.232816,59.5741477 C124.762833,65.3800109 123.776164,71.2583661 122.273963,77.2084949 C124.025511,75.4355355 125.41662,74.0850789 126.451825,73.1531169 C129.486522,70.4210777 132.167613,68.2994637 134.474124,66.7136434 C135.901041,65.7325796 136.911376,65.1379393 137.514439,64.8402568 C138.020082,64.5989823 138.826482,64.2585135 139.815948,63.9189658 C140.814079,63.5764444 141.800419,63.3088149 142.754567,63.1452151 C145.740782,62.6331935 148.215235,63.1300566 149.554446,65.4495437 C151.334271,68.5321668 149.843054,71.8651447 145.869528,75.5830493 C147.191467,78.636331 147.090597,81.7362559 145.509352,84.6805297 C143.848732,87.7725983 139.431079,93.2697157 133.715395,98.6363762 C130.784562,101.38824 125.005385,106.394828 116.349655,113.682731 C116.318105,115.436632 116.326645,117.216676 116.375314,119.022868 C116.46441,122.329457 116.539761,123.742388 116.722302,125.556461 C116.722784,125.561256 116.723269,125.566045 116.723756,125.57083 C118.253105,123.761999 123.65592,117.146348 124.939689,115.926689 C129.585101,111.513265 130.991394,110.507739 136.080527,108.228085 C143.862246,104.742302 151.16983,104.710252 153.114853,110.860828 C155.069006,117.040272 152.690857,122.12655 143.51328,131.22009 C137.647154,137.0325 130.667093,141.336595 122.599253,144.12346 C124.197368,150.562029 124.831575,155.474349 124.471325,158.95364 C123.881033,164.654677 121.092287,169.514904 117.577324,171.007636 C114.428962,172.34468 111.368742,172.126366 102.975129,170.036661 C100.157311,169.335127 99.2359185,169.017802 91.9040554,166.358293 C86.6498948,164.452436 83.450441,163.447442 80.1039674,162.777734 C78.2826241,162.41324 76.5743195,162.197648 74.9512248,162.137568 C68.9691626,161.916137 62.9498624,163.987531 56.7912358,168.466173 C51.8990894,171.847196 47.1320326,172.361853 42.919647,169.731177 C38.9892952,167.276635 36.2062999,162.481002 34.4046487,155.449495 L34.3724132,155.306334 C31.7932775,142.047496 30.5,132.238375 30.5,125.806759 C30.5,111.613527 31.7951417,99.0348777 34.4044378,88.0242227 C37.2094854,77.0611431 41.1538666,67.0972655 46.2399759,58.1381935 C47.0500337,56.7112942 47.9454651,55.2320583 48.9202915,53.7050292 C50.5422419,51.1643046 52.3689798,48.5142273 54.3639506,45.7851128 C57.2105067,41.8910323 60.2558179,38.0277896 63.3008729,34.3666779 C64.3666581,33.0852697 65.356818,31.9200257 66.2463484,30.8926396 C66.5585515,30.5320527 66.8361697,30.2141294 67.0760736,29.9415889 C67.2214232,29.7764659 67.3227761,29.6621916 67.3966621,29.5797363 C67.9788895,28.9431365 68.9235643,28.0441809 70.1216255,27.1388874 C71.7611536,25.9000073 73.4178503,25.0178086 75.1087565,24.6633219 C77.6020859,24.1406126 79.9386516,24.860579 81.6167954,26.9665555 C83.0453445,28.7593046 83.5125154,31.1513285 83.4039431,34.4525582 C83.3329014,36.6126426 83.3036945,36.8555095 82.3859564,43.7270707 C82.3723492,43.8289539 82.3590529,43.9288293 82.3460386,44.026929 Z"/>
      <use stroke="#564042" stroke-width="3" xlink:href="#happy_cat-a"/>
    </g>
    <path fill="#D7C5AF" d="M77.392334 48.6123047C83.3031656 49.6351639 87.6203857 50.5288406 90.3439941 51.293335 94.4294068 52.4400765 97.7062216 54.5309853 99.1529541 55.0688477 100.599687 55.60671 101.425415 55.9248047 102.143311 55.6800537 102.861206 55.4353027 114.470263 43.2367947 117.52063 44.7613525 121.092896 46.5467529 112.499756 91.484375 112.499756 91.484375 112.499756 91.484375 112.21167 93.4462891 113.094971 92.5136719 113.683838 91.8919271 119.958822 86.3369954 131.919922 75.848877 133.740152 74.2950393 135.222737 73.568965 136.367676 73.6706543 138.085084 73.8231882 138.698535 75.256708 139.545166 76.526123 140.109587 77.3723998 140.513985 78.3878417 140.758362 79.5724487 140.794309 81.0574118 140.348793 82.0021139 139.421814 82.4065552 138.031346 83.013217 136.367676 82.1582642 135.707581 81.7115479 135.267517 81.413737 134.763529 80.751241 134.195618 79.7240601 134.074443 79.2055461 133.918009 79.0562541 133.726318 79.2761841 133.534627 79.4961141 126.177205 86.9112142 111.654053 101.521484 111.402786 107.494623 110.155716 113.578037 107.912842 119.771729 105.669968 125.96542 102.633103 131.712083 98.8022461 137.011719 92.9674494 142.497891 86.7291682 145.656339 80.0874023 146.487061 73.4456365 147.317783 66.6091293 145.794671 59.5778809 141.917725 54.18986 136.733317 51.8929036 133.60026 52.6870117 132.518555 53.8781738 130.895996 57.1392512 134.463894 60.2236328 134.196533 62.2798872 134.018293 64.2961633 133.301008 66.2724609 132.044678 67.9262695 133.04484 69.3852539 133.435954 70.6494141 133.218018 72.5456543 132.891113 75.7028809 131.819092 75.7028809 126.945801 75.7028809 123.69694 69.4419759 115.371012 56.920166 101.968018 52.3555607 95.7957535 49.7059839 90.7410728 48.9714355 86.8039754 47.8696131 80.8983294 47.7993164 74.5483398 50.7883301 65.8039551 53.7773437 57.0595703 55.4677734 53.0808105 61.6965332 45.005127 67.925293 36.9294434 73.2749856 30.7046161 76.2166748 31.8145752 78.6893311 32.7475586 76.6013184 47.2736816 76.6013184 47.9429932 76.6013184 48.3892008 76.8649902 48.6123047 77.392334 48.6123047zM139.12384 71.4244995C139.422703 71.8831787 141.644226 71.2894897 142.775391 70.3973999 143.906555 69.5053101 144.615173 68.701416 144.255676 68.2659302 143.896179 67.8304443 142.066066 67.7978832 140.744385 68.701416 139.422703 69.6049489 138.824978 70.9658203 139.12384 71.4244995zM143.869019 112.689087C142.491821 111.50769 139.2694 112.836877 134.9021 116.060059 130.534799 119.28324 126.938965 123.181885 128.347046 124.400513 129.755127 125.619141 136.56525 122.800275 140.084961 120.202637 143.604672 117.604998 145.246216 113.870483 143.869019 112.689087z"/>
    <path fill="#D7C5AF" d="M45.9599609,104.439209 C43.3725586,106.835083 48.4071045,113.065186 52.1966553,117.664917 C55.9862061,122.264648 59.5054313,124.840326 61.1340332,125.66687 C62.7626351,126.493415 63.9480591,123.680908 65.869751,124.444214 C66.9196706,124.861247 67.4433594,125.492126 68.2196655,125.883362 C68.9959717,126.274597 69.9176636,126.749207 70.3370972,126.066833 C70.7565308,125.38446 70.1731517,124.510433 69.8169556,124.05896 C63.3179538,115.821571 59.4907227,112.319214 59.4907227,112.319214 C59.4907227,112.319214 48.5473633,102.043335 45.9599609,104.439209 Z"/>
    <path fill="#C7AA93" d="M57.5144043,62.7902832 C57.6848145,65.8015137 57.9981283,67.7063802 58.4543457,68.5048828 C58.9105632,69.3033854 58.9105632,70.0033366 58.4543457,70.6047363 C55.725057,74.1268717 54.9929199,76.7521159 56.2579346,78.4804688 C58.1554565,81.072998 60.498291,80.3842773 62.407959,79.7045898 C64.317627,79.0249023 67.2952881,77.8273926 68.7453613,78.4804688 C70.1954346,79.1335449 73.0388184,83.3061523 75.4956055,82.7993164 C77.9523926,82.2924805 78.8835449,79.2419434 78.8835449,77.2626953 C78.8835449,75.2834473 79.9144287,73.1643066 83.7528076,74.1135254 C87.5911865,75.0627441 87.6258545,78.1398926 87.1342773,79.7045898 C86.6427002,81.2692871 85.6959582,85.3009849 87.1342773,86.4462891 C88.5725965,87.5915933 92.1293945,87.7783608 94.782959,86.1513672 C97.4365234,84.5243735 100.765869,91.7841797 104.164795,90.6428223 C107.563721,89.5014648 105.326474,85.3560369 107.007568,82.7993164 C108.688663,80.2425959 111.140239,79.795079 112.389893,78.1335449 C113.222995,77.0258555 113.090468,75.685849 111.99231,74.1135254 L57.5144043,62.7902832 Z"/>
    <path stroke="#614B4B" stroke-width="3" d="M76.8300781,68.4697266 C79.1639323,68.0937292 81.9550293,68.4024043 85.2033691,69.395752 C88.451709,70.3890996 90.7959473,71.6508183 92.236084,73.1809082"/>
    <path fill="#CE0B48" stroke="#820435" stroke-linecap="round" stroke-linejoin="round" stroke-width="1.8" d="M65.8407173 61.9208529C69.0265156 56.9973043 70.8825297 54.9967827 72.3756264 55.6912938 73.5382495 56.2320858 74.6598402 58.7128697 76.1411458 63.546436 80.4453061 65.4780067 82.3254898 66.6700123 82.3254898 67.9105142 82.3254898 69.1208785 80.5527869 70.3331894 76.545772 72.2778984 76.0089169 76.9446707 75.49075 79.0296853 74.414238 79.4290578 73.3735397 79.8151439 71.4424315 78.6152415 67.5567608 75.53019 62.7876565 77.0610331 60.4969714 77.4492403 59.6780107 76.4609827 58.9152608 75.5405558 59.4196577 73.3423954 61.0658923 69.0227055 58.676269 65.5221743 57.8450758 63.4672822 58.8130557 62.3254708 59.6688245 61.3160215 61.8815546 61.2692295 65.8407173 61.9208529zM95.5471955 69.4713186C99.0817923 64.6277301 101.087098 62.6636223 102.549013 63.3436289 103.735076 63.8953239 104.701873 66.342396 105.848241 71.0977625 110.130545 73.0211896 112.001747 74.2104603 112.001747 75.4479956 112.001747 76.6576085 110.231244 77.8691655 106.229489 79.8117587 105.664723 85.4335777 105.106875 87.7921214 103.791027 88.0310305 102.685547 88.2317446 100.782721 86.7131668 97.1669307 83.0888624 92.4427321 84.60208 90.1694364 84.9821458 89.3542676 83.998464 88.5939209 83.0809373 89.0927487 80.8937158 90.7266226 76.6009545 87.9225946 73.0858131 86.9092575 71.0463525 87.9124947 69.8629521 88.7744389 68.8462185 91.1593067 68.806428 95.5471955 69.4713186z"/>
    <polyline stroke="#FE7290" stroke-linecap="round" stroke-linejoin="round" stroke-width="1.5" points="71.658 60.433 72.455 65.205 76.922 68.037 72.455 70.253 72.092 74.301"/>
    <polyline stroke="#FE7290" stroke-linecap="round" stroke-linejoin="round" stroke-width="1.5" points="101.331 67.565 101.971 72.664 106.214 75.357 102.592 78.099 102.144 81.953"/>
    <path fill="#9E867B" d="M66.0185547 45.9260254C66.8077799 44.4102376 67.6756999 43.0114746 68.6223145 41.7297363 70.0422363 39.8071289 71.2845939 38.1905221 72.2949219 39.2773438 72.9684739 40.0018915 73.0938808 42.2181187 72.6711426 45.9260254 71.9670796 45.8689163 71.5236388 45.8689163 71.3408203 45.9260254 70.3904965 46.2228889 69.6424915 47.2612844 69.4093203 47.546875 68.9586367 48.098877 68.0576172 46.3000488 67.2399902 46.3000488 66.6949056 46.3000488 66.2877604 46.1753743 66.0185547 45.9260254zM108.042236 55.1645508C108.355225 55.1064453 108.765381 54.9616699 109.272705 54.7302246 110.033691 54.3830566 113.148193 50.6394043 114.345459 51.262207 115.143636 51.6774089 115.143636 53.6402181 114.345459 57.1506348L113.831543 58.8435059C112.273763 58.607666 111.356445 58.607666 111.07959 58.8435059 110.802734 59.0793457 110.611572 59.0793457 110.506104 58.8435059 110.782796 57.6358236 110.646403 56.8163249 110.096924 56.3850098 109.547445 55.9536947 108.862549 55.546875 108.042236 55.1645508z"/>
    <path fill="#564042" d="M63.2251587,50.0143127 C63.4360962,49.964386 64.5736084,48.3006592 65.4520264,47.5059204 C66.3304443,46.7111816 67.8180576,47.0537061 68.1918335,47.2874451 C68.5656094,47.521184 69.2020264,48.5375061 69.3928223,48.5375061 C69.5836182,48.5375061 70.365436,47.449364 70.7383423,47.1500549 C71.4501412,46.5787374 72.3947449,46.2646484 73.1646729,47.3510742 C73.4824227,47.799443 73.934967,48.9461975 74.0785828,49.541748 C74.2221985,50.1372986 74.5461139,47.7173295 74.0785828,46.8120117 C73.6110516,45.9066939 73.1432031,45.2245505 72.1063843,45.1200256 C71.0695654,45.0155008 69.3928223,46.4687805 69.3928223,46.4687805 C69.3928223,46.4687805 68.0186768,45.4157715 66.9515686,45.5047302 C65.8844604,45.593689 65.1706556,45.6687672 64.1860962,46.8877563 C63.2015368,48.1067455 63.0142212,50.0642395 63.2251587,50.0143127 Z"/>
    <path fill="#564042" d="M104.655469,60.7267729 C104.866407,60.6768462 107.761027,56.9358785 109.705436,59.0953634 C110.389922,59.8555628 110.469994,60.2367463 111.019111,60.2286165 C111.568228,60.2204866 111.867007,59.2884261 112.179008,59.0074994 C112.827638,58.4234703 114.078684,57.2791962 115.256438,58.1601525 C116.434191,59.0411088 117.485556,59.9208003 117.629024,59.7916218 C117.772491,59.6624434 115.576651,55.9482481 113.749403,56.2732503 C111.922156,56.5982524 111.577057,57.6981539 111.191086,58.1255419 C111.115618,58.2091089 111.007454,58.1263768 111.007454,58.1263768 C111.007454,58.1263768 109.447166,56.7844487 108.380058,56.8734074 C107.31295,56.9623662 106.611321,57.5262116 105.626762,58.7452008 C104.642203,59.9641899 104.444532,60.7766997 104.655469,60.7267729 Z" transform="rotate(42 111.108 58.491)"/>
    <path stroke="#564042" stroke-linecap="round" stroke-linejoin="round" stroke-width="1.5" d="M73.0345459 84.8917236C72.4355062 87.9999593 73.1440023 89.7677816 75.1600342 90.1951904 77.1760661 90.6225993 78.9532471 89.0603027 80.4915771 85.5083008 81.0176188 89.578125 82.0417887 91.6740723 83.5640869 91.7961426 85.0863851 91.9182129 86.4814046 90.7690012 87.7491455 88.3485074M48.875 100.176514C49.2597037 100.342536 54.7163971 103.857865 62.8129883 112.477539 66.1781386 116.060096 73.3553467 124.642212 73.6906738 126.293213 74.026001 127.944214 73.4123535 129.691406 71.4697266 130.116699 69.5270996 130.541992 65.3564453 126.928955 65.3564453 126.928955 65.3564453 126.928955 64.0211581 130.965922 58.2606201 129.501221 54.4202615 128.524753 49.8539773 123.620986 44.5617676 114.789917"/>
    <polyline stroke="#564042" stroke-linecap="round" stroke-linejoin="round" stroke-width="1.5" points="113.976 128.209 116.834 136.506 119.691 144.802"/>
    <path stroke="#564042" stroke-linecap="round" stroke-linejoin="round" stroke-width="1.8" d="M46.3706055,47.0439453 C46.3706055,46.2622892 47.1552734,42.2473152 47.1552734,36.7246094 C47.1552734,35.041439 46.8937174,31.9667319 46.3706055,27.5004883 L30.3852539,36.0385742 C30.761551,42.8983186 30.761551,47.725467 30.3852539,50.5200195 C30.0904705,52.709214 29.6572319,55.136789 29.0102539,57.2723999 C28.8909853,57.666094 28.6860699,58.1661957 28.3955078,58.7727051"/>
    <ellipse cx="24.338" cy="58.003" fill="#564042" rx="5" ry="3.5" transform="rotate(6 24.338 58.003)"/>
    <ellipse cx="42.288" cy="46.503" fill="#564042" rx="5" ry="3.5" transform="rotate(6 42.288 46.503)"/>
    <ellipse cx="111.338" cy="31.003" fill="#564042" rx="5" ry="3.5" transform="rotate(6 111.338 31.003)"/>
    <path stroke="#564042" stroke-linecap="round" stroke-linejoin="round" stroke-width="1.8" d="M31.2015832 40.88735C31.5635045 40.6740584 36.7262091 37.9017126 46.6896973 32.5703125M114.641113 32.1064453C115.183187 31.822347 115.454224 31.3468424 115.454224 30.6799316 115.454224 30.0130208 115.549479 22.5904134 115.73999 8.41210938 116.4309 9.62158921 117.416088 10.5233633 118.695557 11.1174316 120.614759 12.0085342 120.742432 10.5863037 123.171509 11.7575684 124.790894 12.5384115 125.411255 14.1997477 125.032593 16.7415771"/>
  </g>
</svg>
