<svg xmlns="http://www.w3.org/2000/svg" xmlns:xlink="http://www.w3.org/1999/xlink" width="180" height="180" viewBox="0 0 180 180">
  <defs>
    <path id="face_palm_cat-a" d="M62.3876953,35.3203125 C63.8817896,35.3203125 69.7534775,32.8828125 77.3422852,32.8828125 C84.9310928,32.8828125 87.0133192,34.0604661 91.8813477,35.3203125 C92.2648134,35.4195535 93.7718533,35.306308 95.0740994,31.6122162 C96.3763455,27.9181244 99.2685349,10.4499834 108.998535,11.4458008 C114.301555,11.9885387 117.731479,36.9677185 118.604617,89.5732087 C118.838814,103.683322 118.604617,138.378751 118.604617,139.017578 C118.604617,139.656406 123.641741,133.052246 127.712053,128.68457 C131.782366,124.316895 152.325334,105.939941 158.961077,112.676758 C165.596819,119.413574 154.76967,132.842285 143.658342,140.542969 C134.303813,147.026106 124.992775,154.583008 117.423967,154.583008 C116.614885,154.583008 116.614885,155.513672 115.981584,157.261719 C115.348284,159.009766 114.131243,159.892334 113.729631,160.346191 C107.899272,166.935029 95.4334879,169.795448 76.350725,170.041504 C57.2679621,170.28756 41.3676758,165.582802 37,161.172363 C34.0882161,158.232071 32.554891,152.484675 32.4000244,143.930176 C31.8926194,112.894873 31.9985773,91.9491244 32.7178982,81.0929291 C36.5274685,23.5978119 42.6508789,11.4458008 46.2041016,11.4458008 C52.934014,11.4458008 58.32397,29.2344289 59.5145291,31.26456 C60.7050882,33.294691 60.893601,35.3203125 62.3876953,35.3203125 Z"/>
  </defs>
  <g fill="none" fill-rule="evenodd" transform="translate(-1)">
    <rect width="180" height="180" y="1"/>
    <g stroke-linecap="round" stroke-linejoin="round">
      <use fill="#C7AA93" xlink:href="#face_palm_cat-a"/>
      <path stroke="#FFF" stroke-width="5" d="M62.9583264,32.6953576 C63.1472808,32.6500667 63.381477,32.5918793 63.6585756,32.5198539 C63.8291292,32.4755224 64.8267358,32.2123528 65.1471206,32.129216 C65.8148575,31.9559447 66.4055443,31.8087768 67.0096768,31.6673619 C70.5277277,30.8438591 73.8385463,30.3828125 77.3422852,30.3828125 C82.0094099,30.3828125 84.8520919,30.7706846 88.2666514,31.709382 C88.3666358,31.7368687 90.4639404,32.3413991 91.7845093,32.7051829 C92.0522659,32.358239 92.3792436,31.7372139 92.716313,30.7810463 C92.6137143,31.0720889 94.5854118,23.8744826 95.6846864,20.9647068 C98.6993457,12.9849149 102.908707,8.30947797 109.253068,8.95879195 C113.815315,9.42571538 116.136418,16.3831733 117.943037,30.6723882 C119.609555,43.853496 120.672246,63.5026475 121.104273,89.5317198 C121.18453,94.3671155 121.215685,101.876899 121.207438,111.365741 C121.202574,116.962258 121.184319,122.936659 121.156635,129.061624 C121.151955,130.097143 121.146265,131.262568 121.140388,132.421578 C121.819152,131.613877 122.467937,130.844549 122.849691,130.398778 C123.181682,130.011115 123.501494,129.640918 123.812053,129.28508 C124.555747,128.432955 125.242651,127.667422 125.883124,126.980159 C128.9967,123.639115 135.403911,118.143484 140.991768,114.433699 C149.708186,108.646859 156.554104,106.670561 160.742154,110.922402 C168.31723,118.61286 159.434312,132.65117 145.082395,142.597737 C144.0823,143.290851 143.097929,143.984499 141.619671,145.034279 C134.872899,149.825474 132.710877,151.295307 129.455254,153.137791 C125.416099,155.423705 121.92605,156.749611 118.692192,157.027809 C118.571746,157.406716 118.430535,157.841531 118.332082,158.113282 C117.995453,159.04245 117.524477,159.853989 116.941948,160.586041 C116.471781,161.176891 115.444123,162.18118 115.601873,162.002909 C109.31992,169.102088 96.707045,172.279234 76.3829577,172.541296 C58.2278587,172.775391 40.7101126,168.471685 35.2236423,162.931498 C31.7488157,159.422649 30.0658829,153.114477 29.9003585,143.971044 C29.3918492,112.868203 29.4980505,91.8743414 30.223368,80.927644 C33.5616984,30.5446143 38.7395571,8.94580078 46.2041016,8.94580078 C50.7051771,8.94580078 54.1563118,13.1419403 57.609189,20.3717788 C59.0034154,23.2910925 61.6454358,29.9562021 61.6710505,29.99988 C61.9539288,30.4822417 62.1954509,30.9664803 62.4541734,31.5451353 C62.5343769,31.7245173 62.8748197,32.5130607 62.9583264,32.6953576 Z"/>
      <use stroke="#564042" stroke-width="3" xlink:href="#face_palm_cat-a"/>
    </g>
    <path fill="#D7C5AF" d="M59.8275316,37.8591309 C66.582304,36.8798014 72.6855755,36.3901367 78.1373461,36.3901367 C83.5891166,36.3901367 88.353114,37.011556 92.4293383,38.2543945 C93.5605232,38.9825846 94.6889411,38.3611654 95.8145922,36.3901367 C96.5206972,35.1537382 98.1538488,31.1704081 99.9085863,26.8808594 C102.349872,20.9130076 105.188744,14.4111328 107.537004,14.4111328 C110.764055,14.4111328 112.371477,25.4172363 112.993547,42.5549316 C113.615618,59.692627 113.615618,63.5332031 111.928118,75.5507813 C110.240618,87.5683594 108.108293,82.8994141 106.787737,91.4992676 C106.052262,96.2888954 107.032946,105.120265 106.171037,111.809814 C105.485376,117.131458 103.55092,121.831543 101.229631,121.831543 C98.9083422,121.831543 96.7916913,121.058735 95.0282152,114.618408 C94.5155199,112.746012 93.2664965,107.848714 91.2811449,99.9265137 L90.5140551,99.5231934 C91.1908129,119.454671 87.5584887,129.42041 79.6170824,129.42041 C67.704973,129.42041 66.5997484,112.030029 66.5997484,103.432129 C66.5997484,94.8342285 67.8458392,91.8360082 69.0257738,86.7143555 C70.2057084,81.5927028 76.0236409,66.4291992 74.6192797,64.2172852 C73.2149185,62.0053711 70.7115648,63.8659668 70.7115648,64.2172852 C70.7115648,64.5686035 73.3016527,61.0964355 71.2039965,59.7880859 C69.805559,58.9158529 68.0281338,59.0546875 65.8717211,60.2045898 C66.2795987,59.2905273 65.6081306,58.4462891 63.8573168,57.671875 C61.2310961,56.5102539 55.7860277,63.0947266 53.2862719,68.1826172 C51.619768,71.5745443 49.975725,75.3924154 48.354143,79.6362305 C45.3334724,90.8453776 43.8231371,96.4499512 43.8231371,96.4499512 C43.8231371,96.4499512 41.2165826,91.7259879 39.729143,82.8493652 C38.85124,77.6102868 37.956682,77.828125 39.3497484,56.079834 C40.7428148,34.331543 42.7823962,16.1808085 46.7110766,15.7407227 C50.3573168,15.3322754 57.3565844,35.1499023 58.0074633,36.7568359 C58.4413825,37.828125 59.048072,38.1955566 59.8275316,37.8591309 Z"/>
    <path fill="#9E867B" d="M47.5880297 23.7827148C49.6607836 23.1197917 52.0580818 27.4869792 54.7799242 36.8842773 53.4511482 36.0296224 52.504615 35.7234701 51.9403246 35.9658203 51.0938891 36.3293457 50.5401781 39.2512207 50.5401781 39.2512207 50.5401781 39.2512207 49.4022387 37.3925781 46.8792894 38.0656738 45.0637286 38.5500459 44.0245531 42.6587734 44.0245531 42.2744141 44.0245531 41.5471191 44.4788988 24.7770996 47.5880297 23.7827148zM106.67592 22.4453125C109.468549 22.5524963 110.340776 39.2946777 110.206926 40.413208 110.073076 41.5317383 109.788713 37.2233276 109.020403 36.8637695 107.697975 36.2448926 107.132829 37.8361816 106.870561 37.8361816 106.608293 37.8361816 106.67592 35.072937 104.951311 34.9490356 103.801571 34.8664347 103.063249 35.5345256 102.736345 36.9533081 102.514869 35.6171265 102.063433 34.8239543 101.382036 34.5737915 100.70064 34.3236287 100.129066 34.4487101 99.6673143 34.9490356 100.087118 34.2700293 100.430237 33.6139217 100.696672 32.9807129 103.62323 26.0254681 104.257158 22.352478 106.67592 22.4453125z"/>
    <path fill="#564042" d="M50.7683886 39.7288208C51.3562314 39.7288208 50.652849 37.2319946 51.9460619 36.4209595 52.8082038 35.8802694 53.7339851 36.1054687 54.7234057 37.0965576 54.6545173 36.3077393 54.3209398 35.7641602 53.7226732 35.4658203 52.8252733 35.0183105 51.9939318 35.255692 51.1333178 35.7478027 50.2727037 36.2399135 50.0727709 37.6416016 49.9176195 37.6416016 49.8453632 37.6416016 49.1356374 37.1867221 48.3200243 37.0965576 47.5044112 37.0063931 46.3322924 37.2525635 46.3322924 37.2525635 46.3322924 37.2525635 45.0831384 37.7096347 44.2705858 39.6055908 43.876125 40.5259994 43.4389857 43.4476048 43.6428392 43.5279541 43.8466928 43.6083034 43.9512467 43.3960851 44.0179003 43.262207 44.3402577 42.6147315 44.6662767 40.8641968 45.2039354 39.9329834 45.6275992 39.1992068 46.1694286 38.6599001 46.8294237 38.3150635 47.517412 38.1319173 48.1229825 38.1319173 48.6461351 38.3150635 49.2348003 38.5211443 49.6410082 38.6427612 49.9176195 38.8942261 50.1942308 39.1456909 50.4391039 39.7288208 50.7683886 39.7288208zM102.925798 35.6124268C103.317066 35.6124268 103.645859 34.9560247 104.16469 34.6346436 104.535163 34.4051599 104.988298 34.4051599 105.45363 34.6346436 106.093729 34.9503151 106.670633 35.5223366 107.184343 36.350708 107.837338 35.9627686 108.493629 35.9627686 109.153215 36.350708 109.452217 36.5265678 109.936418 36.8997803 110.114275 37.5992432 110.459149 38.955542 110.157714 40.8299561 109.936418 40.8299561 109.772268 40.8299561 109.841322 39.5906823 109.673967 38.6904297 109.517992 37.8513912 109.139972 37.3502748 108.619646 37.2681274 107.541033 37.0978394 107.480486 37.8413086 107.184343 38.1256104 106.888201 38.4099121 106.748874 37.4661718 106.541033 36.8997803 106.30349 36.2524495 105.752468 35.7176969 105.229143 35.6124268 104.549346 35.4756814 103.739397 35.6124268 103.251238 36.8997803 103.147788 37.1725934 102.621416 37.1725934 102.380327 37.0917358 102.139238 37.0108783 102.403476 36.3732288 102.118913 35.8863525 101.758688 35.2700189 101.309316 35.015401 100.745806 34.9197998 100.226128 34.8316351 99.6334256 35.1320296 99.305559 35.6124268 98.9970585 36.0644482 98.8588612 36.7044803 98.6976488 36.6696777 98.3651039 36.5978878 98.6928731 35.292912 99.305559 34.6346436 99.9182448 33.9763751 100.281947 33.730152 101.343645 34.0174561 102.405343 34.3047601 102.255144 35.6124268 102.925798 35.6124268zM65.5709398 46.5161133C63.2415941 47.1933594 62.1812914 48.4460449 61.4815844 48.1025391 60.7818773 47.7590332 62.1812914 44.7208252 64.4554613 43.5755615 66.7296312 42.4302979 67.6897142 42.668335 68.1903246 43.0977783 68.6909349 43.5272217 69.2074144 44.8833982 68.1903246 45.4476195 67.1732348 46.0118408 67.9002855 45.8388672 65.5709398 46.5161133zM87.3250902 43.7945557C88.8007372 43.7945557 89.510161 43.9604159 90.3613451 44.3440552 92.762536 45.4263018 93.902745 46.9441237 93.6326464 47.1976318 93.3703173 47.4438477 90.3426683 46.9857788 88.8205736 46.7738037 87.2984789 46.5618286 86.5873583 46.5618286 86.0346239 46.3140869 85.4818895 46.0663452 84.8324144 45.5530396 85.0343187 44.864502 85.236223 44.1759644 85.8494432 43.7945557 87.3250902 43.7945557z"/>
    <path fill="#564042" fill-rule="nonzero" d="M93.289292 63.9519504C96.1353186 64.1007269 98.470893 64.6748455 100.293491 65.6871114 100.655603 65.8882275 100.786116 66.3448141 100.585 66.7069263 100.383884 67.0690384 99.9272976 67.1995515 99.5651854 66.9984355 97.9620023 66.1080321 95.8447772 65.5875869 93.2109861 65.4499051 90.5438855 65.310482 87.919094 65.5558114 85.3342974 66.1860506 84.7353471 66.33209 84.2257921 65.7332665 84.4658057 65.1654088 85.1179487 63.6224779 86.4950842 62.2920197 88.5669815 61.1567228 90.6579442 60.010979 93.0070103 59.6750088 95.5848252 60.1435601 95.9923615 60.2176351 96.2626852 60.6080582 96.1886102 61.0155944 96.1145352 61.4231306 95.7241121 61.6934543 95.3165759 61.6193793 93.0678934 61.2106521 91.0680826 61.4966708 89.2877888 62.4721835 88.2150534 63.0599893 87.3778448 63.687678 86.7697571 64.3515816 88.9166229 63.9702264 91.0901699 63.8369909 93.289292 63.9519504zM75.2707225 63.3670677C76.5256373 64.3885485 76.6882307 65.9519791 75.8615224 67.8618912L75.7811156 68.0032608C72.0623496 73.1491464 69.1911342 79.0643483 67.1679623 85.7523191 65.142124 92.449104 64.0373368 100.091134 63.856418 108.678639 63.8476934 109.092761 63.5049088 109.4214 63.0907871 109.412675 62.6766654 109.403951 62.3480262 109.061166 62.3567507 108.647045 62.5404153 99.9292111 63.6646319 92.152784 65.7322182 85.3179934 67.7935792 78.5037814 70.7214109 72.4609131 74.5161998 67.1927968 75.0671147 65.8825829 74.9704776 65.0567836 74.3237939 64.5303932 73.6539265 63.9851317 72.5310541 64.0841711 70.867109 64.9862453 70.1941798 65.3510603 69.4713019 64.5919233 69.8685887 63.9376398 71.0951748 61.9175999 71.2428232 60.6696616 70.5732365 60.0549113 69.8964293 59.4335318 68.4511787 59.7125403 66.1848915 61.1577535 65.7282886 61.4489294 65.1230356 61.1750203 65.0404134 60.6398165 64.7847346 58.983598 64.1651145 58.2927246 63.1065844 58.2927246 61.9234119 58.2927246 60.8972964 58.9715475 59.7057429 60.3456808 59.5706944 60.5014225 59.4335822 60.6653281 59.2737855 60.8609219 59.1800759 60.975624 58.8650337 61.3653499 58.8649986 61.3653931 57.4019692 63.1684077 54.0383141 68.3849525 52.7794787 71.0471668 50.0931619 76.7282519 48.9597077 79.6623078 47.4672158 84.6008781 45.6012953 90.7751026 45.0438585 93.1893495 44.9107267 96.679225 44.8949368 97.0931375 44.5465941 97.4158796 44.1326817 97.4000896 43.7187692 97.3842997 43.3960271 97.035957 43.411817 96.6220446 43.5513771 92.9636591 44.1292584 90.4608675 46.0313533 84.1669442 47.5454486 79.1568891 48.7056506 76.1535942 51.4234361 70.4059582 52.7361991 67.6296966 56.1646432 62.3126732 57.7002209 60.4202514 57.6980904 60.4228769 58.0155333 60.0301813 58.1121669 59.9119002 58.2805338 59.7058163 58.4266331 59.5311675 58.5724697 59.3629845 60.0221 57.6912298 61.3802895 56.7927246 63.1065844 56.7927246 64.689863 56.7927246 65.7627948 57.6992131 66.2816045 59.3519228 68.6138593 58.0509767 70.3948531 57.8548266 71.5876862 58.9499716 72.5915673 59.871639 72.7198859 61.1967996 72.0803434 62.8682848 73.3526231 62.5292686 74.4253035 62.6789101 75.2707225 63.3670677z"/>
    <path fill="#564042" fill-rule="nonzero" d="M58.2971361,61.4282227 C58.0027514,61.4282227 57.7479807,61.2586152 57.6252113,61.0117877 C57.4952307,60.9694345 57.2912956,60.9161004 57.0106953,60.8594188 C56.1926028,60.6941633 55.2828275,60.6941633 54.278759,60.8637888 C53.8703327,60.9327876 53.4833032,60.6576273 53.4143043,60.249201 C53.3453055,59.8407747 53.6204659,59.4537452 54.0288922,59.3847464 C55.2069891,59.1857208 56.3007945,59.1857208 57.307698,59.3891163 C58.6553042,59.6613342 59.2613616,60.0498814 59.027183,60.8508079 C58.9492272,61.1818287 58.6519559,61.4282227 58.2971361,61.4282227 Z"/>
    <path stroke="#564042" stroke-linecap="round" stroke-linejoin="round" stroke-width="1.5" d="M49.9690111,65.7192383 C51.1591967,64.9955241 52.1207242,64.5343424 52.8535936,64.3356934 C53.5864631,64.1370443 54.5479906,64.1370443 55.7381762,64.3356934"/>
    <path fill="#564042" fill-rule="nonzero" d="M94.4342211 130.686035C92.5163762 130.686035 91.6586681 129.214152 91.8621996 126.809326L91.8621996 115.240967C91.8621996 110.793645 91.3189952 105.699702 90.2310388 99.9612372 90.1538824 99.5542731 90.4212444 99.1618159 90.8282085 99.0846595 91.2351726 99.0075032 91.6276298 99.2748651 91.7047862 99.6818292 92.8092126 105.507166 93.3621996 110.692846 93.3621996 115.240967 93.3621996 121.666748 93.3621996 121.666748 93.3595956 126.87177 93.2174238 128.573446 93.5743967 129.186035 94.4342211 129.186035 95.5902247 129.186035 96.4311452 128.784303 97.0327954 127.962483 97.4140365 127.441728 98.231306 127.613706 98.3703452 128.243942 98.8866942 130.584446 99.7271506 131.620605 100.854143 131.620605 101.968363 131.620605 102.605807 130.82017 102.809498 128.899658 102.878982 128.244521 103.698852 127.990868 104.126159 128.492307 104.912582 129.41516 105.746557 129.850464 106.662248 129.850464 107.547652 129.850464 108.648364 127.466646 108.780414 125.514686 108.810482 125.070214 108.980433 122.829034 109.028686 122.135179 109.24086 119.084228 109.353533 116.272134 109.353533 112.977173 109.353533 107.601412 108.604262 100.218933 108.2116 99.3135538 108.046789 98.9335404 108.221245 98.4918729 108.601258 98.3270617 108.981271 98.1622505 109.422939 98.3367063 109.58775 98.7167197 110.0902 99.8752426 110.853533 107.396272 110.853533 112.977173 110.853533 116.309875 110.739503 119.155834 110.525072 122.239243 110.476347 122.939878 110.30654 125.179162 110.276993 125.615929 110.095689 128.295962 108.685293 131.350464 106.662248 131.350464 105.714107 131.350464 104.834911 131.047479 104.035638 130.458297 103.534877 132.177937 102.466945 133.120605 100.854143 133.120605 99.1687567 133.120605 97.9767525 131.973433 97.2554746 129.840807 96.480574 130.402393 95.5323101 130.686035 94.4342211 130.686035zM117.132531 132.707966C117.138082 132.293789 117.478339 131.962534 117.892515 131.968085 118.306691 131.973636 118.637947 132.313893 118.632396 132.728069 118.578771 136.728876 118.408674 141.196354 118.122169 146.130875 117.83105 151.144862 116.915892 155.276768 115.366633 158.527503 115.188428 158.901423 114.740842 159.06008 114.366923 158.881875 113.993004 158.70367 113.834346 158.256084 114.012551 157.882165 115.469965 154.824143 116.344032 150.877762 116.624691 146.04393 116.909964 141.130631 117.079222 136.685186 117.132531 132.707966zM73.5784948 77.5771275C73.1926756 77.5525801 72.8998069 77.2199123 72.9243543 76.8340931 72.9489017 76.4482738 73.2815696 76.1554052 73.6673888 76.1799526 75.1361128 76.2733988 76.2837063 76.341444 77.1094595 76.3840602 77.9164915 76.4257103 79.0493982 76.4257103 80.5034732 76.3834257 80.8899092 76.3721881 81.2122873 76.6763465 81.2235249 77.0627824 81.2347625 77.4492184 80.9306041 77.7715965 80.5441681 77.7828341 79.0556951 77.826119 77.8883088 77.826119 77.037303 77.7821995 76.2050184 77.7392462 75.0523189 77.6708982 73.5784948 77.5771275z"/>
    <path fill="#D7C5AF" d="M50.7358568 95.2578125C53.4950471 96.9237428 59.6816465 87.2376943 62.1192797 81.0480957 64.5569128 74.8584971 66.2956952 65.1545183 63.434099 63.4267578 60.5725028 61.6989974 55.577489 68.3893326 52.8065355 75.425293 50.035582 82.4612533 47.9766665 93.5918822 50.7358568 95.2578125zM155.655168 115.805664C153.846506 113.676514 147.356609 117.0703 140.444475 123.073975 133.532341 129.077649 128.298716 136.178247 129.911028 138.16626 131.52334 140.154273 140.493128 137.012873 147.169817 131.366455 153.846506 125.720037 157.463831 117.934814 155.655168 115.805664z"/>
  </g>
</svg>
