<svg xmlns="http://www.w3.org/2000/svg" xmlns:xlink="http://www.w3.org/1999/xlink" width="180" height="180" viewBox="0 0 180 180">
  <defs>
    <path id="pleading_cat-a" d="M48.6755371,34.0805664 C49.7530111,34.7140299 50.6655273,34.8817546 51.4130859,34.5837402 C60.7450922,30.8635348 68.5820981,29.7141113 73.3762207,29.7141113 C78.4237467,29.7141113 83.1031901,30.5043945 87.4145508,32.0849609 C89.0931907,32.6899414 90.5786694,32.3969727 91.8709872,31.2060547 C93.8094637,29.4196777 101.044678,19.171875 102.743164,17.0751953 C104.44165,14.9785156 108.401123,11.8967285 111.093018,19.2390137 C113.784912,26.5812988 114.4646,52.1054688 117.417969,82.2988281 C119.386882,102.427734 120.182454,122.725911 119.804687,143.193359 C130.058182,122.39172 136.777257,110.061316 139.961914,106.202148 C144.7389,100.413397 150.70459,97.1757813 153.810303,101.985352 C156.916016,106.794922 156.491699,117.970947 147.298584,132.60083 C141.16984,142.354085 132.005208,149.11849 119.804687,152.894043 C117.263346,162.480306 113.7382,167.273438 109.229248,167.273438 C102.46582,167.273438 88.1123047,165.282227 76.5253906,166.763184 C64.9384766,168.244141 38.5131836,171.96875 34.0756836,167.647461 C29.6381836,163.326172 34.2475586,150.163086 34.9570312,121.22168 C35.6665039,92.2802734 33.3994141,80.3046875 31.1899414,57.8208008 C28.9804687,35.3369141 27.8930749,32.7461751 27.9931641,28.4111328 C28.0932532,24.0760905 28.7019043,20.7900391 32.0449219,20.7900391 C34.2736003,20.7900391 37.2075195,22.5585937 40.8466797,26.0957031 L48.6755371,34.0805664 Z"/>
  </defs>
  <g fill="none" fill-rule="evenodd" transform="translate(0 -2)">
    <rect width="180" height="180"/>
    <g stroke-linecap="round" stroke-linejoin="round">
      <use fill="#C7AA93" xlink:href="#pleading_cat-a"/>
      <path stroke="#FFF" stroke-width="5" d="M50.2020104,32.0665238 C50.3659925,32.1477243 50.4987573,32.1965572 50.5966907,32.2179538 C59.0745531,28.8519537 67.2098604,27.2141113 73.3762207,27.2141113 C78.7105798,27.2141113 83.6810902,28.0535511 88.2621806,29.7330418 C89.0682235,30.023539 89.5731218,29.9239621 90.1768165,29.3676353 C90.8333156,28.7626475 92.6047637,26.5119857 95.240514,22.9676043 C95.3783881,22.7821302 95.3783881,22.7821302 95.5162371,22.5964258 C96.2692788,21.5816221 98.7878358,18.1625512 98.6422045,18.359775 C99.7538333,16.8543316 100.393775,16.0037236 100.800584,15.5015426 C102.311344,13.6366003 104.188657,12.2863169 106.359641,12.1244156 C109.450242,11.8939339 111.877786,14.1167878 113.440237,18.378455 C114.694361,21.7991462 115.51736,28.0790382 116.489168,40.002324 C116.801274,43.8316113 117.987562,59.6734418 117.960448,59.319214 C118.624945,68.0005526 119.217462,75.0153153 119.906094,82.0554517 C121.536039,98.7189659 122.365691,115.497495 122.395096,132.390771 C130.057217,117.209186 135.224794,108.014758 138.033688,104.61094 C140.762647,101.303987 143.764484,98.8585048 146.632529,97.7794947 C150.316446,96.3935389 153.762208,97.3023015 155.910494,100.629182 C160.223015,107.307639 158.097545,120.114175 149.415359,133.930967 C143.182213,143.850368 133.963514,150.838429 121.854753,154.861777 C119.059797,164.577795 114.992521,169.773438 109.229248,169.773438 C107.173007,169.773438 107.311886,169.781667 99.1450941,169.238931 C93.7101506,168.877744 90.0074916,168.710661 86.209136,168.71552 C82.7402593,168.719957 79.630161,168.886691 76.8423444,169.24301 C76.1327186,169.33371 73.2248457,169.710093 72.5727006,169.793869 C70.688828,170.035874 69.0996243,170.235316 67.5108835,170.427265 C64.0511817,170.845261 60.9121892,171.187756 57.9305073,171.462486 C43.894064,172.75579 35.4750961,172.499771 32.3315247,169.438525 C30.2159857,167.378388 29.5563274,164.370731 29.686274,159.517306 C29.7362167,157.651978 29.8961197,155.504255 30.2011709,152.330226 C30.2726598,151.586391 30.9162291,145.196752 31.119117,143.036194 C31.8321363,135.443238 32.2731235,128.693162 32.4577821,121.160413 C32.8470247,105.282099 32.4050567,94.1802865 31.0926136,80.7890213 C30.7609574,77.4050304 29.2260103,63.3147799 28.8282718,59.3393678 C28.7855856,58.9127185 28.7434924,58.4882841 28.7019257,58.065296 C27.4955448,45.7890036 25.5241064,30.9412767 25.4926627,29.491062 C25.4845135,29.1152116 25.48491,28.7397747 25.4938301,28.3534272 C25.5589476,25.5330717 25.8195601,23.5945279 26.5040089,21.9926549 C27.5039599,19.652386 29.4207199,18.2900391 32.0449219,18.2900391 C35.1057114,18.2900391 38.5205505,20.3484903 42.6317992,24.3454608 L50.2020104,32.0665238 Z"/>
      <use stroke="#564042" stroke-width="3" xlink:href="#pleading_cat-a"/>
    </g>
    <path fill="#D7C5AF" d="M50.0788574 39.9128418C57.9398267 36.9460942 65.0652336 35.279102 71.4550781 34.9118652 77.8449226 34.5446284 84.4334643 35.4234533 91.2207031 37.5483398 92.1661784 37.9217122 93.0786133 37.5332031 93.9580078 36.3828125 95.2770996 34.6572266 101.071289 25.828125 102.039307 24.8769531 103.007324 23.9257812 107.199463 16.2233887 108.783691 27.355957 109.888464 35.1193313 114.909994 62.1794448 102.039307 77.6437988 96.0859375 84.796875 86.7985735 85.3185519 72.244873 87.0852051 47.7333171 90.0606283 34.4685872 73.1598307 32.4506836 36.3828125 31.269043 28.9801432 31.9599609 25.9354655 34.5234375 27.2487793 38.3686523 29.21875 45.9536705 38.5491777 47.1069336 39.5319824 47.8757757 40.1871856 48.866417 40.3141387 50.0788574 39.9128418zM69.6223145 100.515869C68.1169434 97.7670898 63.390625 103.414307 57.3798828 103.87207 51.3691406 104.329834 47.2624512 100.515869 46.0600586 103.87207 44.857666 107.228271 47.560791 111.797119 56.8325195 110.730957 66.104248 109.664795 71.1276855 103.264648 69.6223145 100.515869zM86.4179687 94.5307617C88.7514648 93.1916504 90.7536621 98.067627 97.1386719 98.067627 103.523682 98.067627 106.791016 96.7231445 108.209717 99.4699707 109.628418 102.216797 107.463135 108.287842 96.4248047 105.711914 85.3864746 103.135986 84.0844727 95.869873 86.4179687 94.5307617zM76.7207031 116.427734C88.244873 114.603271 99.2700195 118.745117 101.927246 123.816895 104.584473 128.888672 97.9404297 147.402344 80.1801758 148.64502 62.4199219 149.887695 54.9528809 138.611084 53.8039551 130.388428 52.6550293 122.165771 65.1965332 118.252197 76.7207031 116.427734zM127.415039 138.580566C130.900391 138.580566 137.966626 129.692064 142.359619 123.004639 146.752612 116.317214 152.018066 106.845947 147.988037 106.054199 143.958008 105.262451 137.955595 115.355102 133.504395 122.098877 129.053194 128.842652 123.929687 138.580566 127.415039 138.580566z"/>
    <path fill="#9E867B" d="M35.9912109 47.5817871C34.3883464 38.1237793 34.2385254 33.0597331 35.541748 32.3896484 37.9698898 31.1411584 38.1017836 34.7265933 41.6652832 38.3256836 42.314765 38.9816521 43.5866562 40.0203077 45.480957 41.4416504 43.5891927 40.6465658 42.3173014 40.6465658 41.6652832 41.4416504 41.013265 42.236735 40.681071 42.9482422 40.6687012 43.5761719 39.2182821 42.7019091 38.3092652 42.5458218 37.9416504 43.1079102 37.0020345 44.5445964 36.351888 46.0358887 35.9912109 47.5817871zM96.5935059 37.987793C100.401286 30.9492187 103.079997 27.6875814 104.629639 28.2028809 106.179281 28.7181803 106.64624 32.9981283 106.030518 41.0427246 105.430855 39.4308003 104.826688 38.4124897 104.218018 37.987793 103.609347 37.5630962 102.619194 37.5630962 101.247559 37.987793 101.247559 37.3453776 100.973877 36.8933919 100.426514 36.6318359 99.8791504 36.3702799 98.6014811 36.8222656 96.5935059 37.987793z"/>
    <ellipse cx="58" cy="60.5" fill="#FFF" rx="12" ry="11.5"/>
    <ellipse cx="90" cy="57.5" fill="#FFF" rx="12" ry="11.5"/>
    <circle cx="59.5" cy="58.5" r="9.5" fill="#564042"/>
    <circle cx="88.5" cy="55.5" r="9.5" fill="#564042"/>
    <circle cx="56" cy="58" r="3" fill="#FFF"/>
    <circle cx="85" cy="56" r="3" fill="#FFF"/>
    <path fill="#FFF" d="M60.0518362,51.2809371 C59.6978199,52.063527 61.2312058,53.6450637 62.3990042,54.6315231 C63.5668026,55.6179824 65.3202688,56.5593795 65.792803,55.9712447 C66.2653372,55.38311 65.1619554,53.6548647 63.8791067,52.5712203 C62.596258,51.487576 60.4058526,50.4983472 60.0518362,51.2809371 Z"/>
    <path fill="#FFF" d="M89.1399605,48.3823964 C88.7859442,49.1649863 90.3193301,50.746523 91.4871285,51.7329823 C92.6549269,52.7194417 94.4083932,53.6608388 94.8809273,53.072704 C95.3534615,52.4845692 94.2500798,50.7563239 92.9672311,49.6726796 C91.6843823,48.5890352 89.4939769,47.5998065 89.1399605,48.3823964 Z" transform="rotate(-2 92.04 50.678)"/>
    <path stroke="#564042" stroke-linecap="round" stroke-linejoin="round" stroke-width="1.2" d="M46.3989258,63.3029785 C46.3989258,62.989502 45.0168457,50.5905762 55.6408691,48.6818848 C66.2648926,46.7731934 69.9060059,55.9089987 69.9060059,60.2189941"/>
    <path stroke="#564042" stroke-linecap="round" stroke-linejoin="round" d="M42.8178711 61.4018555L46.0450383 61.4018555M44.5 58.4018555L46.0450383 58.4018555"/>
    <path stroke="#563E41" stroke-linecap="round" stroke-linejoin="round" stroke-width="1.2" d="M78.0891113,57.8498535 C78.1394043,50.6247559 81.7421061,46.7013346 88.8972168,46.0795898 C99.6298828,45.1469727 101.454102,54.2175293 101.454102,57.8498535"/>
    <path stroke="#979797"/>
    <path stroke="#563E41" stroke-linecap="round" stroke-linejoin="round" d="M104.643066 52C104.067013 52.359665 103.588172 52.6219127 103.206543 52.7867432 102.824914 52.9515736 102.0894 53.2138213 101 53.5734863M102.68457 49.3210449C102.388465 49.6207327 102.049598 49.8529918 101.667969 50.0178223 101.28634 50.1826527 100.602339 50.4149118 99.6159668 50.7145996"/>
    <path fill="#564142" d="M95.494873 41.817627C94.8546143 42.7286377 96.47112 43.1539202 98.0435791 44.5748291 99.6160382 45.995738 100.910034 47.4298096 101.42627 47.1773682 101.942505 46.9249268 101.636108 43.9852295 99.6542969 42.4459229 97.6724854 40.9066162 96.1351318 40.9066162 95.494873 41.817627zM47.4669189 47.4960938C46.3934326 46.4527588 44.6845703 48.3500977 44.0241699 49.7468262 43.3637695 51.1435547 43.5307617 54.1968994 44.2172852 54.4101563 44.9038086 54.6234131 44.6196289 52.8056641 45.5817417 50.8949586 46.5438546 48.9842532 48.5404053 48.5394287 47.4669189 47.4960938z"/>
    <path fill="#563E41" d="M41.7075195,44.1972656 C41.7075195,44.1972656 39.2191756,42.4786226 37.7026367,44.1972656 C36.3588867,45.7200928 37.2638157,49.3061523 37.0383301,49.3061523 C35.9719238,49.3061523 35.3781738,45.1191406 36.2307129,43.2927246 C36.7990723,42.0751139 38.2674154,41.7587891 40.6357422,42.34375 C40.5340169,40.9091797 41.2324219,40.0556641 42.730957,39.7832031 C44.9787598,39.3745117 46.9960938,41.96925 46.9960938,42.34375 C46.9960938,42.71825 43.9547186,40.9161997 42.730957,41.3937988 C41.7315017,41.7838577 41.9300299,43.6154488 41.9454346,44.1972656 C41.9488918,44.3278419 41.7075195,44.1972656 41.7075195,44.1972656 Z"/>
    <path stroke="#563E41" stroke-linecap="round" stroke-linejoin="round" d="M96.7098389,37.9229736 C98.3551839,36.4472249 99.6442057,35.878418 100.576904,36.2165527 C101.509603,36.5546875 101.891459,37.2303874 101.722473,38.2436523 C103.358988,37.8087115 104.528646,37.9233649 105.231445,38.5876127 C105.934245,39.2518605 106.285645,40.0737305 106.285645,41.0532227"/>
    <path stroke="#563E41" stroke-linecap="round" stroke-linejoin="round" stroke-width="1.3" d="M65.9111328,72.2165527 C65.5869141,73.560791 67.3381348,76.7739258 70.293457,76.1657715 C72.2636719,75.7603353 73.665222,73.714681 74.4981073,70.0288086 C75.8940631,73.6933594 77.5892741,75.5256348 79.5837402,75.5256348 C79.7014584,75.5256348 79.8160018,75.5226803 79.9274131,75.5168581 C82.6474157,75.3747128 83.5005203,73.523211 83.1079102,71.2229004"/>
    <path stroke="#564042" stroke-linecap="round" stroke-linejoin="round" stroke-width="1.5" d="M46.2984619,91.7783203 C50.0989333,97.4007199 54.1958978,100.145267 58.5893555,100.011963 C62.9828131,99.8786583 67.3560228,96.8771121 71.7089844,91.0073242 C72.7428385,89.1872559 73.8062744,88.487264 74.899292,88.9073486 C76.5388184,89.5374756 75.6834717,91.7783203 75.6834717,91.7783203 C75.6834717,91.7783203 78.598999,91.3325195 79.3808594,93.4868164 C80.1627197,95.6411133 77.1925049,94.8515625 78.010498,96.0141602 C78.8284912,97.1767578 80.7241211,96.2404967 80.7241211,97.9633789 C80.7241211,98.4819039 79.5717457,99.8853479 78.598999,101.848145 C77.6859107,103.690563 78.7790527,102.960815 76.6920166,106.729248 C74.6049805,110.497681 71.4710693,112.699829 70.1940918,113.754395 C68.9171143,114.80896 63.3947151,116.918539 58.3283691,117.834229 C54.9508051,118.444688 51.3817133,118.444688 47.6210938,117.834229"/>
    <path stroke="#563E41" stroke-linecap="round" stroke-linejoin="round" stroke-width="1.5" d="M106.359375,87.2092285 C107.113281,89.2006836 104.733154,95.3161621 98.6669922,95.3161621 C92.6008301,95.3161621 87.8676958,88.5263198 86.6489258,87.8203125 C85.4301558,87.1143052 84.4114908,86.0337466 83.5002441,86.8442383 C82.8927464,87.384566 82.8927464,88.6434365 83.5002441,90.6208496 C81.1481934,89.8467611 79.6918132,89.8467611 79.1311035,90.6208496 C78.5703939,91.3949382 79.0257161,92.5528971 80.4970703,94.0947266 C78.7150065,94.3880208 77.8239746,94.9680176 77.8239746,95.8347168 C77.8239746,97.1347656 80.4533691,95.8962402 80.8898926,97.4279785 C81.1809082,98.4491374 80.7862956,99.4106445 79.7060547,100.3125 C83.5090742,105.781955 87.3557539,109.601861 91.2460938,111.772217 C97.0816036,115.027751 101.37915,115.528076 104.677734,114.842285"/>
    <path stroke="#563E41" d="M118.909223,143.00588 C118.8924,145.379303 118.859568,147.260202 118.810729,148.648576 C118.761889,150.036949 118.60551,152.161904 118.341589,155.023439" transform="rotate(-1 118.842 149.015)"/>
  </g>
</svg>
