<svg xmlns="http://www.w3.org/2000/svg" width="30" height="28" viewBox="0 0 30 28">
  <g fill="none" fill-rule="evenodd" transform="translate(-3 -4)">
    <rect width="36" height="36"/>
    <path fill="#F8CA1C" fill-rule="nonzero" d="M23.4118937,25.8252146 L21.7543784,20.3465143 C21.3910266,19.1455025 21.8135099,17.8452327 22.8134047,17.0871666 L27.374662,13.629068 L21.6519079,13.5124472 C20.397396,13.4868822 19.2913204,12.6832713 18.8793412,11.4980596 L17,6.09143486 L15.1206588,11.4980596 C14.7086796,12.6832713 13.602604,13.4868822 12.3480921,13.5124472 L6.62533804,13.629068 L11.1865953,17.0871666 C12.1864901,17.8452327 12.6089734,19.1455025 12.2456216,20.3465143 L10.5881063,25.8252146 L15.2864595,22.5558123 C16.3164077,21.8391112 17.6835923,21.8391112 18.7135405,22.5558123 L23.4118937,25.8252146 Z M16.4288198,24.1974618 L9.36905867,29.1100765 C8.91572969,29.4255306 8.29250788,29.3137609 7.97705378,28.8604319 C7.80240237,28.609446 7.75217898,28.292348 7.84072342,27.9996759 L10.3313115,19.7673626 C10.4524287,19.3670254 10.311601,18.9336021 9.9783027,18.6809134 L3.12454231,13.4847629 C2.68444128,13.1511022 2.59815443,12.5238443 2.93181522,12.0837432 C3.11654679,11.8400809 3.40260501,11.694327 3.70831443,11.6880971 L12.3073437,11.5128624 C12.7255143,11.5043407 13.0942062,11.2364704 13.2315326,10.8413998 L16.0554369,2.71738756 C16.2367685,2.19571975 16.8066621,1.91982273 17.3283299,2.1011543 C17.6171517,2.20154868 17.8441688,2.42856576 17.9445631,2.71738756 L20.7684674,10.8413998 C20.9057938,11.2364704 21.2744857,11.5043407 21.6926563,11.5128624 L30.2916856,11.6880971 C30.8438557,11.6993495 31.2823562,12.1560936 31.2711038,12.7082637 C31.2648739,13.0139732 31.11912,13.3000314 30.8754577,13.4847629 L24.0216973,18.6809134 C23.688399,18.9336021 23.5475713,19.3670254 23.6686885,19.7673626 L26.1592766,27.9996759 C26.3192049,28.5282981 26.0203195,29.0864785 25.4916973,29.2464068 C25.1990253,29.3349513 24.8819273,29.2847279 24.6309413,29.1100765 L17.5711802,24.1974618 C17.2278641,23.9585614 16.7721359,23.9585614 16.4288198,24.1974618 Z" transform="translate(1 2)"/>
  </g>
</svg>
