<svg xmlns="http://www.w3.org/2000/svg" width="30" height="28" viewBox="0 0 30 28">
  <g fill="none" fill-rule="evenodd" transform="translate(-3 -4)">
    <rect width="35" height="35" x=".5" y=".5" stroke="#979797" opacity="0"/>
    <path fill="#F8CA1C" d="M17.4288198,26.1974618 L10.3690587,31.1100765 C9.91572969,31.4255306 9.29250788,31.3137609 8.97705378,30.8604319 C8.80240237,30.609446 8.75217898,30.292348 8.84072342,29.9996759 L11.3313115,21.7673626 C11.4524287,21.3670254 11.311601,20.9336021 10.9783027,20.6809134 L4.12454231,15.4847629 C3.68444128,15.1511022 3.59815443,14.5238443 3.93181522,14.0837432 C4.11654679,13.8400809 4.40260501,13.694327 4.70831443,13.6880971 L13.3073437,13.5128624 C13.7255143,13.5043407 14.0942062,13.2364704 14.2315326,12.8413998 L17.0554369,4.71738756 C17.2367685,4.19571975 17.8066621,3.91982273 18.3283299,4.1011543 C18.6171517,4.20154868 18.8441688,4.42856576 18.9445631,4.71738756 L21.7684674,12.8413998 C21.9057938,13.2364704 22.2744857,13.5043407 22.6926563,13.5128624 L31.2916856,13.6880971 C31.8438557,13.6993495 32.2823562,14.1560936 32.2711038,14.7082637 C32.2648739,15.0139732 32.11912,15.3000314 31.8754577,15.4847629 L25.0216973,20.6809134 C24.688399,20.9336021 24.5475713,21.3670254 24.6686885,21.7673626 L27.1592766,29.9996759 C27.3192049,30.5282981 27.0203195,31.0864785 26.4916973,31.2464068 C26.1990253,31.3349513 25.8819273,31.2847279 25.6309413,31.1100765 L18.5711802,26.1974618 C18.2278641,25.9585614 17.7721359,25.9585614 17.4288198,26.1974618 Z"/>
  </g>
</svg>
