<svg xmlns="http://www.w3.org/2000/svg" xmlns:xlink="http://www.w3.org/1999/xlink" width="20" height="20"><defs><path id="a" d="M9.872 5.898v.465c0 1.286 1.117 2.344 2.506 2.344 1.39 0 2.506-1.058 2.506-2.344v-.465c0-1.287-1.117-2.344-2.506-2.344-1.39 0-2.506 1.057-2.506 2.344zm-1.234 0c0-1.98 1.682-3.574 3.74-3.574 2.057 0 3.74 1.594 3.74 3.574v.465c0 1.98-1.683 3.574-3.74 3.574-2.058 0-3.74-1.594-3.74-3.574v-.465zm-.717 9.146v.43a.27.27 0 0 0 .27.268h8.304a.27.27 0 0 0 .27-.268v-.43c0-2.428-1.98-4.4-4.422-4.4-2.44 0-4.422 1.972-4.422 4.4zm-1.235 0c0-3.108 2.535-5.63 5.657-5.63S18 11.936 18 15.044v.43c0 .827-.675 1.499-1.505 1.499H8.192c-.831 0-1.506-.672-1.506-1.5v-.43zM5.33 8.205h2.106a.641.641 0 1 1 0 1.283H5.33v2.106a.641.641 0 0 1-1.282 0V9.488H1.94a.641.641 0 1 1 0-1.283h2.107V6.1a.641.641 0 0 1 1.282 0v2.106z"/></defs><use fill="#A8ADB8" fill-rule="nonzero" xlink:href="#a"/></svg>