<svg width="24" height="24" viewBox="0 0 24 24" fill="none" xmlns="http://www.w3.org/2000/svg">
<g id="video_icon 1">
<path id="Vector" d="M15.324 10.2768C15.3224 10.2561 15.3216 10.2352 15.3216 10.2144V7.55042C15.3216 6.48122 14.544 5.64002 13.6176 5.64002H4.104C3.1776 5.64002 2.4 6.48122 2.4 7.55042V16.4496C2.4 17.5188 3.1776 18.36 4.104 18.36H13.6188C14.5428 18.36 15.3216 17.5188 15.3216 16.4496V13.8048V13.7928C15.3125 13.6321 15.3498 13.4723 15.429 13.3322C15.5082 13.1921 15.626 13.0777 15.7683 13.0026C15.9107 12.9275 16.0716 12.8949 16.2319 12.9086C16.3923 12.9223 16.5453 12.9818 16.6728 13.08L21.1452 16.5252C21.174 16.5492 21.2052 16.56 21.234 16.56C21.3228 16.56 21.4176 16.458 21.4176 16.3056V7.69442C21.4184 7.63199 21.3999 7.57084 21.3648 7.51922C21.3012 7.43042 21.216 7.41722 21.138 7.47962L16.6824 11.0112C16.5536 11.1134 16.3976 11.1754 16.2338 11.1898C16.0701 11.2041 15.9057 11.1701 15.7611 11.0919C15.6164 11.0137 15.4979 10.8948 15.4202 10.7499C15.3426 10.605 15.3091 10.4405 15.324 10.2768ZM17.0016 8.61482L20.088 6.16802C20.2829 6.00936 20.5086 5.89278 20.7508 5.82562C20.993 5.75846 21.2464 5.74218 21.4952 5.7778C21.744 5.81342 21.9827 5.90018 22.1963 6.0326C22.41 6.16502 22.5938 6.34024 22.7364 6.54722C22.9716 6.88082 23.0976 7.28162 23.0976 7.69322V16.3044C23.0976 17.3604 22.2768 18.2388 21.234 18.2388C20.8176 18.2388 20.4144 18.0948 20.1036 17.8428L17.0016 15.4524V16.4484C17.0016 18.4164 15.5016 20.0388 13.6176 20.0388H4.104C2.22 20.04 0.720001 18.4188 0.720001 16.4496V7.55042C0.720001 5.58242 2.22 3.96002 4.104 3.96002H13.6188C15.5028 3.96002 17.0016 5.58122 17.0016 7.55042V8.61482Z" fill="#B7BCC9"/>
</g>
</svg>
