<svg xmlns="http://www.w3.org/2000/svg" xmlns:xlink="http://www.w3.org/1999/xlink" width="20" height="20"><defs><path id="a" d="M10.149 17.367c-3.99 0-7.218-3.302-7.218-7.367 0-4.065 3.228-7.367 7.218-7.367 3.99 0 7.218 3.302 7.218 7.367 0 4.065-3.228 7.367-7.218 7.367zm0-1.4c3.21 0 5.818-2.668 5.818-5.967 0-3.299-2.609-5.967-5.818-5.967-3.21 0-5.818 2.668-5.818 5.967 0 3.299 2.608 5.967 5.818 5.967zm2.385-8.094a.7.7 0 0 1 .99.99L9.7 12.68a.7.7 0 0 1-.989 0l-2.123-2.123a.7.7 0 0 1 .99-.99l1.628 1.628 3.328-3.322z"/></defs><use fill="#A8ADB8" fill-rule="nonzero" xlink:href="#a"/></svg>