<svg xmlns="http://www.w3.org/2000/svg" xmlns:xlink="http://www.w3.org/1999/xlink" width="20" height="20" viewBox="0 0 20 20">
  <defs>
    <path id="write_icon-a" d="M13.9707997,2.4 C14.3021705,2.4 14.5707997,2.66862915 14.5707997,3 C14.5707997,3.33137085 14.3021705,3.6 13.9707997,3.6 L4.96212977,3.6 C4.3104731,3.6 3.6,4.32453589 3.6,5.01018777 L3.6,14.6006033 C3.6,15.2850671 4.309267,16.0061232 4.96212977,16.0061232 L13.9707997,16.0061232 C14.6181041,16.0061232 15.3119207,15.2905585 15.3119207,14.6006033 L15.3119207,6.0829971 C15.3119207,5.75162625 15.5805498,5.4829971 15.9119207,5.4829971 C16.2432915,5.4829971 16.5119207,5.75162625 16.5119207,6.0829971 L16.5119207,14.6006033 C16.5119207,15.9451534 15.2892755,17.2061232 13.9707997,17.2061232 L4.96212977,17.2061232 C3.64205705,17.2061232 2.4,15.9434213 2.4,14.6006033 L2.4,5.01018777 C2.4,3.66700159 3.64240988,2.4 4.96212977,2.4 L13.9707997,2.4 Z M8.25899401,11.6747618 C8.32481684,11.6550623 8.32481684,11.6550623 8.39081437,11.6353975 C8.64492816,11.55977 8.87638108,11.4924134 9.08021636,11.4350135 C9.49207135,11.319043 9.86852487,11.0925312 10.1721877,10.7771505 L17.4417718,3.22704449 C17.7106561,2.94778439 17.7106561,2.48595897 17.4418437,2.20677348 C17.3323831,2.09308103 17.3323831,2.09308103 17.2458069,2.00303897 C17.1592884,1.91304252 17.1592884,1.91304252 17.0503887,1.79986063 C16.7938089,1.53337979 16.3875758,1.53337979 16.130996,1.79986063 L8.86141188,9.34996665 C8.55573092,9.66744336 8.33468299,10.0637158 8.22093105,10.4994711 C8.16516906,10.7130674 8.10007433,10.9569971 8.02730457,11.2256379 C8.01472608,11.2720492 8.01472608,11.2720492 8.00213743,11.3184051 C7.96015287,11.4729327 7.91682777,11.6313 7.87276861,11.7914398 C8.00305864,11.7517756 8.1322077,11.7127463 8.25899401,11.6747618 Z M17.9148956,0.967617988 C18.0242754,1.08129881 18.0242754,1.08129881 18.1107472,1.17124679 C18.197175,1.26113447 18.197175,1.26113447 18.3062069,1.37438162 C19.0225111,2.11832686 19.0225111,3.3154165 18.3062069,4.05936174 L11.0366227,11.6094678 C10.585739,12.0777504 10.0234408,12.4160849 9.40547501,12.5900922 C9.20792177,12.645723 8.98195707,12.7114825 8.73311217,12.785542 C8.66819896,12.8048836 8.66819896,12.8048836 8.60338352,12.8242817 C8.28392689,12.9199891 7.94851825,13.0226485 7.61790008,13.125322 C7.4195441,13.1869214 7.26703307,13.2347838 7.18096199,13.262011 C6.72580771,13.4059917 6.29294885,12.9865559 6.42252498,12.5270933 C6.44880322,12.4339136 6.49490962,12.2695382 6.55422307,12.0565562 C6.65307932,11.7015846 6.75192655,11.3430949 6.84411829,11.0037757 C6.85659055,10.9578484 6.85659055,10.9578484 6.86904692,10.9118877 C6.94092545,10.646537 7.00510677,10.4060301 7.05984264,10.1963644 C7.22529954,9.56254026 7.54811124,8.98383599 7.99697681,8.5176494 L15.266561,0.967543374 C15.9951696,0.210818875 17.1862151,0.210818875 17.9148956,0.967617988 Z"/>
  </defs>
  <g fill="none" fill-rule="evenodd">
    <rect width="20" height="20"/>
    <use fill="#A8ADB8" fill-rule="nonzero" xlink:href="#write_icon-a"/>
  </g>
</svg>
