<svg xmlns="http://www.w3.org/2000/svg" xmlns:xlink="http://www.w3.org/1999/xlink" width="20" height="20"><defs><path id="a" d="M16.224 5.4H3.779c-.303 0-.376.07-.377.314v8.572c0 .245.072.314.377.314h12.445c.305 0 .378-.07.378-.314V5.714c0-.245-.073-.314-.378-.314zm0-1.4c1.058 0 1.778.675 1.778 1.714v8.572c0 1.039-.72 1.714-1.778 1.714H3.779c-1.057 0-1.777-.675-1.777-1.714V5.714C2.01 4.675 2.722 4 3.779 4h12.445zm.722 2.49l.674 1.227-7.798 4.289L2 7.717l.673-1.227 7.148 3.918 7.125-3.918z"/></defs><use fill="#A8ADB8" fill-rule="nonzero" xlink:href="#a"/></svg>