<svg xmlns="http://www.w3.org/2000/svg" xmlns:xlink="http://www.w3.org/1999/xlink" width="20" height="20"><defs><path id="a" d="M7.186 5.574v.466c0 1.286 1.116 2.344 2.506 2.344 1.389 0 2.505-1.058 2.505-2.344v-.466c0-1.286-1.116-2.344-2.505-2.344-1.39 0-2.506 1.058-2.506 2.344zm-1.234 0C5.952 3.594 7.634 2 9.692 2c2.057 0 3.74 1.594 3.74 3.574v.466c0 1.98-1.683 3.574-3.74 3.574-2.058 0-3.74-1.594-3.74-3.574v-.466zm-.718 9.146v.43a.27.27 0 0 0 .271.269h8.303a.27.27 0 0 0 .271-.269v-.43c0-2.427-1.981-4.399-4.422-4.399s-4.423 1.972-4.423 4.4zM4 14.72c0-3.107 2.535-5.63 5.657-5.63s5.657 2.523 5.657 5.63v.43c0 .828-.675 1.499-1.506 1.499H5.505c-.83 0-1.505-.671-1.505-1.499v-.43z"/></defs><use fill="#A8ADB8" fill-rule="nonzero" xlink:href="#a"/></svg>