<svg width="32" height="32" viewBox="0 0 32 32" fill="none" xmlns="http://www.w3.org/2000/svg">
<path fill-rule="evenodd" clip-rule="evenodd" d="M17.8001 15.2286H22.9429C23.5109 15.2286 23.9714 14.7681 23.9714 14.2C23.9714 13.6319 23.5109 13.1714 22.9429 13.1714H20.2832L24.6987 8.75588C25.1004 8.3542 25.1004 7.70294 24.6987 7.30126C24.2971 6.89958 23.6458 6.89958 23.2441 7.30126L18.8286 11.7168V9.05714C18.8286 8.48908 18.3681 8.02857 17.8001 8.02857C17.232 8.02857 16.7715 8.48908 16.7715 9.05714V14.2C16.7715 14.7681 17.232 15.2286 17.8001 15.2286ZM14.1999 16.7716H9.05712C8.48907 16.7716 8.02856 17.2321 8.02856 17.8002C8.02856 18.3682 8.48907 18.8287 9.05712 18.8287H11.7168L7.30126 23.2443C6.89958 23.646 6.89958 24.2972 7.30126 24.6989C7.70294 25.1006 8.35419 25.1006 8.75587 24.6989L13.1714 20.2834V22.943C13.1714 23.5111 13.6319 23.9716 14.1999 23.9716C14.768 23.9716 15.2285 23.5111 15.2285 22.943V17.8002C15.2285 17.2321 14.768 16.7716 14.1999 16.7716Z" fill="white"/>
</svg>
