<svg width="32" height="32" viewBox="0 0 32 32" fill="none" xmlns="http://www.w3.org/2000/svg">
<path d="M14.1627 22.2791C14.1627 19.2956 16.954 16.9385 20.3358 16.9385C23.7175 16.9385 26.5088 19.2956 26.5088 22.2791V22.6851C26.5088 23.5147 25.7883 24.1232 24.9572 24.1232H15.7143C14.8832 24.1232 14.1627 23.5147 14.1627 22.6851V22.2791Z" fill="black"/>
<path d="M16.5837 11.6873C16.5837 9.63491 18.2785 8 20.3358 8C22.393 8 24.0877 9.63491 24.0877 11.6873V12.1101C24.0877 14.1624 22.393 15.7973 20.3358 15.7973C18.2785 15.7973 16.5837 14.1624 16.5837 12.1101V11.6873Z" fill="black"/>
<path d="M8.26031 12.3005V19.9567" stroke="black" stroke-width="1.24276" stroke-linecap="round"/>
<path d="M12.0884 16.1287H4.43216" stroke="black" stroke-width="1.24276" stroke-linecap="round"/>
</svg>
