<svg width="32" height="32" viewBox="0 0 32 32" fill="none" xmlns="http://www.w3.org/2000/svg">
<g clip-path="url(#clip0)">
<path d="M10.7473 14.9804C10.7473 14.9804 12.526 13.8311 16.0305 13.8099L16.0403 10.1238C11.4542 10.1608 6.54181 11.3045 2.94718 14.4064C1.076 16.021 0.919467 16.9345 1.00419 17.8507C1.12806 19.1907 1.50578 19.7646 2.15583 20.6977C2.80587 21.6307 3.83929 22.2306 5.73319 21.1975C7.62708 20.1644 7.62709 20.1644 10.9414 18.2705L10.9414 18.2705C12.2609 17.5165 10.7473 14.9804 10.7473 14.9804Z" fill="black"/>
<path d="M21.2527 14.9804C21.2527 14.9804 19.474 13.8311 15.9695 13.8099L15.9597 10.1238C20.5458 10.1608 25.4582 11.3045 29.0528 14.4064C30.924 16.021 31.0805 16.9345 30.9958 17.8507C30.8719 19.1907 30.4942 19.7646 29.8442 20.6977C29.1941 21.6307 28.1607 22.2306 26.2668 21.1975C24.3729 20.1644 24.3729 20.1644 21.0586 18.2705L21.0586 18.2705C19.7391 17.5165 21.2527 14.9804 21.2527 14.9804Z" fill="black"/>
</g>
<defs>
<clipPath id="clip0">
<path d="M0 0H32V32H0V0Z" fill="white"/>
</clipPath>
</defs>
</svg>
