<svg width="32" height="32" viewBox="0 0 32 32" fill="none" xmlns="http://www.w3.org/2000/svg">
<path d="M11.5859 14.9808C11.5859 14.9808 13.0806 14.015 16.0256 13.9972L16.0339 10.8996C12.1799 10.9307 8.05182 11.8918 5.03108 14.4984C3.45864 15.8553 3.3271 16.623 3.39829 17.3929C3.50238 18.5189 3.81981 19.0013 4.36607 19.7853C4.91233 20.5694 5.78076 21.0735 7.3723 20.2053C8.96382 19.3372 8.96383 19.3372 11.749 17.7457L11.749 17.7456C12.8578 17.112 11.5859 14.9808 11.5859 14.9808Z" fill="black"/>
<path d="M20.4142 14.9807C20.4142 14.9807 18.9195 14.0149 15.9745 13.9971L15.9662 10.8996C19.8202 10.9307 23.9483 11.8917 26.969 14.4984C28.5415 15.8552 28.673 16.6229 28.6018 17.3929C28.4977 18.5189 28.1803 19.0012 27.6341 19.7853C27.0878 20.5694 26.2194 21.0734 24.6278 20.2053C23.0363 19.3371 23.0363 19.3371 20.2512 17.7456L20.2511 17.7456C19.1423 17.112 20.4142 14.9807 20.4142 14.9807Z" fill="black"/>
</svg>
