<svg width="32" height="32" viewBox="0 0 32 32" fill="none" xmlns="http://www.w3.org/2000/svg">
<path fill-rule="evenodd" clip-rule="evenodd" d="M16 26.7062C10.0904 26.7062 5.29376 21.9096 5.29376 15.9999C5.29376 10.0903 10.0904 5.2937 16 5.2937C21.9096 5.2937 26.7062 10.0903 26.7062 15.9999C26.7062 21.9096 21.9096 26.7062 16 26.7062ZM13.5036 13.2723C13.5036 14.0786 12.85 14.7322 12.0437 14.7322C11.2374 14.7322 10.5837 14.0786 10.5837 13.2723C10.5837 12.466 11.2374 11.8123 12.0437 11.8123C12.85 11.8123 13.5036 12.466 13.5036 13.2723ZM10.9623 17.7247C10.9623 17.7247 9.67923 17.7247 9.9609 18.9783C10.3674 20.7874 12.324 23.1821 16 23.2002C19.676 23.2183 21.6456 20.7401 22.0395 18.9783C22.3198 17.7247 21.0377 17.7247 21.0377 17.7247H16H10.9623ZM21.4163 13.2723C21.4163 14.0786 20.7626 14.7322 19.9563 14.7322C19.15 14.7322 18.4964 14.0786 18.4964 13.2723C18.4964 12.466 19.15 11.8123 19.9563 11.8123C20.7626 11.8123 21.4163 12.466 21.4163 13.2723Z" fill="black"/>
</svg>
