<svg width="32" height="32" viewBox="0 0 32 32" fill="none" xmlns="http://www.w3.org/2000/svg">
<path fill-rule="evenodd" clip-rule="evenodd" d="M15.939 5C13.4537 5 11.439 7.01472 11.439 9.5V15.5C11.439 17.9853 13.4537 20 15.939 20C18.4243 20 20.439 17.9853 20.439 15.5V9.5C20.439 7.01472 18.4243 5 15.939 5ZM7.97401 15.9857C8.3319 15.9576 8.64476 16.225 8.6728 16.5829C8.96335 20.2906 12.0065 23.2256 15.7599 23.3461C15.8348 23.3188 15.9157 23.3038 16.0001 23.3038C16.0844 23.3038 16.1653 23.3188 16.2403 23.3461C19.9937 23.2256 23.0368 20.2906 23.3273 16.5829C23.3554 16.225 23.6682 15.9576 24.0261 15.9857C24.384 16.0137 24.6514 16.3266 24.6233 16.6845C24.2921 20.9111 20.9243 24.2838 16.7001 24.6221V27.2243C16.7001 27.6109 16.3867 27.9243 16.0001 27.9243C15.6135 27.9243 15.3001 27.6109 15.3001 27.2243V24.6221C11.0759 24.2838 7.70798 20.9111 7.37678 16.6845C7.34873 16.3266 7.61612 16.0137 7.97401 15.9857Z" fill="black"/>
</svg>
