<svg width="32" height="32" viewBox="0 0 32 32" fill="none" xmlns="http://www.w3.org/2000/svg">
<path fill-rule="evenodd" clip-rule="evenodd" d="M11.439 10.449V10.4289L19.3938 18.3837C19.3907 18.3873 19.3877 18.391 19.3846 18.3946L21.6688 20.6788L21.6779 20.6678L22.6008 21.5907L22.5915 21.6015L26.495 25.505C26.7684 25.7784 26.7684 26.2216 26.495 26.495C26.2217 26.7683 25.7784 26.7683 25.5051 26.495L21.6016 22.5915C20.2589 23.7338 18.5627 24.4729 16.7 24.6221V27.2243C16.7 27.6109 16.3866 27.9243 16 27.9243C15.6134 27.9243 15.3 27.6109 15.3 27.2243V24.6221C11.0758 24.2838 7.70797 20.9111 7.37676 16.6845C7.34872 16.3266 7.61611 16.0137 7.974 15.9857C8.33188 15.9576 8.64474 16.225 8.67279 16.5829C8.96333 20.2906 12.0064 23.2256 15.7599 23.3461C15.8348 23.3188 15.9157 23.3038 16 23.3038C16.0844 23.3038 16.1653 23.3188 16.2402 23.3461C17.9242 23.2921 19.4652 22.6715 20.6788 21.6687L18.3257 19.3156C17.6339 19.7493 16.8157 20 15.939 20C13.4537 20 11.439 17.9853 11.439 15.5V12.4289L5.50507 6.49497C5.23171 6.22161 5.23171 5.77839 5.50507 5.50503C5.77844 5.23166 6.22166 5.23166 6.49502 5.50503L11.439 10.449ZM20.439 15.5C20.439 16.0789 20.3297 16.6323 20.1306 17.1406L11.5396 8.54955C11.9758 6.52072 13.7798 5 15.939 5C18.4243 5 20.439 7.01472 20.439 9.5V15.5ZM23.4269 20.4369C24.0932 19.3239 24.5164 18.0487 24.6233 16.6845C24.6514 16.3266 24.384 16.0137 24.0261 15.9857C23.6682 15.9576 23.3553 16.225 23.3273 16.5829C23.2455 17.6262 22.9459 18.6083 22.4737 19.4837L23.4269 20.4369Z" fill="black"/>
</svg>
