<svg width="32" height="32" viewBox="0 0 32 32" fill="none" xmlns="http://www.w3.org/2000/svg">
<path d="M16 25.7711L16 23.0653" stroke="black" stroke-width="1.4" stroke-linecap="round"/>
<path d="M25 25L7 7" stroke="black" stroke-width="1.3" stroke-linecap="round"/>
<path fill-rule="evenodd" clip-rule="evenodd" d="M12.0355 11.213V15.58C12.0355 17.7403 13.7867 19.4915 15.947 19.4915C17.1431 19.4915 18.2137 18.9547 18.9312 18.1088L12.0355 11.213ZM19.6116 16.9507C19.7712 16.5241 19.8585 16.0623 19.8585 15.58V10.3647C19.8585 8.20443 18.1072 6.45319 15.947 6.45319C14.0924 6.45319 12.5393 7.74385 12.1369 9.47596L19.6116 16.9507Z" fill="black"/>
<path fill-rule="evenodd" clip-rule="evenodd" d="M20.8564 20.034C19.7001 21.4295 17.9538 22.3185 16 22.3185C12.6869 22.3185 9.97018 19.7621 9.71571 16.5147C9.68766 16.1568 9.3748 15.8894 9.01692 15.9175C8.65903 15.9455 8.39164 16.2584 8.41968 16.6162C8.72675 20.5348 12.0029 23.6185 16 23.6185C18.3129 23.6185 20.3844 22.5859 21.779 20.9566L20.8564 20.034ZM22.5462 19.8853C23.1217 18.9139 23.4873 17.8034 23.5803 16.6162C23.6083 16.2584 23.341 15.9455 22.9831 15.9175C22.6252 15.8894 22.3123 16.1568 22.2843 16.5147C22.2164 17.3807 21.9735 18.1975 21.5908 18.9299L22.5462 19.8853Z" fill="black"/>
</svg>
