<svg width="32" height="32" viewBox="0 0 32 32" fill="none" xmlns="http://www.w3.org/2000/svg">
<path fill-rule="evenodd" clip-rule="evenodd" d="M9 8.42566C7.89543 8.42566 7 9.32109 7 10.4257V20.9257C7 21.4779 7.44772 21.9257 8 21.9257H24C24.5523 21.9257 25 21.4779 25 20.9257V10.4257C25 9.32109 24.1046 8.42566 23 8.42566H9ZM16.0474 12.2634C16.0474 11.3881 16.709 11.0501 17.3684 11.6009L20.2687 14.1572C20.744 14.5536 20.7441 14.7781 20.2687 15.1747L17.3686 17.6949C16.7077 18.2457 16.0474 17.9119 16.0474 17.0379V16.459C14.8723 16.3544 13.9255 16.6882 13.1784 17.3134C12.9502 17.5043 12.7589 17.7088 12.6034 17.9125C12.512 18.0322 12.4542 18.1226 12.4083 18.2013C11.9826 18.7826 11.431 18.5602 11.5071 17.8486C11.5068 17.6656 11.5279 17.3914 11.589 17.0558C11.6903 16.499 11.8752 15.9438 12.1655 15.4234C12.8964 14.1131 14.1606 13.2461 16.0474 13.0305V12.2634Z" fill="black"/>
<path d="M5.15991 24.0209L26.8402 24.0209" stroke="black" stroke-width="2" stroke-linecap="round" stroke-linejoin="round"/>
</svg>
