<svg width="32" height="32" viewBox="0 0 32 32" fill="none" xmlns="http://www.w3.org/2000/svg">
<path fill-rule="evenodd" clip-rule="evenodd" d="M8 6C6.89543 6 6 6.89543 6 8V19C6 20.1046 6.89543 21 8 21H24C25.1046 21 26 20.1046 26 19V8C26 6.89543 25.1046 6 24 6H8ZM16.0527 10.0334C16.0527 9.06082 16.7878 8.68529 17.5204 9.29731L20.743 12.1376C21.2711 12.5781 21.2712 12.8275 20.743 13.2682L17.5207 16.0683C16.7863 16.6803 16.0527 16.3094 16.0527 15.3384V14.6951C14.747 14.5789 13.695 14.9498 12.8649 15.6444C12.6114 15.8566 12.3987 16.0838 12.226 16.3101C12.1245 16.4432 12.0603 16.5436 12.0092 16.6311C11.5362 17.2769 10.9233 17.0298 11.0079 16.2391C11.0075 16.0358 11.031 15.7312 11.0988 15.3582C11.2114 14.7396 11.4169 14.1227 11.7394 13.5445C12.5515 12.0886 13.9562 11.1253 16.0527 10.8857V10.0334Z" fill="black"/>
<path d="M12.6953 22.6602H19.6317" stroke="black" stroke-width="1.3" stroke-linecap="round" stroke-linejoin="round"/>
<path d="M9.59961 24.9463H22.7254" stroke="black" stroke-width="1.3" stroke-linecap="round" stroke-linejoin="round"/>
</svg>
