<svg width="32" height="32" viewBox="0 0 32 32" fill="none" xmlns="http://www.w3.org/2000/svg">
<path fill-rule="evenodd" clip-rule="evenodd" d="M13.9997 11.9896L12.7956 13.1853H9.7533C9.45322 13.1853 9.20996 13.4285 9.20996 13.7286V18.6394C9.20996 18.9395 9.45322 19.1828 9.7533 19.1828H13.0583L18.017 23.9982C18.3456 24.3648 18.9649 24.1164 18.9649 23.6355V16.9548L13.9997 11.9896ZM18.9649 14.9749V8.36349C18.9649 7.87324 18.3424 7.64357 18.0199 7.99761L14.9931 11.0032L18.9649 14.9749Z" fill="black"/>
<path fill-rule="evenodd" clip-rule="evenodd" d="M13.4591 11.4491L12.4805 12.4208H9.75333C9.031 12.4208 8.44543 13.0064 8.44543 13.7287V18.6395C8.44543 19.3619 9.031 19.9474 9.75333 19.9474H12.7482L17.4689 24.5318C18.282 25.4003 19.7295 24.7898 19.7295 23.6356V17.7194L18.9649 16.9549V23.6356C18.9649 24.1165 18.3457 24.3649 18.017 23.9983L13.0584 19.1829H9.75333C9.45325 19.1829 9.20999 18.9396 9.20999 18.6395V13.7287C9.20999 13.4286 9.45325 13.1854 9.75333 13.1854H12.7956L13.9997 11.9897L13.4591 11.4491ZM18.9649 14.975V8.36358C18.9649 7.87332 18.3424 7.64366 18.0199 7.9977L14.9932 11.0032L14.4525 10.4626L17.4703 7.46597C18.2552 6.63272 19.7295 7.16505 19.7295 8.36358V15.7395L18.9649 14.975Z" fill="black"/>
<path d="M26 25L8 7" stroke="black" stroke-width="1.4" stroke-linecap="round"/>
</svg>
