<svg width="20" height="20" viewBox="0 0 20 20" fill="none" xmlns="http://www.w3.org/2000/svg">
<path d="M13.3262 8.23769C12.9747 8.23769 12.6898 7.94246 12.6898 7.57827C12.6898 7.21408 12.9747 6.91884 13.3262 6.91884L14.9495 6.91884C16.0985 6.91884 17 7.96183 17 9.21444L17 16.3045C17 17.5571 16.0985 18.6001 14.9495 18.6001L5.0505 18.6001C3.90145 18.6001 3 17.5571 3 16.3045L3 9.21444C3 7.96182 3.90145 6.91884 5.0505 6.91884L7.12333 6.91884C7.47479 6.91884 7.7597 7.21408 7.7597 7.57827C7.7597 7.94246 7.47479 8.23769 7.12333 8.23769L5.0505 8.23769C4.63754 8.23769 4.27273 8.65979 4.27273 9.21444L4.27273 16.3045C4.27273 16.8592 4.63754 17.2812 5.0505 17.2812L14.9495 17.2812C15.3625 17.2812 15.7273 16.8592 15.7273 16.3045L15.7273 9.21444C15.7273 8.65979 15.3625 8.23769 14.9495 8.23769L13.3262 8.23769ZM13.8531 5.31734C13.6018 5.57195 13.1989 5.56724 12.9532 5.30684L10.6388 2.85318L10.6384 13.2781C10.6384 13.6423 10.3534 13.9375 10.002 13.9375C9.65054 13.9375 9.36562 13.6423 9.36562 13.2781L9.3665 2.90012L7.04888 5.35644C6.80318 5.61685 6.40029 5.62155 6.14899 5.36695C5.89769 5.11235 5.89315 4.69485 6.13885 4.43444L9.56942 0.798522C9.81904 0.533956 10.2298 0.533956 10.4795 0.798522L13.8632 4.38483C14.1089 4.64524 14.1044 5.06274 13.8531 5.31734Z" fill="#FBFCFD"/>
</svg>
