<svg width="32" height="32" viewBox="0 0 32 32" fill="none" xmlns="http://www.w3.org/2000/svg">
<ellipse cx="13.04" cy="10.6992" rx="3.52006" ry="3.76068" fill="white"/>
<ellipse cx="22.3477" cy="12.1281" rx="2.64005" ry="2.82051" fill="white"/>
<path d="M6 20.5711C6 18.2345 7.89418 16.3403 10.2308 16.3403H15.8495C18.1861 16.3403 20.0803 18.2345 20.0803 20.5711V22.1694C20.0803 23.104 19.3226 23.8617 18.3879 23.8617H7.69231C6.75767 23.8617 6 23.104 6 22.1694V20.5711Z" fill="white"/>
<path fill-rule="evenodd" clip-rule="evenodd" d="M21.8094 21.9814H26.3883C27.2784 21.9814 28 21.2598 28 20.3696C28 18.1443 26.196 16.3403 23.9707 16.3403H20.2125C21.1595 17.1066 21.7694 18.2736 21.7836 19.5853L21.8094 21.9814Z" fill="white"/>
</svg>
