<svg width="32" height="32" viewBox="0 0 32 32" fill="none" xmlns="http://www.w3.org/2000/svg">
<path fill-rule="evenodd" clip-rule="evenodd" d="M9 9C7.34315 9 6 10.3431 6 12V20C6 21.6569 7.34315 23 9 23H17C18.6569 23 20 21.6569 20 20V17.355C20.0624 17.4185 20.13 17.4788 20.2027 17.5353L24.3861 20.7885C25.043 21.2993 26 20.8312 26 19.9991V11.914C26 11.0819 25.043 10.6137 24.3861 11.1245L20.2027 14.3777C20.13 14.4342 20.0624 14.4945 20 14.5581V12C20 10.3431 18.6569 9 17 9H9Z" fill="black"/>
</svg>
