<svg width="32" height="32" viewBox="0 0 32 32" fill="none" xmlns="http://www.w3.org/2000/svg">
<path fill-rule="evenodd" clip-rule="evenodd" d="M7.44438 9.43433C6.57844 9.96049 6 10.9127 6 12V20C6 21.6569 7.34315 23 9 23H17C18.0873 23 19.0395 22.4216 19.5657 21.5556L7.44438 9.43433ZM20 20.01C20 20.0067 20 20.0033 20 20V17.355C20.0624 17.4185 20.13 17.4788 20.2027 17.5353L24.3861 20.7885C25.043 21.2993 26 20.8312 26 19.9991V11.914C26 11.0819 25.043 10.6137 24.3861 11.1245L20.2027 14.3777C20.13 14.4342 20.0624 14.4945 20 14.5581V12C20 10.3431 18.6569 9 17 9H9C8.99665 9 8.99331 9.00001 8.98997 9.00002L20 20.01Z" fill="black"/>
<path d="M23 26L2 5" stroke="black" stroke-width="1.4" stroke-linecap="round"/>
</svg>
