<svg width="32" height="32" viewBox="0 0 32 32" fill="none" xmlns="http://www.w3.org/2000/svg">
<path d="M25.7197 16C25.3261 21.0237 21.1247 24.9777 15.9999 24.9777C10.875 24.9777 6.6737 21.0237 6.28003 16" stroke="black" stroke-width="1.3" stroke-linecap="round"/>
<path d="M16 28.9835V25.0586" stroke="black" stroke-width="1.3" stroke-linecap="round"/>
<rect x="9.67725" y="3.13867" width="12.6455" height="18.2812" rx="6.32277" stroke="black" stroke-width="1.3" stroke-linecap="round"/>
<path d="M12.1248 11.8598L14.1483 10.9058V12.3315C14.1483 12.8903 13.6953 13.3433 13.1365 13.3433C12.5777 13.3433 12.1248 12.8903 12.1248 12.3315V11.8598Z" fill="black"/>
<path d="M17.989 10.9058L19.9915 11.9344V12.342C19.9915 12.895 19.5432 13.3433 18.9903 13.3433C18.4373 13.3433 17.989 12.895 17.989 12.342V10.9058Z" fill="black"/>
<path d="M12.7998 16.8721C12.7998 16.8721 13.8012 15.6533 16.0002 15.6533C18.1991 15.6533 19.2005 16.8721 19.2005 16.8721" stroke="black" stroke-width="1.3" stroke-linecap="round"/>
</svg>
