<svg width="16" height="16" viewBox="0 0 16 16" fill="none" xmlns="http://www.w3.org/2000/svg">
<path d="M4.5 3H3C2.72386 3 2.5 3.22386 2.5 3.5V5C2.5 5.27614 2.72386 5.5 3 5.5H4.5C4.77614 5.5 5 5.27614 5 5V3.5C5 3.22386 4.77614 3 4.5 3Z" fill="white"/>
<path d="M12.5 7H3C2.72386 7 2.5 7.22386 2.5 7.5V13C2.5 13.2761 2.72386 13.5 3 13.5H12.5C12.7761 13.5 13 13.2761 13 13V7.5C13 7.22386 12.7761 7 12.5 7Z" fill="white"/>
<path d="M8.5 3H7C6.72386 3 6.5 3.22386 6.5 3.5V5C6.5 5.27614 6.72386 5.5 7 5.5H8.5C8.77614 5.5 9 5.27614 9 5V3.5C9 3.22386 8.77614 3 8.5 3Z" fill="white"/>
<path d="M12.5 3H11C10.7239 3 10.5 3.22386 10.5 3.5V5C10.5 5.27614 10.7239 5.5 11 5.5H12.5C12.7761 5.5 13 5.27614 13 5V3.5C13 3.22386 12.7761 3 12.5 3Z" fill="white"/>
</svg>
