<svg width="16" height="16" viewBox="0 0 16 16" fill="none" xmlns="http://www.w3.org/2000/svg">
<path d="M7.74199 14C7.16611 14 6.60869 13.9261 6.06973 13.7782C5.53816 13.6373 5.0398 13.4366 4.57467 13.1761C4.10954 12.9155 3.68502 12.6021 3.3011 12.2359C2.91719 11.8697 2.58864 11.4648 2.31547 11.0211C2.0423 10.5775 1.82819 10.1021 1.67315 9.59507C1.52549 9.08099 1.45166 8.5493 1.45166 8C1.45166 7.4507 1.52549 6.92253 1.67315 6.41549C1.82819 5.90141 2.0423 5.42254 2.31547 4.97887C2.58864 4.53521 2.91719 4.13028 3.3011 3.76408C3.68502 3.39789 4.10954 3.08451 4.57467 2.82394C5.0398 2.56338 5.53816 2.36268 6.06973 2.22183C6.60869 2.07394 7.16611 2 7.74199 2C8.31786 2 8.87159 2.07394 9.40316 2.22183C9.94212 2.36268 10.4442 2.56338 10.9093 2.82394C11.3744 3.08451 11.799 3.39789 12.1829 3.76408C12.5668 4.13028 12.8953 4.53521 13.1685 4.97887C13.4417 5.42254 13.6521 5.90141 13.7997 6.41549C13.9548 6.92253 14.0323 7.4507 14.0323 8C14.0323 8.51408 13.9732 8.96127 13.8551 9.34155C13.737 9.72183 13.5746 10.0387 13.3678 10.2923C13.1611 10.5387 12.9175 10.7218 12.6369 10.8415C12.3638 10.9683 12.0684 11.0317 11.751 11.0317C11.3744 11.0317 11.0348 10.9472 10.7321 10.7782C10.4294 10.6092 10.1858 10.3873 10.0012 10.1127C9.71325 10.3944 9.37363 10.6162 8.98233 10.7782C8.59842 10.9401 8.18497 11.0211 7.74199 11.0211C7.30639 11.0211 6.89663 10.9437 6.51271 10.7887C6.1288 10.6268 5.79287 10.4085 5.50493 10.1338C5.217 9.85915 4.98812 9.53873 4.81831 9.17254C4.65589 8.80634 4.57467 8.41549 4.57467 8C4.57467 7.58451 4.65589 7.19366 4.81831 6.82746C4.98812 6.46127 5.217 6.14084 5.50493 5.8662C5.79287 5.59155 6.1288 5.37676 6.51271 5.22183C6.89663 5.05986 7.30639 4.97887 7.74199 4.97887C8.17758 4.97887 8.58734 5.05986 8.97126 5.22183C9.35517 5.37676 9.6911 5.59155 9.97904 5.8662C10.267 6.14084 10.4922 6.46127 10.6546 6.82746C10.8244 7.19366 10.9093 7.58451 10.9093 8V8.98239C10.9093 9.22887 10.9905 9.4331 11.1529 9.59507C11.3154 9.75 11.5147 9.82746 11.751 9.82746C11.8912 9.82746 12.0241 9.7993 12.1496 9.74296C12.2752 9.67958 12.3822 9.57746 12.4708 9.43662C12.5668 9.28873 12.6406 9.09859 12.6923 8.8662C12.7514 8.6338 12.7809 8.34507 12.7809 8C12.7809 7.33803 12.648 6.71479 12.3822 6.13028C12.1164 5.54577 11.7547 5.03873 11.2969 4.60915C10.8465 4.17253 10.315 3.82746 9.70218 3.57394C9.08939 3.32042 8.43599 3.19366 7.74199 3.19366C7.04798 3.19366 6.39459 3.32042 5.7818 3.57394C5.16901 3.82746 4.63374 4.17253 4.17599 4.60915C3.72563 5.03873 3.36755 5.54577 3.10176 6.13028C2.83598 6.71479 2.70308 7.33803 2.70308 8C2.70308 8.66197 2.83598 9.28521 3.10176 9.86972C3.36755 10.4542 3.72563 10.9613 4.17599 11.3908C4.63374 11.8275 5.16901 12.1725 5.7818 12.4261C6.39459 12.6796 7.04798 12.8063 7.74199 12.8063C8.1259 12.8063 8.4766 12.7676 8.79407 12.6901C9.11892 12.6197 9.39947 12.5387 9.63573 12.4472C9.87199 12.3627 10.0603 12.2782 10.2005 12.1937C10.3408 12.1162 10.4257 12.0669 10.4552 12.0458L11.2858 12.9542C11.2489 12.9824 11.1382 13.0528 10.9536 13.1655C10.7764 13.2782 10.5365 13.3944 10.2338 13.5141C9.93105 13.6408 9.56928 13.7535 9.14845 13.8521C8.72762 13.9507 8.2588 14 7.74199 14ZM7.74199 9.82746C8.00777 9.82746 8.25511 9.78169 8.48398 9.69014C8.72024 9.59155 8.92327 9.46127 9.09308 9.2993C9.27027 9.13028 9.40686 8.93662 9.50284 8.71831C9.6062 8.49296 9.65788 8.25352 9.65788 8C9.65788 7.74648 9.6062 7.51056 9.50284 7.29225C9.40686 7.0669 9.27027 6.87324 9.09308 6.71127C8.92327 6.54225 8.72024 6.41197 8.48398 6.32042C8.25511 6.22183 8.00777 6.17254 7.74199 6.17254C7.4762 6.17254 7.22518 6.22183 6.98892 6.32042C6.76005 6.41197 6.55701 6.54225 6.37982 6.71127C6.21001 6.87324 6.07343 7.0669 5.97006 7.29225C5.87408 7.51056 5.8261 7.74648 5.8261 8C5.8261 8.25352 5.87408 8.49296 5.97006 8.71831C6.07343 8.93662 6.21001 9.13028 6.37982 9.2993C6.55701 9.46127 6.76005 9.59155 6.98892 9.69014C7.22518 9.78169 7.4762 9.82746 7.74199 9.82746Z" fill="white"/>
</svg>
