<svg xmlns="http://www.w3.org/2000/svg" xmlns:xlink="http://www.w3.org/1999/xlink" width="20" height="20" viewBox="0 0 20 20">
  <defs>
    <path id="claen_history-a" d="M10.0000001,8.80002265 L14.9049229,3.89509983 C15.1782899,3.62173283 15.6215054,3.62173283 15.8948724,3.89509983 L16.1049002,4.10512759 C16.3782672,4.37849459 16.3782672,4.82171007 16.1049002,5.09507707 L11.1999773,9.99999989 L16.1049004,14.9049229 C16.3782674,15.1782899 16.3782674,15.6215054 16.1049004,15.8948724 L15.8948726,16.1049002 C15.6215056,16.3782672 15.1782901,16.3782672 14.9049231,16.1049002 L10.0000001,11.1999771 L5.09507706,16.1049002 C4.82171006,16.3782672 4.37849458,16.3782672 4.10512758,16.1049002 L3.89509982,15.8948724 C3.62173282,15.6215054 3.62173282,15.1782899 3.89509982,14.9049229 L8.80002286,9.99999989 L3.89510004,5.09507707 C3.62173304,4.82171007 3.62173304,4.37849459 3.89510004,4.10512759 L4.1051278,3.89509983 C4.3784948,3.62173283 4.82171027,3.62173283 5.09507727,3.89509983 L10.0000001,8.80002265 Z"/>
  </defs>
  <g fill="none" fill-rule="evenodd">
    <path stroke="#979797" d="M15.2584763,4.24865322 L10.0000001,9.50712944 L4.74152388,4.24865322 C4.66341903,4.17054837 4.53678604,4.17054837 4.45868119,4.24865322 L4.24865343,4.45868098 C4.17054857,4.53678584 4.17054857,4.66341883 4.24865343,4.74152368 L9.50712964,9.99999989 L4.24865321,15.2584763 C4.17054836,15.3365812 4.17054836,15.4632142 4.24865321,15.541319 L4.45868097,15.7513468 C4.53678582,15.8294516 4.66341881,15.8294516 4.74152367,15.7513468 L10.0000001,10.4928703 L15.2584765,15.7513468 C15.3365814,15.8294516 15.4632144,15.8294516 15.5413192,15.7513468 L15.751347,15.541319 C15.8294518,15.4632142 15.8294518,15.3365812 15.751347,15.2584763 L10.4928706,9.99999989 L15.7513468,4.74152368 C15.8294516,4.66341883 15.8294516,4.53678584 15.7513468,4.45868098 L15.541319,4.24865322 C15.4632142,4.17054837 15.3365812,4.17054837 15.2584763,4.24865322 Z"/>
  </g>
</svg>
