<svg xmlns="http://www.w3.org/2000/svg" width="12" height="12" viewBox="0 0 12 12">
  <path fill="#FFF" fill-rule="evenodd" d="M98.0000026,13.1514719 L96.4241646,11.5756339 C96.1898501,11.3413193 95.8099511,11.3413193 95.5756365,11.5756339 C95.3413219,11.8099485 95.3413219,12.1898474 95.5756365,12.424162 L97.1514745,14 L95.5756365,15.575838 C95.3413219,15.8101526 95.3413219,16.1900515 95.5756365,16.4243661 C95.8099511,16.6586807 96.1898501,16.6586807 96.4241646,16.4243661 L98.0000026,14.8485281 L99.5758406,16.4243661 C99.8101552,16.6586807 100.190054,16.6586807 100.424369,16.4243661 C100.658683,16.1900515 100.658683,15.8101526 100.424369,15.575838 L98.8485307,14 L100.424369,12.424162 C100.658683,12.1898474 100.658683,11.8099485 100.424369,11.5756339 C100.190054,11.3413193 99.8101552,11.3413193 99.5758406,11.5756339 L98.0000026,13.1514719 Z M98,20 C94.6862915,20 92,17.3137085 92,14 C92,10.6862915 94.6862915,8 98,8 C101.313708,8 104,10.6862915 104,14 C104,17.3137085 101.313708,20 98,20 Z" transform="translate(-92 -8)"/>
</svg>
