<svg xmlns="http://www.w3.org/2000/svg" xmlns:xlink="http://www.w3.org/1999/xlink" width="20" height="20" viewBox="0 0 20 20">
  <defs>
    <path id="more_vertical-a" d="M15,11.5 C14.1715729,11.5 13.5,10.8284271 13.5,10 C13.5,9.17157288 14.1715729,8.5 15,8.5 C15.8284271,8.5 16.5,9.17157288 16.5,10 C16.5,10.8284271 15.8284271,11.5 15,11.5 Z M5,11.5 C4.17157288,11.5 3.5,10.8284271 3.5,10 C3.5,9.17157288 4.17157288,8.5 5,8.5 C5.82842712,8.5 6.5,9.17157288 6.5,10 C6.5,10.8284271 5.82842712,11.5 5,11.5 Z M10,11.5 C9.17157288,11.5 8.5,10.8284271 8.5,10 C8.5,9.17157288 9.17157288,8.5 10,8.5 C10.8284271,8.5 11.5,9.17157288 11.5,10 C11.5,10.8284271 10.8284271,11.5 10,11.5 Z"/>
  </defs>
  <g fill="none" fill-rule="evenodd" transform="rotate(90 10 10)">
    <rect width="20" height="20"/>
    <use fill="#454545" xlink:href="#more_vertical-a"/>
  </g>
</svg>
