<svg width="32" height="32" fill="none" xmlns="http://www.w3.org/2000/svg"><path fill-rule="evenodd" clip-rule="evenodd" d="M9.611 6.108a.65.65 0 0 1 .796-.46l3.835 1.028a.65.65 0 0 1 .46.797l-.001.004-1.027 3.831a.65.65 0 1 1-1.255-.336l.594-2.217a7.863 7.863 0 0 0-.863 14.126.65.65 0 0 1-.638 1.132 9.162 9.162 0 0 1 .995-16.456l-2.436-.652a.65.65 0 0 1-.46-.797zm10.073 2.218a.65.65 0 0 1 .888-.238 9.163 9.163 0 0 1-1.84 16.684l2.097.823a.65.65 0 1 1-.475 1.21l-3.696-1.45a.65.65 0 0 1-.368-.843l1.45-3.696a.65.65 0 1 1 1.21.475l-.913 2.33a7.863 7.863 0 0 0 1.885-14.407.65.65 0 0 1-.238-.888z" fill="#000"/></svg>