<svg xmlns="http://www.w3.org/2000/svg" width="14" height="14" viewBox="0 0 14 14">
  <g fill="none" fill-rule="evenodd">
    <path fill="#FFF" d="M7,5.58578644 L5.58578644,4.17157288 C5.19526215,3.78104858 4.56209717,3.78104858 4.17157288,4.17157288 C3.78104858,4.56209717 3.78104858,5.19526215 4.17157288,5.58578644 L5.58578644,7 L4.17157288,8.41421356 C3.78104858,8.80473785 3.78104858,9.43790283 4.17157288,9.82842712 C4.56209717,10.2189514 5.19526215,10.2189514 5.58578644,9.82842712 L7,8.41421356 L8.41421356,9.82842712 C8.80473785,10.2189514 9.43790283,10.2189514 9.82842712,9.82842712 C10.2189514,9.43790283 10.2189514,8.80473785 9.82842712,8.41421356 L8.41421356,7 L9.82842712,5.58578644 C10.2189514,5.19526215 10.2189514,4.56209717 9.82842712,4.17157288 C9.43790283,3.78104858 8.80473785,3.78104858 8.41421356,4.17157288 L7,5.58578644 Z M7,14 C3.13400675,14 0,10.8659932 0,7 C0,3.13400675 3.13400675,0 7,0 C10.8659932,0 14,3.13400675 14,7 C14,10.8659932 10.8659932,14 7,14 Z"/>
    <path fill="#CCCFD8" d="M7,5.58578644 L5.58578644,4.17157288 C5.19526215,3.78104858 4.56209717,3.78104858 4.17157288,4.17157288 C3.78104858,4.56209717 3.78104858,5.19526215 4.17157288,5.58578644 L5.58578644,7 L4.17157288,8.41421356 C3.78104858,8.80473785 3.78104858,9.43790283 4.17157288,9.82842712 C4.56209717,10.2189514 5.19526215,10.2189514 5.58578644,9.82842712 L7,8.41421356 L8.41421356,9.82842712 C8.80473785,10.2189514 9.43790283,10.2189514 9.82842712,9.82842712 C10.2189514,9.43790283 10.2189514,8.80473785 9.82842712,8.41421356 L8.41421356,7 L9.82842712,5.58578644 C10.2189514,5.19526215 10.2189514,4.56209717 9.82842712,4.17157288 C9.43790283,3.78104858 8.80473785,3.78104858 8.41421356,4.17157288 L7,5.58578644 Z M7,14 C3.13400675,14 0,10.8659932 0,7 C0,3.13400675 3.13400675,0 7,0 C10.8659932,0 14,3.13400675 14,7 C14,10.8659932 10.8659932,14 7,14 Z"/>
  </g>
</svg>
