<svg xmlns="http://www.w3.org/2000/svg" width="36" height="20" viewBox="0 0 36 20">
  <path fill="#D8D8D8" fill-rule="evenodd" d="M0,10 C0,4.4771525 4.48663563,0 10.0040955,0 L25.9959045,0 C31.5210139,0 36,4.47593818 36,10 C36,15.5228475 31.5133644,20 25.9959045,20 L10.0040955,20 C4.47898611,20 0,15.5240618 0,10 Z M26,16 C29.3137085,16 32,13.3137085 32,10 C32,6.6862915 29.3137085,4 26,4 C22.6862915,4 20,6.6862915 20,10 C20,13.3137085 22.6862915,16 26,16 Z" transform="matrix(-1 0 0 1 36 0)"/>
</svg>
