<svg width="20" height="20" viewBox="0 0 20 20" fill="none" xmlns="http://www.w3.org/2000/svg">
<g clip-path="url(#clip0)">
<path fill-rule="evenodd" clip-rule="evenodd" d="M2.83596 9.9999C2.83596 6.04323 6.04348 2.83572 10.0001 2.83572C13.9568 2.83572 17.1643 6.04323 17.1643 9.9999C17.1643 13.9566 13.9568 17.1641 10.0001 17.1641C8.88839 17.1641 7.83782 16.9114 6.90082 16.461C6.75046 16.3887 6.58088 16.3644 6.41524 16.3923L3.98174 16.8019L4.10526 14.3608C4.11388 14.1905 4.06854 14.0225 3.97671 13.8803C3.25494 12.7625 2.83596 11.4313 2.83596 9.9999ZM10.0001 1.30054C5.19562 1.30054 1.30078 5.19537 1.30078 9.9999C1.30078 11.6503 1.76108 13.1953 2.56051 14.5111L2.41364 17.4136C2.38196 18.0398 2.93779 18.5345 3.55603 18.4304L6.44859 17.9434C7.53391 18.4293 8.73645 18.6993 10.0001 18.6993C14.8047 18.6993 18.6995 14.8044 18.6995 9.9999C18.6995 5.19537 14.8047 1.30054 10.0001 1.30054ZM7.67605 7.33462C6.99305 7.33462 6.43937 7.8883 6.43937 8.57129V11.4497C6.43937 12.1327 6.99305 12.6864 7.67605 12.6864H10.5545C11.2375 12.6864 11.7912 12.1327 11.7912 11.4497V11.0557L13.0118 12.1837C13.2986 12.4487 13.7635 12.2453 13.7635 11.8548V10.0212V8.18752C13.7635 7.79706 13.2986 7.59368 13.0118 7.85868L11.7912 8.9867V8.57129C11.7912 7.8883 11.2375 7.33462 10.5545 7.33462H7.67605Z" fill="white"/>
</g>
<defs>
<clipPath id="clip0">
<rect width="20" height="20" fill="white"/>
</clipPath>
</defs>
</svg>
