<svg width="20" height="20" viewBox="0 0 20 20" fill="none" xmlns="http://www.w3.org/2000/svg">
<path d="M7.35021 18.9015C7.51389 17.8914 7.59572 17.3863 7.72923 16.9598C8.28516 15.1837 9.56969 13.8975 11.1075 13.577C11.4768 13.5 11.8994 13.5 12.7446 13.5H15.4487C16.2644 13.5 16.6722 13.5 17.0272 13.571C19.9993 14 17.3359 15.9952 16.4993 17.1185C15.9323 17.8798 15.3448 18.0684 14.4993 18.5C12.8959 19.3184 9.99933 19.5 9.99933 19.5C9.99933 19.5 9.69435 19.5096 9.49933 19.5C8.62918 19.457 7.25706 19.4764 7.35021 18.9015Z" fill="white"/>
<path d="M5.25 8C4.00736 8 3 9.00736 3 10.25C3 11.4926 4.00736 12.5 5.25 12.5C6.49264 12.5 7.5 11.4926 7.5 10.25C7.5 9.00736 6.49264 8 5.25 8Z" fill="white"/>
<path d="M13.2998 12C14.9567 12 16.2998 10.6569 16.2998 9C16.2998 7.34315 14.9567 6 13.2998 6C11.643 6 10.2998 7.34315 10.2998 9C10.2998 10.6569 11.643 12 13.2998 12Z" fill="white"/>
<path fill-rule="evenodd" clip-rule="evenodd" d="M6.15298 16.1707C6.01947 16.5972 5.77396 18.1125 5.77396 18.1125C5.77396 18.1125 6.70315 18.7253 4.49966 17.5C1.92441 16.068 0.536741 13.9563 1.80406 13.6737C2.08536 13.611 2.40859 13.611 3.05505 13.611H5.29114C5.9376 13.611 6.26083 13.611 6.54213 13.6737C6.83899 13.7399 7.124 13.8566 7.39181 14.0178C6.84782 14.59 6.41776 15.3248 6.15298 16.1707Z" fill="white"/>
<path fill-rule="evenodd" clip-rule="evenodd" d="M10 18.5C14.6944 18.5 18.5 14.6944 18.5 10C18.5 5.30558 14.6944 1.5 10 1.5C5.30558 1.5 1.5 5.30558 1.5 10C1.5 14.6944 5.30558 18.5 10 18.5ZM10 20C15.5228 20 20 15.5228 20 10C20 4.47715 15.5228 0 10 0C4.47715 0 0 4.47715 0 10C0 15.5228 4.47715 20 10 20Z" fill="white"/>
</svg>
