<svg xmlns="http://www.w3.org/2000/svg" width="14" height="14" viewBox="0 0 14 14">
  <path fill="#FFF" fill-rule="evenodd" d="M8.05094751,2.70778844 L10.2528297,1.4556092 C10.4928715,1.31910082 10.7981258,1.40303125 10.9346342,1.64307307 C10.977475,1.71840613 11,1.80358075 11,1.89024336 L11,5.37150444 C11,5.64764681 10.7761424,5.87150444 10.5,5.87150444 C10.4133374,5.87150444 10.3281628,5.84897944 10.2528297,5.80613859 L8.05094751,4.55395935 L8.05094751,5.99979094 C8.05094751,6.55207569 7.60323226,6.99979094 7.05094751,6.99979094 L1,6.99979094 C0.44771525,6.99979094 2.5269698e-14,6.55207569 2.52020627e-14,5.99979094 L1.58761893e-14,1.0000764 C1.58085539e-14,0.447791647 0.44771525,7.63965618e-05 1,7.63965618e-05 L7.05094751,7.63965619e-05 C7.60323226,7.63965619e-05 8.05094751,0.447791647 8.05094751,1.0000764 L8.05094751,2.70778844 Z" transform="translate(2 4)"/>
</svg>
