<svg xmlns="http://www.w3.org/2000/svg" width="20" height="20" viewBox="0 0 20 20">
  <g fill="none">
    <rect width="20" height="20"/>
    <path fill="#FFF" d="M8.9606928,10.143103 L9.85692454,11.0392797 C9.90924236,11.0918728 9.93548387,11.1519557 9.93548387,11.2201892 C9.93548387,11.2884226 9.90929743,11.348533 9.85692454,11.4009335 L7.24689879,14.0111244 L8.37894621,15.1429516 C8.47848774,15.2426583 8.52829981,15.3606212 8.52829981,15.4968954 C8.52829981,15.6331695 8.47848774,15.7510498 8.37894621,15.8506464 C8.27934961,15.9501329 8.1614693,16 8.02519516,16 L4.50321479,16 C4.36694065,16 4.24900527,15.9501329 4.1493536,15.8506464 C4.049757,15.7510223 4,15.633142 4,15.4968954 L4,11.9748874 C4,11.8386133 4.049757,11.7206504 4.1493536,11.6209436 C4.24892267,11.5215398 4.36685804,11.4716727 4.50321479,11.4716727 C4.63957154,11.4716727 4.75736924,11.5215398 4.85696584,11.6209436 L5.98901326,12.7531287 L8.599039,10.143103 C8.65141189,10.0907026 8.71171506,10.0645161 8.7798659,10.0645161 C8.84798921,10.0645161 8.90829237,10.0907301 8.9606928,10.143103 Z M15.8508363,4.14935637 C15.9506275,4.24892729 16.0000825,4.36664456 15.9999999,4.50303138 L15.9999999,8.0250771 C15.9999999,8.16135378 15.950242,8.27931887 15.8507261,8.37883472 C15.7511002,8.47840563 15.6332452,8.52830123 15.4969685,8.52830123 C15.3606919,8.52830123 15.2426992,8.47840563 15.1430182,8.37883472 L14.0111701,7.2468489 L11.4009032,9.85692308 C11.3485293,9.90932448 11.2883902,9.93548387 11.2201831,9.93548387 C11.1519759,9.93548387 11.0918368,9.90932448 11.039463,9.85692308 L10.1431045,8.96067471 C10.0907581,8.90830085 10.0645161,8.84796903 10.0645161,8.77984446 C10.0645161,8.71171989 10.0907581,8.65149821 10.1431045,8.5990142 L12.7531511,5.98894002 L11.6212479,4.8568716 C11.521732,4.75735576 11.4719741,4.63939066 11.4719741,4.50311399 C11.4719741,4.36683731 11.521732,4.24889975 11.6212479,4.14935637 C11.7209289,4.04975792 11.8387563,4 11.9750055,4 L15.4970787,4 C15.6333553,4 15.7513204,4.04975792 15.8508363,4.14935637 Z"/>
  </g>
</svg>
