<svg xmlns="http://www.w3.org/2000/svg" width="20" height="20" viewBox="0 0 20 20">
  <g fill="none" fill-rule="evenodd">
    <rect width="20" height="20"/>
    <path fill="#FFF" d="M8.06836325,6.32526399 L10.5563064,4.68461021 C10.8361505,4.50006937 11.2126088,4.57732785 11.3971496,4.85717187 C11.4625462,4.95634153 11.4974047,5.07252146 11.4974047,5.19131262 L11.4974047,9.87996635 L8.06836325,6.32526399 Z M11.4215923,15.238271 C11.3180669,15.424923 11.1190109,15.5512604 10.8904472,15.5512604 C10.7716561,15.5512604 10.6554761,15.516402 10.5563064,15.4510053 L6.94522361,13.0697063 L4.21391496,13.0697063 C3.54348824,13.0697063 3,12.5262181 3,11.8557914 L3,8.27982419 C3,7.80710193 3.27020888,7.39749035 3.66460033,7.19701573 L11.4215923,15.238271 Z M3.39927693,4.26913525 L3.40521784,4.26319434 C3.75748422,3.91092796 4.32862088,3.91092796 4.68088726,4.26319434 C4.68285837,4.26516545 4.68482034,4.26714569 4.68677309,4.269135 L14.6799166,14.4493095 C15.0298457,14.8057878 15.0271948,15.3776459 14.6739759,15.7308647 L14.668035,15.7368057 C14.3157686,16.089072 13.744632,16.089072 13.3923656,15.7368057 C13.3903945,15.7348345 13.3884325,15.7328543 13.3864798,15.730865 L3.39333627,5.55069051 C3.04340719,5.19421218 3.04605804,4.62235413 3.39927693,4.26913525 Z"/>
  </g>
</svg>
