<svg xmlns="http://www.w3.org/2000/svg" width="17" height="14" viewBox="0 0 17 14">
    <path fill="#FFF" fill-opacity=".337" fill-rule="evenodd" d="M6.068 3.325l2.488-1.64a.607.607 0 0 1 .941.506V6.88L6.068 3.325zm3.354 8.913a.607.607 0 0 1-.866.213l-3.61-2.381H2.213C1.544 10.07 1 9.526 1 8.856V5.28c0-.473.27-.883.665-1.083l7.757 8.041zM1.399 1.27l.006-.006a.902.902 0 0 1 1.282.006l9.993 10.18a.91.91 0 0 1-.006 1.282l-.006.006a.902.902 0 0 1-1.282-.006L1.393 2.55A.91.91 0 0 1 1.4 1.269z"/>
</svg>
