<svg xmlns="http://www.w3.org/2000/svg" width="20" height="20" viewBox="0 0 20 20">
  <g fill="none" fill-rule="evenodd">
    <rect width="20" height="20"/>
    <path fill="#FFF" d="M7.44522361,7.0816214 L11.0563064,4.70032238 C11.3361505,4.51578154 11.7126088,4.59304002 11.8971496,4.87288404 C11.9625462,4.9720537 11.9974047,5.08823364 11.9974047,5.2070248 L11.9974047,14.9600151 C11.9974047,15.2952285 11.7256606,15.5669726 11.3904472,15.5669726 C11.2716561,15.5669726 11.1554761,15.5321141 11.0563064,15.4667175 L7.44522361,13.0854185 L4.71391496,13.0854185 C4.04348824,13.0854185 3.5,12.5419303 3.5,11.8715035 L3.5,8.29553636 C3.5,7.62510964 4.04348824,7.0816214 4.71391496,7.0816214 L7.44522361,7.0816214 Z M14.2284175,12.8376454 C13.9765305,12.9508158 13.680593,12.8383637 13.5674226,12.5864767 C13.4542522,12.3345897 13.5667042,12.0386522 13.8185912,11.9254818 C14.5316465,11.605113 15,10.8953598 15,10.1 C15,9.31181206 14.5401038,8.60732401 13.8367498,8.28278651 C13.5860119,8.16709248 13.4765372,7.8700407 13.5922312,7.61930278 C13.7079252,7.36856486 14.004977,7.25909016 14.2557149,7.37478419 C15.310091,7.86128827 16,8.91811937 16,10.1 C16,11.2926672 15.2974382,12.3573448 14.2284175,12.8376454 Z"/>
  </g>
</svg>
