<svg xmlns="http://www.w3.org/2000/svg" width="40" height="40" viewBox="0 0 40 40">
  <g fill="#FFF" fill-rule="evenodd">
    <circle cx="20" cy="20" r="20" fill-opacity=".05"/>
    <path fill-rule="nonzero" d="M21.4000001,18.3812652 L23.2781934,16.5030719 C23.7468225,16.0344428 24.5066205,16.0344428 24.9752497,16.5030719 C25.4438789,16.9717011 25.4438789,17.7314991 24.9752497,18.2001283 L21.1939844,21.9813936 C20.9318239,22.243554 20.578542,22.3590567 20.2360889,22.3279016 C19.8936358,22.3590567 19.5403539,22.243554 19.2781934,21.9813936 L15.4969281,18.2001283 C15.0282989,17.7314991 15.0282989,16.9717011 15.4969281,16.5030719 C15.9655572,16.0344428 16.7253553,16.0344428 17.1939844,16.5030719 L19,18.3090875 L19,10.2 C19,9.53725832 19.5372583,9 20.2,9 C20.8627418,9 21.4000001,9.53725832 21.4000001,10.2 L21.4000001,18.3812652 Z M14.4754098,25.0491803 L26.5245902,25.0491803 C27.3394365,25.0491803 28,25.7097438 28,26.5245902 C28,27.3394365 27.3394365,28 26.5245902,28 L14.4754098,28 C13.6605635,28 13,27.3394365 13,26.5245902 C13,25.7097438 13.6605635,25.0491803 14.4754098,25.0491803 Z" opacity=".25"/>
  </g>
</svg>
