<svg xmlns="http://www.w3.org/2000/svg" width="40" height="40" viewBox="0 0 40 40">
  <g fill="#FFF">
    <circle cx="20" cy="20" r="20" fill-opacity=".09"/>
    <path d="M27,22.0999939 C25.840202,22.0999939 24.9,21.1597919 24.9,19.9999939 C24.9,18.8401959 25.840202,17.8999939 27,17.8999939 C28.159798,17.8999939 29.1,18.8401959 29.1,19.9999939 C29.1,21.1597919 28.159798,22.0999939 27,22.0999939 Z M13,22.0999939 C11.840202,22.0999939 10.9,21.1597919 10.9,19.9999939 C10.9,18.8401959 11.840202,17.8999939 13,17.8999939 C14.159798,17.8999939 15.1,18.8401959 15.1,19.9999939 C15.1,21.1597919 14.159798,22.0999939 13,22.0999939 Z M20,22.0999939 C18.840202,22.0999939 17.9,21.1597919 17.9,19.9999939 C17.9,18.8401959 18.840202,17.8999939 20,17.8999939 C21.159798,17.8999939 22.1,18.8401959 22.1,19.9999939 C22.1,21.1597919 21.159798,22.0999939 20,22.0999939 Z" opacity=".8"/>
  </g>
</svg>
