<svg xmlns="http://www.w3.org/2000/svg" width="40" height="40" viewBox="0 0 40 40">
  <g fill="#FFF">
    <circle cx="20" cy="20" r="20" fill-opacity=".14"/>
    <path d="M26.9999023,22.0999939 C25.8401044,22.0999939 24.8999023,21.1597919 24.8999023,19.9999939 C24.8999023,18.8401959 25.8401044,17.8999939 26.9999023,17.8999939 C28.1597003,17.8999939 29.0999023,18.8401959 29.0999023,19.9999939 C29.0999023,21.1597919 28.1597003,22.0999939 26.9999023,22.0999939 Z M12.9999023,22.0999939 C11.8401044,22.0999939 10.8999023,21.1597919 10.8999023,19.9999939 C10.8999023,18.8401959 11.8401044,17.8999939 12.9999023,17.8999939 C14.1597003,17.8999939 15.0999023,18.8401959 15.0999023,19.9999939 C15.0999023,21.1597919 14.1597003,22.0999939 12.9999023,22.0999939 Z M19.9999023,22.0999939 C18.8401044,22.0999939 17.8999023,21.1597919 17.8999023,19.9999939 C17.8999023,18.8401959 18.8401044,17.8999939 19.9999023,17.8999939 C21.1597003,17.8999939 22.0999023,18.8401959 22.0999023,19.9999939 C22.0999023,21.1597919 21.1597003,22.0999939 19.9999023,22.0999939 Z"/>
  </g>
</svg>
