<svg xmlns="http://www.w3.org/2000/svg" width="40" height="40" viewBox="0 0 40 40">
  <g fill="#FFF">
    <circle cx="20" cy="20" r="20" fill-opacity=".14"/>
    <path d="M20,18.586 L26.293,12.293 C27.236,11.35 28.65,12.764 27.707,13.707 L20.707,20.707 C20.3165001,21.0973819 19.6834999,21.0973819 19.293,20.707 L12.293,13.707 C11.35,12.764 12.764,11.35 13.707,12.293 L20,18.586 Z M20,21.414 L13.707,27.707 C12.764,28.65 11.35,27.236 12.293,26.293 L19.293,19.293 C19.6834999,18.9026181 20.3165001,18.9026181 20.707,19.293 L27.707,26.293 C28.65,27.236 27.236,28.65 26.293,27.707 L20,21.414 Z"/>
  </g>
</svg>
