<svg xmlns="http://www.w3.org/2000/svg" width="40" height="40" viewBox="0 0 40 40">
  <g fill="#FFF" fill-rule="evenodd">
    <circle cx="20" cy="20" r="20" fill-opacity=".09"/>
    <path d="M21.374539,18.3812652 L23.2527323,16.5030719 C23.7213615,16.0344428 24.4811595,16.0344428 24.9497886,16.5030719 C25.4184178,16.9717011 25.4184178,17.7314991 24.9497886,18.2001283 L21.1685233,21.9813936 C20.9063629,22.243554 20.5530809,22.3590567 20.2106278,22.3279016 C19.8681747,22.3590567 19.5148928,22.243554 19.2527323,21.9813936 L15.471467,18.2001283 C15.0028378,17.7314991 15.0028378,16.9717011 15.471467,16.5030719 C15.9400962,16.0344428 16.6998942,16.0344428 17.1685233,16.5030719 L18.9745389,18.3090875 L18.9745389,10.2 C18.9745389,9.53725832 19.5117972,9 20.174539,9 C20.8372807,9 21.374539,9.53725832 21.374539,10.2 L21.374539,18.3812652 Z M13.9754098,25.0491803 L26.0245902,25.0491803 C26.8394365,25.0491803 27.5,25.7097438 27.5,26.5245902 C27.5,27.3394365 26.8394365,28 26.0245902,28 L13.9754098,28 C13.1605635,28 12.5,27.3394365 12.5,26.5245902 C12.5,25.7097438 13.1605635,25.0491803 13.9754098,25.0491803 Z" opacity=".8"/>
  </g>
</svg>
