<svg xmlns="http://www.w3.org/2000/svg" width="40" height="40"><g fill="none" fill-rule="evenodd"><circle cx="20" cy="20" r="20" fill="#FFF" fill-opacity=".09" fill-rule="nonzero"/><g opacity=".8"><path fill="#000" fill-rule="nonzero" d="M16.355 26.88a1.263 1.263 0 0 0 0 1.756c.473.485 1.24.485 1.714 0l7.576-7.758a1.263 1.263 0 0 0 0-1.756l-7.576-7.758a1.192 1.192 0 0 0-1.714 0 1.263 1.263 0 0 0 0 1.755L23.074 20l-6.719 6.88z"/><path fill="#FFF" d="M16.355 26.88a1.263 1.263 0 0 0 0 1.756c.473.485 1.24.485 1.714 0l7.576-7.758a1.263 1.263 0 0 0 0-1.756l-7.576-7.758a1.192 1.192 0 0 0-1.714 0 1.263 1.263 0 0 0 0 1.755L23.074 20l-6.719 6.88z"/></g></g></svg>