<svg xmlns="http://www.w3.org/2000/svg" xmlns:xlink="http://www.w3.org/1999/xlink" width="16" height="16" viewBox="0 0 16 16">
  <defs>
    <path id="delivered-a" d="M12.7048097,6.77574814 C12.9391243,6.54143356 13.3190233,6.54143356 13.5533378,6.77574814 C13.7876524,7.01006271 13.7876524,7.3899617 13.5533378,7.62427628 L9.49380121,11.6838129 C9.27151055,11.9061036 8.91533216,11.9191298 8.67739769,11.7136707 L7.8267021,10.9790852 C7.57589753,10.7625126 7.54814707,10.3836285 7.76471971,10.1328239 C7.98129235,9.88201936 8.36017644,9.8542689 8.61098101,10.0708415 L9.03959939,10.4409585 L12.7048097,6.77574814 Z M5.57130873,10.408786 L10.7555777,5.17422436 C10.9887585,4.93878147 11.3686531,4.93694768 11.604096,5.17012848 C11.8395388,5.40330928 11.8413726,5.78320384 11.6081918,6.01864673 L5.99584421,11.6854398 C5.7603846,11.9231836 5.37595466,11.9223865 5.14148294,11.6836684 L2.48203772,8.97605892 C2.24983525,8.73965112 2.25324435,8.35976743 2.48965215,8.12756495 C2.72605996,7.89536248 3.10594365,7.89877158 3.33814613,8.13517938 L5.57130873,10.408786 Z"/>
  </defs>
  <g fill="none" fill-rule="evenodd">
    <mask id="delivered-b" fill="#fff">
      <use xlink:href="#delivered-a"/>
    </mask>
    <use fill="#C6C9D1" fill-rule="nonzero" xlink:href="#delivered-a"/>
     </g>
</svg>
