<svg xmlns="http://www.w3.org/2000/svg" xmlns:xlink="http://www.w3.org/1999/xlink" width="16" height="16" viewBox="0 0 16 16">
  <defs>
    <path id="status_not_sent-a" d="M8,13 C10.7614237,13 13,10.7614237 13,8 C13,5.23857625 10.7614237,3 8,3 C5.23857625,3 3,5.23857625 3,8 C3,10.7614237 5.23857625,13 8,13 Z M8,14 C4.6862915,14 2,11.3137085 2,8 C2,4.6862915 4.6862915,2 8,2 C11.3137085,2 14,4.6862915 14,8 C14,11.3137085 11.3137085,14 8,14 Z M10.4981964,8.92936914 L8.56682753,7.80006523 L8.56682753,4.9482067 C8.56682753,4.67206432 8.3429699,4.4482067 8.06682753,4.4482067 C7.79068515,4.4482067 7.56682753,4.67206432 7.56682753,4.9482067 L7.56682753,8.0869075 C7.56682753,8.26455687 7.66108924,8.42886619 7.81444659,8.51853681 L9.9934345,9.79262776 C10.2318168,9.9320139 10.5380586,9.85176167 10.6774447,9.61337938 C10.8168309,9.3749971 10.7365787,9.06875528 10.4981964,8.92936914 Z"/>
  </defs>
  <g fill="none" fill-rule="evenodd">
    <mask id="status_not_sent-b" fill="#fff">
      <use xlink:href="#status_not_sent-a"/>
    </mask>
    <use fill="#C6C9D1" fill-rule="nonzero" xlink:href="#status_not_sent-a"/>

  </g>
</svg>
