<svg width="20" height="20" viewBox="0 0 20 20" fill="none" xmlns="http://www.w3.org/2000/svg">
<path d="M5.11763 2.48913C4.32004 2.48913 3.67346 3.13571 3.67346 3.93331V16.4589C3.67346 17.2565 4.32004 17.9031 5.11763 17.9031H14.4337C15.2313 17.9031 15.8779 17.2565 15.8779 16.4589V7.83515C15.8779 7.55116 15.7626 7.27935 15.5583 7.08205L11.1079 2.78311C10.9127 2.59453 10.6519 2.48913 10.3804 2.48913H5.11763Z" stroke="black" stroke-width="1.3" stroke-linecap="round" stroke-linejoin="round"/>
<path d="M15.6765 8.14753C14.6648 8.14753 13.5427 8.14753 11.5192 8.14753C10.8429 8.14753 10.2947 7.61444 10.2947 6.95684C10.2947 4.92996 10.2947 3.7601 10.2947 2.74666" stroke="black" stroke-width="1.3" stroke-linecap="round" stroke-linejoin="round"/>
</svg>
