<svg width="20" height="20" viewBox="0 0 20 20" fill="none" xmlns="http://www.w3.org/2000/svg">
<rect x="2.60666" y="2.60664" width="14.7867" height="14.7867" rx="3.6" stroke="black" stroke-width="1.3"/>
<path d="M8.05438 9.08965C9.05596 9.08965 9.86789 8.27771 9.86789 7.27614C9.86789 6.27457 9.05596 5.46263 8.05438 5.46263C7.05281 5.46263 6.24088 6.27457 6.24088 7.27614C6.24088 8.27771 7.05281 9.08965 8.05438 9.08965Z" stroke="black" stroke-width="1.3" stroke-linecap="round" stroke-linejoin="round"/>
<path d="M3.38651 14.9119L7.01094 11.6955C7.25472 11.477 7.61465 11.4408 7.89827 11.6061L9.81226 12.7218C10.0997 12.8893 10.4649 12.8497 10.7083 12.6245L14.0559 9.52769C14.3098 9.29282 14.6944 9.26087 14.9846 9.45053L16.9325 10.76" stroke="black" stroke-width="1.3" stroke-linecap="round" stroke-linejoin="round"/>
</svg>
