<svg width="20" height="20" viewBox="0 0 20 20" fill="none" xmlns="http://www.w3.org/2000/svg">
<path fill-rule="evenodd" clip-rule="evenodd" d="M5.625 1.75C4.52043 1.75 3.625 2.64543 3.625 3.75V16.25C3.625 17.3546 4.52043 18.25 5.625 18.25H14.375C15.4796 18.25 16.375 17.3546 16.375 16.25V9.125C16.375 8.57272 15.9273 8.125 15.375 8.125H11C10.4477 8.125 10 7.67728 10 7.125V2.75C10 2.19772 9.55228 1.75 9 1.75H5.625ZM11.9786 2.60355C11.6636 2.28857 11.125 2.51165 11.125 2.95711V6C11.125 6.55228 11.5727 7 12.125 7H15.1679C15.6133 7 15.8364 6.46143 15.5214 6.14645L11.9786 2.60355Z" fill="black"/>
</svg>
