<svg width="20" height="20" viewBox="0 0 20 20" fill="none" xmlns="http://www.w3.org/2000/svg">
<path fill-rule="evenodd" clip-rule="evenodd" d="M11.8563 2.30769C11.9262 2.30769 12.0361 2.30779 12.1666 2.30795C12.9269 2.30885 13.5636 2.86785 13.7158 3.6128C13.7908 3.9801 13.8688 4.28201 13.9225 4.28319C14.7926 4.30217 15.3928 4.36346 16.0242 4.56139C17.0227 4.92181 17.809 5.70167 18.1724 6.69188C18.4615 7.59873 18.4615 7.74195 18.4615 9.4267V11.841C18.4615 13.5259 18.4615 14.3681 18.1724 15.2751C17.809 16.2653 17.0227 17.0452 16.0242 17.4055C15.1096 17.6923 14.2604 17.6923 12.5615 17.6923H7.43856C5.73962 17.6923 4.89022 17.6923 3.97581 17.4055C2.97735 17.0452 2.19099 16.2653 1.82757 15.2751C1.53847 14.3681 1.53847 13.5259 1.53847 11.841V9.4267C1.53847 7.74195 1.53847 7.59873 1.82757 6.69188C2.19099 5.70167 2.97735 4.92181 3.97581 4.56139C4.59333 4.36776 5.18119 4.3049 6.02107 4.28449C6.07603 4.28315 6.15603 3.9781 6.23291 3.60822C6.38724 2.86563 7.0226 2.30912 7.78105 2.30805C7.93315 2.30783 8.06266 2.30769 8.14369 2.30769H11.8563Z" stroke="black" stroke-width="1.3" stroke-linecap="round" stroke-linejoin="round"/>
<path fill-rule="evenodd" clip-rule="evenodd" d="M9.99999 14.6154C12.1242 14.6154 13.8461 12.8934 13.8461 10.7692C13.8461 8.64506 12.1242 6.92308 9.99999 6.92308C7.87582 6.92308 6.15384 8.64506 6.15384 10.7692C6.15384 12.8934 7.87582 14.6154 9.99999 14.6154Z" stroke="black" stroke-width="1.3" stroke-linecap="round" stroke-linejoin="round"/>
</svg>
