<?xml version="1.0" encoding="UTF-8"?>
<svg width="32px" height="32px" viewBox="0 0 32 32" version="1.1" xmlns="http://www.w3.org/2000/svg" xmlns:xlink="http://www.w3.org/1999/xlink">
    <!-- Generator: Sketch 54.1 (76490) - https://sketchapp.com -->
    <title>unlock_icon</title>
    <desc>Created with Sketch.</desc>
    <g id="Page-1" stroke="none" stroke-width="1" fill="none" fill-rule="evenodd">
        <g id="Artboard" transform="translate(-103.000000, -66.000000)">
            <g id="Group-3" transform="translate(103.000000, 66.000000)">
                <rect id="Rectangle" fill-rule="nonzero" x="0" y="0" width="32" height="32"></rect>
                <path d="M12.939,6.8177 C12.939,5.9865 13.612,5.3048 14.439,5.3048 L17.561,5.3048 C18.391,5.3048 19.061,5.9894 19.061,6.8177 L19.061,8.2198 L23.673,8.2198 C24.127,8.2198 24.502,8.5869 24.502,9.0457 C24.502,9.5049 24.128,9.8715 23.674,9.8715 L8.326,9.8715 C7.875,9.8716 7.507,9.5108 7.498,9.0457 C7.498,8.5864 7.872,8.2198 8.326,8.2198 L12.939,8.2198 L12.939,6.8177 Z M17.583,8.4031 C17.596,8.3917 17.603,8.3765 17.603,8.3587 L17.603,6.8177 C17.603,6.7871 17.579,6.7623 17.561,6.7623 L14.439,6.7623 C14.421,6.7623 14.397,6.787 14.397,6.8177 L14.397,8.3576 C14.397,8.3753 14.404,8.3922 14.418,8.404 L14.429,8.4141 L17.571,8.4141 L17.583,8.4031 Z M22.219,11.7138 C21.816,11.7138 21.49,12.0401 21.49,12.4425 L21.49,23.9138 C21.49,24.365 21.116,24.7377 20.669,24.7377 L11.331,24.7377 C11.113,24.7377 10.904,24.651 10.75,24.4967 C10.596,24.3424 10.51,24.1332 10.51,23.9151 L10.51,12.4425 C10.51,12.0401 10.184,11.7138 9.782,11.7138 C9.379,11.7138 9.053,12.0401 9.053,12.4425 L9.053,23.9138 C9.052,24.5174 9.291,25.0981 9.719,25.5263 C10.146,25.9545 10.726,26.1952 11.331,26.1952 L20.669,26.1952 C21.92,26.1952 22.947,25.1709 22.947,23.9138 L22.947,12.4425 C22.947,12.0401 22.621,11.7138 22.219,11.7138 Z" id="Shape" fill="#FFFFFF"></path>
            </g>
        </g>
    </g>
</svg>