<svg width="20" height="20" viewBox="0 0 20 20" fill="none" xmlns="http://www.w3.org/2000/svg">
<rect x="1.65" y="3.15" width="16.7" height="10.7" rx="1.35" stroke="black" stroke-width="1.3"/>
<path d="M10 14.5V17.5" stroke="black" stroke-width="1.3"/>
<path d="M6 17.5H14" stroke="black" stroke-width="1.3" stroke-linecap="round"/>
<path fill-rule="evenodd" clip-rule="evenodd" d="M8.09241 7.54558C8.09241 6.5179 8.92824 5.68359 9.9577 5.68359C10.9872 5.68359 11.823 6.5179 11.823 7.54558V7.76493C11.823 8.79257 10.9872 9.62688 9.9577 9.62688C8.92824 9.62688 8.09241 8.79257 8.09241 7.76493V7.54558Z" stroke="black" stroke-width="1.3"/>
<path fill-rule="evenodd" clip-rule="evenodd" d="M6.82446 12.8231C6.82446 11.0817 8.22841 9.66797 9.9577 9.66797C11.6869 9.66797 13.0909 11.0817 13.0909 12.8231V13.0935C13.0909 13.4004 12.8434 13.6496 12.5387 13.6496H7.37673C7.07194 13.6496 6.82446 13.4004 6.82446 13.0935V12.8231Z" stroke="black" stroke-width="1.3"/>
</svg>
