<?xml version="1.0" encoding="UTF-8"?>
<svg width="32px" height="32px" viewBox="0 0 32 32" version="1.1" xmlns="http://www.w3.org/2000/svg" xmlns:xlink="http://www.w3.org/1999/xlink">
    <!-- Generator: Sketch 54.1 (76490) - https://sketchapp.com -->
    <title>unmute__big_icon</title>
    <desc>Created with Sketch.</desc>
    <g id="Page-1" stroke="none" stroke-width="1" fill="none" fill-rule="evenodd">
        <g id="Artboard" transform="translate(-132.000000, -11.000000)">
            <g id="unmute__big_icon" transform="translate(132.000000, 11.000000)">
                <rect id="Rectangle" x="0" y="0" width="32" height="32"></rect>
                <path d="M15.526,9.3837 L10.893,14.456 L8.031,14.456 C7.91,14.456 7.812,14.554 7.812,14.6748 L7.812,17.5746 C7.812,17.6955 7.91,17.7934 8.031,17.7934 L11.118,17.7934 L15.524,22.6952 C15.605,22.7851 15.743,22.7925 15.833,22.7117 C15.879,22.6702 15.906,22.6111 15.906,22.549 L15.906,9.5313 C15.906,9.4104 15.808,9.3125 15.687,9.3125 C15.626,9.3125 15.567,9.3384 15.526,9.3837 Z M10.315,13.1435 L14.556,8.4987 C14.846,8.181 15.257,8 15.687,8 C16.533,8 17.218,8.6856 17.218,9.5313 L17.218,22.549 C17.218,22.9834 17.034,23.3974 16.711,23.6878 C16.082,24.2532 15.114,24.2016 14.548,23.5727 L10.533,19.1059 L8.031,19.1059 C7.185,19.1059 6.5,18.4203 6.5,17.5746 L6.5,14.6748 C6.5,13.8291 7.185,13.1435 8.031,13.1435 L10.315,13.1435 Z M23.834,15.9991 L26.03,18.1955 C26.287,18.4518 26.287,18.8673 26.03,19.1236 C25.774,19.3799 25.359,19.3799 25.102,19.1236 L22.906,16.9271 L20.709,19.1236 C20.453,19.3799 20.038,19.3799 19.781,19.1236 C19.525,18.8673 19.525,18.4518 19.781,18.1955 L21.978,15.9991 L19.781,13.8026 C19.525,13.5463 19.525,13.1308 19.781,12.8745 C20.038,12.6182 20.453,12.6182 20.709,12.8745 L22.906,15.071 L25.102,12.8745 C25.359,12.6182 25.774,12.6182 26.03,12.8745 C26.287,13.1308 26.287,13.5463 26.03,13.8026 L23.834,15.9991 Z" id="Shape" fill="#FFFFFF" fill-rule="nonzero"></path>
            </g>
        </g>
    </g>
</svg>