<?xml version="1.0" encoding="UTF-8"?>
<svg width="32px" height="32px" viewBox="0 0 32 32" version="1.1" xmlns="http://www.w3.org/2000/svg" xmlns:xlink="http://www.w3.org/1999/xlink">
    <!-- Generator: Sketch 54.1 (76490) - https://sketchapp.com -->
    <title>share_icon</title>
    <desc>Created with Sketch.</desc>
    <g id="Page-1" stroke="none" stroke-width="1" fill="none" fill-rule="evenodd">
        <g id="Artboard" transform="translate(-247.000000, -66.000000)">
            <g id="Group-7" transform="translate(247.000000, 66.000000)">
                <rect id="Rectangle" fill-rule="nonzero" x="0" y="0" width="32" height="32"></rect>
                <path d="M19.586,8.1723 L19.586,8.1725 L26.678,13.9599 L26.678,13.9599 C27.574,14.6909 27.574,15.8802 26.678,16.6116 L26.678,16.6116 L19.587,22.4 C18.864,22.9893 18.291,22.9955 17.962,22.8344 C17.627,22.6707 17.271,22.2024 17.271,21.2613 L17.271,19.814 L17.271,19.2181 L16.677,19.1664 C13.509,18.8906 10.921,19.7745 8.878,21.447 C8.256,21.9555 7.734,22.5014 7.307,23.048 C7.068,23.3546 6.909,23.5945 6.782,23.8056 C6.326,24.4012 5.99,24.3606 5.923,24.3349 C5.859,24.3101 5.582,24.115 5.664,23.3587 L5.668,23.3229 L5.668,23.2869 C5.667,22.8757 5.716,22.2309 5.866,21.4249 C6.114,20.0961 6.563,18.7782 7.265,17.5471 C9.018,14.4742 12.051,12.4078 16.693,11.8889 L17.271,11.8243 L17.271,11.2429 L17.271,9.3251 C17.271,8.3825 17.628,7.9092 17.965,7.7429 C18.295,7.5799 18.866,7.5845 19.586,8.1723 Z" id="Path" stroke="#FFFFFF" stroke-width="1.3"></path>
            </g>
        </g>
    </g>
</svg>