<?xml version="1.0" encoding="UTF-8"?>
<svg width="32px" height="32px" viewBox="0 0 32 32" version="1.1" xmlns="http://www.w3.org/2000/svg" xmlns:xlink="http://www.w3.org/1999/xlink">
    <!-- Generator: Sketch 54.1 (76490) - https://sketchapp.com -->
    <title>unlock_icon</title>
    <desc>Created with Sketch.</desc>
    <g id="Page-1" stroke="none" stroke-width="1" fill="none" fill-rule="evenodd">
        <g id="Artboard" transform="translate(-55.000000, -66.000000)" fill-rule="nonzero">
            <g id="Group-2" transform="translate(55.000000, 66.000000)">
                <rect id="Rectangle" x="0" y="0" width="32" height="32"></rect>
                <path d="M19.0325,14.7682 L16.422,14.7682 L12.9871,14.7682 L12.9871,11.7053 C12.9871,10.0164 14.3432,8.6423 16.0098,8.6423 C17.6069,8.6423 18.9155,9.9051 19.0221,11.4964 C19.0782,12.3343 20.458,12.4068 20.4064,11.2898 C20.2976,8.9305 18.3645,7.25 16.0098,7.25 C13.5856,7.25 11.6132,9.2487 11.6132,11.7053 L11.6132,14.7683 C10.6647,14.7683 9.8958,15.5372 9.8958,16.4857 L9.8958,22.973 C9.8958,23.9395 10.6793,24.723 11.6458,24.723 L20.3739,24.723 C21.3404,24.723 22.1239,23.9395 22.1239,22.973 L22.1239,16.4857 C22.1239,15.5372 21.355,14.7682 20.4064,14.7682 L19.0325,14.7682 Z M12.0801,15.9738 L19.9376,15.9738 C20.4209,15.9738 20.8126,16.3655 20.8126,16.8487 L20.8126,22.5362 C20.8126,23.0195 20.4209,23.4112 19.9376,23.4112 L12.0801,23.4112 C11.5969,23.4112 11.2051,23.0195 11.2051,22.5362 L11.2051,16.8487 C11.2051,16.3655 11.5969,15.9738 12.0801,15.9738 Z" id="Shape" fill="#FFFFFF"></path>
            </g>
        </g>
    </g>
</svg>