<?xml version="1.0" encoding="UTF-8"?>
<svg width="32px" height="32px" viewBox="0 0 32 32" version="1.1" xmlns="http://www.w3.org/2000/svg" xmlns:xlink="http://www.w3.org/1999/xlink">
    <!-- Generator: Sketch 54.1 (76490) - https://sketchapp.com -->
    <title>mute__big_icon</title>
    <desc>Created with Sketch.</desc>
    <g id="Page-1" stroke="none" stroke-width="1" fill="none" fill-rule="evenodd">
        <g id="Artboard" transform="translate(-92.000000, -11.000000)">
            <g id="mute__big_icon" transform="translate(92.000000, 11.000000)">
                <rect id="Rectangle" x="0" y="0" width="32" height="32"></rect>
                <path d="M15.526,9.3837 L10.894,14.456 L8.032,14.456 C7.911,14.456 7.813,14.5539 7.813,14.6748 L7.813,17.5746 C7.813,17.6954 7.911,17.7933 8.032,17.7933 L11.119,17.7933 L15.525,22.6952 C15.606,22.785 15.744,22.7924 15.834,22.7116 C15.88,22.6702 15.907,22.611 15.907,22.549 L15.907,9.5312 C15.907,9.4104 15.809,9.3125 15.688,9.3125 C15.627,9.3125 15.568,9.3383 15.526,9.3837 Z M10.315,13.1435 L14.557,8.4986 C14.847,8.1809 15.258,8 15.688,8 C16.534,8 17.219,8.6855 17.219,9.5312 L17.219,22.549 C17.219,22.9834 17.035,23.3974 16.712,23.6878 C16.083,24.2531 15.115,24.2016 14.549,23.5726 L10.534,19.1058 L8.032,19.1058 C7.186,19.1058 6.5,18.4203 6.5,17.5746 L6.5,14.6748 C6.5,13.8291 7.186,13.1435 8.032,13.1435 L10.315,13.1435 Z M19.016,13.7851 C18.781,13.5089 18.815,13.0947 19.091,12.8601 C19.368,12.6256 19.782,12.6594 20.016,12.9356 C20.776,13.8301 21.161,14.8738 21.161,16.0401 C21.161,17.2064 20.776,18.2501 20.016,19.1445 C19.782,19.4208 19.368,19.4546 19.091,19.22 C18.815,18.9854 18.781,18.5713 19.016,18.295 C19.574,17.6373 19.848,16.8945 19.848,16.0401 C19.848,15.1856 19.574,14.4429 19.016,13.7851 Z M21.396,11.5704 C21.116,11.3403 21.076,10.9267 21.306,10.6467 C21.536,10.3668 21.95,10.3264 22.23,10.5566 C23.916,11.9427 24.766,13.8173 24.766,16.1261 C24.766,18.4433 23.908,20.2702 22.206,21.5423 C21.916,21.7593 21.504,21.6998 21.287,21.4095 C21.07,21.1192 21.13,20.7079 21.42,20.491 C22.78,19.4744 23.454,18.041 23.454,16.1261 C23.454,14.2027 22.773,12.7023 21.396,11.5704 Z" id="Shape" fill="#FFFFFF" fill-rule="nonzero"></path>
            </g>
        </g>
    </g>
</svg>