<svg width="16" height="16" viewBox="0 0 16 16" fill="none" xmlns="http://www.w3.org/2000/svg">
<mask id="mask0_562:3079" style="mask-type:alpha" maskUnits="userSpaceOnUse" x="0" y="0" width="16" height="16">
<path d="M0 7.60656C0 4.02079 0 2.22791 1.11395 1.11395C2.22791 0 4.02079 0 7.60656 0H8.39344C11.9792 0 13.7721 0 14.886 1.11395C16 2.22791 16 4.02079 16 7.60656V8.39344C16 11.9792 16 13.7721 14.886 14.886C13.7721 16 11.9792 16 8.39344 16H7.60656C4.02079 16 2.22791 16 1.11395 14.886C0 13.7721 0 11.9792 0 8.39344V7.60656Z" fill="#3A3A3A"/>
</mask>
<g mask="url(#mask0_562:3079)">
<g clip-path="url(#clip0_562:3079)">
<rect width="16" height="16" fill="#313131"/>
<path d="M5.64101 15.121C5.77195 14.3129 5.83743 13.9088 5.94423 13.5676C6.38897 12.1468 7.4166 11.1178 8.64688 10.8614C8.94232 10.7998 9.28039 10.7998 9.95653 10.7998H12.1198C12.7724 10.7998 13.0986 10.7998 13.3826 10.8566C14.5335 11.0867 15.5079 11.9918 16.0003 13.2581V15.9986H12.2003C12.2003 15.9986 9.10417 15.9986 7.1203 15.9986C6.50031 15.9986 5.53271 15.9986 5.53271 15.9986C5.53271 15.9986 5.5665 15.5809 5.64101 15.121Z" fill="#0077FF"/>
<path d="M4.56023 5.91992C3.27893 5.91992 2.24023 6.95862 2.24023 8.23992C2.24023 9.52122 3.27893 10.5599 4.56023 10.5599C5.84153 10.5599 6.88023 9.52122 6.88023 8.23992C6.88023 6.95862 5.84153 5.91992 4.56023 5.91992Z" fill="white"/>
<path d="M10.6525 9.83984C12.2873 9.83984 13.6125 8.51461 13.6125 6.87984C13.6125 5.24508 12.2873 3.91984 10.6525 3.91984C9.01779 3.91984 7.69255 5.24508 7.69255 6.87984C7.69255 8.51461 9.01779 9.83984 10.6525 9.83984Z" fill="white"/>
<path fill-rule="evenodd" clip-rule="evenodd" d="M5.94061 11.5129C5.77017 11.5029 5.55636 11.5029 5.2544 11.5029H3.46553C2.94836 11.5029 2.68978 11.5029 2.46474 11.5531C1.45088 11.7792 0.609851 12.7421 0.274102 14.0611C0.199578 14.3539 0.155776 14.7001 0.0681722 15.3925C0.0205206 15.7691 0 15.9993 0 15.9993H4.57248C4.57248 15.9993 4.61818 15.4109 4.67978 15.0322C4.68172 15.0203 4.68368 15.0083 4.68564 14.9962C4.68809 14.9811 4.69056 14.9659 4.69303 14.9506L4.70648 14.8676C4.82446 14.1389 4.90012 13.6716 5.02773 13.264C5.23021 12.6171 5.54113 12.021 5.94061 11.5129Z" fill="#0077FF"/>
</g>
</g>
<defs>
<clipPath id="clip0_562:3079">
<rect width="16" height="16" fill="white"/>
</clipPath>
</defs>
</svg>
