<svg width="512" height="512" viewBox="0 0 512 512" fill="none" xmlns="http://www.w3.org/2000/svg">
<mask id="mask0_562:3069" style="mask-type:alpha" maskUnits="userSpaceOnUse" x="0" y="0" width="512" height="512">
<path d="M0 243.41C0 128.665 0 71.2931 35.6465 35.6465C71.2931 0 128.665 0 243.41 0H268.59C383.335 0 440.707 0 476.353 35.6465C512 71.2931 512 128.665 512 243.41V268.59C512 383.335 512 440.707 476.353 476.353C440.707 512 383.335 512 268.59 512H243.41C128.665 512 71.2931 512 35.6465 476.353C0 440.707 0 383.335 0 268.59V243.41Z" fill="#3A3A3A"/>
</mask>
<g mask="url(#mask0_562:3069)">
<g clip-path="url(#clip0_562:3069)">
<rect width="512" height="512" fill="#313131"/>
<path d="M180.512 483.879C184.702 458.018 186.797 445.088 190.215 434.169C204.446 388.703 237.33 355.776 276.699 347.57C286.154 345.6 296.972 345.6 318.608 345.6H387.834C408.715 345.6 419.155 345.6 428.242 347.417C465.071 354.782 496.252 383.743 512.009 424.264V511.961H390.409C390.409 511.961 291.333 511.961 227.849 511.961C208.009 511.961 177.046 511.961 177.046 511.961C177.046 511.961 178.127 498.596 180.512 483.879Z" fill="#0077FF"/>
<path d="M145.929 189.44C104.928 189.44 71.6895 222.679 71.6895 263.68C71.6895 304.682 104.928 337.92 145.929 337.92C186.931 337.92 220.169 304.682 220.169 263.68C220.169 222.679 186.931 189.44 145.929 189.44Z" fill="white"/>
<path d="M340.879 314.88C393.192 314.88 435.599 272.472 435.599 220.16C435.599 167.847 393.192 125.44 340.879 125.44C288.567 125.44 246.159 167.847 246.159 220.16C246.159 272.472 288.567 314.88 340.879 314.88Z" fill="white"/>
<path fill-rule="evenodd" clip-rule="evenodd" d="M190.1 368.417C184.645 368.098 177.804 368.098 168.141 368.098H110.897C94.3476 368.098 86.0729 368.098 78.8716 369.703C46.4283 376.938 19.5152 407.75 8.77128 449.96C6.38649 459.329 4.98483 470.408 2.18151 492.564C0.65666 504.616 0 511.982 0 511.982H146.319C146.319 511.982 147.782 493.153 149.753 481.035C149.815 480.652 149.878 480.268 149.941 479.881C150.019 479.399 150.098 478.913 150.177 478.424L150.607 475.767C154.383 452.449 156.804 437.495 160.887 424.451C167.367 403.751 177.316 384.675 190.1 368.417Z" fill="#0077FF"/>
</g>
</g>
<defs>
<clipPath id="clip0_562:3069">
<rect width="512" height="512" fill="white"/>
</clipPath>
</defs>
</svg>
