<svg width="28" height="28" viewBox="0 0 28 28" fill="none" xmlns="http://www.w3.org/2000/svg">
<path fill-rule="evenodd" clip-rule="evenodd" d="M11.9278 15.9371C13.9536 17.9652 15.6609 18.3564 15.6609 18.3564C15.6609 18.3564 16.5593 16.6086 17.7707 16.2758C18.4288 16.095 20.3142 16.6627 22.005 17.4307C23.6958 18.1986 24.0142 18.8777 23.9995 19.869C23.9857 20.8034 23.4428 21.9421 22.7147 22.7654C22.2168 23.3284 21.292 24.1579 19.254 23.9739C16.8121 23.7533 13.3184 22.4659 9.35211 18.5284L9.25835 18.4349C5.32082 14.3611 4.13224 10.8647 4.00818 8.45549C3.90539 6.46057 4.79365 5.59379 5.3909 5.13198C6.26451 4.45665 7.45309 3.97513 8.41027 4.00099C9.42569 4.02837 10.1076 4.36741 10.8226 6.0483C11.5377 7.72929 12.0395 9.59158 11.8267 10.2256C11.4351 11.3928 9.60798 12.1953 9.60798 12.1953C9.60798 12.1953 9.93665 13.8765 11.9278 15.9371Z" stroke="#B7BCC9" stroke-width="1.3" stroke-linecap="round" stroke-linejoin="round"/>
</svg>
