<svg xmlns="http://www.w3.org/2000/svg" width="28" height="28" viewBox="0 0 28 28">
  <g fill="none" fill-rule="evenodd">
    <path fill="#7E848F" fill-rule="nonzero" d="M10.4351106,2.09916986 C7.57049523,2.09916986 6.49075123,2.40549437 5.41519568,2.98070778 C4.33964012,3.55592118 3.49553783,4.40002348 2.92032442,5.47557903 C2.34511102,6.55113459 2.0387865,7.63087859 2.0387865,10.4954939 L2.0387865,21.6540969 C2.0387865,21.9298922 2.14238789,22.1956252 2.32906243,22.3986416 C2.74026315,22.8458399 3.43613302,22.8750217 3.88333128,22.4638209 L6.77923011,19.8010295 C6.98064011,19.6158321 7.05586542,19.5589285 7.14792774,19.5048944 C7.23999006,19.4508603 7.33244777,19.4148137 7.4367895,19.3922758 C7.54113124,19.3697378 7.63502126,19.3607083 7.90863422,19.3607083 L15.0511069,19.3607083 C16.7053489,19.3607083 17.9868218,19.0543838 19.0623773,18.4791704 C20.1379329,17.903957 20.9820352,17.0598547 21.5572486,15.9842991 C22.132462,14.9087436 22.4387865,13.6272707 22.4387865,11.9730287 L22.4387865,9.88897873 C22.4387865,7.75218163 22.132462,6.55113459 21.5572486,5.47557903 C20.9820352,4.40002348 20.1379329,3.55592118 19.0623773,2.98070778 C17.9868218,2.40549437 16.7857747,2.09916986 14.6489776,2.09916986 L10.4351106,2.09916986 Z M4.92569396,23.5974346 C3.85241815,24.5843164 2.18233046,24.5142802 1.19544872,23.4410043 C0.747429845,22.9537648 0.498786499,22.3160057 0.498786499,21.6540969 L0.498786499,10.4954939 C0.498786499,7.64469367 0.776482613,6.21872757 1.5623321,4.74931679 C2.28107319,3.40538779 3.34500443,2.34145655 4.68893343,1.62271545 C6.15834421,0.836865969 7.58431032,0.559169855 10.4351106,0.559169855 L14.6489776,0.559169855 C16.8995447,0.559169855 18.3893638,0.874374586 19.7886396,1.62271545 C21.1325686,2.34145655 22.1964998,3.40538779 22.9152409,4.74931679 C23.6635818,6.14859255 23.9787865,7.63841167 23.9787865,9.88897873 L23.9787865,11.9730287 C23.9787865,13.8272683 23.6328129,15.3688184 22.9152409,16.7105614 C22.1964998,18.0544904 21.1325686,19.1184216 19.7886396,19.8371627 C18.4468966,20.5547347 16.9053465,20.9007083 15.0511069,20.9007083 L7.90863422,20.9007083 C7.86800052,20.9073428 6.8736871,21.8062516 4.92569396,23.5974346 Z M6.93202635,12.6246391 C7.77382637,12.6246391 8.45624012,11.9422253 8.45624012,11.1004253 C8.45624012,10.2586253 7.77382637,9.57621155 6.93202635,9.57621155 C6.09022633,9.57621155 5.40781259,10.2586253 5.40781259,11.1004253 C5.40781259,11.9422253 6.09022633,12.6246391 6.93202635,12.6246391 Z M12.0127389,12.6246391 C12.8545389,12.6246391 13.5369527,11.9422253 13.5369527,11.1004253 C13.5369527,10.2586253 12.8545389,9.57621155 12.0127389,9.57621155 C11.1709389,9.57621155 10.4885251,10.2586253 10.4885251,11.1004253 C10.4885251,11.9422253 11.1709389,12.6246391 12.0127389,12.6246391 Z M17.0934515,12.6246391 C17.9352515,12.6246391 18.6176652,11.9422253 18.6176652,11.1004253 C18.6176652,10.2586253 17.9352515,9.57621155 17.0934515,9.57621155 C16.2516514,9.57621155 15.5692377,10.2586253 15.5692377,11.1004253 C15.5692377,11.9422253 16.2516514,12.6246391 17.0934515,12.6246391 Z" transform="translate(2 2)"/>
  </g>
</svg>
