<svg xmlns="http://www.w3.org/2000/svg" xmlns:xlink="http://www.w3.org/1999/xlink" width="28" height="28" viewBox="0 0 28 28">
  <defs>
    <path id="chats_tab_icon_active-a" d="M10.6695065,2.27410068 L16.2408904,2.27410068 C18.7112708,2.27410068 19.8567206,2.58042519 20.9322762,3.1556386 C22.0078318,3.730852 22.851934,4.5749543 23.4271475,5.65050985 C24.0023609,6.72606541 24.3086854,7.87151523 24.3086854,10.3418957 L24.3086854,13.3419457 C24.3086854,15.2895581 24.0023609,16.5221359 23.4271475,17.5976915 C22.851934,18.6732471 22.0078318,19.5173493 20.9322762,20.0925628 C19.8567206,20.6677762 18.6241428,20.9741007 16.6765304,20.9741007 L8.51347572,20.9741007 C8.23986276,20.9741007 8.14597275,20.9831301 8.04163101,21.0056681 C7.93728927,21.0282061 7.84483157,21.0642526 7.75276924,21.1182867 C7.66070692,21.1723209 7.58548162,21.2292245 7.38407162,21.4144218 L4.05323015,24.4771449 C3.60603189,24.8883457 2.91016203,24.8591639 2.4989613,24.4119656 C2.31228677,24.2089491 2.20868537,23.9432162 2.20868537,23.6674209 L2.20868537,15.9025698 L2.20868537,10.7349218 C2.20868537,7.79290999 2.51500989,6.72606541 3.0902233,5.65050985 C3.6654367,4.5749543 4.509539,3.730852 5.58509455,3.1556386 C6.66065011,2.58042519 7.72749469,2.27410068 10.6695065,2.27410068 Z M7.50969522,13.6766923 C8.42164524,13.6766923 9.1609268,12.9374108 9.1609268,12.0254608 C9.1609268,11.1135107 8.42164524,10.3742292 7.50969522,10.3742292 C6.5977452,10.3742292 5.85846363,11.1135107 5.85846363,12.0254608 C5.85846363,12.9374108 6.5977452,13.6766923 7.50969522,13.6766923 Z M13.0138005,13.6766923 C13.9257505,13.6766923 14.6650321,12.9374108 14.6650321,12.0254608 C14.6650321,11.1135107 13.9257505,10.3742292 13.0138005,10.3742292 C12.1018505,10.3742292 11.3625689,11.1135107 11.3625689,12.0254608 C11.3625689,12.9374108 12.1018505,13.6766923 13.0138005,13.6766923 Z M18.5179058,13.6766923 C19.4298558,13.6766923 20.1691373,12.9374108 20.1691373,12.0254608 C20.1691373,11.1135107 19.4298558,10.3742292 18.5179058,10.3742292 C17.6059557,10.3742292 16.8666742,11.1135107 16.8666742,12.0254608 C16.8666742,12.9374108 17.6059557,13.6766923 18.5179058,13.6766923 Z"/>
  </defs>
  <g fill="none" fill-rule="evenodd" transform="translate(1 1)">
    <use fill="#57B359" xlink:href="#chats_tab_icon_active-a"/>
  </g>
</svg>
