<svg xmlns="http://www.w3.org/2000/svg" xmlns:xlink="http://www.w3.org/1999/xlink" width="28" height="28"><defs><path id="a" d="M18.406 15.1a3.767 3.767 0 0 1-1.918-3.293c0-2.076 1.66-3.759 3.707-3.759 2.047 0 3.706 1.683 3.706 3.76 0 1.423-.78 2.662-1.93 3.3a5.424 5.424 0 0 1 3.855 3.344c.506 1.308-.128 2.785-1.418 3.298a2.477 2.477 0 0 1-.917.177h-4.863c.324-1.015.361-1.975.112-2.882-.25-.906-.821-1.908-1.716-3.006.337-.466.797-.78 1.382-.938zm-9.03.162h1.18c2.609 0 4.94 1.656 5.832 4.144.44 1.227-.184 2.583-1.394 3.03a2.301 2.301 0 0 1-.796.142H5.733c-1.287 0-2.33-1.059-2.33-2.364 0-.276.047-.55.14-.808.892-2.488 3.223-4.144 5.833-4.144zm0-1.422h1.18c3.199 0 6.057 2.03 7.15 5.08.705 1.965-.295 4.137-2.233 4.852-.408.15-.84.228-1.275.228H5.733C3.67 24 2 22.305 2 20.214c0-.442.076-.88.225-1.294 1.093-3.05 3.951-5.08 7.15-5.08zm.5.71c-2.6 0-4.707-2.137-4.707-4.775C5.169 7.138 7.277 5 9.877 5s4.708 2.138 4.708 4.775c0 2.638-2.108 4.776-4.708 4.776z"/></defs><use fill="#57B359" fill-rule="nonzero" xlink:href="#a"/></svg>