<svg xmlns="http://www.w3.org/2000/svg" xmlns:xlink="http://www.w3.org/1999/xlink" width="28" height="28"><defs><path id="a" d="M18.341 14.921a3.7 3.7 0 1 1 3.595.027 5.392 5.392 0 0 1 3.849 3.292 2.504 2.504 0 0 1-2.331 3.42h-6.015v-1.4h6.015a1.104 1.104 0 0 0 1.028-1.508 3.991 3.991 0 0 0-3.715-2.532H19.38a3.991 3.991 0 0 0-3.052 1.42l-1.07-.903a5.395 5.395 0 0 1 3.082-1.816zM20.163 14a2.3 2.3 0 1 0 0-4.6 2.3 2.3 0 0 0 0 4.6zm-10.8 1.1a6.196 6.196 0 0 0-5.823 4.078A2.326 2.326 0 0 0 5.726 22.3h8.45a2.326 2.326 0 0 0 2.187-3.122A6.196 6.196 0 0 0 10.54 15.1H9.363zm0-1.4h1.177a7.596 7.596 0 0 1 7.139 5 3.726 3.726 0 0 1-3.502 5h-8.45a3.726 3.726 0 0 1-3.503-5 7.596 7.596 0 0 1 7.139-5zm.5.7a4.7 4.7 0 1 1 0-9.4 4.7 4.7 0 0 1 0 9.4zm0-1.4a3.3 3.3 0 1 0 0-6.6 3.3 3.3 0 0 0 0 6.6z"/></defs><use fill="#A8ADB8" fill-rule="nonzero" xlink:href="#a"/></svg>