<svg width="28" height="28" viewBox="0 0 28 28" fill="none" xmlns="http://www.w3.org/2000/svg">
<path fill-rule="evenodd" clip-rule="evenodd" d="M9.25044 18.5H7.28295C7.22994 18.5 7.17659 18.496 7.12328 18.4877C4.83543 18.3204 3.00044 16.4525 3.00044 14.1387L3.00002 11.8613C3.00002 9.54744 4.83528 7.67946 7.12331 7.51224C7.17521 7.50422 7.22839 7.5 7.28252 7.5H11.5163H15.75L20.0764 3.68775C20.5669 3.25913 21.2135 3 21.9174 3C22.5928 3 23.2476 3.17168 23.7438 3.60314C24.2557 4.0482 24.5004 4.68405 24.5004 5.40184V20.5698C24.5004 21.2863 24.2569 21.9258 23.7521 22.378C23.2589 22.8199 22.6031 23.0053 21.9174 23.0053C21.2987 23.0053 20.7239 22.805 20.2608 22.4653C20.2099 22.4278 20.1595 22.3882 20.1108 22.3471L15.7504 18.5H12.7505C12.7747 18.5619 12.8224 18.6747 12.8721 18.7921C12.9281 18.9245 12.9865 19.0626 13.0165 19.1401C13.3308 19.9535 13.7121 20.9697 13.9636 21.7421C14.178 22.4005 14.4139 23.2557 14.0645 23.7562C13.7313 24.2334 13.4297 24.3178 13.1187 24.3768C12.1208 24.5664 11.3982 24.147 10.9189 22.8607C10.8062 22.5583 10.5958 22.0186 10.3582 21.4094C9.94897 20.36 9.45929 19.1043 9.25044 18.5ZM16.5004 11C16.5004 10.5858 16.1647 10.25 15.7504 10.25C15.3362 10.25 15.0004 10.5858 15.0004 11V15C15.0004 15.4142 15.3362 15.75 15.7504 15.75C16.1647 15.75 16.5004 15.4142 16.5004 15V11Z" fill="white"/>
</svg>
