<svg width="28" height="28" viewBox="0 0 28 28" fill="none" xmlns="http://www.w3.org/2000/svg">
<path fill-rule="evenodd" clip-rule="evenodd" d="M8.53772 6.63897C8.17873 6.63897 7.88772 6.34795 7.88772 5.98897V5.3H5.5C4.56112 5.3 3.8 6.06112 3.8 7V23C3.8 23.9389 4.56112 24.7 5.5 24.7H22.5C23.4389 24.7 24.2 23.9389 24.2 23V7C24.2 6.06112 23.4389 5.3 22.5 5.3H20.1592V5.98897C20.1592 6.34795 19.8681 6.63897 19.5092 6.63897C19.1502 6.63897 18.8592 6.34795 18.8592 5.98897V5.3H9.18772V5.98897C9.18772 6.34795 8.8967 6.63897 8.53772 6.63897ZM7.88772 4V3.06176C7.88772 2.70277 8.17873 2.41176 8.53772 2.41176C8.8967 2.41176 9.18772 2.70277 9.18772 3.06176V4H18.8592V3.06176C18.8592 2.70277 19.1502 2.41176 19.5092 2.41176C19.8681 2.41176 20.1592 2.70277 20.1592 3.06176V4H22.5C24.1569 4 25.5 5.34315 25.5 7V23C25.5 24.6569 24.1569 26 22.5 26H5.5C3.84315 26 2.5 24.6569 2.5 23V7C2.5 5.34315 3.84315 4 5.5 4H7.88772Z" fill="#B7BCC9"/>
</svg>
