<svg width="28" height="28" viewBox="0 0 28 28" fill="none" xmlns="http://www.w3.org/2000/svg">
<path fill-rule="evenodd" clip-rule="evenodd" d="M16.3432 8.16364L20.811 4.27129C21.1695 3.95448 21.6453 3.76135 22.167 3.76135C23.281 3.76135 24 4.32838 24 5.41319V20.5956C24 21.6804 23.281 22.2811 22.167 22.2811C21.7119 22.2811 21.2918 22.1341 20.954 21.8863C20.9164 21.8587 20.88 21.83 20.8446 21.8001L16.3426 17.9911L12 18C12 18 13.0105 20.4966 13.5 22C14.1085 23.869 11.209 24.3528 10.565 22.6246C9.95828 20.9963 8.9417 17.9911 8.9417 17.9911H7.5325C7.50998 17.9911 7.48781 17.9885 7.466 17.9834C5.53206 17.8615 4 16.2935 4 14.3798V11.7749C4 9.86126 5.53206 8.29323 7.466 8.17129C7.48781 8.16625 7.50998 8.16364 7.5325 8.16364H16.3432Z" stroke="white" stroke-width="1.5" stroke-linecap="round" stroke-linejoin="round"/>
<path d="M15.5 11V15" stroke="white" stroke-width="1.5" stroke-linecap="round"/>
</svg>
