<svg width="28" height="28" viewBox="0 0 28 28" fill="none" xmlns="http://www.w3.org/2000/svg">
<path fill-rule="evenodd" clip-rule="evenodd" d="M9.55273 4.11113V3.09937C9.55273 2.54708 9.10502 2.09937 8.55273 2.09937C8.00045 2.09937 7.55273 2.54708 7.55273 3.09937V4.11113H5.5C3.84315 4.11113 2.5 5.45428 2.5 7.11113V22.9006C2.5 24.5575 3.84315 25.9006 5.5 25.9006H22.5C24.1569 25.9006 25.5 24.5575 25.5 22.9006V7.11113C25.5 5.45428 24.1569 4.11113 22.5 4.11113H20.4473V3.09937C20.4473 2.54708 19.9995 2.09937 19.4473 2.09937C18.895 2.09937 18.4473 2.54708 18.4473 3.09937V4.11113H9.55273Z" fill="white"/>
</svg>
