<svg width="28" height="28" viewBox="0 0 28 28" fill="none" xmlns="http://www.w3.org/2000/svg">
<path d="M6.5 10.3333C7.88071 10.3333 9 11.4277 9 12.7778V22.5556C9 23.9056 7.88071 25 6.5 25C5.11929 25 4 23.9056 4 22.5556V12.7778C4 11.4277 5.11929 10.3333 6.5 10.3333ZM21.5 14C22.8807 14 24 15.0944 24 16.4444V22.5556C24 23.9056 22.8807 25 21.5 25C20.1193 25 19 23.9056 19 22.5556V16.4444C19 15.0944 20.1193 14 21.5 14ZM14 3C15.3807 3 16.5 4.09441 16.5 5.44444V22.5556C16.5 23.9056 15.3807 25 14 25C12.6193 25 11.5 23.9056 11.5 22.5556V5.44444C11.5 4.09441 12.6193 3 14 3Z" fill="white"/>
</svg>
