<svg width="28" height="28" viewBox="0 0 28 28" fill="none" xmlns="http://www.w3.org/2000/svg">
<path d="M6.5 11.0333C7.50903 11.0333 8.3 11.8291 8.3 12.7778V22.5556C8.3 23.5042 7.50903 24.3 6.5 24.3C5.49097 24.3 4.7 23.5042 4.7 22.5556V12.7778C4.7 11.8291 5.49097 11.0333 6.5 11.0333ZM21.5 14.7C22.509 14.7 23.3 15.4958 23.3 16.4444V22.5556C23.3 23.5042 22.509 24.3 21.5 24.3C20.491 24.3 19.7 23.5042 19.7 22.5556V16.4444C19.7 15.4958 20.491 14.7 21.5 14.7ZM14 3.7C15.009 3.7 15.8 4.49576 15.8 5.44444V22.5556C15.8 23.5042 15.009 24.3 14 24.3C12.991 24.3 12.2 23.5042 12.2 22.5556V5.44444C12.2 4.49576 12.991 3.7 14 3.7Z" stroke="white" stroke-width="1.4"/>
</svg>
