<svg width="28" height="28" viewBox="0 0 28 28" fill="none" xmlns="http://www.w3.org/2000/svg">
<path d="M23.3994 11.9658C23.3994 13.8664 21.8737 15.3974 20.0038 15.3974C18.134 15.3974 16.6083 13.8664 16.6083 11.9658C16.6083 10.0651 18.134 8.53422 20.0038 8.53422C21.8737 8.53422 23.3994 10.0651 23.3994 11.9658Z" stroke="white" stroke-width="1.3"/>
<path d="M17.8956 21.8421C17.8956 21.8421 21.7878 21.8421 24.0956 21.8421C27.445 21.8421 26.9802 15.4703 20.0571 15.4703C16.5955 15.4703 16.2307 16.8842 16.2307 16.8842" stroke="white" stroke-width="1.3"/>
<path d="M14.7133 9.63851C14.7133 12.1593 12.6632 14.206 10.1304 14.206C7.59749 14.206 5.54746 12.1593 5.54746 9.63851C5.54746 7.11773 7.59749 5.07097 10.1304 5.07097C12.6632 5.07097 14.7133 7.11773 14.7133 9.63851Z" stroke="white" stroke-width="1.3"/>
<path d="M10.1246 14.297C1.58336 14.297 -0.23996 23.5991 4.25274 23.5991H15.6159C20.2329 23.5991 18.647 14.297 10.1246 14.297Z" stroke="white" stroke-width="1.3"/>
</svg>
