<svg width="28" height="28" viewBox="0 0 28 28" fill="none" xmlns="http://www.w3.org/2000/svg">
<mask id="path-1-inside-1" fill="white">
<path fill-rule="evenodd" clip-rule="evenodd" d="M12.1279 14.4768C14.027 13.6907 15.363 11.8196 15.363 9.6364C15.363 6.74443 13.0186 4.40002 10.1266 4.40002C7.23466 4.40002 4.89026 6.74443 4.89026 9.6364C4.89026 11.8185 6.22494 13.6888 8.12247 14.4755C1.31934 15.7835 0.132102 23.6001 4.25133 23.6001H15.6211C16.1986 23.6001 16.679 23.4546 17.0611 23.2001C19.4791 21.5892 17.9557 15.6093 12.1279 14.4768ZM22.5796 15.1228C23.4982 14.376 24.0904 13.2383 24.0904 11.9637C24.0904 9.71442 22.2669 7.89099 20.0176 7.89099C17.7683 7.89099 15.9449 9.71442 15.9449 11.9637C15.9449 12.8595 16.2373 13.6877 16.7301 14.3601C18.1369 15.4251 19.1276 16.7995 19.6734 18.2345C20.192 19.598 20.3451 21.1346 19.9079 22.5046H24.0903C25.1677 22.5046 25.9952 21.9786 26.4335 21.162C26.8578 20.3713 26.8844 19.376 26.5514 18.4373C26.0467 17.015 24.7318 15.7054 22.5796 15.1228Z"/>
</mask>
<path fill-rule="evenodd" clip-rule="evenodd" d="M12.1279 14.4768C14.027 13.6907 15.363 11.8196 15.363 9.6364C15.363 6.74443 13.0186 4.40002 10.1266 4.40002C7.23466 4.40002 4.89026 6.74443 4.89026 9.6364C4.89026 11.8185 6.22494 13.6888 8.12247 14.4755C1.31934 15.7835 0.132102 23.6001 4.25133 23.6001H15.6211C16.1986 23.6001 16.679 23.4546 17.0611 23.2001C19.4791 21.5892 17.9557 15.6093 12.1279 14.4768ZM22.5796 15.1228C23.4982 14.376 24.0904 13.2383 24.0904 11.9637C24.0904 9.71442 22.2669 7.89099 20.0176 7.89099C17.7683 7.89099 15.9449 9.71442 15.9449 11.9637C15.9449 12.8595 16.2373 13.6877 16.7301 14.3601C18.1369 15.4251 19.1276 16.7995 19.6734 18.2345C20.192 19.598 20.3451 21.1346 19.9079 22.5046H24.0903C25.1677 22.5046 25.9952 21.9786 26.4335 21.162C26.8578 20.3713 26.8844 19.376 26.5514 18.4373C26.0467 17.015 24.7318 15.7054 22.5796 15.1228Z" fill="white" mask="url(#path-1-inside-1)"/>
<path d="M12.1279 14.4768L11.6307 13.2756L7.63749 14.9284L11.8799 15.7529L12.1279 14.4768ZM8.12247 14.4755L8.36791 15.7522L12.6227 14.9341L8.62038 13.2747L8.12247 14.4755ZM17.0611 23.2001L17.7819 24.282H17.7819L17.0611 23.2001ZM22.5796 15.1228L21.7596 14.1141L19.7907 15.7147L22.2399 16.3777L22.5796 15.1228ZM16.7301 14.3601L15.6815 15.1285L15.7939 15.2819L15.9454 15.3966L16.7301 14.3601ZM19.6734 18.2345L20.8885 17.7724V17.7724L19.6734 18.2345ZM19.9079 22.5046L18.6694 22.1093L18.1283 23.8046H19.9079V22.5046ZM26.4335 21.162L25.288 20.5473L26.4335 21.162ZM26.5514 18.4373L25.3262 18.8719L26.5514 18.4373ZM14.063 9.6364C14.063 11.2755 13.0608 12.6837 11.6307 13.2756L12.6251 15.6779C14.9931 14.6978 16.663 12.3636 16.663 9.6364H14.063ZM10.1266 5.70002C12.3006 5.70002 14.063 7.4624 14.063 9.6364H16.663C16.663 6.02646 13.7366 3.10002 10.1266 3.10002V5.70002ZM6.19026 9.6364C6.19026 7.4624 7.95264 5.70002 10.1266 5.70002V3.10002C6.5167 3.10002 3.59026 6.02646 3.59026 9.6364H6.19026ZM8.62038 13.2747C7.19144 12.6822 6.19026 11.2747 6.19026 9.6364H3.59026C3.59026 12.3622 5.25845 14.6954 7.62457 15.6764L8.62038 13.2747ZM7.87703 13.1989C3.98978 13.9463 1.61349 16.5838 0.845359 19.1564C0.467287 20.4226 0.447889 21.7924 0.989791 22.921C1.57321 24.1361 2.73415 24.9001 4.25133 24.9001V22.3001C3.70889 22.3001 3.47353 22.087 3.33362 21.7956C3.15219 21.4178 3.08245 20.7517 3.33667 19.9002C3.83314 18.2375 5.45204 16.3128 8.36791 15.7522L7.87703 13.1989ZM4.25133 24.9001H15.6211V22.3001H4.25133V24.9001ZM15.6211 24.9001C16.4232 24.9001 17.1613 24.6954 17.7819 24.282L16.3403 22.1182C16.1968 22.2138 15.9739 22.3001 15.6211 22.3001V24.9001ZM17.7819 24.282C18.771 23.623 19.2763 22.5669 19.4187 21.4867C19.5608 20.4099 19.3601 19.2365 18.877 18.1364C17.9014 15.9148 15.7158 13.8497 12.3759 13.2006L11.8799 15.7529C14.3679 16.2364 15.8578 17.7275 16.4964 19.1817C16.8203 19.9195 16.9113 20.614 16.8411 21.1468C16.7712 21.6762 16.5602 21.9717 16.3403 22.1182L17.7819 24.282ZM22.7904 11.9637C22.7904 12.826 22.3911 13.6007 21.7596 14.1141L23.3996 16.1316C24.6054 15.1514 25.3904 13.6505 25.3904 11.9637H22.7904ZM20.0176 9.19099C21.549 9.19099 22.7904 10.4324 22.7904 11.9637H25.3904C25.3904 8.99645 22.9849 6.59099 20.0176 6.59099V9.19099ZM17.2449 11.9637C17.2449 10.4324 18.4863 9.19099 20.0176 9.19099V6.59099C17.0503 6.59099 14.6449 8.99645 14.6449 11.9637H17.2449ZM17.7787 13.5917C17.4424 13.1328 17.2449 12.5717 17.2449 11.9637H14.6449C14.6449 13.1473 15.0323 14.2426 15.6815 15.1285L17.7787 13.5917ZM20.8885 17.7724C20.2559 16.1093 19.116 14.5358 17.5148 13.3236L15.9454 15.3966C17.1578 16.3144 17.9993 17.4898 18.4583 18.6967L20.8885 17.7724ZM21.1463 22.8999C21.6937 21.1846 21.4844 19.3394 20.8885 17.7724L18.4583 18.6967C18.8995 19.8566 18.9965 21.0846 18.6694 22.1093L21.1463 22.8999ZM24.0903 21.2046H19.9079V23.8046H24.0903V21.2046ZM25.288 20.5473C25.0825 20.9302 24.7022 21.2046 24.0903 21.2046V23.8046C25.6332 23.8046 26.908 23.027 27.579 21.7766L25.288 20.5473ZM25.3262 18.8719C25.5611 19.5341 25.5073 20.1386 25.288 20.5473L27.579 21.7766C28.2083 20.6039 28.2077 19.218 27.7765 18.0026L25.3262 18.8719ZM22.2399 16.3777C24.0355 16.8637 24.9824 17.9029 25.3262 18.8719L27.7765 18.0026C27.1111 16.1271 25.4281 14.5471 22.9193 13.868L22.2399 16.3777Z" mask="url(#path-1-inside-1)"/>
</svg>
