<svg width="26" height="22" viewBox="0 0 26 22" fill="none" xmlns="http://www.w3.org/2000/svg">
<path d="M6.66722 19.2649C8.50967 20.3566 10.6331 20.9614 12.8211 20.9982C15.152 21.0374 17.433 20.4299 19.3991 19.2649M6.66722 19.2649C6.07371 18.9132 5.50936 18.511 4.98139 18.0609C2.81444 16.2139 1.40267 13.6824 1 10.922L3.91959 9.78049C3.91959 9.78049 1.38805 3.43902 5.43852 3.43902C9.489 3.43902 6.95745 9.78049 6.95745 9.78049L7.97007 10.8139M6.66722 19.2649V11.7317L7.97007 10.8139M7.97007 10.8139L11.5142 8.31707C11.5142 8.31707 7.97006 1 13.0332 1C18.0963 1 14.5521 8.31707 14.5521 8.31707L18.0963 10.8139M19.3991 19.2649C19.8731 18.984 20.3288 18.6708 20.7624 18.3263C22.995 16.5532 24.4976 14.0708 25 11.3256L22.1468 9.78049C22.1468 9.78049 24.6783 3.43902 20.6278 3.43902C16.5773 3.43902 19.1089 9.78049 19.1089 9.78049L18.0963 10.8139M19.3991 19.2649V11.7317L18.0963 10.8139" stroke="white" stroke-width="1.3" stroke-linejoin="round"/>
</svg>
