<svg width="28" height="28" viewBox="0 0 28 28" fill="none" xmlns="http://www.w3.org/2000/svg">
<path d="M9.65002 6C9.65002 4.89543 10.5455 4 11.65 4H15.65C16.7546 4 17.65 4.89543 17.65 6C17.65 7.10457 16.7546 8 15.65 8H11.65C10.5455 8 9.65002 7.10457 9.65002 6Z" fill="#A1A6B7"/>
<path fill-rule="evenodd" clip-rule="evenodd" d="M9 6.00001C9 5.77574 9.02786 5.55799 9.0803 5.35001H7.65C6.18645 5.35001 5 6.53645 5 8.00001V9.00001V21V22C5 23.4636 6.18645 24.65 7.65 24.65H19.65C21.1136 24.65 22.3 23.4636 22.3 22V21V9.00001V8.00001C22.3 6.53645 21.1136 5.35001 19.65 5.35001H18.2197C18.2721 5.55799 18.3 5.77574 18.3 6.00001C18.3 7.46356 17.1136 8.65001 15.65 8.65001H11.65C10.1864 8.65001 9 7.46356 9 6.00001ZM11.65 7.35001C10.9044 7.35001 10.3 6.74559 10.3 6.00001H17C17 6.74559 16.3956 7.35001 15.65 7.35001H11.65ZM17.6211 14.4478C17.8685 14.1877 17.858 13.7762 17.5979 13.5289C17.3377 13.2816 16.9263 13.292 16.6789 13.5522L12.8977 17.5299L10.6439 14.8956C10.4106 14.6228 10.0002 14.5909 9.72746 14.8243C9.45469 15.0577 9.42275 15.468 9.65612 15.7407L12.2342 18.7541C12.5618 19.137 13.1489 19.1524 13.4961 18.7871L17.6211 14.4478Z" fill="#A1A6B7"/>
</svg>
