<svg width="28" height="28" viewBox="0 0 28 28" fill="none" xmlns="http://www.w3.org/2000/svg">
<path fill-rule="evenodd" clip-rule="evenodd" d="M11.65 5.3H15.65C16.0366 5.3 16.35 5.6134 16.35 6C16.35 6.3866 16.0366 6.7 15.65 6.7H11.65C11.2634 6.7 10.95 6.3866 10.95 6C10.95 5.6134 11.2634 5.3 11.65 5.3ZM9.758 5.35C10.0278 4.56451 10.773 4 11.65 4H15.65C16.527 4 17.2722 4.56451 17.542 5.35H19.65C21.1136 5.35 22.3 6.53645 22.3 8V22C22.3 23.4636 21.1136 24.65 19.65 24.65H7.65C6.18645 24.65 5 23.4636 5 22V8C5 6.53645 6.18645 5.35 7.65 5.35H9.758ZM9.758 6.65H7.65C6.90442 6.65 6.3 7.25442 6.3 8V22C6.3 22.7456 6.90442 23.35 7.65 23.35H19.65C20.3956 23.35 21 22.7456 21 22V8C21 7.25442 20.3956 6.65 19.65 6.65H17.542C17.2722 7.43549 16.527 8 15.65 8H11.65C10.773 8 10.0278 7.43549 9.758 6.65Z" fill="#A1A6B7"/>
<path d="M10.15 15.3182L12.7281 18.3315C12.8052 18.4216 12.9433 18.4252 13.025 18.3393L17.15 14" stroke="#A1A6B7" stroke-width="1.3" stroke-linecap="round"/>
</svg>
