<svg width="28" height="28" viewBox="0 0 28 28" fill="none" xmlns="http://www.w3.org/2000/svg">
<path fill-rule="evenodd" clip-rule="evenodd" d="M2.84998 6.5C2.84998 4.48416 4.48414 2.85 6.49998 2.85H21.5C23.5158 2.85 25.15 4.48416 25.15 6.5V21.5C25.15 23.5158 23.5158 25.15 21.5 25.15H6.49998C4.48414 25.15 2.84998 23.5158 2.84998 21.5V6.5ZM20.4015 11.6043C20.7839 11.2059 20.771 10.5728 20.3726 10.1904C19.9742 9.80788 19.3412 9.8208 18.9587 10.2192L13.7341 15.6615L10.5028 12.4486C10.1112 12.0592 9.47802 12.061 9.08861 12.4526C8.6992 12.8443 8.701 13.4774 9.09264 13.8668L13.0456 17.7973C13.2358 17.9865 13.4941 18.0913 13.7623 18.0881C14.0305 18.085 14.2863 17.9743 14.4721 17.7807L20.4015 11.6043Z" fill="white"/>
</svg>
