<svg width="26" height="22" viewBox="0 0 26 22" fill="none" xmlns="http://www.w3.org/2000/svg">
<path fill-rule="evenodd" clip-rule="evenodd" d="M10.0037 1.78006C10.5455 0.801157 11.5628 0.25 13.0332 0.25C14.5035 0.25 15.5208 0.801157 16.0627 1.78006C16.5614 2.68095 16.5679 3.79529 16.4342 4.76135C16.2972 5.75118 15.9927 6.72248 15.7304 7.43345C15.643 7.67016 15.5592 7.88098 15.486 8.05755L15.9628 8.39347L15.9401 8.4137L19.25 12.1272V20.0791C17.3645 21.1635 15.2232 21.7445 13.0317 21.75C12.9573 21.75 12.8829 21.7494 12.8085 21.7481C12.5358 21.7435 12.264 21.7306 11.9935 21.7095C10.1413 21.5601 8.3518 21.0004 6.75 20.0791V12.1272L10.0347 8.44193L10.5803 8.05755C10.5071 7.88098 10.4233 7.67016 10.3359 7.43345C10.0736 6.72248 9.76909 5.75118 9.6321 4.76135C9.49841 3.79529 9.50495 2.68095 10.0037 1.78006ZM8.21158 8.23302C8.32332 7.75386 8.42097 7.21497 8.46452 6.66945C8.53182 5.82661 8.48037 4.85311 8.03933 4.06398C7.55695 3.20088 6.68481 2.68902 5.43851 2.68902C4.19221 2.68902 3.32007 3.20088 2.83769 4.06398C2.39665 4.85311 2.3452 5.82661 2.41249 6.66945C2.48147 7.53333 2.68609 8.3806 2.86752 9.00035C2.9037 9.12392 2.93924 9.23942 2.97302 9.34529L0.726876 10.2235C0.401891 10.3506 0.207473 10.685 0.257841 11.0303C0.68737 13.9748 2.19255 16.6693 4.49485 18.6317C4.73948 18.8402 4.99141 19.0391 5.25 19.2279V11.8415C5.25 11.6575 5.31766 11.4799 5.44011 11.3425L8.21158 8.23302ZM20.75 19.276C20.9122 19.1591 21.0719 19.0383 21.2289 18.9136C23.6002 17.0303 25.2019 14.3887 25.7377 11.4607C25.7962 11.1414 25.6426 10.8207 25.3571 10.6661L23.0673 9.42607C23.1086 9.29908 23.1532 9.15613 23.1988 9.00035C23.3802 8.3806 23.5848 7.53333 23.6538 6.66945C23.7211 5.8266 23.6697 4.85311 23.2286 4.06398C22.7462 3.20088 21.8741 2.68902 20.6278 2.68902C19.3815 2.68902 18.5094 3.20088 18.027 4.06398C17.5859 4.85312 17.5345 5.82661 17.6018 6.66945C17.6484 7.2538 17.7572 7.83054 17.8788 8.33441L20.5599 11.3425C20.6823 11.4799 20.75 11.6575 20.75 11.8415V19.276Z" fill="white"/>
</svg>
