<svg xmlns="http://www.w3.org/2000/svg">
  <g fill="none" fill-rule="evenodd" transform="translate(-2 -2)">
    <rect width="28" height="28" fill="#D8D8D8" opacity="0"/>
    <g transform="translate(.5 .5)">
      <rect width="27" height="27"/>
      <g stroke="#FFF" transform="translate(-.422 -.422)">
        <circle cx="13.922" cy="13.922" r="8.859" stroke-width="1.4"/>
        <circle cx="13.922" cy="13.922" r="3.797" stroke-width="1.4"/>
        <path stroke-linecap="round" stroke-width="1.4" d="M13.921875,2.953125 L13.921875,4.74449537 M19.40625,4.42265885 L18.5105648,5.9740311 M23.4210911,8.4375 L21.8697189,9.33318519 M24.890625,13.921875 L23.0992546,13.921875 M23.4210911,19.40625 L21.8697189,18.5105648 M19.40625,23.4210911 L18.5105648,21.8697189 M13.921875,24.890625 L13.921875,23.0992546 M8.4375,23.4210911 L9.33318519,21.8697189 M4.42265885,19.40625 L5.9740311,18.5105648 M2.953125,13.921875 L4.74449537,13.921875 M4.42265885,8.4375 L5.9740311,9.33318519 M8.4375,4.42265885 L9.33318519,5.9740311"/>
        <path stroke-linecap="round" stroke-width="1.4" d="M13.465882,5.50880501 L13.465882,9.72755501 M20.7729713,18.165055 L17.1194266,16.05568 M6.15879261,18.165055 L9.81233728,16.05568" transform="rotate(-15 13.466 12.202)"/>
      </g>
      <g stroke="#7E848F" transform="translate(2.11 2.11)">
        <circle cx="11.391" cy="11.391" r="8.859" stroke-width="1.4"/>
        <circle cx="11.391" cy="11.391" r="3.797" stroke-width="1.4"/>
        <path stroke-linecap="round" stroke-width="1.4" d="M11.390625,0.421875 L11.390625,2.21324537 M16.875,1.89140885 L15.9793148,3.4427811 M20.8898411,5.90625 L19.3384689,6.80193519 M22.359375,11.390625 L20.5680046,11.390625 M20.8898411,16.875 L19.3384689,15.9793148 M16.875,20.8898411 L15.9793148,19.3384689 M11.390625,22.359375 L11.390625,20.5680046 M5.90625,20.8898411 L6.80193519,19.3384689 M1.89140885,16.875 L3.4427811,15.9793148 M0.421875,11.390625 L2.21324537,11.390625 M1.89140885,5.90625 L3.4427811,6.80193519 M5.90625,1.89140885 L6.80193519,3.4427811"/>
        <path stroke-linecap="round" stroke-width="1.4" d="M10.934632,2.97755501 L10.934632,7.19630501 M18.2417213,15.633805 L14.5881766,13.52443 M3.62754261,15.633805 L7.28108728,13.52443" transform="rotate(-15 10.935 9.671)"/>
      </g>
    </g>
  </g>
</svg>
