<svg width="28" height="28" viewBox="0 0 28 28" fill="none" xmlns="http://www.w3.org/2000/svg">
<path d="M3.83557 14.0035C3.83557 14.0035 5.05092 13.8736 5.3126 15.2019" stroke="#B7BCC9" stroke-width="1.3" stroke-linecap="round" stroke-linejoin="round"/>
<path d="M3.83557 13.9965C3.83557 13.9965 5.05092 14.1264 5.3126 12.798" stroke="#B7BCC9" stroke-width="1.3" stroke-linecap="round" stroke-linejoin="round"/>
<path d="M24.1646 14.0035C24.1646 14.0035 22.9498 13.8736 22.6882 15.2019" stroke="#B7BCC9" stroke-width="1.3" stroke-linecap="round" stroke-linejoin="round"/>
<path d="M24.1646 13.9965C24.1646 13.9965 22.9498 14.1264 22.6882 12.798" stroke="#B7BCC9" stroke-width="1.3" stroke-linecap="round" stroke-linejoin="round"/>
<path d="M5.2198 14.0034H3M25 14.0034H22.9478H25Z" stroke="#B7BCC9" stroke-width="1.3" stroke-linecap="round" stroke-linejoin="round"/>
<path d="M5.19922 19.0853C5.19922 19.0853 6.1868 18.3652 7.07755 19.3847" stroke="#B7BCC9" stroke-width="1.3" stroke-linecap="round" stroke-linejoin="round"/>
<path d="M5.19556 19.0793C5.19556 19.0793 6.31306 18.584 5.87542 17.3029" stroke="#B7BCC9" stroke-width="1.3" stroke-linecap="round" stroke-linejoin="round"/>
<path d="M22.8052 8.92065C22.8052 8.92065 21.6873 9.41587 22.1251 10.6971" stroke="#B7BCC9" stroke-width="1.3" stroke-linecap="round" stroke-linejoin="round"/>
<path d="M22.801 8.91462C22.801 8.91462 21.8134 9.63476 20.9227 8.61517" stroke="#B7BCC9" stroke-width="1.3" stroke-linecap="round" stroke-linejoin="round"/>
<path d="M6.41213 18.3849L4.47546 19.503M23.5287 8.50287L21.8364 9.47982L23.5287 8.50287Z" stroke="#B7BCC9" stroke-width="1.3" stroke-linecap="round" stroke-linejoin="round"/>
<path d="M8.9209 22.8046C8.9209 22.8046 9.41619 21.6871 10.6974 22.1247" stroke="#B7BCC9" stroke-width="1.3" stroke-linecap="round" stroke-linejoin="round"/>
<path d="M8.91484 22.8011C8.91484 22.8011 9.63498 21.8135 8.61548 20.9227" stroke="#B7BCC9" stroke-width="1.3" stroke-linecap="round" stroke-linejoin="round"/>
<path d="M19.0855 5.19885C19.0855 5.19885 18.3653 6.18652 19.3846 7.07727" stroke="#B7BCC9" stroke-width="1.3" stroke-linecap="round" stroke-linejoin="round"/>
<path d="M19.0797 5.19531C19.0797 5.19531 18.5842 6.31282 17.3033 5.87526" stroke="#B7BCC9" stroke-width="1.3" stroke-linecap="round" stroke-linejoin="round"/>
<path d="M9.60561 21.6184L8.50305 23.5281M19.5032 4.47528L18.4979 6.21624L19.5032 4.47528Z" stroke="#B7BCC9" stroke-width="1.3" stroke-linecap="round" stroke-linejoin="round"/>
<path d="M14.0037 24.1646C14.0037 24.1646 13.8739 22.9492 15.202 22.6876" stroke="#B7BCC9" stroke-width="1.3" stroke-linecap="round" stroke-linejoin="round"/>
<path d="M13.9967 24.1646C13.9967 24.1646 14.1265 22.9492 12.7982 22.6876" stroke="#B7BCC9" stroke-width="1.3" stroke-linecap="round" stroke-linejoin="round"/>
<path d="M14.0037 3.83527C14.0037 3.83527 13.8739 5.0507 15.202 5.3123" stroke="#B7BCC9" stroke-width="1.3" stroke-linecap="round" stroke-linejoin="round"/>
<path d="M13.9967 3.83527C13.9967 3.83527 14.1265 5.0507 12.7982 5.3123" stroke="#B7BCC9" stroke-width="1.3" stroke-linecap="round" stroke-linejoin="round"/>
<path d="M14.0037 22.7996V25.0001M14.0037 2.99976V4.97829V2.99976Z" stroke="#B7BCC9" stroke-width="1.3" stroke-linecap="round" stroke-linejoin="round"/>
<path d="M19.0855 22.8011C19.0855 22.8011 18.3653 21.8135 19.3846 20.9227" stroke="#B7BCC9" stroke-width="1.3" stroke-linecap="round" stroke-linejoin="round"/>
<path d="M19.0797 22.8046C19.0797 22.8046 18.5842 21.6871 17.3033 22.1247" stroke="#B7BCC9" stroke-width="1.3" stroke-linecap="round" stroke-linejoin="round"/>
<path d="M8.9209 5.19531C8.9209 5.19531 9.41619 6.31282 10.6974 5.87526" stroke="#B7BCC9" stroke-width="1.3" stroke-linecap="round" stroke-linejoin="round"/>
<path d="M8.91484 5.19885C8.91484 5.19885 9.63498 6.18652 8.61548 7.07727" stroke="#B7BCC9" stroke-width="1.3" stroke-linecap="round" stroke-linejoin="round"/>
<path d="M18.3959 21.6069L19.5032 23.5247M8.50305 4.4718L9.47592 6.15687L8.50305 4.4718Z" stroke="#B7BCC9" stroke-width="1.3" stroke-linecap="round" stroke-linejoin="round"/>
<path d="M22.8052 19.0793C22.8052 19.0793 21.6873 18.584 22.1251 17.3029" stroke="#B7BCC9" stroke-width="1.3" stroke-linecap="round" stroke-linejoin="round"/>
<path d="M22.801 19.0853C22.801 19.0853 21.8134 18.3652 20.9227 19.3847" stroke="#B7BCC9" stroke-width="1.3" stroke-linecap="round" stroke-linejoin="round"/>
<path d="M5.19922 8.91462C5.19922 8.91462 6.1868 9.63476 7.07755 8.61517" stroke="#B7BCC9" stroke-width="1.3" stroke-linecap="round" stroke-linejoin="round"/>
<path d="M5.19556 8.92065C5.19556 8.92065 6.31306 9.41587 5.87542 10.6971" stroke="#B7BCC9" stroke-width="1.3" stroke-linecap="round" stroke-linejoin="round"/>
<path d="M21.7174 18.4514L23.5287 19.4971M4.47546 8.49695L6.40757 9.61247L4.47546 8.49695Z" stroke="#B7BCC9" stroke-width="1.3" stroke-linecap="round" stroke-linejoin="round"/>
<path fill-rule="evenodd" clip-rule="evenodd" d="M14.0002 5.23438C18.8398 5.23438 22.7692 9.16365 22.7692 14.0034C22.7692 18.8432 18.8398 22.7725 14.0002 22.7725C9.16048 22.7725 5.2312 18.8432 5.2312 14.0034C5.2312 9.16365 9.16048 5.23438 14.0002 5.23438Z" stroke="#B7BCC9" stroke-width="1.3" stroke-linecap="round" stroke-linejoin="round"/>
<path d="M17.8497 15.1332L22.4309 16.4221" stroke="#B7BCC9" stroke-width="1.3" stroke-linecap="round" stroke-linejoin="round"/>
<path d="M7.7998 20.2019L11.1866 16.8614" stroke="#B7BCC9" stroke-width="1.3" stroke-linecap="round" stroke-linejoin="round"/>
<path d="M13.0573 10.1037L11.8832 5.49213" stroke="#B7BCC9" stroke-width="1.3" stroke-linecap="round" stroke-linejoin="round"/>
<path fill-rule="evenodd" clip-rule="evenodd" d="M14.0002 9.99207C16.2138 9.99207 18.0118 11.7895 18.0118 14.0034C18.0118 16.2173 16.2138 18.0148 14.0002 18.0148C11.7863 18.0148 9.98889 16.2173 9.98889 14.0034C9.98889 11.7895 11.7863 9.99207 14.0002 9.99207Z" stroke="#B7BCC9" stroke-width="1.3" stroke-linecap="round" stroke-linejoin="round"/>
</svg>
