<svg xmlns="http://www.w3.org/2000/svg" width="28" height="28" viewBox="0 0 28 28">
  <g fill="none" fill-rule="evenodd">
    <path fill="#57B359" d="M14,23.212646 C19.0880039,23.212646 23.212646,19.0880039 23.212646,14 C23.212646,8.91199613 19.0880039,4.78735403 14,4.78735403 C8.91199613,4.78735403 4.78735403,8.91199613 4.78735403,14 C4.78735403,19.0880039 8.91199613,23.212646 14,23.212646 Z M14.0598856,22.0741299 C9.56638823,22.0741299 5.92368886,18.4314305 5.92368886,13.9379331 C5.92368886,9.44443572 9.56638823,5.80173636 14.0598856,5.80173636 C18.553383,5.80173636 22.1960824,9.44443572 22.1960824,13.9379331 C22.1960824,18.4314305 18.553383,22.0741299 14.0598856,22.0741299 Z M9.53274298,19.2476809 L11.582473,17.1979509 C12.2702972,17.72146 13.1287962,18.0322568 14.0598856,18.0322568 C15.7607655,18.0322568 17.2194063,16.9951084 17.8378841,15.5187357 L20.6385228,16.2691646 C19.6791342,18.9764305 17.0959579,20.9155092 14.0598856,20.9155092 C12.3322853,20.9155092 10.7513278,20.2876565 9.53274298,19.2476809 Z M8.71651065,18.4253761 C7.69664316,17.2122469 7.08230955,15.6468327 7.08230955,13.9379331 C7.08230955,10.9110269 9.00969747,8.33428627 11.7041548,7.36802967 L12.4549742,10.1701255 C10.9914318,10.794325 9.96556197,12.2463267 9.96556197,13.9379331 C9.96556197,14.8502214 10.2639338,15.6928213 10.7684158,16.3734709 L8.71651065,18.4253761 Z M20.9328195,15.1485288 L18.1287409,14.3971782 C18.1455682,14.2464178 18.1542093,14.0931846 18.1542093,13.9379331 C18.1542093,11.6767006 16.3211181,9.84360947 14.0598856,9.84360947 C13.8956877,9.84360947 13.7337473,9.85327507 13.5746024,9.87206834 L12.8236648,7.06953119 C13.2249,6.99779551 13.6380207,6.96035705 14.0598856,6.96035705 C17.9134945,6.96035705 21.0374617,10.0843243 21.0374617,13.9379331 C21.0374617,14.3508228 21.0015993,14.7553363 20.9328195,15.1485288 Z"/>
    <path fill="#57B359" d="M14.0598856,16.8736361 C15.6812296,16.8736361 16.9955886,15.5592771 16.9955886,13.9379331 C16.9955886,12.3165891 15.6812296,11.0022302 14.0598856,11.0022302 C12.4385416,11.0022302 11.1241827,12.3165891 11.1241827,13.9379331 C11.1241827,15.5592771 12.4385416,16.8736361 14.0598856,16.8736361 Z"/>
    <path fill="#57B359" fill-rule="nonzero" d="M13.4206897,3.24137931 C13.4206897,2.92143504 13.6800557,2.66206897 14,2.66206897 C14.3199443,2.66206897 14.5793103,2.92143504 14.5793103,3.24137931 L14.5793103,4.99843224 C14.5793103,5.31837651 14.3199443,5.57774259 14,5.57774259 C13.6800557,5.57774259 13.4206897,5.31837651 13.4206897,4.99843224 L13.4206897,3.24137931 Z M18.8776129,4.393106 C19.037585,4.11602614 19.3918857,4.02109156 19.6689655,4.1810637 C19.9460454,4.34103583 20.04098,4.69533648 19.8810078,4.97241635 L19.0024814,6.49406882 C18.8425092,6.77114868 18.4882086,6.86608326 18.2111287,6.70611112 C17.9340488,6.54613899 17.8391143,6.19183834 17.9990864,5.91475848 L18.8776129,4.393106 Z M23.0275837,8.11899218 C23.3046635,7.95902005 23.6589642,8.05395462 23.8189363,8.33103448 C23.9789084,8.60811435 23.8839739,8.962415 23.606894,9.12238713 L22.0852415,10.0009136 C21.8081617,10.1608857 21.453861,10.0659512 21.2938889,9.78887129 C21.1339167,9.51179143 21.2288513,9.15749078 21.5059312,8.99751865 L23.0275837,8.11899218 Z M24.7586207,13.4206897 C25.078565,13.4206897 25.337931,13.6800557 25.337931,14 C25.337931,14.3199443 25.078565,14.5793103 24.7586207,14.5793103 L23.0015678,14.5793103 C22.6816235,14.5793103 22.4222574,14.3199443 22.4222574,14 C22.4222574,13.6800557 22.6816235,13.4206897 23.0015678,13.4206897 L24.7586207,13.4206897 Z M23.606894,18.8776129 C23.8839739,19.037585 23.9789084,19.3918857 23.8189363,19.6689655 C23.6589642,19.9460454 23.3046635,20.04098 23.0275837,19.8810078 L21.5059312,19.0024814 C21.2288513,18.8425092 21.1339167,18.4882086 21.2938889,18.2111287 C21.453861,17.9340488 21.8081617,17.8391143 22.0852415,17.9990864 L23.606894,18.8776129 Z M19.8810078,23.0275837 C20.04098,23.3046635 19.9460454,23.6589642 19.6689655,23.8189363 C19.3918857,23.9789084 19.037585,23.8839739 18.8776129,23.606894 L17.9990864,22.0852415 C17.8391143,21.8081617 17.9340488,21.453861 18.2111287,21.2938889 C18.4882086,21.1339167 18.8425092,21.2288513 19.0024814,21.5059312 L19.8810078,23.0275837 Z M14.5793103,24.7586207 C14.5793103,25.078565 14.3199443,25.337931 14,25.337931 C13.6800557,25.337931 13.4206897,25.078565 13.4206897,24.7586207 L13.4206897,23.0015678 C13.4206897,22.6816235 13.6800557,22.4222574 14,22.4222574 C14.3199443,22.4222574 14.5793103,22.6816235 14.5793103,23.0015678 L14.5793103,24.7586207 Z M9.12238713,23.606894 C8.962415,23.8839739 8.60811435,23.9789084 8.33103448,23.8189363 C8.05395462,23.6589642 7.95902005,23.3046635 8.11899218,23.0275837 L8.99751865,21.5059312 C9.15749078,21.2288513 9.51179143,21.1339167 9.78887129,21.2938889 C10.0659512,21.453861 10.1608857,21.8081617 10.0009136,22.0852415 L9.12238713,23.606894 Z M4.97241635,19.8810078 C4.69533648,20.04098 4.34103583,19.9460454 4.1810637,19.6689655 C4.02109156,19.3918857 4.11602614,19.037585 4.393106,18.8776129 L5.91475848,17.9990864 C6.19183834,17.8391143 6.54613899,17.9340488 6.70611112,18.2111287 C6.86608326,18.4882086 6.77114868,18.8425092 6.49406882,19.0024814 L4.97241635,19.8810078 Z M3.24137931,14.5793103 C2.92143504,14.5793103 2.66206897,14.3199443 2.66206897,14 C2.66206897,13.6800557 2.92143504,13.4206897 3.24137931,13.4206897 L4.99843224,13.4206897 C5.31837651,13.4206897 5.57774259,13.6800557 5.57774259,14 C5.57774259,14.3199443 5.31837651,14.5793103 4.99843224,14.5793103 L3.24137931,14.5793103 Z M4.393106,9.12238713 C4.11602614,8.962415 4.02109156,8.60811435 4.1810637,8.33103448 C4.34103583,8.05395462 4.69533648,7.95902005 4.97241635,8.11899218 L6.49406882,8.99751865 C6.77114868,9.15749078 6.86608326,9.51179143 6.70611112,9.78887129 C6.54613899,10.0659512 6.19183834,10.1608857 5.91475848,10.0009136 L4.393106,9.12238713 Z M8.11899218,4.97241635 C7.95902005,4.69533648 8.05395462,4.34103583 8.33103448,4.1810637 C8.60811435,4.02109156 8.962415,4.11602614 9.12238713,4.393106 L10.0009136,5.91475848 C10.1608857,6.19183834 10.0659512,6.54613899 9.78887129,6.70611112 C9.51179143,6.86608326 9.15749078,6.77114868 8.99751865,6.49406882 L8.11899218,4.97241635 Z"/>
  </g>
</svg>
