<svg xmlns="http://www.w3.org/2000/svg" width="20" height="20" viewBox="0 0 20 20">
  <g fill="none" fill-rule="evenodd">
    <rect width="20" height="20"/>
    <path fill="#A8ADB8" fill-rule="nonzero" d="M4.18583525,6.57425041 L4.18583525,7.0395646 C4.18583525,8.3259222 5.30208527,9.3836704 6.69156584,9.3836704 C8.08103044,9.3836704 9.19723204,8.32593795 9.19723204,7.0395646 L9.19723204,6.57425041 C9.19723204,5.28782341 8.08103855,4.23008359 6.69156584,4.23008359 C5.30207716,4.23008359 4.18583525,5.28783917 4.18583525,6.57425041 Z M2.95172191,6.57425041 C2.95172191,4.59418758 4.63405669,3 6.69156584,3 C8.74906642,3 10.4313454,4.59418008 10.4313454,6.57425041 L10.4313454,7.0395646 C10.4313454,9.01958541 8.74905461,10.613754 6.69156584,10.613754 C4.6340685,10.613754 2.95172191,9.01957791 2.95172191,7.0395646 L2.95172191,6.57425041 Z M2.23411333,15.7203506 L2.23411333,16.1500878 C2.23411333,16.2979516 2.35567102,16.4188975 2.50537876,16.4188975 L10.8082639,16.4188975 C10.9579466,16.4188975 11.0794674,16.2979766 11.0794674,16.1500878 L11.0794674,15.7203506 C11.0794674,13.2927518 9.09775015,11.3209911 6.65682131,11.3209911 C4.21583901,11.3209911 2.23411333,13.2927435 2.23411333,15.7203506 Z M1,15.7203506 C1,12.6128979 3.53474685,10.0909076 6.65682131,10.0909076 C9.77884465,10.0909076 12.3135808,12.6129086 12.3135808,15.7203506 L12.3135808,16.1500878 C12.3135808,16.9777956 11.6390652,17.6489811 10.8082639,17.6489811 L2.50537876,17.6489811 C1.67457886,17.6489811 1,16.9777971 1,16.1500878 L1,15.7203506 Z M13.8136405,7.02899821 C14.161849,7.23303623 14.5672653,7.35 15,7.35 C16.2978692,7.35 17.35,6.29786916 17.35,5 C17.35,4.56726531 17.2330362,4.16184897 17.0289982,3.8136405 L13.8136405,7.02899821 Z M12.9163769,6.08778416 L16.0877842,2.91637692 C15.762534,2.74622706 15.3925045,2.65 15,2.65 C13.7021308,2.65 12.65,3.70213084 12.65,5 C12.65,5.3925045 12.7462271,5.76253397 12.9163769,6.08778416 Z M15,8.65 C12.9841607,8.65 11.35,7.01583934 11.35,5 C11.35,2.98416066 12.9841607,1.35 15,1.35 C17.0158393,1.35 18.65,2.98416066 18.65,5 C18.65,7.01583934 17.0158393,8.65 15,8.65 Z"/>
  </g>
</svg>
