<svg width="20" height="20" viewBox="0 0 20 20" fill="none" xmlns="http://www.w3.org/2000/svg">
<path d="M11.3003 16C13.8569 16 15.4424 14.6802 15.4424 12.5718C15.4424 10.9863 14.2471 9.79932 12.6201 9.6748V9.6084C13.8901 9.41748 14.8696 8.32178 14.8696 7.01025C14.8696 5.17578 13.4585 4.02197 11.209 4.02197H6.99609C6.44381 4.02197 5.99609 4.46969 5.99609 5.02197V15C5.99609 15.5523 6.44381 16 6.99609 16H11.3003ZM8.50293 5.88965H10.5615C11.7319 5.88965 12.4043 6.4375 12.4043 7.40039C12.4043 8.41309 11.6406 9.00244 10.3042 9.00244H8.50293V5.88965ZM8.50293 14.1323V10.6543H10.603C12.0806 10.6543 12.8857 11.252 12.8857 12.3726C12.8857 13.5181 12.1055 14.1323 10.6611 14.1323H8.50293Z" fill="black"/>
</svg>
