<svg xmlns="http://www.w3.org/2000/svg" xmlns:xlink="http://www.w3.org/1999/xlink" width="20" height="20" viewBox="0 0 20 20">
  <defs>
    <path id="call-a" d="M12.1938489,15.8649819 C12.1921289,15.8642126 12.1903771,15.86345 12.1885935,15.8626948 C12.1889899,15.8628626 12.1907417,15.863625 12.1938489,15.8649819 Z M13.6280268,16.2761007 C14.6512942,16.5340791 15.6931792,15.9271876 15.9735739,14.9098342 L16.3305732,13.6145363 C16.4066148,13.3386354 16.2476753,13.0526618 15.9732187,12.9715621 L13.2170861,12.1571473 C13.0176075,12.098203 12.8021398,12.1625869 12.667702,12.3213087 L11.3631686,13.8614847 L10.9148814,13.6877181 C9.89338697,13.2917629 8.91636585,12.6623106 8.01950174,11.7654465 C6.99174594,10.7376907 6.29583769,9.58726998 5.88073785,8.3756556 L5.74059893,7.96661103 L7.11852276,6.65320663 C7.26174352,6.51669199 7.31604928,6.31125026 7.25899417,6.12179539 L6.57746709,3.85874423 C6.50715689,3.62527503 6.28535917,3.47094218 6.0420078,3.48615717 L4.54969936,3.57946033 C4.4844455,3.58354017 4.41952798,3.59187974 4.35536172,3.60442571 C3.54189087,3.76347791 3.01138512,4.5518604 3.17044961,5.36533059 C3.32119287,6.13630545 3.43830446,6.6479544 3.51314814,6.87441219 C4.30500497,9.00457069 5.4039425,11.0209229 6.95954642,12.5765268 C8.43453499,14.0515153 10.5012394,15.266629 12.0872259,15.8156321 L12.2225439,15.880083 C12.3769476,15.9420269 12.868938,16.0847553 13.6280268,16.2761007 Z M3.54222977,7.0041095 C3.53241396,6.94349976 3.5309671,6.93456581 3.516719,6.89033742 L3.54222977,7.0041095 Z M11.6375619,11.4487771 C12.1176968,10.8819137 12.8872245,10.6519713 13.5996478,10.8624865 L16.3557804,11.6769013 C17.3359828,11.9665432 17.9036237,12.9878774 17.6320467,13.9732378 L17.2750473,15.2685356 C16.7996179,16.9935323 15.0330262,18.022561 13.2980264,17.5851461 C12.4666973,17.3755909 11.9341903,17.2210076 11.6622117,17.1058449 C11.6374617,17.0953651 11.6131288,17.0839561 11.589216,17.0716534 C9.82952682,16.4511498 7.61721595,15.1433846 6.00495227,13.5311209 C4.2781661,11.8043348 3.09487984,9.62920607 2.24250569,7.33372244 C2.23340101,7.30589018 2.22740408,7.28755808 2.22291428,7.27214937 C2.12568103,6.96866445 2.00253006,6.42731937 1.84553917,5.62439107 C1.54339404,4.07919354 2.55110634,2.5816363 4.09631098,2.27951337 C4.21819575,2.2556821 4.34150754,2.23984098 4.4654582,2.23209125 L5.95776664,2.13878809 C6.82687869,2.08444886 7.61901341,2.63563761 7.87012126,3.46945615 L8.55164834,5.73250732 C8.75541658,6.40913185 8.56146745,7.1428523 8.04996474,7.63040458 L7.3080342,8.33759522 C7.66743124,9.21405147 8.21161969,10.0483761 8.97409589,10.8108523 C9.60500217,11.4417586 10.273743,11.9113061 10.9666055,12.2409307 L11.6375619,11.4487771 Z"/>
  </defs>
  <g fill="none" fill-rule="evenodd">
    <use fill="#A8ADB8" fill-rule="nonzero" xlink:href="#call-a"/>
  </g>
</svg>
