<svg width="20" height="20" viewBox="0 0 20 20" fill="none" xmlns="http://www.w3.org/2000/svg">
<path fill-rule="evenodd" clip-rule="evenodd" d="M15.2586 4.24852L10.0001 9.507L4.74163 4.24852C4.66353 4.17042 4.5369 4.17042 4.45879 4.24852L4.24876 4.45855C4.17066 4.53665 4.17066 4.66329 4.24876 4.74139L9.50724 9.99987L4.24876 15.2583C4.17066 15.3364 4.17066 15.4631 4.24876 15.5412L4.45879 15.7512C4.5369 15.8293 4.66353 15.8293 4.74163 15.7512L10.0001 10.4927L15.2586 15.7512C15.3367 15.8293 15.4633 15.8293 15.5414 15.7512L15.7515 15.5412C15.8296 15.4631 15.8296 15.3364 15.7515 15.2583L10.493 9.99987L15.7515 4.74139C15.8296 4.66329 15.8296 4.53665 15.7515 4.45855L15.5414 4.24852C15.4633 4.17042 15.3367 4.17042 15.2586 4.24852Z" stroke="black"/>
</svg>
