<svg width="20" height="20" viewBox="0 0 20 20" fill="none" xmlns="http://www.w3.org/2000/svg">
<path d="M13 4L11.5 11" stroke="black" stroke-width="1.4" stroke-linecap="round"/>
<path d="M8.5 5L6 7.5L8.5 10" stroke="black" stroke-width="1.4" stroke-linecap="round"/>
<path d="M16.5 5L19 7.5L16.5 10" stroke="black" stroke-width="1.4" stroke-linecap="round"/>
<path fill-rule="evenodd" clip-rule="evenodd" d="M4.00005 2.6998C3.28208 2.6998 2.70005 3.28183 2.70005 3.9998V15.9998C2.70005 16.7178 3.28208 17.2998 4.00005 17.2998H16C16.718 17.2998 17.3 16.7178 17.3 15.9998V13.6998C17.3 13.3132 17.6134 12.9998 18 12.9998C18.3866 12.9998 18.7001 13.3132 18.7001 13.6998V15.9998C18.7001 17.491 17.4912 18.6998 16 18.6998H4.00005C2.50888 18.6998 1.30005 17.491 1.30005 15.9998V3.9998C1.30005 2.50864 2.50888 1.2998 4.00005 1.2998H6.30005C6.68665 1.2998 7.00005 1.61321 7.00005 1.9998C7.00005 2.3864 6.68665 2.6998 6.30005 2.6998L4.00005 2.6998Z" fill="black"/>
</svg>
