<svg xmlns="http://www.w3.org/2000/svg" xmlns:xlink="http://www.w3.org/1999/xlink" width="20" height="20" viewBox="0 0 20 20">
  <defs>
    <path id="delete_all_icon-a" d="M14.3,7.20000024 C14.3,6.81340091 14.6134007,6.50000024 15,6.50000024 C15.3865993,6.50000024 15.7,6.81340091 15.7,7.20000024 L15.7,16.2000002 C15.7,17.1388843 14.9388841,17.9000002 14,17.9000002 L6,17.9000002 C5.06111593,17.9000002 4.3,17.1388843 4.3,16.2000002 L4.3,7.2366193 C4.3,6.85001998 4.61340068,6.5366193 5,6.5366193 C5.38659932,6.5366193 5.7,6.85001998 5.7,7.2366193 L5.7,16.2000002 C5.7,16.3656857 5.83431458,16.5000002 6,16.5000002 L14,16.5000002 C14.1656854,16.5000002 14.3,16.3656857 14.3,16.2000002 L14.3,7.20000024 Z M11.0062447,11.4000001 L12.1376155,12.531371 C12.4109825,12.804738 12.4109825,13.2479534 12.1376155,13.5213204 C11.8642485,13.7946874 11.421033,13.7946874 11.147666,13.5213204 L10.0162952,12.3899496 L8.88492431,13.5213204 C8.61155731,13.7946874 8.16834183,13.7946874 7.89497483,13.5213204 C7.62160783,13.2479534 7.62160783,12.804738 7.89497483,12.531371 L9.0263457,11.4000001 L7.89497483,10.2686292 C7.62160783,9.99526223 7.62160783,9.55204675 7.89497483,9.27867975 C8.16834183,9.00531275 8.61155731,9.00531275 8.88492431,9.27867975 L10.0162952,10.4100506 L11.147666,9.27867975 C11.421033,9.00531275 11.8642485,9.00531275 12.1376155,9.27867975 C12.4109825,9.55204675 12.4109825,9.99526223 12.1376155,10.2686292 L11.0062447,11.4000001 Z M7,3.9000001 C7,3.07157297 7.67157288,2.4000001 8.5,2.4000001 L11.5,2.4000001 C12.3284271,2.4000001 13,3.07157297 13,3.9000001 L16.3,3.9000001 C16.6865993,3.9000001 17,4.21340077 17,4.60000008 C17,4.9865994 16.6865993,5.30000007 16.3,5.30000007 L3.69999999,5.30000007 C3.31340067,5.30000007 3,4.9865994 3,4.60000008 C3,4.21340077 3.31340067,3.9000001 3.69999999,3.9000001 L7,3.9000001 Z"/>
  </defs>
  <g fill="none" fill-rule="evenodd">
    <use fill="#979797" fill-rule="nonzero" xlink:href="#delete_all_icon-a"/>
  </g>
</svg>
