<svg xmlns="http://www.w3.org/2000/svg" xmlns:xlink="http://www.w3.org/1999/xlink" width="20" height="20" viewBox="0 0 20 20">
  <defs>
    <path id="delete_icon-a" d="M14.3,7.20000024 C14.3,6.81340091 14.6134007,6.50000024 15,6.50000024 C15.3865993,6.50000024 15.7,6.81340091 15.7,7.20000024 L15.7,16.2000002 C15.7,17.1388843 14.9388841,17.9000002 14,17.9000002 L6,17.9000002 C5.06111593,17.9000002 4.3,17.1388843 4.3,16.2000002 L4.3,7.2366193 C4.3,6.85001998 4.61340068,6.5366193 5,6.5366193 C5.38659932,6.5366193 5.7,6.85001998 5.7,7.2366193 L5.7,16.2000002 C5.7,16.3656857 5.83431458,16.5000002 6,16.5000002 L14,16.5000002 C14.1656854,16.5000002 14.3,16.3656857 14.3,16.2000002 L14.3,7.20000024 Z M7,3.9000001 C7,3.07157297 7.67157288,2.4000001 8.5,2.4000001 L11.5,2.4000001 C12.3284271,2.4000001 13,3.07157297 13,3.9000001 L16.3,3.9000001 C16.6865993,3.9000001 17,4.21340077 17,4.60000008 C17,4.9865994 16.6865993,5.30000007 16.3,5.30000007 L3.69999999,5.30000007 C3.31340067,5.30000007 3,4.9865994 3,4.60000008 C3,4.21340077 3.31340067,3.9000001 3.69999999,3.9000001 L7,3.9000001 Z"/>
  </defs>
  <g fill="none" fill-rule="evenodd">
    <use fill="#979797" fill-rule="nonzero" xlink:href="#delete_icon-a"/>
  </g>
</svg>
