<svg xmlns="http://www.w3.org/2000/svg" width="20" height="20" viewBox="0 0 20 20">
  <g fill="none" fill-rule="evenodd">
    <rect width="20" height="20"/>
    <path fill="#D8D8D8" stroke="#979797" d="M9.8330952,2.99999994 L9.8330952,13.3171573 L6.19461755,9.67867961 C6.11651269,9.60057476 5.9898797,9.60057476 5.91177485,9.67867961 C5.83367,9.75678446 5.83367,9.88341745 5.91177485,9.9615223 L9.87157284,13.9213203 C9.91131403,13.9610615 9.96363622,13.9813913 10.0473639,13.9798157 C10.1025542,13.9813913 10.1548764,13.9610615 10.1946175,13.9213203 L14.1544155,9.9615223 C14.2325204,9.88341745 14.2325204,9.75678446 14.1544155,9.67867961 C14.0763107,9.60057476 13.9496777,9.60057476 13.8715728,9.67867961 L10.2330952,13.3171573 L10.2330952,2.99999994 C10.2330952,2.889543 10.1435521,2.79999995 10.0330952,2.79999995 C9.92263825,2.79999995 9.8330952,2.889543 9.8330952,2.99999994 Z M16.8,14.9468037 C16.8,15.9409162 15.9941125,16.7468037 15,16.7468037 L4.99999995,16.7468037 C4.0058874,16.7468037 3.19999995,15.9409162 3.19999995,14.9468037 C3.19999995,14.8363467 3.1104569,14.7468037 2.99999995,14.7468037 C2.889543,14.7468037 2.79999995,14.8363467 2.79999995,14.9468037 C2.79999995,16.1618301 3.7849735,17.1468037 4.99999995,17.1468037 L15,17.1468037 C16.2150264,17.1468037 17.2,16.1618301 17.2,14.9468037 C17.2,14.8363467 17.1104569,14.7468037 17,14.7468037 C16.889543,14.7468037 16.8,14.8363467 16.8,14.9468037 Z"/>
  </g>
</svg>
