<?xml version="1.0" encoding="UTF-8"?>
<svg width="20px" height="20px" viewBox="0 0 20 20" version="1.1" xmlns="http://www.w3.org/2000/svg" xmlns:xlink="http://www.w3.org/1999/xlink">
    <!-- Generator: Sketch 52.6 (67491) - http://www.bohemiancoding.com/sketch -->
    <title>edit_icon</title>
    <desc>Created with Sketch.</desc>
    <defs>
        <path d="M12.0860091,5.41367355 C11.8077785,5.68208877 11.3646344,5.67413177 11.0962192,5.3959011 C10.827804,5.11767042 10.835761,4.67452637 11.1139916,4.40611115 L13.2649717,2.33101359 C14.0275613,1.59532675 15.241075,1.59647037 16.0022576,2.33360229 L18.3872581,4.6432454 C19.1654555,5.3968545 19.1792036,6.63532601 18.417813,7.40579389 C18.401327,7.42234409 18.401327,7.42234409 18.3845799,7.43862957 L16.2254299,9.5216088 C15.9471992,9.79002401 15.5040552,9.78206701 15.2356399,9.50383634 C14.9672247,9.22560566 14.9751817,8.78246161 15.2534124,8.51404639 L17.4125624,6.43106716 C17.635976,6.20521583 17.6321534,5.86087046 17.4133246,5.64895581 L15.028324,3.33931269 C14.8092753,3.12718517 14.4564549,3.12685267 14.2369892,3.338576 L12.0860091,5.41367355 Z M7.88899583,15.603514 C7.87872326,15.6064275 7.86905773,15.6119781 7.86094312,15.6198037 L7.87318967,15.607997 L7.88899583,15.603514 Z M14.7218958,9.00522464 L11.5998076,5.91565816 L4.65977635,12.5509582 L3.38606093,16.8806287 L7.87318967,15.607997 L14.7218958,9.00522464 Z M15.9349498,8.23602865 C16.0757795,8.26077474 16.2103338,8.32875289 16.3171726,8.43957113 C16.5854968,8.71788959 16.5773948,9.16103102 16.2990763,9.42935521 L8.83270922,16.6276086 C8.67498087,16.7797203 8.48198675,16.8905495 8.27099469,16.9503908 L3.28101671,18.3656398 C2.6883261,18.5337377 2.06846656,18.193618 1.89688688,17.601189 C1.83787443,17.3974312 1.83832982,17.1811473 1.89819842,16.9776393 L3.32261818,12.1356879 C3.38739754,11.915487 3.50848143,11.7159502 3.68024057,11.5503847 L11.2694348,4.29467224 C11.5510748,4.02983648 11.9940809,4.04345895 12.2589166,4.32509889 C12.381473,4.45543161 12.4443975,4.62032093 12.4487247,4.78611845 L15.9349498,8.23602865 Z" id="path-1"></path>
    </defs>
    <g id="Icons" stroke="none" stroke-width="1" fill="none" fill-rule="evenodd">
        <g id="🔔icons-/-line-/-edit_icon">
            <rect id="Rectangle-2" x="0" y="0" width="20" height="20"></rect>
            <mask id="mask-2" fill="white">
                <use xlink:href="#path-1"></use>
            </mask>
            <use id="Rectangle-834" fill="#454545" fill-rule="nonzero" xlink:href="#path-1"></use>
        </g>
    </g>
</svg>