<svg width="20" height="20" viewBox="0 0 20 20" fill="none" xmlns="http://www.w3.org/2000/svg">
<path fill-rule="evenodd" clip-rule="evenodd" d="M9.79988 15.1818L5.49312 17.9409C5.31217 18.0568 5.07589 17.997 4.96537 17.8072C4.9125 17.7164 4.89603 17.6073 4.91956 17.5038L6.09051 12.3551C6.12391 12.2082 6.07616 12.0541 5.96683 11.9559L2.13416 8.51237C1.97314 8.36769 1.95442 8.11349 2.09235 7.9446C2.15834 7.8638 2.25213 7.81367 2.35324 7.80517L7.38368 7.38218C7.52718 7.37011 7.65219 7.27485 7.70748 7.13543L9.64552 2.24814C9.72694 2.0428 9.95166 1.94558 10.1474 2.03098C10.2411 2.07184 10.3155 2.14991 10.3545 2.24814L12.2925 7.13543C12.3478 7.27485 12.4728 7.37011 12.6163 7.38218L17.6467 7.80517C17.8581 7.82294 18.0157 8.01706 17.9988 8.23874C17.9906 8.34479 17.9429 8.44316 17.8658 8.51237L14.0332 11.9559C13.9238 12.0541 13.8761 12.2082 13.9095 12.3551L15.0804 17.5038C15.1296 17.7202 15.0023 17.9374 14.7961 17.989C14.6974 18.0136 14.5934 17.9964 14.5069 17.9409L10.2001 15.1818C10.0773 15.1031 9.92274 15.1031 9.79988 15.1818Z" stroke="#B7BCC9" stroke-width="1.3" stroke-linecap="round" stroke-linejoin="round"/>
</svg>
