<svg xmlns="http://www.w3.org/2000/svg" xmlns:xlink="http://www.w3.org/1999/xlink" width="20" height="20" viewBox="0 0 20 20">
  <defs>
    <path id="to_message_icon-a" d="M12.0330948,9.39999962 L10.5180195,7.88492431 C10.2446525,7.61155731 10.2446525,7.16834183 10.5180195,6.89497483 C10.7913865,6.62160783 11.2346019,6.62160783 11.5079689,6.89497483 L14.1949747,9.58198061 C14.2065126,9.59351851 14.2175635,9.60535898 14.2281275,9.61747647 C14.2288629,9.61820553 14.2295971,9.61893656 14.2303301,9.61966956 C14.5036971,9.89303656 14.5036971,10.336252 14.2303301,10.609619 L11.4726135,13.3673356 C11.1992465,13.6407026 10.7560311,13.6407026 10.4826641,13.3673356 C10.2092971,13.0939686 10.2092971,12.6507532 10.4826641,12.3773862 L12.0600506,10.7999996 L5.89999998,10.7999996 C5.51340066,10.7999996 5.19999999,10.4865989 5.19999999,10.0999996 C5.19999999,9.71340029 5.51340066,9.39999962 5.89999998,9.39999962 L12.0330948,9.39999962 Z M10,19 C5.02943725,19 1,14.9705627 1,10 C1,5.02943725 5.02943725,1 10,1 C14.9705627,1 19,5.02943725 19,10 C19,14.9705627 14.9705627,19 10,19 Z M10,17.6 C14.1973641,17.6 17.6,14.1973641 17.6,10 C17.6,5.8026359 14.1973641,2.4 10,2.4 C5.8026359,2.4 2.4,5.8026359 2.4,10 C2.4,14.1973641 5.8026359,17.6 10,17.6 Z"/>
  </defs>
  <g fill="none" fill-rule="evenodd">
    <rect width="20" height="20"/>
    <use fill="#B7BCC9" fill-rule="nonzero" xlink:href="#to_message_icon-a"/>
  </g>
</svg>
