<svg xmlns="http://www.w3.org/2000/svg" xmlns:xlink="http://www.w3.org/1999/xlink" width="20" height="20" viewBox="0 0 20 20">
  <defs>
    <path id="ignore-a" d="M10,17.6 C14.1973641,17.6 17.6,14.1973641 17.6,10 C17.6,5.8026359 14.1973641,2.4 10,2.4 C5.8026359,2.4 2.4,5.8026359 2.4,10 C2.4,14.1973641 5.8026359,17.6 10,17.6 Z M10,19 C5.02943725,19 1,14.9705627 1,10 C1,5.02943725 5.02943725,1 10,1 C14.9705627,1 19,5.02943725 19,10 C19,14.9705627 14.9705627,19 10,19 Z M16.063961,3.63603897 L16.0659082,3.63798616 C16.3385136,3.91059155 16.3393841,4.35230298 16.0678554,4.62598077 L4.62937241,16.1549946 C4.35815621,16.4283573 3.91668774,16.4300975 3.64332498,16.1588813 C3.64267465,16.1582361 3.64202559,16.1575896 3.6413778,16.1569418 L3.63943061,16.1549946 C3.36682522,15.8823892 3.36595468,15.4406778 3.63748343,15.167 L15.0759664,3.63798615 C15.3471826,3.36462339 15.7886511,3.36288325 16.0620138,3.63409945 C16.0626642,3.63474468 16.0633132,3.63539118 16.063961,3.63603897 Z"/>
  </defs>
  <g fill="none" fill-rule="evenodd">
    <use fill="#B7BCC9" fill-rule="nonzero" xlink:href="#ignore-a"/>
  </g>
</svg>
