<svg xmlns="http://www.w3.org/2000/svg" xmlns:xlink="http://www.w3.org/1999/xlink" width="20" height="20" viewBox="0 0 20 20">
  <defs>
    <path id="unset_admin_icon-a" d="M4.49219163,15.6150777 C4.54723757,15.8967517 4.79405021,16.1 5.0810525,16.1 L14.8801458,16.1 C15.1671481,16.1 15.4139608,15.8967517 15.4690067,15.6150777 L17.0481563,7.53445479 L16.1231486,9.05418169 C15.8602017,9.48618621 15.4675057,9.824086 15.0011118,10.0196511 C13.7787403,10.5322077 12.3723032,9.95678906 11.8597467,8.73441759 L9.9132704,4.09236017 L8.34806787,8.36413988 C8.1507549,8.90265008 7.76712285,9.35269929 7.26664577,9.63278559 C6.10997414,10.2801037 4.64755118,9.86719043 4.00023637,8.71051953 C3.58456855,7.96777627 3.16323949,7.27468506 2.73651369,6.63124677 L4.49219163,15.6150777 Z M16.4659335,16.7189617 C16.0969713,17.1984747 15.5183699,17.5 14.8801458,17.5 L5.0810525,17.5 C4.12437818,17.5 3.30166937,16.8225057 3.11818293,15.8835923 L1.01839175,5.13892868 C0.90895188,4.5789169 1.27421258,4.03621912 1.83422435,3.92677925 C2.11314005,3.87227236 2.40219221,3.93506132 2.63335875,4.10037011 C3.52306687,5.22416187 4.38592495,6.53297548 5.22193296,8.02681094 C5.49164792,8.50875796 6.10099067,8.68080488 6.58293718,8.411089 C6.79146942,8.2943863 6.95131621,8.10686568 7.03353,7.88248629 L7.14000456,7.59189396 L2.90325372,3.44548536 L3.88024902,2.44274902 L8.77430191,7.2324437 L9.24273682,5.91143799 L8.11880923,4.92052211 L8.13262973,4.88280296 C8.2427044,4.58238514 8.43292692,4.06322632 8.70329728,3.32532651 C8.88493293,2.82960314 9.3567329,2.5 9.88468476,2.5 C10.4171723,2.5 10.8976562,2.8195414 11.103566,3.31060567 L13.1508379,8.19304589 C13.3644032,8.70236733 13.9504186,8.94212511 14.4597401,8.72855987 C14.6540709,8.64707439 14.8176942,8.50628281 14.9272554,8.32628093 L17.0714446,4.80351881 C17.3372185,4.36686973 17.811412,4.10037011 18.3225853,4.10037011 C18.696959,4.10037011 19.0004489,4.40385997 19.0004489,4.77823368 C19.0004489,4.82187495 18.9962344,4.86541424 18.9878642,4.9082453 C18.129474,9.30069038 17.5568373,12.2309139 17.2699542,13.6989158 C17.2624547,13.7372911 17.2549984,13.7754452 17.2475854,13.8133782 L16.0448151,12.6743927 L15.7690391,14.0780288 L19.1384113,17.3755543 L18.161416,18.3782906 L16.4659335,16.7189617 Z M8.22109985,8.67468262 L15.453064,15.7213135 L15.7694397,14.0848389 L8.76519775,7.24978638 C8.66365774,7.51204921 8.58236908,7.72874436 8.52133179,7.89987183 C8.46029449,8.07099929 8.36021718,8.32926956 8.22109985,8.67468262 Z"/>
  </defs>
  <g fill="none" fill-rule="evenodd">
    <use fill="#454545" fill-rule="nonzero" xlink:href="#unset_admin_icon-a"/>
  </g>
</svg>
