<svg xmlns="http://www.w3.org/2000/svg" xmlns:xlink="http://www.w3.org/1999/xlink" width="20" height="20" viewBox="0 0 20 20">
  <defs>
    <path id="link_icon-a" d="M10.8835782,11.6568542 C11.2701775,11.6568542 11.5835782,11.9702549 11.5835782,12.3568542 C11.5835782,12.7434536 11.2701775,13.0568542 10.8835782,13.0568542 L9.42989899,13.0568542 C6.98333333,13.0568542 5,11.0735209 5,8.62695526 L5,5.42989899 C5,2.98333333 6.98333333,1 9.42989899,1 C11.8764646,1 13.859798,2.98333333 13.859798,5.42989899 L13.859798,7.04422639 C13.859798,7.43082572 13.5463973,7.74422639 13.159798,7.74422639 C12.7731986,7.74422639 12.459798,7.43082572 12.459798,7.04422639 L12.459798,5.42989899 C12.459798,3.75653198 11.103266,2.4 9.42989899,2.4 C7.75653198,2.4 6.4,3.75653198 6.4,5.42989899 L6.4,8.62695526 C6.4,10.3003223 7.75653198,11.6568542 9.42989899,11.6568542 L10.8835782,11.6568542 Z M8.54560141,9.06349401 C8.15900208,9.06349401 7.84560141,8.75009333 7.84560141,8.36349401 C7.84560141,7.97689468 8.15900208,7.66349401 8.54560141,7.66349401 L9.99928062,7.66349401 C12.4458463,7.66349401 14.4291796,9.64682734 14.4291796,12.093393 L14.4291796,15.2904493 C14.4291796,17.7370149 12.4458463,19.7203483 9.99928062,19.7203483 C7.55271496,19.7203483 5.56938163,17.7370149 5.56938163,15.2904493 L5.56938163,13.6761219 C5.56938163,13.2895225 5.88278231,12.9761219 6.26938163,12.9761219 C6.65598095,12.9761219 6.96938163,13.2895225 6.96938163,13.6761219 L6.96938163,15.2904493 C6.96938163,16.9638163 8.32591361,18.3203483 9.99928062,18.3203483 C11.6726476,18.3203483 13.0291796,16.9638163 13.0291796,15.2904493 L13.0291796,12.093393 C13.0291796,10.420026 11.6726476,9.06349401 9.99928062,9.06349401 L8.54560141,9.06349401 Z"/>
  </defs>
  <g fill="none" fill-rule="evenodd">
    <use fill="#979797" fill-rule="nonzero" transform="rotate(45 9.715 10.36)" xlink:href="#link_icon-a"/>
  </g>
</svg>
