<svg xmlns="http://www.w3.org/2000/svg" xmlns:xlink="http://www.w3.org/1999/xlink" width="20" height="20" viewBox="0 0 20 20">
  <defs>
    <path id="envelope-a" d="M16.2237694,5.4 L3.77932498,5.4 C3.47596644,5.4 3.40347242,5.46956802 3.40154721,5.71428571 L3.40154721,14.2857143 C3.40154721,14.5306891 3.47400535,14.6 3.77932498,14.6 L16.2237694,14.6 C16.5290891,14.6 16.6015472,14.5306891 16.6015472,14.2857143 L16.6015472,5.71428571 C16.6015472,5.46931089 16.5290891,5.4 16.2237694,5.4 Z M16.2237694,4 C17.2815472,4 18.0015472,4.675 18.0015472,5.71428571 L18.0015472,14.2857143 C18.0015472,15.325 17.2815472,16 16.2237694,16 L3.77932498,16 C2.72154721,16 2.00154721,15.325 2.00154721,14.2857143 L2.00154721,5.71428571 C2.00954721,4.675 2.72154721,4 3.77932498,4 L16.2237694,4 Z M16.9456238,6.4902199 L17.6202393,7.71696109 L9.82171114,12.0055657 L2,7.71739746 L2.67302602,6.48978353 L9.82067679,10.4084055 L16.9456238,6.4902199 Z"/>
  </defs>
  <g fill="none" fill-rule="evenodd">
    <rect width="20" height="20"/>
    <use fill="#B7BCC9" fill-rule="nonzero" xlink:href="#envelope-a"/>
  </g>
</svg>
