<svg width="20" height="21" viewBox="0 0 20 21" fill="none" xmlns="http://www.w3.org/2000/svg">
<path fill-rule="evenodd" clip-rule="evenodd" d="M19.2746 6.20368C19.2746 6.69049 19.0071 7.1148 18.611 7.33757C18.6189 7.39573 18.623 7.45467 18.623 7.51404V16.9679C18.623 18.1245 17.6854 19.0621 16.5288 19.0621H3.47113C2.31455 19.0621 1.37695 18.1245 1.37695 16.9679V7.51404C1.37695 7.45411 1.38101 7.39512 1.38886 7.33734C0.992981 7.11451 0.725586 6.69032 0.725586 6.20368V4.37991C0.725586 3.22564 1.66131 2.28991 2.81559 2.28991H4.88481H6.12074H13.6782H14.9141H17.1846C18.3389 2.28991 19.2746 3.22563 19.2746 4.37991V6.20368ZM2.81559 3.58991C2.37928 3.58991 2.02559 3.94361 2.02559 4.37991V4.90368V6.20368H3.32559H16.6746H17.9746V4.90368V4.37991C17.9746 3.9436 17.6209 3.58991 17.1846 3.58991H14.9141H13.6782H6.12074H4.88481H2.81559ZM3.97695 7.51404H2.67695V8.81404V16.9679C2.67695 17.4065 3.03252 17.7621 3.47113 17.7621H16.5288C16.9674 17.7621 17.323 17.4065 17.323 16.9679L17.323 8.81404L17.323 7.51404H16.023L14.5125 7.51405L13.3776 7.51404L6.43754 7.51404L5.30258 7.51404H3.97695ZM7.72603 9.24713C7.36704 9.24713 7.07603 9.53815 7.07603 9.89713C7.07603 10.2561 7.36704 10.5471 7.72603 10.5471H12.2739C12.6329 10.5471 12.9239 10.2561 12.9239 9.89713C12.9239 9.53815 12.6329 9.24713 12.2739 9.24713H7.72603Z" fill="#B7BCC9"/>
</svg>
