<svg xmlns="http://www.w3.org/2000/svg" xmlns:xlink="http://www.w3.org/1999/xlink" width="20" height="20" viewBox="0 0 20 20">
  <defs>
    <path id="mention_icon-a" d="M15.4709688,7.77611899 C14.5320129,5.7372031 12.4883501,4.4 10.2,4.4 C6.99674845,4.4 4.4,6.99674845 4.4,10.2 C4.4,13.4032515 6.99674845,16 10.2,16 C11.3548701,16 12.457763,15.6625469 13.3990705,15.0388215 C13.7213418,14.8252793 14.1557044,14.9134217 14.3692465,15.235693 C14.5827887,15.5579643 14.4946463,15.992327 14.172375,16.2058691 C13.0035115,16.9803768 11.6320632,17.4 10.2,17.4 C6.2235498,17.4 3,14.1764502 3,10.2 C3,6.2235498 6.2235498,3 10.2,3 C13.0746049,3 15.6385524,4.70037877 16.7842377,7.28260013 C16.7977436,7.31304064 16.8089036,7.3439278 16.8177956,7.375059 C17.2079339,8.31188197 17.4,9.47109323 17.4,10.7 C17.4,12.1911688 16.1911688,13.4 14.7,13.4 C13.8322232,13.4 13.0600626,12.9906186 12.5661119,12.3544497 C11.9808431,12.9968464 11.1375023,13.4 10.2,13.4 C8.4326888,13.4 7,11.9673112 7,10.2 C7,8.4326888 8.4326888,7 10.2,7 C10.873071,7 11.4976075,7.20780099 12.0129538,7.56274718 C12.0757595,7.24061111 12.3594862,6.99747625 12.7,6.99747625 C13.0865993,6.99747625 13.4,7.31087692 13.4,7.69747625 L13.4,10.7 C13.4,11.4179702 13.9820298,12 14.7,12 C15.4179702,12 16,11.4179702 16,10.7 C16,9.61263457 15.8278915,8.60629113 15.4982463,7.84955797 C15.4876862,7.82531617 15.4786069,7.8008028 15.4709688,7.77611899 Z M10.2,12 C11.1941125,12 12,11.1941125 12,10.2 C12,9.20588745 11.1941125,8.4 10.2,8.4 C9.20588745,8.4 8.4,9.20588745 8.4,10.2 C8.4,11.1941125 9.20588745,12 10.2,12 Z"/>
  </defs>
  <g fill="none" fill-rule="evenodd">
    <use fill="#454545" fill-rule="nonzero" xlink:href="#mention_icon-a"/>
  </g>
</svg>
