<svg width="20" height="20" viewBox="0 0 20 20" fill="none" xmlns="http://www.w3.org/2000/svg">
<path d="M11.3785 3.87793L8.62671 16.3545" stroke="black" stroke-width="1.8" stroke-linecap="round"/>
<path fill-rule="evenodd" clip-rule="evenodd" d="M11.4798 3.23854C11.8303 3.31586 12.0518 3.66272 11.9745 4.01328L9.22272 16.4898C9.1454 16.8404 8.79854 17.0619 8.44798 16.9846C8.09742 16.9073 7.87591 16.5604 7.95323 16.2099L10.705 3.73328C10.7824 3.38272 11.1292 3.16122 11.4798 3.23854ZM12.913 6.64608C13.1057 6.34321 13.5075 6.25393 13.8103 6.44666L19.0452 9.77793C19.57 10.1119 19.57 10.8781 19.0452 11.2122L13.8103 14.5434C13.5075 14.7362 13.1057 14.6469 12.913 14.344C12.7202 14.0412 12.8095 13.6394 13.1124 13.4467L17.7506 10.495L13.1124 7.54342C12.8095 7.35069 12.7202 6.94894 12.913 6.64608ZM6.11239 6.44666C6.41525 6.25393 6.81701 6.34321 7.00974 6.64608C7.20247 6.94894 7.11319 7.35069 6.81033 7.54342L2.17207 10.495L6.81033 13.4467C7.11319 13.6394 7.20247 14.0412 7.00974 14.344C6.81701 14.6469 6.41525 14.7362 6.11239 14.5434L0.877542 11.2122C0.352666 10.8781 0.35267 10.1119 0.877543 9.77793L6.11239 6.44666Z" fill="black"/>
</svg>
