<svg width="20" height="20" viewBox="0 0 20 20" fill="none" xmlns="http://www.w3.org/2000/svg">
<path d="M9.64542 7.21116L8.5828 6.46228L11.2345 2.69963C11.7595 1.95476 12.7889 1.77647 13.5337 2.30142C13.9723 2.61051 14.2332 3.11357 14.2332 3.65014V11.06H12.9332V3.65014C12.9332 3.53632 12.8779 3.42961 12.7849 3.36405C12.6268 3.25269 12.4085 3.29051 12.2971 3.44851L9.64542 7.21116ZM4.95 14.1453C3.87304 14.1453 3 13.2722 3 12.1953V8.79527C3 7.71831 3.87304 6.84527 4.95 6.84527H6.62498L7.96134 8.14527H4.95C4.59101 8.14527 4.3 8.43628 4.3 8.79527V12.1953C4.3 12.5543 4.59101 12.8453 4.95 12.8453H8.95706L12.3129 16.9267C12.3794 17.0076 12.4785 17.0545 12.5832 17.0545C12.7765 17.0545 12.9332 16.8978 12.9332 16.7045V13.1356L14.2332 14.4135V16.7045C14.2332 17.6157 13.4945 18.3545 12.5832 18.3545C12.0897 18.3545 11.6221 18.1336 11.3087 17.7524L8.34294 14.1453H4.95ZM5.24092 3.60489C4.98708 3.35105 4.98708 2.93949 5.24092 2.68565C5.49476 2.43181 5.90632 2.43181 6.16016 2.68565L18.3967 14.9222C18.6506 15.1761 18.6506 15.5876 18.3967 15.8415C18.1429 16.0953 17.7313 16.0953 17.4775 15.8415L5.24092 3.60489Z" fill="white"/>
</svg>
