<svg xmlns="http://www.w3.org/2000/svg" xmlns:xlink="http://www.w3.org/1999/xlink" width="20" height="20" viewBox="0 0 20 20">
  <defs>
    <path id="notice_off-a" d="M9.64542367,7.2111601 L8.58279725,6.46227754 L11.2345094,2.69963233 C11.7594587,1.95475586 12.7888559,1.77646967 13.5337323,2.30141897 C13.9723233,2.61051457 14.2332275,3.11357197 14.2332275,3.65013712 L14.2332275,11.0599525 L12.9332275,11.0599525 L12.9332275,3.65013712 C12.9332275,3.53632027 12.8778842,3.42961112 12.7848498,3.36404539 C12.6268457,3.25269251 12.4084887,3.29051079 12.2971358,3.44851489 L9.64542367,7.2111601 Z M4.95,14.1452681 C3.87304474,14.1452681 3,13.2722233 3,12.1952681 L3,8.79526806 C3,7.71831279 3.87304474,6.84526806 4.95,6.84526806 L6.62497559,6.84526806 L7.96134033,8.14526806 L4.95,8.14526806 C4.59101491,8.14526806 4.3,8.43628297 4.3,8.79526806 L4.3,12.1952681 C4.3,12.5542531 4.59101491,12.8452681 4.95,12.8452681 L8.95706486,12.8452681 L12.3128763,16.9267479 C12.3793594,17.0076075 12.4785457,17.0544638 12.5832275,17.0544638 C12.7765272,17.0544638 12.9332275,16.8977635 12.9332275,16.7044638 L12.9332275,13.1355879 L14.2332275,14.413542 L14.2332275,16.7044638 C14.2332275,17.6157336 13.4944974,18.3544638 12.5832275,18.3544638 C12.0897273,18.3544638 11.6221351,18.1335697 11.3087145,17.7523743 L8.34293514,14.1452681 L4.95,14.1452681 Z M5.2409177,3.60488746 C4.98707691,3.35104667 4.98707691,2.93948944 5.2409177,2.68564865 C5.49475849,2.43180786 5.90631573,2.43180786 6.16015652,2.68564865 L18.3967288,14.9222209 C18.6505696,15.1760617 18.6505696,15.5876189 18.3967288,15.8414597 C18.142888,16.0953005 17.7313308,16.0953005 17.47749,15.8414597 L5.2409177,3.60488746 Z"/>
  </defs>
  <g fill="none" fill-rule="evenodd">
    <rect width="20" height="20"/>
    <mask id="notice_off-b" fill="#fff">
      <use xlink:href="#notice_off-a"/>
    </mask>
    <use fill="#B7BCC9" fill-rule="nonzero" xlink:href="#notice_off-a"/>
    <g fill="#B7BCC9" fill-rule="nonzero" mask="url(#notice_off-b)">
    </g>
  </g>
</svg>
