<svg width="20" height="20" viewBox="0 0 20 20" fill="none" xmlns="http://www.w3.org/2000/svg">
<g clip-path="url(#clip0_1130_2589)">
<path d="M9.01909 2.89124L9.01188 2.89915L9.00494 2.9073L4.84451 7.78826H2.60845C1.99932 7.78826 1.50552 8.28206 1.50552 8.89119V11.4154C1.50552 12.0245 1.99932 12.5183 2.60845 12.5183H5.0656L9.00474 17.0916L9.00464 17.0917L9.01327 17.1013C9.6955 17.8622 10.9374 17.3469 10.9374 16.365V3.63395C10.9374 2.61632 9.67757 2.16834 9.01909 2.89124Z" stroke="white" stroke-width="1.3"/>
<path d="M13.7236 12.8393C15.2917 11.2712 15.2917 8.72877 13.7236 7.16064" stroke="white" stroke-width="1.3" stroke-linecap="round"/>
<path d="M16.17 15.4809C19.1971 12.4538 19.1971 7.54607 16.17 4.51904" stroke="white" stroke-width="1.3" stroke-linecap="round"/>
</g>
<defs>
<clipPath id="clip0_1130_2589">
<rect width="20" height="20" fill="white"/>
</clipPath>
</defs>
</svg>
