<svg width="20" height="20" xmlns="http://www.w3.org/2000/svg" xmlns:xlink="http://www.w3.org/1999/xlink"><defs><path d="M15.99 15.893l-1.721-2.909.236-.482a6.243 6.243 0 1 0-2.2 2.795l.329-.163 3.356.76zM8.7 17.9a7.7 7.7 0 1 1 7.213-4.998l1.814 3.984a.4.4 0 0 1-.432.56l-4.433-.767A7.66 7.66 0 0 1 8.7 17.9zM5.848 9.3a.649.649 0 0 1 0-1.3h5.704a.65.65 0 0 1 0 1.3H5.848zm0 3a.649.649 0 0 1 0-1.3h5.704a.65.65 0 0 1 0 1.3H5.848z" id="a"/></defs><g fill="none" fill-rule="evenodd"><path d="M20 0L0 0 0 20 20 20z"/><use fill="#A3A3A3" xlink:href="#a"/></g></svg>