<?xml version="1.0" encoding="UTF-8"?>
<svg width="20px" height="20px" viewBox="0 0 20 20" version="1.1" xmlns="http://www.w3.org/2000/svg" xmlns:xlink="http://www.w3.org/1999/xlink">
    <!-- Generator: Sketch 48.2 (47327) - http://www.bohemiancoding.com/sketch -->
    <title>onlyread_off_icon</title>
    <desc>Created with Sketch.</desc>
    <defs></defs>
    <g id="kit_icons_context_menu" stroke="none" stroke-width="1" fill="none" fill-rule="evenodd" transform="translate(-206.000000, -344.000000)">
        <g id="onlyread_100" transform="translate(206.000000, 344.000000)">
            <rect id="Rectangle-55" x="0" y="0" width="20" height="20"></rect>
            <g id="off" transform="translate(0.000000, 4.000000)">
                <path d="M7.82713607,2.43474018 L5.96837831,1.10755268 C7.29341679,0.3724298 8.6369499,1.13496721e-16 10,0 C13.0189982,0 15.9422515,1.82703337 18.7808688,5.37530495 L19.2806248,6 L18.7808688,6.62469505 C18.1182971,7.45290971 17.4511142,8.18734808 16.7791789,8.82666476 L15.1184246,7.64085537 C15.6423152,7.16683732 16.1702335,6.62023209 16.7020701,6 C14.3910749,3.30489903 12.1540659,2 10,2 C9.28474766,2 8.56035038,2.14387241 7.82713607,2.43474018 Z M5.90612463,3.52059907 C5.04779169,4.14849348 4.17822844,4.97338888 3.29792993,6 C5.60892514,8.69510097 7.84593414,10 10,10 C11.1295653,10 12.2819384,9.64117589 13.4558279,8.91122721 L15.1933448,10.1518465 C13.4934069,11.3769256 11.7630294,12 10,12 C6.98100185,12 4.05774846,10.1729666 1.21913119,6.62469505 L0.719375153,6 L1.21913119,5.37530495 C2.20448477,4.14361298 3.20003661,3.11932231 4.20625136,2.30685805 L5.90612463,3.52059907 Z" id="Combined-Shape" fill="#454545"></path>
                <path d="M16.2354114,11.3811715 L2.53855733,1.60136379" id="Line" stroke="#454545" stroke-width="2" stroke-linecap="round" stroke-linejoin="round"></path>
            </g>
            <g id="Group-8" transform="translate(2.000000, 5.000000)"></g>
        </g>
    </g>
</svg>