<svg xmlns="http://www.w3.org/2000/svg" xmlns:xlink="http://www.w3.org/1999/xlink" width="20" height="20" viewBox="0 0 20 20">
  <defs>
    <path id="browser_icon-a" d="M2.86108398,8.59999979 L2.86108398,7.19999981 L17,7.19999981 L17,8.59999979 L2.86108398,8.59999979 Z M4.80000001,6.60000002 C4.35817221,6.60000002 4,6.24182782 4,5.80000001 C4,5.35817221 4.35817221,5 4.80000001,5 C5.24182782,5 5.60000002,5.35817221 5.60000002,5.80000001 C5.60000002,6.24182782 5.24182782,6.60000002 4.80000001,6.60000002 Z M7.20000011,6.60000002 C6.7581723,6.60000002 6.4000001,6.24182782 6.4000001,5.80000001 C6.4000001,5.35817221 6.7581723,5 7.20000011,5 C7.64182791,5 8.00000012,5.35817221 8.00000012,5.80000001 C8.00000012,6.24182782 7.64182791,6.60000002 7.20000011,6.60000002 Z M4,4.4 C3.66862915,4.4 3.4,4.66862915 3.4,5 L3.4,16 C3.4,16.3313708 3.66862915,16.6 4,16.6 L16,16.6 C16.3313708,16.6 16.6,16.3313708 16.6,16 L16.6,5 C16.6,4.66862915 16.3313708,4.4 16,4.4 L4,4.4 Z M4,3 L16,3 C17.1045695,3 18,3.8954305 18,5 L18,16 C18,17.1045695 17.1045695,18 16,18 L4,18 C2.8954305,18 2,17.1045695 2,16 L2,5 C2,3.8954305 2.8954305,3 4,3 Z"/>
  </defs>
  <g fill="none" fill-rule="evenodd">
    <rect width="20" height="20"/>
    <use fill="#979797" fill-rule="nonzero" xlink:href="#browser_icon-a"/>
  </g>
</svg>
