<svg width="20" height="20" viewBox="0 0 20 20" fill="none" xmlns="http://www.w3.org/2000/svg">
<path fill-rule="evenodd" clip-rule="evenodd" d="M8.15 6C7.79101 6 7.5 6.29101 7.5 6.65C7.5 7.00898 7.79101 7.3 8.15 7.3H16.85C17.209 7.3 17.5 7.00898 17.5 6.65C17.5 6.29101 17.209 6 16.85 6H8.15ZM8.15 12.7C7.79101 12.7 7.5 12.991 7.5 13.35C7.5 13.709 7.79101 14 8.15 14H16.85C17.209 14 17.5 13.709 17.5 13.35C17.5 12.991 17.209 12.7 16.85 12.7H8.15Z" fill="black"/>
<path d="M3.37573 8.28955C3.37573 8.53145 3.57183 8.72754 3.81372 8.72754C4.05561 8.72754 4.25171 8.53145 4.25171 8.28955V5.16932C4.25171 4.79966 3.95205 4.5 3.58239 4.5C3.44593 4.5 3.31273 4.54171 3.20065 4.61954L2.41993 5.16165C2.33229 5.2225 2.28003 5.32242 2.28003 5.4291C2.28003 5.69046 2.57243 5.8453 2.78861 5.69844L3.35473 5.31385C3.35696 5.31233 3.35959 5.31152 3.36229 5.31152C3.36971 5.31152 3.37573 5.31754 3.37573 5.32497V8.28955Z" fill="black"/>
<path d="M2.33777 11.9751C2.27268 12.1921 2.46366 12.3799 2.69019 12.3799C2.91671 12.3799 3.08814 12.1797 3.21615 11.9928C3.34562 11.8038 3.57278 11.6885 3.84155 11.6885C4.22241 11.6885 4.48315 11.9463 4.48315 12.2861C4.48315 12.5791 4.36304 12.7812 3.8269 13.2969L2.46227 14.5894C2.37773 14.6695 2.32983 14.7808 2.32983 14.8973C2.32983 15.1314 2.51968 15.3213 2.75386 15.3213H5.05151C5.24568 15.3213 5.40308 15.1639 5.40308 14.9697C5.40308 14.7756 5.24568 14.6182 5.05151 14.6182H3.49938C3.49258 14.6182 3.48706 14.6126 3.48706 14.6058C3.48706 14.6025 3.48843 14.5993 3.49086 14.5969L4.37476 13.751C5.0896 13.0684 5.34448 12.749 5.34448 12.2305C5.34448 11.5273 4.74683 11 3.84155 11C3.08577 11 2.51507 11.3841 2.33777 11.9751Z" fill="black"/>
</svg>
