<svg width="20" height="20" viewBox="0 0 20 20" fill="none" xmlns="http://www.w3.org/2000/svg">
<path fill-rule="evenodd" clip-rule="evenodd" d="M3.99961 1.34961C3.08834 1.34961 2.34961 2.08834 2.34961 2.99961V15.9996C2.34961 16.9109 3.08834 17.6496 3.99961 17.6496H16.9996C17.9109 17.6496 18.6496 16.9109 18.6496 15.9996V6.99961V2.99961C18.6496 2.08834 17.9109 1.34961 16.9996 1.34961H12.9996H3.99961ZM11.3868 2.64961H3.99961C3.80631 2.64961 3.64961 2.80631 3.64961 2.99961V15.9996C3.64961 16.1929 3.80631 16.3496 3.99961 16.3496H16.9996C17.1929 16.3496 17.3496 16.1929 17.3496 15.9996V8.61241C17.2368 8.63678 17.1197 8.64961 16.9996 8.64961H12.9996C12.0883 8.64961 11.3496 7.91088 11.3496 6.99961V2.99961C11.3496 2.87951 11.3624 2.76242 11.3868 2.64961ZM17.3496 6.99961V2.99961C17.3496 2.80631 17.1929 2.64961 16.9996 2.64961H12.9996C12.8063 2.64961 12.6496 2.80631 12.6496 2.99961V6.99961C12.6496 7.19291 12.8063 7.34961 12.9996 7.34961H16.9996C17.1929 7.34961 17.3496 7.19291 17.3496 6.99961Z" fill="black"/>
</svg>
