<svg xmlns="http://www.w3.org/2000/svg" xmlns:xlink="http://www.w3.org/1999/xlink" width="20" height="20" viewBox="0 0 20 20">
  <defs>
    <path id="add_user-copy-2-a" d="M7.18583525,5.57425041 L7.18583525,6.0395646 C7.18583525,7.3259222 8.30208527,8.3836704 9.69156584,8.3836704 C11.0810304,8.3836704 12.197232,7.32593795 12.197232,6.0395646 L12.197232,5.57425041 C12.197232,4.28782341 11.0810385,3.23008359 9.69156584,3.23008359 C8.30207716,3.23008359 7.18583525,4.28783917 7.18583525,5.57425041 Z M5.95172191,5.57425041 C5.95172191,3.59418758 7.63405669,2 9.69156584,2 C11.7490664,2 13.4313454,3.59418008 13.4313454,5.57425041 L13.4313454,6.0395646 C13.4313454,8.01958541 11.7490546,9.61375398 9.69156584,9.61375398 C7.6340685,9.61375398 5.95172191,8.01957791 5.95172191,6.0395646 L5.95172191,5.57425041 Z M5.23411333,14.7203506 L5.23411333,15.1500878 C5.23411333,15.2979516 5.35567102,15.4188975 5.50537876,15.4188975 L13.8082639,15.4188975 C13.9579466,15.4188975 14.0794674,15.2979766 14.0794674,15.1500878 L14.0794674,14.7203506 C14.0794674,12.2927518 12.0977501,10.3209911 9.65682131,10.3209911 C7.21583901,10.3209911 5.23411333,12.2927435 5.23411333,14.7203506 Z M4,14.7203506 C4,11.6128979 6.53474685,9.09090755 9.65682131,9.09090755 C12.7788446,9.09090755 15.3135808,11.6129086 15.3135808,14.7203506 L15.3135808,15.1500878 C15.3135808,15.9777956 14.6390652,16.6489811 13.8082639,16.6489811 L5.50537876,16.6489811 C4.67457886,16.6489811 4,15.9777971 4,15.1500878 L4,14.7203506 Z"/>
  </defs>
  <g fill="none" fill-rule="evenodd">
    <use fill="#A8ADB8" fill-rule="nonzero" xlink:href="#add_user-copy-2-a"/>
  </g>
</svg>
