<svg width="20" height="20" viewBox="0 0 20 20" fill="none" xmlns="http://www.w3.org/2000/svg">
<path fill-rule="evenodd" clip-rule="evenodd" d="M7.59152 6.20096C7.93535 6.09778 8.13044 5.7354 8.02725 5.39156C7.92407 5.04772 7.56168 4.85264 7.21785 4.95582C4.48266 5.77666 3.459 8.41925 3.44857 10.7044C3.44329 11.8601 3.69005 13.0016 4.15499 13.8932C4.61227 14.7701 5.35234 15.5239 6.37286 15.6138C6.38511 15.6149 6.39732 15.6157 6.40946 15.616C6.54238 15.6439 6.68016 15.6585 6.82135 15.6585C7.9252 15.6585 8.82004 14.7637 8.82004 13.6598C8.82004 12.556 7.9252 11.6612 6.82135 11.6612C6.0603 11.6612 5.3986 12.0865 5.06102 12.7125C4.86015 12.1289 4.74524 11.4355 4.74856 10.7103C4.75766 8.71584 5.6327 6.78881 7.59152 6.20096Z" fill="black"/>
<path fill-rule="evenodd" clip-rule="evenodd" d="M15.2556 6.20145C15.5994 6.09827 15.7945 5.73588 15.6913 5.39205C15.5881 5.04821 15.2257 4.85313 14.8819 4.95631C12.1467 5.77714 11.1231 8.41974 11.1126 10.7049C11.1074 11.8606 11.3541 13.0021 11.819 13.8937C12.2763 14.7706 13.0164 15.5244 14.0369 15.6143C14.0492 15.6154 14.0614 15.6161 14.0735 15.6165C14.2064 15.6444 14.3442 15.659 14.4854 15.659C15.5893 15.659 16.4841 14.7642 16.4841 13.6603C16.4841 12.5565 15.5893 11.6616 14.4854 11.6616C13.7244 11.6616 13.0627 12.087 12.7251 12.713C12.5242 12.1294 12.4093 11.436 12.4126 10.7108C12.4217 8.71633 13.2968 6.78929 15.2556 6.20145Z" fill="black"/>
</svg>
