<svg xmlns="http://www.w3.org/2000/svg" xmlns:xlink="http://www.w3.org/1999/xlink" width="20" height="20" viewBox="0 0 20 20">
  <defs>
    <path id="read_all-a" d="M12.5344564,7.87289271 C12.8080771,7.59977964 13.2512924,7.60019116 13.5244055,7.87381186 C13.7975185,8.14743257 13.797107,8.59064786 13.5234863,8.86376093 L9.70046165,12.679693 C9.42702057,12.9526267 8.98415949,12.9524212 8.71097194,12.6792336 L6.58835859,10.5566203 C6.31499158,10.2832533 6.31499158,9.84003777 6.58835859,9.56667076 C6.86172559,9.29330376 7.30494108,9.29330376 7.57830808,9.56667076 L9.20640605,11.1947687 L12.5344564,7.87289271 Z M10,17.6 C14.1973641,17.6 17.6,14.1973641 17.6,10 C17.6,5.8026359 14.1973641,2.4 10,2.4 C5.8026359,2.4 2.4,5.8026359 2.4,10 C2.4,14.1973641 5.8026359,17.6 10,17.6 Z M10,19 C5.02943725,19 1,14.9705627 1,10 C1,5.02943725 5.02943725,1 10,1 C14.9705627,1 19,5.02943725 19,10 C19,14.9705627 14.9705627,19 10,19 Z"/>
  </defs>
  <g fill="none" fill-rule="evenodd">
    <use fill="#A8ADB8" fill-rule="nonzero" xlink:href="#read_all-a"/>
  </g>
</svg>
