<svg xmlns="http://www.w3.org/2000/svg" xmlns:xlink="http://www.w3.org/1999/xlink" width="20" height="20" viewBox="0 0 20 20">
  <defs>
    <path id="quote_icon-a" d="M15.9897537,15.8931235 L14.2688988,12.9840048 L14.5055246,12.5025442 C14.7934709,11.7773548 14.9432432,11.0007595 14.9432432,10.2 C14.9432432,6.75195197 12.148048,3.95675676 8.7,3.95675676 C5.25195197,3.95675676 2.45675676,6.75195197 2.45675676,10.2 C2.45675676,13.648048 5.25195197,16.4432432 8.7,16.4432432 C9.95596555,16.4432432 11.1515485,16.0738325 12.170354,15.3909145 C12.2159642,15.3603414 12.261175,15.3291662 12.3059742,15.2973978 L12.6340358,15.1341843 L15.9897537,15.8931235 Z M8.7,17.9 C4.44740743,17.9 1,14.4525926 1,10.2 C1,5.94740743 4.44740743,2.5 8.7,2.5 C12.9525926,2.5 16.4,5.94740743 16.4,10.2 C16.4,11.1303876 16.2351677,12.0417876 15.9128315,12.9018226 L17.7274069,16.8863184 C17.8189656,17.0873655 17.7302076,17.3245694 17.5291605,17.4161281 C17.4559716,17.449459 17.3744354,17.4599545 17.2951914,17.4462453 L12.8621986,16.6793348 C11.62344,17.4769915 10.1886656,17.9 8.7,17.9 Z M5.62088098,11.4925232 L5.62515344,12.650725 C6.01499582,12.4469305 6.30705922,12.2496602 6.50134362,12.0589142 C7.28471459,11.2898102 7.63313378,10.4809418 7.63313378,9.49430847 C7.63313378,8.50767517 6.74272241,8 6.13858117,8 C5.29150586,8 4.55150138,8.75580515 4.61811913,9.49430847 C4.69308557,10.3253625 5.10733117,10.7850647 5.7989663,10.9623566 C5.86514333,10.9793202 5.97333387,10.9921122 6.12353794,11.0007324 C6.05435876,11.0962601 5.99053569,11.1730068 5.93206872,11.2309723 C5.87360175,11.2889378 5.76987251,11.3761214 5.62088098,11.4925232 Z M10.620881,11.4925232 L10.6251534,12.650725 C11.0149958,12.4469305 11.3070592,12.2496602 11.5013436,12.0589142 C12.2847146,11.2898102 12.6331338,10.4809418 12.6331338,9.49430847 C12.6331338,8.50767517 11.7427224,8 11.1385812,8 C10.2915059,8 9.55150138,8.75580515 9.61811913,9.49430847 C9.69308557,10.3253625 10.1073312,10.7850647 10.7989663,10.9623566 C10.8651433,10.9793202 10.9733339,10.9921122 11.1235379,11.0007324 C11.0543588,11.0962601 10.9905357,11.1730068 10.9320687,11.2309723 C10.8736018,11.2889378 10.7698725,11.3761214 10.620881,11.4925232 Z"/>
  </defs>
  <g fill="none" fill-rule="evenodd">
    <use fill="#979797" fill-rule="nonzero" xlink:href="#quote_icon-a"/>
  </g>
</svg>
