<?xml version="1.0" encoding="UTF-8"?>
<svg width="20px" height="20px" viewBox="0 0 20 20" version="1.1" xmlns="http://www.w3.org/2000/svg" xmlns:xlink="http://www.w3.org/1999/xlink">
    <!-- Generator: Sketch 57.1 (83088) - https://sketch.com -->
    <title>forward_icon</title>
    <desc>Created with Sketch.</desc>
    <g id="Page-1" stroke="none" stroke-width="1" fill="none" fill-rule="evenodd">
        <g id="forward_icon" transform="translate(10.000000, 10.000000) scale(-1, 1) translate(-10.000000, -10.000000) ">
            <rect id="Rectangle" x="0" y="0" width="20" height="20"></rect>
            <g id="share-a-link" transform="translate(0.000000, 2.000000)" fill="#B7BCC9" fill-rule="nonzero">
                <path d="M3.49948809,11.6873772 C5.37501075,10.1592743 7.79788372,9.3892761 10.7701004,9.7880528 L11.3770168,9.8694816 L11.3770168,12.1317655 C11.3770168,12.7869777 11.4663204,12.8309356 11.9538652,12.4353346 L17.5513329,7.88776107 C17.8829213,7.61842612 17.8828319,7.25569105 17.5513514,6.98651912 L11.9528518,2.43941373 C11.4704479,2.04704417 11.3770168,2.09351597 11.3770168,2.75418063 L11.3770168,5.43001186 L10.73123,5.48017709 C7.05393251,5.76583248 4.71181263,7.26371125 3.37822918,9.5915949 C2.71190224,10.7547253 2.38343057,11.9327102 2.26785708,12.8964622 C2.58248128,12.5174753 2.99115942,12.1015437 3.49948809,11.6873772 Z M9.97701678,2.75418063 C9.97701678,0.92888257 11.42745,0.20745031 12.8358658,1.35300401 L18.433929,5.8997548 C19.45517,6.72903255 19.4555191,8.1447168 18.4340615,8.9744028 L12.836318,13.5222002 C11.4249181,14.6674314 9.97701678,13.9547311 9.97701678,12.1317655 L9.97701678,11.1117252 C7.68883631,10.9385122 5.84430688,11.5827666 4.3837952,12.7727348 C3.93090942,13.1417285 3.55119749,13.5367694 3.24309089,13.9298838 C3.06291864,14.1597662 2.94982259,14.3319019 2.85095633,14.4952295 C1.91006466,15.746108 0.628487655,15.2272343 0.818372558,13.7677501 C0.814940312,13.3887649 0.856971214,12.8299838 0.985431198,12.1426197 C1.19235493,11.0354116 1.57015945,9.9313091 2.16344576,8.8956773 C3.64335752,6.31236516 6.19284464,4.59526364 9.97701678,4.1474741 L9.97701678,2.75418063 Z" id="share-a"></path>
            </g>
        </g>
    </g>
</svg>