<svg width="18" height="18" viewBox="0 0 18 18" fill="none" xmlns="http://www.w3.org/2000/svg">
<path d="M11.5345 6.87289C11.8081 6.59978 12.2513 6.60019 12.5244 6.87381C12.7975 7.14743 12.7971 7.59065 12.5235 7.86376L8.70046 11.6797C8.42702 11.9526 7.98416 11.9524 7.71097 11.6792L5.58836 9.55662C5.31499 9.28325 5.31499 8.84004 5.58836 8.56667C5.86173 8.2933 6.30494 8.2933 6.57831 8.56667L8.20641 10.1948L11.5345 6.87289ZM9 16.6C13.1974 16.6 16.6 13.1974 16.6 9C16.6 4.80264 13.1974 1.4 9 1.4C4.80264 1.4 1.4 4.80264 1.4 9C1.4 13.1974 4.80264 16.6 9 16.6ZM9 18C4.02944 18 0 13.9706 0 9C0 4.02944 4.02944 0 9 0C13.9706 0 18 4.02944 18 9C18 13.9706 13.9706 18 9 18Z" fill="#A8ADB8"/>
</svg>
