<svg width="20" height="20" viewBox="0 0 20 20" fill="none" xmlns="http://www.w3.org/2000/svg">
<rect x="3" y="10" width="14" height="1" rx="0.5" fill="black"/>
<path fill-rule="evenodd" clip-rule="evenodd" d="M5.72774 13.5957C5.59782 13.17 5.95887 12.7876 6.4039 12.7876C6.78845 12.7876 7.09865 13.0821 7.26457 13.4291C7.69491 14.3289 8.75291 14.8545 10.1632 14.8545C11.7901 14.8545 12.9688 13.9995 12.9688 12.8208C12.9688 12.5163 12.9078 12.2431 12.7765 12H14.4582C14.4894 12.1885 14.5045 12.3873 14.5045 12.5967C14.5045 14.813 12.7613 16.1992 10.0802 16.1992C7.82406 16.1992 6.21683 15.1981 5.72774 13.5957ZM14.0784 11C13.5745 10.2318 12.5986 9.70591 11.0182 9.35938L9.69004 9.06885C8.05479 8.71191 7.41562 8.06445 7.41562 7.11816C7.41562 5.89795 8.56943 5.16748 10.0636 5.16748C11.3349 5.16748 12.2592 5.70187 12.6299 6.60907C12.7797 6.97556 13.0958 7.28418 13.4917 7.28418C13.9276 7.28418 14.2863 6.91812 14.1738 6.49702C13.7449 4.89161 12.1735 3.82275 10.1051 3.82275C7.62314 3.82275 5.87998 5.20898 5.87998 7.18457C5.87998 8.88623 6.91758 9.97363 9.3165 10.4966L10.6446 10.7871C10.9275 10.8493 11.1814 10.9202 11.408 11H14.0784Z" fill="black"/>
</svg>
