<svg width="20" height="20" viewBox="0 0 20 20" fill="none" xmlns="http://www.w3.org/2000/svg">
<path d="M7.12158 4.58008C7.12158 4.21602 6.82646 3.9209 6.4624 3.9209C6.09835 3.9209 5.80322 4.21602 5.80322 4.58008V10.7837C5.80322 13.0396 7.37793 14.6655 10 14.6655C12.6221 14.6655 14.1968 13.0396 14.1968 10.7837V4.58008C14.1968 4.21602 13.9017 3.9209 13.5376 3.9209C13.1735 3.9209 12.8784 4.21602 12.8784 4.58008V10.6958C12.8784 12.2925 11.8311 13.4497 10 13.4497C8.16895 13.4497 7.12158 12.2925 7.12158 10.6958V4.58008Z" fill="black"/>
<path d="M4.77783 17.6392C4.77783 17.3965 4.97458 17.1997 5.21729 17.1997H14.7827C15.0254 17.1997 15.2222 17.3965 15.2222 17.6392C15.2222 17.8819 15.0254 18.0786 14.7827 18.0786H5.21729C4.97458 18.0786 4.77783 17.8819 4.77783 17.6392Z" fill="black"/>
</svg>
