<svg width="20" height="20" viewBox="0 0 20 20" fill="none" xmlns="http://www.w3.org/2000/svg">
<path d="M13.0325 8.7682H10.422H6.98711V5.7053C6.98711 4.0164 8.34321 2.6423 10.0098 2.6423C11.6069 2.6423 12.9155 3.9051 13.0221 5.4964C13.0782 6.3343 14.458 6.4068 14.4064 5.2898C14.2976 2.9305 12.3645 1.25 10.0098 1.25C7.58561 1.25 5.61321 3.2487 5.61321 5.7053V8.7683C4.66471 8.7683 3.89581 9.5372 3.89581 10.4857V16.973C3.89581 17.9395 4.67931 18.723 5.64581 18.723H14.3739C15.3404 18.723 16.1239 17.9395 16.1239 16.973V10.4857C16.1239 9.5372 15.355 8.7682 14.4064 8.7682H13.0325ZM6.08011 9.9738H13.9376C14.4209 9.9738 14.8126 10.3655 14.8126 10.8487V16.5362C14.8126 17.0195 14.4209 17.4112 13.9376 17.4112H6.08011C5.59691 17.4112 5.20511 17.0195 5.20511 16.5362V10.8487C5.20511 10.3655 5.59691 9.9738 6.08011 9.9738Z" fill="white"/>
</svg>
