<svg width="21" height="21" viewBox="0 0 21 21" fill="none" xmlns="http://www.w3.org/2000/svg">
<path fill-rule="evenodd" clip-rule="evenodd" d="M10.3961 1.68589L7.57231 4.50963C7.31847 4.76347 7.31847 5.17503 7.57231 5.42887C7.82616 5.68271 8.23771 5.68271 8.49155 5.42887L10.2103 3.71009L10.2104 6.96707C10.2104 7.32606 10.5014 7.61707 10.8604 7.61707C11.2194 7.61706 11.5104 7.32605 11.5104 6.96706L11.5103 3.71011L13.2291 5.42888C13.483 5.68272 13.8945 5.68272 14.1483 5.42888C14.4022 5.17504 14.4022 4.76348 14.1483 4.50964L11.3257 1.68699C11.3238 1.68506 11.3219 1.68312 11.32 1.6812C11.2559 1.61712 11.1818 1.56922 11.1027 1.53749C11.0278 1.50738 10.946 1.49081 10.8603 1.49081C10.7673 1.49081 10.6788 1.51037 10.5988 1.54559C10.5269 1.57715 10.4595 1.62236 10.4007 1.68122C10.3991 1.68277 10.3976 1.68433 10.3961 1.68589ZM2.2373 9.77453C2.2373 9.05656 2.81933 8.47453 3.5373 8.47453H6.16294L7.2979 8.47453L14.2379 8.47453L15.3729 8.47453L18.1833 8.47453C18.5281 8.47453 18.8588 8.6115 19.1026 8.85529C19.3464 9.09909 19.4833 9.42975 19.4833 9.77453V17.1111C19.4833 18.2676 18.5457 19.2052 17.3892 19.2052H4.33148C3.1749 19.2052 2.2373 18.2676 2.2373 17.1111V9.77453ZM18.1833 11.0745L18.1833 17.1111C18.1833 17.5497 17.8278 17.9052 17.3892 17.9052H4.33148C3.89287 17.9052 3.5373 17.5497 3.5373 17.1111V11.0745V9.77453H4.8373H6.16294H7.29789H14.2379L15.3729 9.77454L16.8833 9.77453H18.1833L18.1833 11.0745ZM7.93638 12.7812C7.93638 12.4223 8.22739 12.1312 8.58638 12.1312H13.1343C13.4932 12.1312 13.7843 12.4223 13.7843 12.7812C13.7843 13.1402 13.4932 13.4312 13.1343 13.4312H8.58638C8.22739 13.4312 7.93638 13.1402 7.93638 12.7812Z" fill="#B7BCC9"/>
</svg>
