<svg width="20" height="20" viewBox="0 0 20 20" fill="none" xmlns="http://www.w3.org/2000/svg">
<path fill-rule="evenodd" clip-rule="evenodd" d="M4 2.5C3.17157 2.5 2.5 3.17157 2.5 4C2.5 4.82843 3.17157 5.5 4 5.5C4.82843 5.5 5.5 4.82843 5.5 4C5.5 3.17157 4.82843 2.5 4 2.5ZM8.15 3.45C7.79101 3.45 7.5 3.74101 7.5 4.1C7.5 4.45898 7.79101 4.75 8.15 4.75H16.85C17.209 4.75 17.5 4.45898 17.5 4.1C17.5 3.74101 17.209 3.45 16.85 3.45H8.15ZM4 8.5C3.17157 8.5 2.5 9.17157 2.5 10C2.5 10.8284 3.17157 11.5 4 11.5C4.82843 11.5 5.5 10.8284 5.5 10C5.5 9.17157 4.82843 8.5 4 8.5ZM8.15 9.45C7.79101 9.45 7.5 9.74101 7.5 10.1C7.5 10.459 7.79101 10.75 8.15 10.75H16.85C17.209 10.75 17.5 10.459 17.5 10.1C17.5 9.74101 17.209 9.45 16.85 9.45H8.15ZM2.5 16C2.5 15.1716 3.17157 14.5 4 14.5C4.82843 14.5 5.5 15.1716 5.5 16C5.5 16.8284 4.82843 17.5 4 17.5C3.17157 17.5 2.5 16.8284 2.5 16ZM7.5 16.1C7.5 15.741 7.79101 15.45 8.15 15.45H16.85C17.209 15.45 17.5 15.741 17.5 16.1C17.5 16.459 17.209 16.75 16.85 16.75H8.15C7.79101 16.75 7.5 16.459 7.5 16.1Z" fill="black"/>
</svg>
