<svg xmlns="http://www.w3.org/2000/svg" xmlns:xlink="http://www.w3.org/1999/xlink" width="20" height="20" viewBox="0 0 20 20">
  <defs>
    <path id="unpin-a" d="M5.22708905,2.56159469 L6.35499154,1.43369219 C6.79865445,0.990029282 7.58473066,1.76996014 7.14106775,2.21362305 L6.01009258,3.34459822 L7.14106775,4.47557338 C7.58473066,4.91923629 6.79865445,5.69916715 6.35499154,5.25550424 L5.22708905,4.12760175 L4.09918656,5.25550424 C3.65552365,5.69916715 2.86944744,4.91923629 3.31311035,4.47557338 L4.44408552,3.34459822 L3.31311035,2.21362305 C2.86944744,1.76996014 3.65552365,0.990029282 4.09918656,1.43369219 L5.22708905,2.56159469 Z M4.49497475,7.50502525 L5.77148718,8.78153769 C5.80425198,8.72791189 5.84592702,8.67543643 5.89741347,8.62503182 L11.8285612,2.8185107 L11.4823447,2.47229424 C10.8223784,1.81232791 11.8123279,0.822378415 12.4722942,1.48234474 L18.1291485,7.13919899 C18.7891148,7.79916532 17.7991653,8.78911482 17.139199,8.12914849 L16.9859048,7.9758543 L11.0888574,13.7489917 C11.0233984,13.8130751 10.9549297,13.8612318 10.885303,13.8953535 L11.9949747,15.0050253 C12.6549411,15.6649916 11.6649916,16.6549411 11.0050253,15.9949747 L7.92810059,12.9180501 L2.40746113,18.4386895 C1.7474948,19.0986559 0.757545306,18.1087064 1.41751164,17.44874 L6.93815109,11.9281006 L3.50502525,8.49497475 C2.84505892,7.83500842 3.83500842,6.84505892 4.49497475,7.50502525 Z M6.73037707,9.74042758 L9.95216772,12.9622182 C9.9881381,12.8887378 10.0398301,12.8167682 10.109474,12.7485876 L15.9958995,6.98584901 L12.8185665,3.80851599 L6.87679681,9.62543588 C6.82933714,9.67189832 6.78029528,9.70998855 6.73037707,9.74042758 Z"/>
  </defs>
  <g fill="none" fill-rule="evenodd">
    <use fill="#979797" fill-rule="nonzero" xlink:href="#unpin-a"/>
  </g>
</svg>
