<svg xmlns="http://www.w3.org/2000/svg" xmlns:xlink="http://www.w3.org/1999/xlink" width="20" height="20" viewBox="0 0 20 20">
  <defs>
    <path id="new_mark_icon-a" d="M8.99019879,10.753282 L6.9144384,9.5060393 C6.63032197,9.33532492 6.56141338,8.92829677 6.76052675,8.59691647 C6.95964012,8.26553617 7.35137528,8.1352907 7.63549171,8.30600508 L9.39999962,9.36622839 L9.39999962,7.13016112 C9.39999962,6.7987014 9.71340029,6.53000021 10.0999996,6.53000021 C10.4865989,6.53000021 10.7999996,6.7987014 10.7999996,7.13016112 L10.7999996,9.42186236 L12.657098,8.30600508 C12.9412144,8.1352907 13.3329496,8.26553617 13.532063,8.59691647 C13.7311763,8.92829677 13.6622677,9.33532492 13.3781513,9.5060393 L11.2401062,10.7907064 L12.6508132,12.5327845 C12.8594075,12.7903771 12.7849486,13.1964266 12.4845045,13.4397214 C12.1840604,13.6830162 11.7714032,13.6714256 11.5628088,13.4138331 L10.0999996,11.6074141 L8.6371904,13.4138331 C8.42859604,13.6714256 8.01593883,13.6830162 7.71549473,13.4397214 C7.41505062,13.1964266 7.34059169,12.7903771 7.54918605,12.5327845 L8.99019879,10.753282 Z M10,17.6 C14.1973641,17.6 17.6,14.1973641 17.6,10 C17.6,5.8026359 14.1973641,2.4 10,2.4 C5.8026359,2.4 2.4,5.8026359 2.4,10 C2.4,14.1973641 5.8026359,17.6 10,17.6 Z M10,19 C5.02943725,19 1,14.9705627 1,10 C1,5.02943725 5.02943725,1 10,1 C14.9705627,1 19,5.02943725 19,10 C19,14.9705627 14.9705627,19 10,19 Z"/>
  </defs>
  <g fill="none" fill-rule="evenodd">
    <use fill="#A8ADB8" fill-rule="nonzero" xlink:href="#new_mark_icon-a"/>
  </g>
</svg>
