<svg width="20" height="20" viewBox="0 0 20 20" fill="none" xmlns="http://www.w3.org/2000/svg">
<g clip-path="url(#clip0)">
<path fill-rule="evenodd" clip-rule="evenodd" d="M10.5852 7.62801L11.4633 5.86189L11.4596 5.86215C11.6308 5.5114 11.7153 5.11257 11.6869 4.6954C11.6005 3.42243 10.4966 2.4607 9.22139 2.5473C7.94616 2.63391 6.98247 3.73607 7.06892 5.00904C7.09814 5.43917 7.24351 5.83377 7.47241 6.1644L8.53775 7.73155C8.74177 8.11119 9.15514 8.35692 9.61377 8.32577C10.0585 8.29557 10.4258 8.01319 10.5852 7.62801Z" fill="white"/>
<path fill-rule="evenodd" clip-rule="evenodd" d="M12.3419 10.188L14.5477 10.5152L14.546 10.5108C14.9808 10.572 15.4369 10.5237 15.8734 10.3484C17.2058 9.81313 17.8513 8.29719 17.3151 6.96241C16.7789 5.62763 15.2641 4.97947 13.9317 5.5147C13.4696 5.70033 13.0901 6.00391 12.8139 6.37699L11.5303 8.03232C11.1941 8.3827 11.0744 8.91119 11.2674 9.39174C11.4531 9.85383 11.8782 10.1479 12.3419 10.188Z" fill="white"/>
<path fill-rule="evenodd" clip-rule="evenodd" d="M10.5132 12.5138L10.7496 14.5076L10.7526 14.5053C10.8023 14.8986 10.9524 15.2844 11.2084 15.6232C11.9905 16.6579 13.4647 16.8615 14.5012 16.0781C15.5377 15.2947 15.744 13.8209 14.962 12.7862C14.6913 12.428 14.3376 12.1694 13.9478 12.0168L12.194 11.287C11.8097 11.0798 11.3233 11.1016 10.9517 11.3825C10.5911 11.655 10.4357 12.0983 10.5132 12.5138Z" fill="white"/>
<path fill-rule="evenodd" clip-rule="evenodd" d="M7.5601 11.3433L5.59572 12.3686L5.59911 12.3708C5.21318 12.5759 4.87423 12.8816 4.62532 13.2782C3.86546 14.4888 4.23263 16.0873 5.44542 16.8485C6.65821 17.6098 8.25737 17.2454 9.01723 16.0348C9.27662 15.6215 9.40468 15.1631 9.4126 14.7081L9.47861 12.5988C9.5427 12.1211 9.32984 11.6273 8.89437 11.354C8.47343 11.0898 7.95745 11.1024 7.5601 11.3433Z" fill="white"/>
<path fill-rule="evenodd" clip-rule="evenodd" d="M7.82538 8.69026L6.65334 7.54102L6.65257 7.54408C6.41889 7.31835 6.12487 7.14896 5.78734 7.06408C4.75688 6.80497 3.7111 7.43175 3.45153 8.46404C3.19195 9.49633 3.81688 10.5432 4.84734 10.8023C5.18489 10.8872 5.52408 10.877 5.83674 10.7887L5.8367 10.7889L7.38888 10.3377C7.73873 10.2714 8.03604 10.0084 8.12872 9.6398C8.21931 9.2795 8.0899 8.91558 7.82538 8.69026Z" fill="white"/>
</g>
<defs>
<clipPath id="clip0">
<path d="M0 0H20V20H0V0Z" fill="white"/>
</clipPath>
</defs>
</svg>
