<svg width="20" height="20" viewBox="0 0 20 20" fill="none" xmlns="http://www.w3.org/2000/svg">
<path d="M11.8343 9.17432C11.9372 9.40499 11.9935 9.65376 11.9998 9.90628C12.0061 10.1592 11.9622 10.4108 11.8706 10.6466C11.7791 10.8824 11.6417 11.0977 11.4664 11.2801C11.2911 11.4625 11.0814 11.6083 10.8494 11.7091L10.8471 11.7101C10.3762 11.919 9.84187 11.9336 9.36032 11.7505C8.87911 11.5676 8.48954 11.2022 8.27623 10.7337C8.17339 10.5029 8.11728 10.254 8.11116 10.0014C8.10502 9.74835 8.14914 9.49664 8.24095 9.26081C8.33276 9.02497 8.47045 8.80969 8.64603 8.62743C8.82161 8.44516 9.0316 8.29954 9.26385 8.199L9.26609 8.19801C9.73667 7.98988 10.2704 7.97578 10.7513 8.15876C11.2319 8.34161 11.621 8.70651 11.8343 9.17432ZM7.01893 19.1431C5.51451 18.7769 4.88508 17.1565 5.72292 15.7112L5.723 15.711C5.93319 15.348 6.41044 14.7292 6.97103 14.0479C7.45504 13.4596 7.98811 12.8403 8.43496 12.328C8.77034 12.5517 9.14864 12.7035 9.5459 12.7737C9.62639 13.7113 9.75016 15.2658 9.7868 16.4242V16.4243C9.81964 17.4529 9.46301 18.2141 8.94586 18.6739C8.42787 19.1345 7.72717 19.3138 7.01893 19.1431ZM7.77638 11.7249C6.99392 12.5544 6.16164 13.3357 5.28414 14.0642C4.77456 14.4838 4.25679 14.5604 3.8055 14.4461C3.3426 14.329 2.92456 14.0038 2.65474 13.579C2.38513 13.1546 2.28033 12.6585 2.39978 12.2097C2.51654 11.7709 2.86163 11.3252 3.59792 11.0169C4.00052 10.8486 4.66143 10.6934 5.39597 10.5612C5.99774 10.4528 6.63122 10.3628 7.1787 10.2937C7.24235 10.8163 7.44907 11.3118 7.77638 11.7249ZM7.21771 9.38483C5.77935 9.52784 4.41363 9.62977 3.57895 9.62977C2.41963 9.62977 1.71984 9.23647 1.35753 8.73864C0.991737 8.23601 0.927172 7.56966 1.15192 6.93675L1.15208 6.9363C1.44077 6.11943 2.03406 5.66692 2.73338 5.53922C3.44397 5.40947 4.29185 5.61209 5.05865 6.17511C6.26019 7.05827 7.07703 7.70215 7.71808 8.26123C7.47198 8.59483 7.30112 8.97823 7.21771 9.38483ZM11.9243 7.77043C11.5281 7.43743 11.0499 7.21597 10.5392 7.12943C10.4741 6.26879 10.4077 5.34796 10.3798 4.52795C10.3487 3.61155 10.3682 2.86833 10.4715 2.47305C10.6585 1.76141 11.2197 1.23171 11.9058 0.943673C12.5972 0.653442 13.3589 0.632767 13.8941 0.874875C15.194 1.46217 15.7374 2.86594 15.1272 4.14651C14.8852 4.65182 14.3538 5.31481 13.7049 6.0114C13.1348 6.62342 12.4936 7.24108 11.9243 7.77043ZM12.9397 9.76348C12.9163 9.42658 12.8327 9.09561 12.692 8.78654C12.6402 8.66964 12.5808 8.55642 12.5141 8.44765C13.3903 7.71544 14.8308 6.55805 15.4156 6.20485L15.4157 6.20477C16.3063 5.66629 17.0362 5.60321 17.5699 5.76429C18.1061 5.92613 18.4919 6.32765 18.6749 6.81393C18.8585 7.30161 18.8327 7.86095 18.5582 8.3276C18.2873 8.78816 17.7516 9.1949 16.8445 9.33556C15.4167 9.5565 13.9868 9.68512 12.9397 9.76348ZM9.05529 2.96631C9.19503 3.61415 9.45192 5.57925 9.62471 7.13305C9.17189 7.20094 8.74093 7.3748 8.36774 7.64058C7.25701 6.61535 6.10083 5.44795 5.56087 4.71092C4.68665 3.51867 4.93999 2.11308 6.0746 1.57353C7.43589 0.926527 8.76219 1.60214 9.05529 2.96631ZM12.7887 12.0759C12.6421 11.9345 12.5033 11.7984 12.3604 11.656C12.3795 11.6305 12.3982 11.6047 12.4165 11.5785C12.6157 11.2938 12.7609 10.9753 12.8452 10.6389C13.0607 10.6441 13.2704 10.6467 13.5012 10.6479C13.654 10.6485 13.654 10.6485 13.806 10.6486C13.9831 10.6485 13.9831 10.6485 14.1606 10.6482C15.302 10.6462 15.8643 10.6552 16.7053 10.7022C18.7564 10.8175 19.7286 12.3038 18.9312 13.8073C18.2655 15.0639 16.4618 15.3147 14.977 14.0479C14.0849 13.2852 13.3913 12.6571 12.7887 12.0759ZM10.5252 13.3759C10.495 13.1654 10.4677 12.965 10.4435 12.7789C10.4497 12.7781 10.4559 12.7772 10.462 12.7764C10.7888 12.7294 11.1049 12.6271 11.3969 12.474C11.5098 12.4149 11.6188 12.3483 11.7231 12.2747C11.892 12.454 12.0031 12.5723 12.1376 12.7163C12.8722 13.5026 13.4835 14.1844 14.0164 14.8256C15.0177 16.032 15.0238 17.4593 13.8529 18.0052C12.5526 18.6099 11.3647 17.9547 10.9961 16.1181C10.8087 15.182 10.6505 14.2463 10.5252 13.3759Z" fill="white"/>
<rect width="20" height="20"/>
</svg>
