<svg width="20" height="20" viewBox="0 0 20 20" fill="none" xmlns="http://www.w3.org/2000/svg">
<path d="M10.1463 1C15.1976 1 19 4.64766 19 9.16144C19 11.3074 17.402 13.1846 15.5748 13.7845C12.7327 14.7176 11.5805 13.4574 10.9633 14.4511C10.5628 15.0959 12.2122 15.8613 12.2122 17.0922C12.2122 18.323 11.3958 19 10.1463 19C5.09492 19 1 14.9706 1 10C1 5.02944 5.09492 1 10.1463 1ZM10.1463 2.22727C5.78374 2.22727 2.24722 5.70724 2.24722 10C2.24722 14.2928 5.78374 17.7727 10.1463 17.7727C10.7622 17.7727 10.9649 17.5909 10.9649 17.0922C10.9649 16.9847 10.8696 16.8048 10.5911 16.47C10.5513 16.4221 10.3496 16.1852 10.2926 16.1162C10.1529 15.947 10.048 15.8066 9.95519 15.6549C9.60179 15.0771 9.5114 14.4353 9.89913 13.811C10.5253 12.8029 11.0842 12.7234 12.5929 12.8774C13.5581 12.9759 14.2141 12.9374 15.1801 12.6203C16.6087 12.1513 17.7528 10.6707 17.7528 9.16144C17.7528 5.29061 14.4697 2.22727 10.1463 2.22727ZM4.94952 7.95455C5.75314 7.95455 6.40461 8.59559 6.40461 9.38636C6.40461 10.1771 5.75314 10.8182 4.94952 10.8182C4.1459 10.8182 3.49443 10.1771 3.49443 9.38636C3.49443 8.59559 4.1459 7.95455 4.94952 7.95455ZM14.9273 7.95455C15.7309 7.95455 16.3823 8.59559 16.3823 9.38636C16.3823 10.1771 15.7309 10.8182 14.9273 10.8182C14.1236 10.8182 13.4722 10.1771 13.4722 9.38636C13.4722 8.59559 14.1236 7.95455 14.9273 7.95455ZM7.85969 4.27273C8.66332 4.27273 9.31478 4.91377 9.31478 5.70455C9.31478 6.49532 8.66332 7.13636 7.85969 7.13636C7.05607 7.13636 6.40461 6.49532 6.40461 5.70455C6.40461 4.91377 7.05607 4.27273 7.85969 4.27273ZM12.4328 4.27273C13.2364 4.27273 13.8879 4.91377 13.8879 5.70455C13.8879 6.49532 13.2364 7.13636 12.4328 7.13636C11.6292 7.13636 10.9777 6.49532 10.9777 5.70455C10.9777 4.91377 11.6292 4.27273 12.4328 4.27273Z" fill="white"/>
</svg>
