<svg width="20" height="20" viewBox="0 0 20 20" fill="none" xmlns="http://www.w3.org/2000/svg">
<path fill-rule="evenodd" clip-rule="evenodd" d="M10.1463 1C5.09492 1 1 5.02944 1 10C1 14.9706 5.09492 19 10.1463 19C11.3958 19 12.2122 18.323 12.2122 17.0922C12.2122 16.4616 11.7792 15.9531 11.4108 15.5204C11.0602 15.1086 10.768 14.7655 10.9633 14.4511C11.2603 13.9729 11.6813 14.0167 12.3549 14.0868C13.0809 14.1624 14.1005 14.2685 15.5748 13.7845C17.402 13.1846 19 11.3074 19 9.16144C19 4.64766 15.1976 1 10.1463 1ZM9.34358 5.71316C9.34358 4.88473 8.672 4.21316 7.84358 4.21316C7.01515 4.21316 6.34358 4.88473 6.34358 5.71316C6.34358 6.54159 7.01515 7.21316 7.84358 7.21316C8.672 7.21316 9.34358 6.54159 9.34358 5.71316ZM4.9295 7.89114C5.75793 7.89114 6.4295 8.56271 6.4295 9.39114C6.4295 10.2196 5.75793 10.8911 4.9295 10.8911C4.10107 10.8911 3.4295 10.2196 3.4295 9.39114C3.4295 8.56271 4.10107 7.89114 4.9295 7.89114ZM14.9234 7.90624C15.7518 7.90624 16.4234 8.57782 16.4234 9.40624C16.4234 10.2347 15.7518 10.9062 14.9234 10.9062C14.095 10.9062 13.4234 10.2347 13.4234 9.40624C13.4234 8.57782 14.095 7.90624 14.9234 7.90624ZM12.4276 4.22372C13.256 4.22372 13.9276 4.8953 13.9276 5.72372C13.9276 6.55215 13.256 7.22372 12.4276 7.22372C11.5991 7.22372 10.9276 6.55215 10.9276 5.72372C10.9276 4.8953 11.5991 4.22372 12.4276 4.22372Z" fill="white"/>
<rect width="20" height="20"/>
</svg>
