<?xml version="1.0" encoding="UTF-8"?>
<svg width="20px" height="20px" viewBox="0 0 20 20" version="1.1" xmlns="http://www.w3.org/2000/svg" xmlns:xlink="http://www.w3.org/1999/xlink">
    <!-- Generator: Sketch 54.1 (76490) - https://sketchapp.com -->
    <title>dit_filled_icon</title>
    <desc>Created with Sketch.</desc>
    <g id="Page-1" stroke="none" stroke-width="1" fill="none" fill-rule="evenodd">
        <g id="Artboard" transform="translate(-23.000000, -29.000000)">
            <g id="dit_filled_icon" transform="translate(23.000000, 29.000000)">
                <rect id="Rectangle" x="0" y="0" width="20" height="20"></rect>
                <path d="M18,16.8571429 C18,17.4857143 17.488,18 16.8571429,18 C16.544,18 16.2605714,17.8742857 16.0537143,17.6685714 L16.0525714,17.6685714 L16.0491429,17.6685714 L16.0457143,17.6571429 L14.0982857,15.7142857 L4.28571429,15.7142857 C3.024,15.7142857 2,14.6857143 2,13.4285714 L2,4.28571429 C2,3.02857143 3.024,2 4.28571429,2 L15.7142857,2 C16.976,2 18,3.02857143 18,4.28571429 L18,16.8571429 Z M13.4285714,7.71428571 C12.7977143,7.71428571 12.2857143,8.22857143 12.2857143,8.85714286 C12.2857143,9.48571429 12.7977143,10 13.4285714,10 C14.0594286,10 14.5714286,9.48571429 14.5714286,8.85714286 C14.5714286,8.22857143 14.0594286,7.71428571 13.4285714,7.71428571 Z M10,7.71428571 C9.36914286,7.71428571 8.85714286,8.22857143 8.85714286,8.85714286 C8.85714286,9.48571429 9.36914286,10 10,10 C10.6308571,10 11.1428571,9.48571429 11.1428571,8.85714286 C11.1428571,8.22857143 10.6308571,7.71428571 10,7.71428571 Z M6.57142857,7.71428571 C5.94057143,7.71428571 5.42857143,8.22857143 5.42857143,8.85714286 C5.42857143,9.48571429 5.94057143,10 6.57142857,10 C7.20228571,10 7.71428571,9.48571429 7.71428571,8.85714286 C7.71428571,8.22857143 7.20228571,7.71428571 6.57142857,7.71428571 Z" id="Shape" fill="#FFFFFF" fill-rule="nonzero"></path>
            </g>
        </g>
    </g>
</svg>