<svg width="21" height="20" viewBox="0 0 21 20" fill="none" xmlns="http://www.w3.org/2000/svg">
<path fill-rule="evenodd" clip-rule="evenodd" d="M13 9C11.6021 9 10.4275 8.04392 10.0945 6.75H2.75C2.33579 6.75 2 6.41421 2 6C2 5.58579 2.33579 5.25 2.75 5.25H10.0945C10.4275 3.95608 11.6021 3 13 3C14.3979 3 15.5725 3.95608 15.9055 5.25H17.25C17.6642 5.25 18 5.58579 18 6C18 6.41421 17.6642 6.75 17.25 6.75H15.9055C15.5725 8.04392 14.3979 9 13 9ZM7 17C8.39788 17 9.57245 16.0439 9.90549 14.75H17.25C17.6642 14.75 18 14.4142 18 14C18 13.5858 17.6642 13.25 17.25 13.25H9.90549C9.57245 11.9561 8.39788 11 7 11C5.60212 11 4.42755 11.9561 4.09451 13.25H2.75C2.33579 13.25 2 13.5858 2 14C2 14.4142 2.33579 14.75 2.75 14.75H4.09451C4.42755 16.0439 5.60212 17 7 17ZM13 7.7C12.0611 7.7 11.3 6.93889 11.3 6C11.3 5.06112 12.0611 4.3 13 4.3C13.9389 4.3 14.7 5.06112 14.7 6C14.7 6.93889 13.9389 7.7 13 7.7ZM8.7 14C8.7 14.9389 7.93889 15.7 7 15.7C6.06112 15.7 5.3 14.9389 5.3 14C5.3 13.0611 6.06112 12.3 7 12.3C7.93889 12.3 8.7 13.0611 8.7 14Z" fill="white"/>
</svg>
