<svg width="20" height="20" viewBox="0 0 20 20" fill="none" xmlns="http://www.w3.org/2000/svg">
<path fill-rule="evenodd" clip-rule="evenodd" d="M1 6C1 4.89543 1.89543 4 3 4H17C18.1046 4 19 4.89543 19 6V15C19 16.1046 18.1046 17 17 17H3C1.89543 17 1 16.1046 1 15V6ZM5 14.2722C5 13.9141 5.29032 13.6238 5.64844 13.6238H14.3516C14.7097 13.6238 15 13.9141 15 14.2722C15 14.6303 14.7097 14.9206 14.3516 14.9206H5.64844C5.29032 14.9206 5 14.6303 5 14.2722ZM4.2619 6.37741C3.84769 6.37741 3.5119 6.7132 3.5119 7.12741V7.62741C3.5119 8.04162 3.84769 8.37741 4.2619 8.37741H4.7619C5.17612 8.37741 5.5119 8.04162 5.5119 7.62741V7.12741C5.5119 6.7132 5.17612 6.37741 4.7619 6.37741H4.2619ZM3.5119 10.6274C3.5119 10.2132 3.84769 9.87741 4.2619 9.87741H4.7619C5.17612 9.87741 5.5119 10.2132 5.5119 10.6274V11.1274C5.5119 11.5416 5.17612 11.8774 4.7619 11.8774H4.2619C3.84769 11.8774 3.5119 11.5416 3.5119 11.1274V10.6274ZM7.17596 10.6274C7.17596 10.2132 7.51175 9.87741 7.92596 9.87741H8.42596C8.84018 9.87741 9.17596 10.2132 9.17596 10.6274V11.1274C9.17596 11.5416 8.84018 11.8774 8.42596 11.8774H7.92596C7.51175 11.8774 7.17596 11.5416 7.17596 11.1274V10.6274ZM11.59 9.87741C11.1758 9.87741 10.84 10.2132 10.84 10.6274V11.1274C10.84 11.5416 11.1758 11.8774 11.59 11.8774H12.09C12.5042 11.8774 12.84 11.5416 12.84 11.1274V10.6274C12.84 10.2132 12.5042 9.87741 12.09 9.87741H11.59ZM14.504 10.6274C14.504 10.2132 14.8398 9.87741 15.254 9.87741H15.754C16.1682 9.87741 16.504 10.2132 16.504 10.6274V11.1274C16.504 11.5416 16.1682 11.8774 15.754 11.8774H15.254C14.8398 11.8774 14.504 11.5416 14.504 11.1274V10.6274ZM7.17596 7.12741C7.17596 6.7132 7.51175 6.37741 7.92596 6.37741H8.42596C8.84018 6.37741 9.17596 6.7132 9.17596 7.12741V7.62741C9.17596 8.04162 8.84018 8.37741 8.42596 8.37741H7.92596C7.51175 8.37741 7.17596 8.04162 7.17596 7.62741V7.12741ZM11.59 6.37741C11.1758 6.37741 10.84 6.7132 10.84 7.12741V7.62741C10.84 8.04162 11.1758 8.37741 11.59 8.37741H12.09C12.5042 8.37741 12.84 8.04162 12.84 7.62741V7.12741C12.84 6.7132 12.5042 6.37741 12.09 6.37741H11.59ZM14.504 7.12741C14.504 6.7132 14.8398 6.37741 15.254 6.37741H15.754C16.1682 6.37741 16.504 6.7132 16.504 7.12741V7.62741C16.504 8.04162 16.1682 8.37741 15.754 8.37741H15.254C14.8398 8.37741 14.504 8.04162 14.504 7.62741V7.12741Z" fill="white"/>
<rect width="20" height="20"/>
</svg>
