<svg width="20" height="20" viewBox="0 0 20 20" fill="none" xmlns="http://www.w3.org/2000/svg">
<rect x="1.65" y="1.65" width="16.7" height="16.7" rx="8.35" stroke="white" stroke-width="1.3"/>
<path d="M8.65002 5.50002C12.61 6.22002 12.7 3.40002 12.25 1.90002H6.85002L3.70002 4.15002L1.90002 7.75002L7.30002 12.25C7.30002 15.13 8.50002 15.25 9.10002 14.95V18.1H10.9L14.95 17.2C15.25 16.75 15.85 15.76 15.85 15.4C15.13 13.96 13.45 13.6 12.7 13.6C12.7 13.6 13.154 10.3153 12.7 10C12.25 9.68752 5.95002 10 5.95002 10C5.95002 10 5.5601 8.78491 5.95002 8.20002C6.53491 7.3227 7.96838 8.50002 8.65002 8.20002C9.33167 7.90003 8.65002 6.94002 8.65002 5.50002Z" fill="white"/>
<rect width="20" height="20"/>
</svg>
