<svg width="20" height="20" viewBox="0 0 20 20" fill="none" xmlns="http://www.w3.org/2000/svg">
<path fill-rule="evenodd" clip-rule="evenodd" d="M16.0431 14.4428C15.739 13.9968 15.4035 13.6638 15.0425 13.4272C14.7735 13.2509 14.502 13.1359 14.237 13.0656C14.266 12.8372 14.2961 12.5681 14.3182 12.2917C14.3474 11.9251 14.3646 11.5217 14.3398 11.1768C14.3276 11.0061 14.3033 10.8225 14.253 10.6546C14.2093 10.5088 14.1121 10.2554 13.8708 10.0878C13.7023 9.97083 13.5153 9.94523 13.4331 9.93573C13.3237 9.92309 13.206 9.92179 13.093 9.92526C12.8649 9.93226 12.5854 9.96133 12.2854 10.002C11.6813 10.0839 10.9295 10.2218 10.2036 10.3672C9.47525 10.513 8.76226 10.6684 8.2321 10.7872C8.06669 10.8243 7.9189 10.8578 7.79377 10.8865L7.75072 10.8193C7.57908 10.5507 7.35615 10.1896 7.14649 9.81363C6.93401 9.43258 6.74771 9.05842 6.63834 8.75863C6.60243 8.66021 6.57911 8.58123 6.56515 8.52081L6.57322 8.52013C6.67626 8.51211 6.83524 8.53733 7.08569 8.60866C7.1493 8.62678 7.22687 8.65063 7.31135 8.67659L7.3115 8.67664L7.31159 8.67667L7.31162 8.67667C7.49202 8.73213 7.70388 8.79725 7.87859 8.83701C8.13746 8.89592 8.53615 8.96031 8.91186 8.79495C9.27591 8.63473 9.49989 8.34511 9.57415 7.98557C9.63441 7.69389 9.58739 7.38799 9.54465 7.15852C9.52133 7.03329 9.49521 6.90983 9.46895 6.78574C9.43193 6.6108 9.39464 6.43458 9.36455 6.25031C11.0113 6.38328 12.1319 5.91382 12.761 5.01649C13.1375 4.47944 13.2862 3.85668 13.3013 3.26378C15.7882 4.48485 17.5 7.04252 17.5 10C17.5 11.6628 16.9589 13.1992 16.0431 14.4428ZM15.1445 15.4575C14.8624 14.9607 14.5787 14.6775 14.33 14.5145C14.0498 14.3309 13.7713 14.2717 13.5 14.2717H12.7309L12.8591 13.5134L12.8591 13.5134L12.8591 13.5133L12.8591 13.5133L12.8593 13.5123L12.8601 13.5075L12.8634 13.487C12.8664 13.4687 12.8708 13.4412 12.8764 13.4057C12.8874 13.3348 12.9028 13.2324 12.92 13.1083C12.9544 12.8591 12.9953 12.5268 13.0223 12.1882C13.0498 11.8441 13.061 11.5172 13.0432 11.2701C13.0422 11.2557 13.041 11.242 13.0399 11.229C12.888 11.2381 12.6927 11.2587 12.46 11.2902C11.8968 11.3666 11.1768 11.4981 10.4589 11.6419C9.7435 11.7851 9.04086 11.9382 8.51634 12.0558C8.33268 12.0969 8.17108 12.1337 8.0387 12.164L7.90087 12.498C7.30837 13.9336 7.64088 14.5264 7.88509 14.7583C8.03637 14.9019 8.23246 14.9896 8.42193 15.0262C8.57942 15.0567 8.6752 15.0427 8.70435 15.0384C8.71502 15.0369 8.71676 15.0366 8.70933 15.0403L9.60891 14.5905L9.64947 15.5955L9.72614 17.4951C9.81702 17.4984 9.90832 17.5 10 17.5C11.9914 17.5 13.8016 16.7238 15.1445 15.4575ZM12.5935 1.37931L12.5934 1.37928C11.7722 1.13257 10.9016 1 10 1C8.74113 1 7.54263 1.25846 6.45466 1.72521L6.4547 1.72521C6.27647 1.80167 6.1012 1.88373 5.92912 1.97115L5.92919 1.9711C5.11993 2.38223 4.38115 2.91211 3.73581 3.5378L3.73586 3.53777C3.49867 3.76773 3.2741 4.01063 3.06329 4.26534L3.06329 4.26533C2.28636 5.20405 1.69632 6.3031 1.3502 7.50546C1.30075 7.67722 1.25628 7.85109 1.21696 8.02691C1.07493 8.66189 1 9.3222 1 10C1 14.9706 5.02944 19 10 19C14.9706 19 19 14.9706 19 10C19 5.93105 16.2998 2.49276 12.5935 1.37931ZM2.54911 9.13704C2.51667 9.42021 2.5 9.70816 2.5 10C2.5 13.5996 5.03585 16.6069 8.41854 17.333L8.37817 16.3329C8.30902 16.3256 8.24095 16.3153 8.17494 16.3026C7.78629 16.2274 7.35114 16.044 6.98991 15.701C6.27956 15.0264 6.03548 13.9366 6.53003 12.4545L2.54911 9.13704ZM2.85842 7.70258C3.82865 4.68427 6.65924 2.50001 10 2.50001C10.6839 2.50001 11.3464 2.59154 11.9759 2.76302C12.0496 3.30104 11.9788 3.86762 11.6965 4.27024C11.3787 4.72353 10.6199 5.19753 8.7663 4.86051L8.00002 4.72119V5.50002C8.00002 6.13946 8.12398 6.71924 8.21083 7.12546L8.21083 7.12547C8.23261 7.22734 8.25206 7.31829 8.26663 7.39654C8.2815 7.47636 8.29142 7.54075 8.29711 7.59365C8.26366 7.58913 8.22087 7.58166 8.16707 7.56942C8.03386 7.5391 7.91364 7.50174 7.77035 7.4572L7.77033 7.4572L7.77031 7.45719L7.77024 7.45717C7.67462 7.42745 7.56871 7.39454 7.4418 7.35839C7.17556 7.28256 6.8239 7.19669 6.47236 7.22405C6.07906 7.25466 5.6832 7.42846 5.40919 7.83947C5.23065 8.10729 5.23759 8.40804 5.25914 8.591C5.28322 8.79549 5.34536 9.0076 5.41708 9.20419C5.53635 9.53113 5.71058 9.89075 5.89345 10.2318L2.85842 7.70258ZM13.2972 11.2293C13.2969 11.2295 13.2924 11.229 13.2844 11.2272C13.2935 11.2283 13.2975 11.2291 13.2972 11.2293ZM13.0009 11.0088C13.0007 11.0091 13.002 11.0128 13.005 11.0191C13.0035 11.0146 13.0023 11.0116 13.0016 11.0101C13.0012 11.0091 13.0009 11.0087 13.0009 11.0088ZM6.54829 8.405C6.54848 8.40516 6.54862 8.40848 6.54812 8.41447C6.54785 8.40783 6.5481 8.40484 6.54829 8.405Z" fill="white"/>
</svg>
