<svg width="20" height="20" viewBox="0 0 20 20" fill="none" xmlns="http://www.w3.org/2000/svg">
<path d="M14.4688 9.39062H13.3081H5.53125H4.71875C4.49438 9.39062 4.3125 9.57251 4.3125 9.79688V17.1094C4.3125 17.3337 4.49438 17.5156 4.71875 17.5156H15.2812C15.5056 17.5156 15.6875 17.3337 15.6875 17.1094V9.79688C15.6875 9.57251 15.5056 9.39062 15.2812 9.39062H14.4688ZM5.53125 8.17188V5.73438C5.53125 3.26635 7.53198 1.26562 10 1.26562C12.468 1.26562 14.4688 3.26635 14.4688 5.73438V8.17188H15.2812C16.1787 8.17188 16.9062 8.89941 16.9062 9.79688V17.1094C16.9062 18.0068 16.1787 18.7344 15.2812 18.7344H4.71875C3.82129 18.7344 3.09375 18.0068 3.09375 17.1094V9.79688C3.09375 8.89941 3.82129 8.17188 4.71875 8.17188H5.53125ZM6.75 8.17188H13.25V5.73438C13.25 3.93945 11.7949 2.48438 10 2.48438C8.20507 2.48438 6.75 3.93945 6.75 5.73438V8.17188ZM10 15.0781C9.10254 15.0781 8.375 14.3506 8.375 13.4531C8.375 12.5557 9.10254 11.8281 10 11.8281C10.8975 11.8281 11.625 12.5557 11.625 13.4531C11.625 14.3506 10.8975 15.0781 10 15.0781Z" fill="white"/>
</svg>
