<svg width="20" height="20" viewBox="0 0 20 20" fill="none" xmlns="http://www.w3.org/2000/svg">
<path fill-rule="evenodd" clip-rule="evenodd" d="M6.55 8.73436H13.45V6.04999C13.45 4.14461 11.9054 2.59999 10 2.59999C8.09462 2.59999 6.55 4.14461 6.55 6.04999V8.73436ZM5.25 8.73857C4.20643 8.80597 3.38086 9.67376 3.38086 10.7344V16.9692C3.38086 18.0737 4.27629 18.9692 5.38086 18.9692H14.6192C15.7238 18.9692 16.6192 18.0737 16.6192 16.9692V10.7344C16.6192 9.67374 15.7936 8.80595 14.75 8.73857V6.04999C14.75 3.42664 12.6234 1.29999 10 1.29999C7.37665 1.29999 5.25 3.42664 5.25 6.04999V8.73857ZM9.99996 15.3517C9.17156 15.3517 8.5 14.6802 8.5 13.8518C8.5 13.0234 9.17156 12.3518 9.99996 12.3518C10.8284 12.3518 11.4999 13.0234 11.4999 13.8518C11.4999 14.6802 10.8284 15.3517 9.99996 15.3517Z" fill="white"/>
<rect width="20" height="20"/>
</svg>
