<svg width="20" height="20" viewBox="0 0 20 20" fill="none" xmlns="http://www.w3.org/2000/svg">
<path fill-rule="evenodd" clip-rule="evenodd" d="M4.77101 6.75761L9.11985 1.5582C9.44464 1.20259 9.90407 1 10.3857 1C11.3325 1 12.1 1.76741 12.1 2.71406V17.2859C12.1 17.7722 11.8934 18.2356 11.5317 18.5607C10.8276 19.1935 9.74371 19.1358 9.11079 18.4318L5.01575 13.4318H2.21429C1.26751 13.4318 0.5 12.6643 0.5 11.7177V8.47167C0.5 7.52502 1.26751 6.75761 2.21429 6.75761H4.77101ZM13.5437 8.46329C13.2878 8.21149 13.2845 7.79994 13.5363 7.54408C13.7881 7.28822 14.1997 7.28492 14.4555 7.53672C15.283 8.35101 15.7052 9.35114 15.7052 10.5003C15.7052 11.6494 15.283 12.6496 14.4555 13.4638C14.1997 13.7156 13.7881 13.7124 13.5363 13.4565C13.2845 13.2006 13.2878 12.7891 13.5437 12.5373C14.1237 11.9664 14.4052 11.2997 14.4052 10.5003C14.4052 9.70084 14.1237 9.03412 13.5437 8.46329ZM16.0418 5.53854C15.787 5.79136 15.7853 6.20292 16.0381 6.45778C17.0825 7.5106 17.6023 8.84521 17.6023 10.5003C17.6023 12.1554 17.0825 13.49 16.0381 14.5428C15.7853 14.7977 15.787 15.2092 16.0418 15.462C16.2967 15.7148 16.7083 15.7132 16.9611 15.4583C18.2536 14.1553 18.9023 12.4898 18.9023 10.5003C18.9023 8.51081 18.2536 6.84524 16.9611 5.54224C16.7083 5.28738 16.2967 5.28573 16.0418 5.53854Z" fill="white"/>
<rect width="20" height="20"/>
</svg>
