<svg width="20" height="20" viewBox="0 0 20 20" fill="none" xmlns="http://www.w3.org/2000/svg">
<g clip-path="url(#clip0)">
<path d="M9.01909 2.8913L9.01188 2.89921L9.00494 2.90736L4.84451 7.78832H2.60845C1.99932 7.78832 1.50552 8.28212 1.50552 8.89125V11.4155C1.50552 12.0246 1.99932 12.5184 2.60845 12.5184H5.0656L9.00474 17.0916L9.00464 17.0917L9.01327 17.1013C9.6955 17.8623 10.9374 17.347 10.9374 16.3651V3.63402C10.9374 2.61638 9.67757 2.1684 9.01909 2.8913Z" stroke="white" stroke-width="1.3"/>
<path d="M13.7236 12.8393C15.2917 11.2712 15.2917 8.72877 13.7236 7.16064" stroke="white" stroke-width="1.3" stroke-linecap="round"/>
<path d="M16.17 15.4809C19.1971 12.4539 19.1971 7.54613 16.17 4.5191" stroke="white" stroke-width="1.3" stroke-linecap="round"/>
</g>
<defs>
<clipPath id="clip0">
<rect width="20" height="20" fill="white"/>
</clipPath>
</defs>
</svg>
