<svg width="20" height="20" viewBox="0 0 20 20" fill="none" xmlns="http://www.w3.org/2000/svg">
<path fill-rule="evenodd" clip-rule="evenodd" d="M5.54992 3.6125C3.94658 3.6125 2.64998 4.90807 2.64998 6.50233V17.3758C2.64998 17.4055 2.65982 17.4346 2.67828 17.4585C2.72485 17.5188 2.81294 17.5307 2.87431 17.4835L4.78903 16.0128C5.5236 15.4486 6.42452 15.1428 7.35128 15.1428H14.45C16.0534 15.1428 17.35 13.8473 17.35 12.253V6.50233C17.35 4.90807 16.0534 3.6125 14.45 3.6125H5.54992ZM1.34998 6.50233C1.34998 4.1866 3.23211 2.3125 5.54992 2.3125H14.45C16.7678 2.3125 18.65 4.1866 18.65 6.50233V12.253C18.65 14.5687 16.7678 16.4428 14.45 16.4428H7.35128C6.71058 16.4428 6.08811 16.6543 5.58091 17.0438L3.6662 18.5145C3.03725 18.9976 2.13467 18.8813 1.6495 18.2532C1.4554 18.002 1.34998 17.6935 1.34998 17.3758V6.50233ZM9.39998 9.85342L9.20345 6.91927C9.16659 6.34755 9.14817 5.93714 9.14817 5.68803C9.14817 5.34908 9.23722 5.08466 9.41534 4.89477C9.59345 4.70488 9.82786 4.60993 10.1186 4.60993C10.4707 4.60993 10.7061 4.73142 10.8249 4.9744C10.9436 5.21738 11.003 5.56756 11.003 6.02494C11.003 6.29446 10.9887 6.56807 10.96 6.84576L10.6959 9.86567C10.6672 10.225 10.6058 10.5007 10.5116 10.6926C10.4175 10.8846 10.2619 10.9805 10.0449 10.9805C9.82377 10.9805 9.67022 10.8876 9.58424 10.7018C9.49825 10.516 9.43683 10.2332 9.39998 9.85342ZM9.46734 13.4546C9.64223 13.608 9.8469 13.6847 10.0814 13.6847C10.312 13.6847 10.5138 13.607 10.6867 13.4517C10.8597 13.2964 10.9462 13.0829 10.9462 12.8111C10.9462 12.5704 10.8607 12.3657 10.6896 12.1968C10.5186 12.0279 10.312 11.9435 10.0698 11.9435C9.82768 11.9435 9.62301 12.0279 9.45581 12.1968C9.28861 12.3657 9.20501 12.5704 9.20501 12.8111C9.20501 13.0868 9.29245 13.3013 9.46734 13.4546Z" fill="white"/>
</svg>
