<svg width="20" height="20" viewBox="0 0 20 20" fill="none" xmlns="http://www.w3.org/2000/svg">
<path fill-rule="evenodd" clip-rule="evenodd" d="M3.33861 3.34149C2.93411 3.55581 2.61986 3.86714 2.40353 4.26787C2.14815 4.74095 2.05884 5.19915 2.05884 6.34869V17.6975C2.05884 17.7679 2.08359 17.8361 2.12885 17.8903C2.2363 18.0191 2.42877 18.0371 2.55875 17.9307L5.1984 15.7688C5.36789 15.63 5.45193 15.5698 5.56136 15.5112C5.6759 15.4499 5.79325 15.4081 5.92097 15.383C6.04298 15.3591 6.14648 15.3524 6.36639 15.3524H14.5611C15.7215 15.3524 16.184 15.264 16.6615 15.011C17.066 14.7966 17.3802 14.4853 17.5966 14.0846C17.8519 13.6115 17.9412 13.1533 17.9412 12.0038V6.34869C17.9412 5.19915 17.8519 4.74095 17.5966 4.26787C17.3802 3.86714 17.066 3.55581 16.6615 3.34149C16.184 3.08848 15.7215 3 14.5611 3H5.43895C4.27863 3 3.81613 3.08848 3.33861 3.34149ZM9.32445 9.85344L9.12791 6.91929C9.09106 6.34756 9.07264 5.93716 9.07264 5.68805C9.07264 5.3491 9.16169 5.08468 9.3398 4.89479C9.51792 4.70489 9.75233 4.60995 10.043 4.60995C10.3952 4.60995 10.6306 4.73144 10.7493 4.97442C10.8681 5.2174 10.9275 5.56758 10.9275 6.02495C10.9275 6.29448 10.9131 6.56809 10.8845 6.84578L10.6204 9.86569C10.5917 10.2251 10.5303 10.5007 10.4361 10.6926C10.3419 10.8846 10.1863 10.9805 9.96934 10.9805C9.74823 10.9805 9.59469 10.8876 9.5087 10.7018C9.42272 10.516 9.3613 10.2332 9.32445 9.85344ZM9.3918 13.4546C9.56669 13.608 9.77136 13.6847 10.0058 13.6847C10.2364 13.6847 10.4382 13.607 10.6112 13.4517C10.7842 13.2964 10.8707 13.0829 10.8707 12.8112C10.8707 12.5705 10.7851 12.3657 10.6141 12.1968C10.443 12.0279 10.2364 11.9435 9.9943 11.9435C9.75214 11.9435 9.54747 12.0279 9.38027 12.1968C9.21307 12.3657 9.12947 12.5705 9.12947 12.8112C9.12947 13.0868 9.21691 13.3013 9.3918 13.4546Z" fill="white"/>
<rect width="20" height="20"/>
</svg>
