<svg width="20" height="20" viewBox="0 0 20 20" fill="none" xmlns="http://www.w3.org/2000/svg">
<path fill-rule="evenodd" clip-rule="evenodd" d="M0.349976 5.99998C0.349976 4.53642 1.53642 3.34998 2.99998 3.34998H17C18.4635 3.34998 19.65 4.53642 19.65 5.99998V15C19.65 16.4635 18.4635 17.65 17 17.65H2.99998C1.53642 17.65 0.349976 16.4635 0.349976 15V5.99998ZM2.99998 4.64998C2.25439 4.64998 1.64998 5.25439 1.64998 5.99998V15C1.64998 15.7456 2.25439 16.35 2.99998 16.35H17C17.7456 16.35 18.35 15.7456 18.35 15V5.99998C18.35 5.25439 17.7456 4.64998 17 4.64998H2.99998Z" fill="white"/>
<rect x="5" y="13.6238" width="10" height="1.29688" rx="0.648438" fill="white"/>
<path fill-rule="evenodd" clip-rule="evenodd" d="M3.5119 7.12744C3.5119 6.71323 3.84769 6.37744 4.2619 6.37744H4.7619C5.17612 6.37744 5.5119 6.71323 5.5119 7.12744V7.62744C5.5119 8.04165 5.17612 8.37744 4.7619 8.37744H4.2619C3.84769 8.37744 3.5119 8.04165 3.5119 7.62744V7.12744ZM4.2619 9.87744C3.84769 9.87744 3.5119 10.2132 3.5119 10.6274V11.1274C3.5119 11.5417 3.84769 11.8774 4.2619 11.8774H4.7619C5.17612 11.8774 5.5119 11.5417 5.5119 11.1274V10.6274C5.5119 10.2132 5.17612 9.87744 4.7619 9.87744H4.2619ZM7.92596 9.87744C7.51175 9.87744 7.17596 10.2132 7.17596 10.6274V11.1274C7.17596 11.5417 7.51175 11.8774 7.92596 11.8774H8.42596C8.84018 11.8774 9.17596 11.5417 9.17596 11.1274V10.6274C9.17596 10.2132 8.84018 9.87744 8.42596 9.87744H7.92596ZM10.84 10.6274C10.84 10.2132 11.1758 9.87744 11.59 9.87744H12.09C12.5042 9.87744 12.84 10.2132 12.84 10.6274V11.1274C12.84 11.5417 12.5042 11.8774 12.09 11.8774H11.59C11.1758 11.8774 10.84 11.5417 10.84 11.1274V10.6274ZM15.254 9.87744C14.8398 9.87744 14.504 10.2132 14.504 10.6274V11.1274C14.504 11.5417 14.8398 11.8774 15.254 11.8774H15.754C16.1682 11.8774 16.504 11.5417 16.504 11.1274V10.6274C16.504 10.2132 16.1682 9.87744 15.754 9.87744H15.254ZM7.92596 6.37744C7.51175 6.37744 7.17596 6.71323 7.17596 7.12744V7.62744C7.17596 8.04165 7.51175 8.37744 7.92596 8.37744H8.42596C8.84018 8.37744 9.17596 8.04165 9.17596 7.62744V7.12744C9.17596 6.71323 8.84018 6.37744 8.42596 6.37744H7.92596ZM10.84 7.12744C10.84 6.71323 11.1758 6.37744 11.59 6.37744H12.09C12.5042 6.37744 12.84 6.71323 12.84 7.12744V7.62744C12.84 8.04165 12.5042 8.37744 12.09 8.37744H11.59C11.1758 8.37744 10.84 8.04165 10.84 7.62744V7.12744ZM15.254 6.37744C14.8398 6.37744 14.504 6.71323 14.504 7.12744V7.62744C14.504 8.04165 14.8398 8.37744 15.254 8.37744H15.754C16.1682 8.37744 16.504 8.04165 16.504 7.62744V7.12744C16.504 6.71323 16.1682 6.37744 15.754 6.37744H15.254Z" fill="white"/>
</svg>
