<svg width="20" height="20" viewBox="0 0 20 20" fill="none" xmlns="http://www.w3.org/2000/svg">
<path fill-rule="evenodd" clip-rule="evenodd" d="M10 19C5.02944 19 1 14.9706 1 10C1 5.02944 5.02944 1 10 1C14.9706 1 19 5.02944 19 10C19 14.9706 14.9706 19 10 19ZM8.06612 7.6875C8.06612 8.51593 7.39455 9.1875 6.56612 9.1875C5.73769 9.1875 5.06612 8.51593 5.06612 7.6875C5.06612 6.85907 5.73769 6.1875 6.56612 6.1875C7.39455 6.1875 8.06612 6.85907 8.06612 7.6875ZM14.9339 7.68751C14.9339 8.51593 14.2623 9.18751 13.4339 9.18751C12.6055 9.18751 11.9339 8.51593 11.9339 7.68751C11.9339 6.85908 12.6055 6.18751 13.4339 6.18751C14.2623 6.18751 14.9339 6.85908 14.9339 7.68751ZM9.99707 14.9125C12.1585 14.9125 13.9477 13.8379 14.2453 12.0972C14.2484 12.0862 14.25 12.0747 14.25 12.0625C14.25 11.9853 14.1765 11.9125 14.0743 11.9125H5.92575C5.82349 11.9125 5.75 11.9853 5.75 12.0625C5.75049 12.0744 5.75066 12.0771 5.75081 12.0798C5.9883 13.7907 7.79508 14.9125 9.99707 14.9125Z" fill="white"/>
<rect width="20" height="20"/>
</svg>
