<svg width="20" height="20" viewBox="0 0 20 20" fill="none" xmlns="http://www.w3.org/2000/svg">
<path d="M7.4501 7.84409C7.4501 8.16272 7.1918 8.42102 6.87318 8.42102C6.55455 8.42102 6.29625 8.16272 6.29625 7.84409C6.29625 7.52547 6.55455 7.26717 6.87318 7.26717C7.1918 7.26717 7.4501 7.52547 7.4501 7.84409Z" stroke="white" stroke-width="1.15385"/>
<path d="M13.7038 7.84409C13.7038 8.16272 13.4455 8.42102 13.1268 8.42102C12.8082 8.42102 12.5499 8.16272 12.5499 7.84409C12.5499 7.52547 12.8082 7.26717 13.1268 7.26717C13.4455 7.26717 13.7038 7.52547 13.7038 7.84409Z" stroke="white" stroke-width="1.15385"/>
<path d="M1.53845 9.99999C1.53845 14.6706 5.32939 18.4615 9.99999 18.4615C14.6706 18.4615 18.4615 14.6706 18.4615 9.99999C18.4615 5.32939 14.6706 1.53845 9.99999 1.53845C5.32939 1.53845 1.53845 5.32939 1.53845 9.99999Z" stroke="white" stroke-width="1.3" stroke-linecap="round"/>
<path d="M6.01853 11.3632C6.01853 11.3632 5.00449 11.3632 5.2271 12.3539C5.54834 13.7837 7.09474 15.6763 10 15.6906C12.9053 15.705 14.4619 13.7463 14.7733 12.3539C14.9948 11.3632 13.9815 11.3632 13.9815 11.3632C13.9815 11.3632 12.6946 11.3632 10 11.3632C7.30541 11.3632 6.01853 11.3632 6.01853 11.3632Z" stroke="white" stroke-width="1.3" stroke-linecap="round" stroke-linejoin="round"/>
</svg>
