<svg width="20" height="20" viewBox="0 0 20 20" fill="none" xmlns="http://www.w3.org/2000/svg">
<path fill-rule="evenodd" clip-rule="evenodd" d="M13 9C11.6021 9 10.4275 8.04392 10.0945 6.75H2.75C2.33579 6.75 2 6.41421 2 6C2 5.58579 2.33579 5.25 2.75 5.25H10.0945C10.4275 3.95608 11.6021 3 13 3C14.3979 3 15.5725 3.95608 15.9055 5.25H17.25C17.6642 5.25 18 5.58579 18 6C18 6.41421 17.6642 6.75 17.25 6.75H15.9055C15.5725 8.04392 14.3979 9 13 9ZM7 17C8.39788 17 9.57245 16.0439 9.90549 14.75H17.25C17.6642 14.75 18 14.4142 18 14C18 13.5858 17.6642 13.25 17.25 13.25H9.90549C9.57245 11.9561 8.39788 11 7 11C5.60212 11 4.42755 11.9561 4.09451 13.25H2.75C2.33579 13.25 2 13.5858 2 14C2 14.4142 2.33579 14.75 2.75 14.75H4.09451C4.42755 16.0439 5.60212 17 7 17Z" fill="white"/>
<rect width="20" height="20"/>
</svg>
