<svg width="20" height="20" viewBox="0 0 20 20" fill="none" xmlns="http://www.w3.org/2000/svg">
<path d="M1.29999 6C1.29999 4.89543 2.19542 4 3.29999 4H11.3C12.4046 4 13.3 4.89543 13.3 6V8.5C13.3 8.5412 13.347 8.56472 13.38 8.54L17.22 5.66C17.7474 5.26446 18.5 5.64076 18.5 6.3V13.7015C18.5 14.3605 17.748 14.7369 17.2205 14.3419L13.38 11.4661C13.347 11.4414 13.3 11.465 13.3 11.5062V14C13.3 15.1046 12.4046 16 11.3 16H3.29999C2.19542 16 1.29999 15.1046 1.29999 14V6Z" stroke="white" stroke-width="1.3"/>
</svg>
