<svg width="32" height="32" viewBox="0 0 32 32" fill="none" xmlns="http://www.w3.org/2000/svg">
<path fill-rule="evenodd" clip-rule="evenodd" d="M7.98356 9.96551C6.86201 11.4539 6.14607 13.2652 6 15.2351H10.4458C10.2664 13.1833 9.35909 11.3402 7.98356 9.96551ZM10.4458 16.7372H6C6.14606 18.7071 6.86201 20.5184 7.98358 22.0068C9.35912 20.6321 10.2665 18.789 10.4458 16.7372ZM8.97644 23.1375C10.6632 21.4839 11.7674 19.2384 11.9528 16.7372H15.2351V25.9723C12.8045 25.792 10.6155 24.7443 8.97644 23.1375ZM11.9528 15.2351C11.7674 12.7338 10.6631 10.4883 8.97641 8.83481C10.6155 7.22802 12.8045 6.18023 15.2351 6.00001V15.2351H11.9528ZM25.9723 16.7372C25.8262 18.7071 25.1103 20.5184 23.9887 22.0068C22.6131 20.6321 21.7058 18.789 21.5264 16.7372H25.9723ZM25.9723 15.2351H21.5264C21.7058 13.1833 22.6132 11.3402 23.9887 9.96551C25.1103 11.4539 25.8262 13.2652 25.9723 15.2351ZM20.0194 15.2351C20.2049 12.7338 21.3091 10.4883 22.9959 8.83481C21.3568 7.228 19.1677 6.18021 16.7371 6V15.2351H20.0194ZM22.9958 23.1375C21.3091 21.4839 20.2049 19.2384 20.0194 16.7372H16.7371V25.9723C19.1677 25.7921 21.3568 24.7443 22.9958 23.1375ZM26 16.0148L26 15.9861L26 15.9575V16.0148ZM15.9861 26L15.9736 26H15.9986L15.9861 26Z" fill="white"/>
</svg>
