<svg width="32" height="32" viewBox="0 0 32 32" fill="none" xmlns="http://www.w3.org/2000/svg">
<path fill-rule="evenodd" clip-rule="evenodd" d="M7.5 5C6.67157 5 6 5.67157 6 6.5V26.5C6 27.3284 6.67157 28 7.5 28C8.32843 28 9 27.3284 9 26.5V6.5C9 5.67157 8.32843 5 7.5 5ZM11.5847 6.63412C10.8513 6.4171 10 6.94502 10 7.70985V16.3534C10 16.7469 10.2303 17.1035 10.5983 17.2428C11.3804 17.5388 12.7927 18 14 18C15.6387 18 17.655 17.1504 17.9605 17.0174C17.9878 17.0055 18.0121 16.9932 18.0385 16.9791C18.3086 16.8356 19.9686 16 22 16C22.9102 16 23.7459 16.1678 24.4153 16.3659C25.1487 16.5829 26 16.055 26 15.2902V6.58485C26 6.22357 25.8053 5.89096 25.4736 5.74795C24.7863 5.45172 23.4936 5 22 5C19.7778 5 18 6 18 6C18 6 16.2222 7 14 7C13.0898 7 12.2541 6.83223 11.5847 6.63412Z" fill="white"/>
</svg>
