<svg width="32" height="32" viewBox="0 0 32 32" fill="none" xmlns="http://www.w3.org/2000/svg">
<g clip-path="url(#clip0)">
<path d="M21.6541 10.2223H21.6541C20.3232 10.0075 18.9933 10.3452 17.91 11.1729C16.7855 12.0322 15.2146 12.0322 14.09 11.1729C13.2197 10.5079 12.1903 10.1592 11.1289 10.1592C10.8692 10.1592 10.6076 10.18 10.346 10.2223C7.61953 10.6621 5.75082 13.3097 6.18033 16.1242C6.96164 21.2439 8.44241 24.7282 10.4627 26.2004C11.4074 26.8887 12.4514 27.1288 13.6546 26.9348C14.392 26.8158 14.9745 26.5154 15.4354 26.0164C15.5809 25.859 15.7856 25.7693 16 25.7693C16.2144 25.7693 16.4191 25.8589 16.5646 26.0164C17.0255 26.5154 17.608 26.8158 18.3454 26.9348C19.5486 27.129 20.5927 26.8887 21.5373 26.2004C23.5576 24.7282 25.0384 21.2439 25.8197 16.1242C26.2492 13.3097 24.3805 10.6621 21.6541 10.2223Z" fill="white"/>
<path d="M16.1307 4.93377C17.5531 6.59238 17.9051 8.62392 16.917 9.47134C15.9289 10.3188 13.9747 9.66115 12.5523 8.00254C11.1299 6.34393 11.3655 3.92482 11.766 3.46498C12.1665 3.00515 14.7083 3.27517 16.1307 4.93377Z" fill="white"/>
</g>
<defs>
<clipPath id="clip0">
<rect width="24" height="24" fill="white" transform="translate(4 3)"/>
</clipPath>
</defs>
</svg>
