<svg width="18" height="12" viewBox="0 0 18 12" fill="none" xmlns="http://www.w3.org/2000/svg">
<rect width="18" height="12" rx="6" fill="black" fill-opacity="0.3"/>
<path d="M5.08412 9.05122C5.88512 9.05122 6.56912 8.74522 6.96512 8.34922V5.99122H4.91312V6.84622H6.02912V7.88122C5.84012 8.05222 5.51612 8.14222 5.18312 8.14222C4.00412 8.14222 3.09375 7.30522 3.09375 5.96422C3.09375 4.64122 4.08512 3.85822 5.12912 3.85822C5.67812 3.85822 6.02012 4.08322 6.31712 4.37122L6.87512 3.69622C6.50612 3.31822 5.93012 2.94922 5.09312 2.94922C3.52712 2.94922 2.02275 4.06522 2.02275 5.99122C2.02275 7.94422 3.49112 9.05122 5.08412 9.05122Z" fill="white"/>
<path d="M8.94947 9.00572H9.99347V3.11972H8.94947V9.00572Z" fill="white"/>
<path d="M11.982 9.00572H13.026V6.87322H15.168V5.99122H13.026V4.00172H15.787V3.11972H11.982V9.00572Z" fill="white"/>
</svg>
