<svg width="36" height="20" viewBox="0 0 36 20" fill="none" xmlns="http://www.w3.org/2000/svg">
<rect width="36" height="20" rx="10" fill="black" fill-opacity="0.3"/>
<path d="M13.4859 14.0462C14.5539 14.0462 15.4659 13.6382 15.9939 13.1102V9.87766H13.2579V11.0177H14.7459V12.4862C14.4939 12.7142 14.0619 12.8342 13.6179 12.8342C12.0459 12.8342 10.9844 11.7542 10.9844 9.96616C10.9844 8.20216 12.1539 7.12216 13.5459 7.12216C14.2779 7.12216 14.7339 7.42216 15.1299 7.80616L15.8739 6.90616C15.3819 6.40216 14.6139 5.91016 13.4979 5.91016C11.4099 5.91016 9.65015 7.43416 9.65015 10.0022C9.65015 12.6062 11.3619 14.0462 13.4859 14.0462Z" fill="white"/>
<path d="M18.01 13.9803H19.402V5.98828H18.01V13.9803Z" fill="white"/>
<path d="M22.0173 13.9647H23.4093V10.8927H26.2653V9.71666H23.4093V7.14866H26.7573V5.97266H22.0173V13.9647Z" fill="white"/>
</svg>
