<svg width="32" height="32" viewBox="0 0 32 32" fill="none" xmlns="http://www.w3.org/2000/svg">
<path fill-rule="evenodd" clip-rule="evenodd" d="M19.2919 5C18.4813 5 17.7058 5.47281 17.1642 6.29725C16.6667 7.05458 16.3928 8.04921 16.3927 9.09784C16.3927 10.1465 16.6667 11.1411 17.1642 11.8984C17.7058 12.7229 18.4813 13.1957 19.2919 13.1957C20.1026 13.1957 20.878 12.7229 21.4196 11.8984C21.9171 11.1411 22.1911 10.1465 22.1911 9.09784C22.1911 8.04921 21.9171 7.05462 21.4196 6.29725C20.8781 5.47285 20.1026 5 19.2919 5ZM10.1318 6.741C10.6455 5.96642 11.3811 5.52221 12.15 5.52221C12.9189 5.52221 13.6545 5.96646 14.1682 6.741C14.6401 7.45257 14.9 8.38701 14.9 9.37222C14.9 10.3574 14.6401 11.2919 14.1682 12.0034C13.6545 12.778 12.9189 13.2222 12.15 13.2222C11.3811 13.2222 10.6455 12.778 10.1318 12.0034C9.65989 11.2919 9.39998 10.3574 9.39998 9.37222C9.39998 8.38701 9.65985 7.45253 10.1318 6.741ZM10.7317 18.21C12.2119 16.3648 14.0828 15.3485 16 15.3485C17.9172 15.3485 19.7882 16.3648 21.2683 18.21C22.5987 19.8686 23.393 21.959 23.393 23.8016C23.393 24.6968 23.128 25.3786 22.6053 25.8282C22.0894 26.2721 21.4083 26.4222 20.6484 26.4221C19.8399 26.4221 18.9421 26.2521 18.06 26.0851C17.7301 26.0226 17.5068 25.8123 17.273 25.5923C16.9604 25.2981 16.6292 24.9864 16 24.9864C15.3661 24.9864 15.0751 25.3005 14.804 25.5932C14.6047 25.8083 14.4161 26.0119 14.1098 26.0706C12.4204 26.3945 10.5056 26.7614 9.39941 25.8118C8.87356 25.3604 8.60694 24.6841 8.60694 23.8016C8.6069 21.959 9.40117 19.8686 10.7317 18.21ZM5.11438 12.917C5.30938 12.2117 5.72735 11.6992 6.29123 11.474C6.74501 11.2928 7.25723 11.3235 7.73358 11.5606C8.39003 11.8872 8.92658 12.5616 9.20559 13.4109C9.43359 14.1049 9.46203 14.8385 9.28561 15.4766C9.09061 16.1818 8.67264 16.6943 8.10872 16.9195C7.91357 16.9975 7.70767 17.0362 7.49844 17.0362C7.22108 17.0362 6.93785 16.9681 6.66633 16.833C6.00988 16.5064 5.47333 15.8319 5.19432 14.9827V14.9827C4.96636 14.2887 4.93792 13.5551 5.11438 12.917ZM23.9393 11.255C23.2044 11.6101 22.6036 12.3433 22.2912 13.2667C22.036 14.0213 22.0041 14.8189 22.2016 15.5126C22.4199 16.2794 22.8878 16.8366 23.5193 17.0814C23.7377 17.1661 23.9683 17.2083 24.2026 17.2083C24.5131 17.2083 24.8302 17.1342 25.1342 16.9874C25.8692 16.6322 26.4699 15.899 26.7824 14.9756V14.9756C27.0376 14.2211 27.0695 13.4235 26.8719 12.7297C26.6536 11.9629 26.1856 11.4057 25.5543 11.1609C25.0462 10.9639 24.4727 10.9972 23.9393 11.255Z" fill="white"/>
</svg>
