<svg width="32" height="32" viewBox="0 0 32 32" fill="none" xmlns="http://www.w3.org/2000/svg">
<path fill-rule="evenodd" clip-rule="evenodd" d="M26 16C26 21.5228 21.5228 26 16 26C10.4772 26 6 21.5228 6 16C6 10.4772 10.4772 6 16 6C21.5228 6 26 10.4772 26 16ZM14.1461 13.4454C14.1461 14.4661 13.3187 15.2936 12.298 15.2936C11.2773 15.2936 10.4498 14.4661 10.4498 13.4454C10.4498 12.4247 11.2773 11.5973 12.298 11.5973C13.3187 11.5973 14.1461 12.4247 14.1461 13.4454ZM19.7089 15.2686C20.712 15.2686 21.5253 14.4554 21.5253 13.4522C21.5253 12.449 20.712 11.6358 19.7089 11.6358C18.7057 11.6358 17.8924 12.449 17.8924 13.4522C17.8924 14.4554 18.7057 15.2686 19.7089 15.2686ZM10.3592 18.7819C10.0962 17.611 11.2946 17.611 11.2946 17.611H16H20.7053C20.7053 17.611 21.9029 17.611 21.6411 18.7819C21.2731 20.4275 19.4335 22.7422 16 22.7253C12.5665 22.7083 10.7389 20.4716 10.3592 18.7819Z" fill="white"/>
</svg>
