<svg xmlns="http://www.w3.org/2000/svg" xmlns:xlink="http://www.w3.org/1999/xlink" width="180" height="180" viewBox="0 0 180 180">
  <defs>
    <path id="sad_cat_sticker-a" d="M57.3876953,35.3203125 C58.8817896,35.3203125 64.7534775,32.8828125 72.3422852,32.8828125 C79.9310928,32.8828125 82.0133192,34.0604661 86.8813477,35.3203125 C87.2648134,35.4195535 88.7718533,35.306308 90.0740994,31.6122162 C91.3763455,27.9181244 94.2685349,10.4499834 103.998535,11.4458008 C109.301555,11.9885387 112.731479,36.9677185 113.604617,89.5732087 C113.838814,103.683322 113.604617,138.378751 113.604617,139.017578 C113.604617,139.656406 118.641741,133.052246 122.712053,128.68457 C126.782366,124.316895 147.325334,105.939941 153.961077,112.676758 C160.596819,119.413574 149.76967,132.842285 138.658342,140.542969 C129.303813,147.026106 119.992775,154.583008 112.423967,154.583008 C111.614885,154.583008 111.614885,155.513672 110.981584,157.261719 C110.348284,159.009766 109.131243,159.892334 108.729631,160.346191 C102.899272,166.935029 90.4334879,169.795448 71.350725,170.041504 C52.2679621,170.28756 36.3676758,165.582802 32,161.172363 C29.0882161,158.232071 27.554891,152.484675 27.4000244,143.930176 C26.8926194,112.894873 26.9985773,91.9491244 27.7178982,81.0929291 C31.5274685,23.5978119 37.6508789,11.4458008 41.2041016,11.4458008 C47.934014,11.4458008 53.32397,29.2344289 54.5145291,31.26456 C55.7050882,33.294691 55.893601,35.3203125 57.3876953,35.3203125 Z"/>
  </defs>
  <g fill="none" fill-rule="evenodd">
    <g stroke-linecap="round" stroke-linejoin="round">
      <use fill="#C7AA93" xlink:href="#sad_cat_sticker-a"/>
      <path stroke="#FFF" stroke-width="5" d="M57.9583264,32.6953576 C58.1472808,32.6500667 58.381477,32.5918793 58.6585756,32.5198539 C58.8291292,32.4755224 59.8267358,32.2123528 60.1471206,32.129216 C60.8148575,31.9559447 61.4055443,31.8087768 62.0096768,31.6673619 C65.5277277,30.8438591 68.8385463,30.3828125 72.3422852,30.3828125 C77.0094099,30.3828125 79.8520919,30.7706846 83.2666514,31.709382 C83.3666358,31.7368687 85.4639404,32.3413991 86.7845093,32.7051829 C87.0522659,32.358239 87.3792436,31.7372139 87.716313,30.7810463 C87.6137143,31.0720889 89.5854118,23.8744826 90.6846864,20.9647068 C93.6993457,12.9849149 97.9087072,8.30947797 104.253068,8.95879195 C108.815315,9.42571538 111.136418,16.3831733 112.943037,30.6723882 C114.609555,43.853496 115.672246,63.5026475 116.104273,89.5317198 C116.18453,94.3671155 116.215685,101.876899 116.207438,111.365741 C116.202574,116.962258 116.184319,122.936659 116.156635,129.061624 C116.151955,130.097143 116.146265,131.262568 116.140388,132.421578 C116.819152,131.613877 117.467937,130.844549 117.849691,130.398778 C118.181682,130.011115 118.501494,129.640918 118.812053,129.28508 C119.555747,128.432955 120.242651,127.667422 120.883124,126.980159 C123.9967,123.639115 130.403911,118.143484 135.991768,114.433699 C144.708186,108.646859 151.554104,106.670561 155.742154,110.922402 C163.31723,118.61286 154.434312,132.65117 140.082395,142.597737 C139.0823,143.290851 138.097929,143.984499 136.619671,145.034279 C129.872899,149.825474 127.710877,151.295307 124.455254,153.137791 C120.416099,155.423705 116.92605,156.749611 113.692192,157.027809 C113.571746,157.406716 113.430535,157.841531 113.332082,158.113282 C112.995453,159.04245 112.524477,159.853989 111.941948,160.586041 C111.471781,161.176891 110.444123,162.18118 110.601873,162.002909 C104.31992,169.102088 91.707045,172.279234 71.3829577,172.541296 C53.2278587,172.775391 35.7101126,168.471685 30.2236423,162.931498 C26.7488157,159.422649 25.0658829,153.114477 24.9003585,143.971044 C24.3918492,112.868203 24.4980505,91.8743414 25.223368,80.927644 C28.5616984,30.5446143 33.7395571,8.94580078 41.2041016,8.94580078 C45.7051771,8.94580078 49.1563118,13.1419403 52.609189,20.3717788 C54.0034154,23.2910925 56.6454358,29.9562021 56.6710505,29.99988 C56.9539288,30.4822417 57.1954509,30.9664803 57.4541734,31.5451353 C57.5343769,31.7245173 57.8748197,32.5130607 57.9583264,32.6953576 Z"/>
      <use stroke="#564042" stroke-width="3" xlink:href="#sad_cat_sticker-a"/>
    </g>
    <path fill="#D7C5AF" d="M54.8275316,37.8591309 C61.582304,36.8798014 67.6855755,36.3901367 73.1373461,36.3901367 C78.5891166,36.3901367 83.353114,37.011556 87.4293383,38.2543945 C88.5605232,38.9825846 89.6889411,38.3611654 90.8145922,36.3901367 C91.5206972,35.1537382 93.1538488,31.1704081 94.9085863,26.8808594 C97.3498719,20.9130076 100.188744,14.4111328 102.537004,14.4111328 C105.764055,14.4111328 107.371477,25.4172363 107.993547,42.5549316 C108.615618,59.692627 108.615618,63.5332031 106.928118,75.5507813 C105.240618,87.5683594 103.108293,82.8994141 101.787737,91.4992676 C101.052262,96.2888954 102.032946,105.120265 101.171037,111.809814 C100.485376,117.131458 98.5509203,121.831543 96.2296312,121.831543 C93.9083422,121.831543 91.7916913,121.058735 90.0282152,114.618408 C89.5155199,112.746012 88.2664965,107.848714 86.2811449,99.9265137 L85.5140551,99.5231934 C86.1908129,119.454671 82.5584887,129.42041 74.6170824,129.42041 C62.704973,129.42041 61.5997484,112.030029 61.5997484,103.432129 C61.5997484,94.8342285 62.8458392,91.8360082 64.0257738,86.7143555 C65.2057084,81.5927028 71.0236409,66.4291992 69.6192797,64.2172852 C68.2149185,62.0053711 65.7115648,63.8659668 65.7115648,64.2172852 C65.7115648,64.5686035 68.3016527,61.0964355 66.2039965,59.7880859 C64.805559,58.9158529 63.0281338,59.0546875 60.8717211,60.2045898 C61.2795987,59.2905273 60.6081306,58.4462891 58.8573168,57.671875 C56.2310961,56.5102539 50.7860277,63.0947266 48.2862719,68.1826172 C46.619768,71.5745443 44.975725,75.3924154 43.354143,79.6362305 C40.3334724,90.8453776 38.8231371,96.4499512 38.8231371,96.4499512 C38.8231371,96.4499512 36.2165826,91.7259879 34.729143,82.8493652 C33.85124,77.6102868 32.956682,77.828125 34.3497484,56.079834 C35.7428148,34.331543 37.7823962,16.1808085 41.7110766,15.7407227 C45.3573168,15.3322754 52.3565844,35.1499023 53.0074633,36.7568359 C53.4413825,37.828125 54.048072,38.1955566 54.8275316,37.8591309 Z"/>
    <path fill="#9E867B" d="M42.5880297 23.7827148C44.6607836 23.1197917 47.0580818 27.4869792 49.7799242 36.8842773 48.4511482 36.0296224 47.504615 35.7234701 46.9403246 35.9658203 46.0938891 36.3293457 45.5401781 39.2512207 45.5401781 39.2512207 45.5401781 39.2512207 44.4022387 37.3925781 41.8792894 38.0656738 40.0637286 38.5500459 39.0245531 42.6587734 39.0245531 42.2744141 39.0245531 41.5471191 39.4788988 24.7770996 42.5880297 23.7827148zM101.67592 22.4453125C104.468549 22.5524963 105.340776 39.2946777 105.206926 40.413208 105.073076 41.5317383 104.788713 37.2233276 104.020403 36.8637695 102.697975 36.2448926 102.132829 37.8361816 101.870561 37.8361816 101.608293 37.8361816 101.67592 35.072937 99.9513109 34.9490356 98.8015713 34.8664347 98.0632494 35.5345256 97.7363451 36.9533081 97.5148689 35.6171265 97.0634325 34.8239543 96.382036 34.5737915 95.7006395 34.3236287 95.1290656 34.4487101 94.6673143 34.9490356 95.0871177 34.2700293 95.430237 33.6139217 95.6966723 32.9807129 98.6232303 26.0254681 99.2571581 22.352478 101.67592 22.4453125z"/>
    <path fill="#564042" d="M45.7683886 39.7288208C46.3562314 39.7288208 45.652849 37.2319946 46.9460619 36.4209595 47.8082038 35.8802694 48.7339851 36.1054687 49.7234057 37.0965576 49.6545173 36.3077393 49.3209398 35.7641602 48.7226732 35.4658203 47.8252733 35.0183105 46.9939318 35.255692 46.1333178 35.7478027 45.2727037 36.2399135 45.0727709 37.6416016 44.9176195 37.6416016 44.8453632 37.6416016 44.1356374 37.1867221 43.3200243 37.0965576 42.5044112 37.0063931 41.3322924 37.2525635 41.3322924 37.2525635 41.3322924 37.2525635 40.0831384 37.7096347 39.2705858 39.6055908 38.876125 40.5259994 38.4389857 43.4476048 38.6428392 43.5279541 38.8466928 43.6083034 38.9512467 43.3960851 39.0179003 43.262207 39.3402577 42.6147315 39.6662767 40.8641968 40.2039354 39.9329834 40.6275992 39.1992068 41.1694286 38.6599001 41.8294237 38.3150635 42.517412 38.1319173 43.1229825 38.1319173 43.6461351 38.3150635 44.2348003 38.5211443 44.6410082 38.6427612 44.9176195 38.8942261 45.1942308 39.1456909 45.4391039 39.7288208 45.7683886 39.7288208zM97.9257982 35.6124268C98.317066 35.6124268 98.6458592 34.9560247 99.1646898 34.6346436 99.5351632 34.4051599 99.9882982 34.4051599 100.45363 34.6346436 101.093729 34.9503151 101.670633 35.5223366 102.184343 36.350708 102.837338 35.9627686 103.493629 35.9627686 104.153215 36.350708 104.452217 36.5265678 104.936418 36.8997803 105.114275 37.5992432 105.459149 38.955542 105.157714 40.8299561 104.936418 40.8299561 104.772268 40.8299561 104.841322 39.5906823 104.673967 38.6904297 104.517992 37.8513912 104.139972 37.3502748 103.619646 37.2681274 102.541033 37.0978394 102.480486 37.8413086 102.184343 38.1256104 101.888201 38.4099121 101.748874 37.4661718 101.541033 36.8997803 101.30349 36.2524495 100.752468 35.7176969 100.229143 35.6124268 99.549346 35.4756814 98.7393969 35.6124268 98.2512377 36.8997803 98.1477881 37.1725934 97.6214159 37.1725934 97.380327 37.0917358 97.1392382 37.0108783 97.4034758 36.3732288 97.1189135 35.8863525 96.7586877 35.2700189 96.3093159 35.015401 95.7458056 34.9197998 95.2261284 34.8316351 94.6334256 35.1320296 94.305559 35.6124268 93.9970585 36.0644482 93.8588612 36.7044803 93.6976488 36.6696777 93.3651039 36.5978878 93.6928731 35.292912 94.305559 34.6346436 94.9182448 33.9763751 95.2819472 33.730152 96.3436449 34.0174561 97.4053426 34.3047601 97.2551439 35.6124268 97.9257982 35.6124268zM60.5709398 46.5161133C58.2415941 47.1933594 57.1812914 48.4460449 56.4815844 48.1025391 55.7818773 47.7590332 57.1812914 44.7208252 59.4554613 43.5755615 61.7296312 42.4302979 62.6897142 42.668335 63.1903246 43.0977783 63.6909349 43.5272217 64.2074144 44.8833982 63.1903246 45.4476195 62.1732348 46.0118408 62.9002855 45.8388672 60.5709398 46.5161133zM82.3250902 43.7945557C83.8007372 43.7945557 84.510161 43.9604159 85.3613451 44.3440552 87.762536 45.4263018 88.902745 46.9441237 88.6326464 47.1976318 88.3703173 47.4438477 85.3426683 46.9857788 83.8205736 46.7738037 82.2984789 46.5618286 81.5873583 46.5618286 81.0346239 46.3140869 80.4818895 46.0663452 79.8324144 45.5530396 80.0343187 44.864502 80.236223 44.1759644 80.8494432 43.7945557 82.3250902 43.7945557z"/>
    <path fill="#564042" fill-rule="nonzero" d="M88.289292 63.9519504C91.1353186 64.1007269 93.470893 64.6748455 95.2934911 65.6871114 95.6556033 65.8882275 95.7861164 66.3448141 95.5850003 66.7069263 95.3838842 67.0690384 94.9272976 67.1995515 94.5651854 66.9984355 92.9620023 66.1080321 90.8447772 65.5875869 88.2109861 65.4499051 85.5438855 65.310482 82.919094 65.5558114 80.3342974 66.1860506 79.7353471 66.33209 79.2257921 65.7332665 79.4658057 65.1654088 80.1179487 63.6224779 81.4950842 62.2920197 83.5669815 61.1567228 85.6579442 60.010979 88.0070103 59.6750088 90.5848252 60.1435601 90.9923615 60.2176351 91.2626852 60.6080582 91.1886102 61.0155944 91.1145352 61.4231306 90.7241121 61.6934543 90.3165759 61.6193793 88.0678934 61.2106521 86.0680826 61.4966708 84.2877888 62.4721835 83.2150534 63.0599893 82.3778448 63.687678 81.7697571 64.3515816 83.9166229 63.9702264 86.0901699 63.8369909 88.289292 63.9519504zM70.2707225 63.3670677C71.5256373 64.3885485 71.6882307 65.9519791 70.8615224 67.8618912L70.7811156 68.0032608C67.0623496 73.1491464 64.1911342 79.0643483 62.1679623 85.7523191 60.142124 92.449104 59.0373368 100.091134 58.856418 108.678639 58.8476934 109.092761 58.5049088 109.4214 58.0907871 109.412675 57.6766654 109.403951 57.3480262 109.061166 57.3567507 108.647045 57.5404153 99.9292111 58.6646319 92.152784 60.7322182 85.3179934 62.7935792 78.5037814 65.7214109 72.4609131 69.5161998 67.1927968 70.0671147 65.8825829 69.9704776 65.0567836 69.3237939 64.5303932 68.6539265 63.9851317 67.5310541 64.0841711 65.867109 64.9862453 65.1941798 65.3510603 64.4713019 64.5919233 64.8685887 63.9376398 66.0951748 61.9175999 66.2428232 60.6696616 65.5732365 60.0549113 64.8964293 59.4335318 63.4511787 59.7125403 61.1848915 61.1577535 60.7282886 61.4489294 60.1230356 61.1750203 60.0404134 60.6398165 59.7847346 58.983598 59.1651145 58.2927246 58.1065844 58.2927246 56.9234119 58.2927246 55.8972964 58.9715475 54.7057429 60.3456808 54.5706944 60.5014225 54.4335822 60.6653281 54.2737855 60.8609219 54.1800759 60.975624 53.8650337 61.3653499 53.8649986 61.3653931 52.4019692 63.1684077 49.0383141 68.3849525 47.7794787 71.0471668 45.0931619 76.7282519 43.9597077 79.6623078 42.4672158 84.6008781 40.6012953 90.7751026 40.0438585 93.1893495 39.9107267 96.679225 39.8949368 97.0931375 39.5465941 97.4158796 39.1326817 97.4000896 38.7187692 97.3842997 38.3960271 97.035957 38.411817 96.6220446 38.5513771 92.9636591 39.1292584 90.4608675 41.0313533 84.1669442 42.5454486 79.1568891 43.7056506 76.1535942 46.4234361 70.4059582 47.7361991 67.6296966 51.1646432 62.3126732 52.7002209 60.4202514 52.6980904 60.4228769 53.0155333 60.0301813 53.1121669 59.9119002 53.2805338 59.7058163 53.4266331 59.5311675 53.5724697 59.3629845 55.0221 57.6912298 56.3802895 56.7927246 58.1065844 56.7927246 59.689863 56.7927246 60.7627948 57.6992131 61.2816045 59.3519228 63.6138593 58.0509767 65.3948531 57.8548266 66.5876862 58.9499716 67.5915673 59.871639 67.7198859 61.1967996 67.0803434 62.8682848 68.3526231 62.5292686 69.4253035 62.6789101 70.2707225 63.3670677z"/>
    <path fill="#564042" fill-rule="nonzero" d="M53.2971361,61.4282227 C53.0027514,61.4282227 52.7479807,61.2586152 52.6252113,61.0117877 C52.4952307,60.9694345 52.2912956,60.9161004 52.0106953,60.8594188 C51.1926028,60.6941633 50.2828275,60.6941633 49.278759,60.8637888 C48.8703327,60.9327876 48.4833032,60.6576273 48.4143043,60.249201 C48.3453055,59.8407747 48.6204659,59.4537452 49.0288922,59.3847464 C50.2069891,59.1857208 51.3007945,59.1857208 52.307698,59.3891163 C53.6553042,59.6613342 54.2613616,60.0498814 54.027183,60.8508079 C53.9492272,61.1818287 53.6519559,61.4282227 53.2971361,61.4282227 Z"/>
    <path stroke="#564042" stroke-linecap="round" stroke-linejoin="round" stroke-width="1.5" d="M44.9690111,65.7192383 C46.1591967,64.9955241 47.1207242,64.5343424 47.8535936,64.3356934 C48.5864631,64.1370443 49.5479906,64.1370443 50.7381762,64.3356934"/>
    <path fill="#564042" fill-rule="nonzero" d="M89.4342211 130.686035C87.5163762 130.686035 86.6586681 129.214152 86.8621996 126.809326L86.8621996 115.240967C86.8621996 110.793645 86.3189952 105.699702 85.2310388 99.9612372 85.1538824 99.5542731 85.4212444 99.1618159 85.8282085 99.0846595 86.2351726 99.0075032 86.6276298 99.2748651 86.7047862 99.6818292 87.8092126 105.507166 88.3621996 110.692846 88.3621996 115.240967 88.3621996 121.666748 88.3621996 121.666748 88.3595956 126.87177 88.2174238 128.573446 88.5743967 129.186035 89.4342211 129.186035 90.5902247 129.186035 91.4311452 128.784303 92.0327954 127.962483 92.4140365 127.441728 93.231306 127.613706 93.3703452 128.243942 93.8866942 130.584446 94.7271506 131.620605 95.854143 131.620605 96.9683626 131.620605 97.6058072 130.82017 97.8094979 128.899658 97.8789821 128.244521 98.6988515 127.990868 99.1261593 128.492307 99.9125816 129.41516 100.746557 129.850464 101.662248 129.850464 102.547652 129.850464 103.648364 127.466646 103.780414 125.514686 103.810482 125.070214 103.980433 122.829034 104.028686 122.135179 104.24086 119.084228 104.353533 116.272134 104.353533 112.977173 104.353533 107.601412 103.604262 100.218933 103.2116 99.3135538 103.046789 98.9335404 103.221245 98.4918729 103.601258 98.3270617 103.981271 98.1622505 104.422939 98.3367063 104.58775 98.7167197 105.0902 99.8752426 105.853533 107.396272 105.853533 112.977173 105.853533 116.309875 105.739503 119.155834 105.525072 122.239243 105.476347 122.939878 105.30654 125.179162 105.276993 125.615929 105.095689 128.295962 103.685293 131.350464 101.662248 131.350464 100.714107 131.350464 99.8349106 131.047479 99.0356377 130.458297 98.5348773 132.177937 97.4669452 133.120605 95.854143 133.120605 94.1687567 133.120605 92.9767525 131.973433 92.2554746 129.840807 91.480574 130.402393 90.5323101 130.686035 89.4342211 130.686035zM112.132531 132.707966C112.138082 132.293789 112.478339 131.962534 112.892515 131.968085 113.306691 131.973636 113.637947 132.313893 113.632396 132.728069 113.578771 136.728876 113.408674 141.196354 113.122169 146.130875 112.83105 151.144862 111.915892 155.276768 110.366633 158.527503 110.188428 158.901423 109.740842 159.06008 109.366923 158.881875 108.993004 158.70367 108.834346 158.256084 109.012551 157.882165 110.469965 154.824143 111.344032 150.877762 111.624691 146.04393 111.909964 141.130631 112.079222 136.685186 112.132531 132.707966zM68.5784948 77.5771275C68.1926756 77.5525801 67.8998069 77.2199123 67.9243543 76.8340931 67.9489017 76.4482738 68.2815696 76.1554052 68.6673888 76.1799526 70.1361128 76.2733988 71.2837063 76.341444 72.1094595 76.3840602 72.9164915 76.4257103 74.0493982 76.4257103 75.5034732 76.3834257 75.8899092 76.3721881 76.2122873 76.6763465 76.2235249 77.0627824 76.2347625 77.4492184 75.9306041 77.7715965 75.5441681 77.7828341 74.0556951 77.826119 72.8883088 77.826119 72.037303 77.7821995 71.2050184 77.7392462 70.0523189 77.6708982 68.5784948 77.5771275z"/>
    <path fill="#D7C5AF" d="M45.7358568 95.2578125C48.4950471 96.9237428 54.6816465 87.2376943 57.1192797 81.0480957 59.5569128 74.8584971 61.2956952 65.1545183 58.434099 63.4267578 55.5725028 61.6989974 50.577489 68.3893326 47.8065355 75.425293 45.035582 82.4612533 42.9766665 93.5918822 45.7358568 95.2578125zM150.655168 115.805664C148.846506 113.676514 142.356609 117.0703 135.444475 123.073975 128.532341 129.077649 123.298716 136.178247 124.911028 138.16626 126.52334 140.154273 135.493128 137.012873 142.169817 131.366455 148.846506 125.720037 152.463831 117.934814 150.655168 115.805664z"/>
  </g>
</svg>
