<svg width="32" height="32" viewBox="0 0 32 32" fill="none" xmlns="http://www.w3.org/2000/svg">
<path d="M25.2547 7.95726C24.1159 6.69513 22.5532 6 20.8543 6C19.5844 6 18.4214 6.41025 17.3975 7.21926C16.8809 7.62762 16.4127 8.12723 16 8.71036C15.5874 8.1274 15.1191 7.62762 14.6023 7.21926C13.5786 6.41025 12.4156 6 11.1457 6C9.44676 6 7.88394 6.69513 6.7451 7.95726C5.61986 9.20464 5 10.9088 5 12.7559C5 14.6571 5.69337 16.3974 7.18201 18.2329C8.5137 19.8747 10.4277 21.5415 12.6441 23.4714C13.4009 24.1306 14.2588 24.8776 15.1495 25.6734C15.3848 25.8841 15.6868 26 16 26C16.313 26 16.6152 25.8841 16.8501 25.6738C17.7409 24.8778 18.5993 24.1304 19.3564 23.4709C21.5725 21.5413 23.4865 19.8747 24.8182 18.2327C26.3068 16.3974 27 14.6571 27 12.7557C27 10.9088 26.3801 9.20464 25.2547 7.95726Z" fill="white"/>
</svg>
