<svg width="32" height="32" viewBox="0 0 32 32" fill="none" xmlns="http://www.w3.org/2000/svg">
<path fill-rule="evenodd" clip-rule="evenodd" d="M11.0414 6C9.57486 6 8.32329 7.06024 8.0822 8.5068L7.5 12H24.5L23.9178 8.5068C23.6767 7.06024 22.4251 6 20.9586 6H11.0414ZM5.5 15.5C5.5 14.3955 6.39543 13.5 7.5 13.5H24.5C25.6046 13.5 26.5 14.3955 26.5 15.5V19.3333C27.0523 19.3333 27.5 19.781 27.5 20.3333V20.3846C27.5 20.9369 27.0523 21.3846 26.5 21.3846H5.5C4.94772 21.3846 4.5 20.9369 4.5 20.3846V20.3333C4.5 19.781 4.94772 19.3333 5.5 19.3333V15.5ZM11.5 16.7693C11.5 17.9022 10.6046 18.8206 9.5 18.8206C8.39543 18.8206 7.5 17.9022 7.5 16.7693C7.5 15.6364 8.39543 14.718 9.5 14.718C10.6046 14.718 11.5 15.6364 11.5 16.7693ZM22.5 18.8206C23.6046 18.8206 24.5 17.9022 24.5 16.7693C24.5 15.6364 23.6046 14.718 22.5 14.718C21.3954 14.718 20.5 15.6364 20.5 16.7693C20.5 17.9022 21.3954 18.8206 22.5 18.8206ZM26.5 22.9231V25C26.5 25.5523 26.0523 26 25.5 26H23.5C22.9477 26 22.5 25.5523 22.5 25V22.9231H26.5ZM9.5 22.9231H5.5V25C5.5 25.5523 5.94772 26 6.5 26H8.5C9.05228 26 9.5 25.5523 9.5 25V22.9231Z" fill="white"/>
</svg>
