<?xml version="1.0" encoding="UTF-8"?>
<svg width="20px" height="20px" viewBox="0 0 20 20" version="1.1" xmlns="http://www.w3.org/2000/svg" xmlns:xlink="http://www.w3.org/1999/xlink">
    <!-- Generator: sketchtool 51.2 (57519) - http://www.bohemiancoding.com/sketch -->
    <title>7F1D5191-9E25-47CF-AD06-F3AA0EB213BF</title>
    <desc>Created with sketchtool.</desc>
    <defs></defs>
    <g id="Page-1" stroke="none" stroke-width="1" fill="none" fill-rule="evenodd">
        <g id="call_bubbles" transform="translate(-860.000000, -275.000000)">
            <g id="Group-17-Copy-3" transform="translate(838.000000, 253.000000)">
                <g id="icons-/-play_audio" transform="translate(12.000000, 12.000000)">
                    <g id="Group">
                        <g transform="translate(10.909091, 10.909091)">
                            <g id="icons-/-{call}">
                                <g id="icons-/-{video}-">
                                    <rect id="Rectangle" x="0" y="0" width="18.1818182" height="18.1818182"></rect>
                                    <path d="M12.5520611,7.96195239 L16.9611496,4.73192941 C17.2323385,4.53326108 17.613233,4.59205058 17.8119013,4.86323944 C17.8883515,4.96759651 17.9295661,5.09359634 17.9295661,5.22296028 L17.9295661,12.9588579 C17.9295661,13.2950312 17.6570438,13.5675536 17.3208705,13.5675536 C17.1915065,13.5675536 17.0655067,13.526339 16.9611496,13.4498888 L12.5520611,10.2198658 L12.5520611,13.0573079 C12.5520611,14.0658279 11.7344942,14.8833949 10.7259742,14.8833949 L2.07833902,14.8833949 C1.06981904,14.8833949 0.252252059,14.0658279 0.252252059,13.0573079 L0.252252059,5.12451025 C0.252252059,4.11599027 1.06981904,3.29842329 2.07833902,3.29842329 L10.7259742,3.29842329 C11.7344942,3.29842329 12.5520611,4.11599027 12.5520611,5.12451025 L12.5520611,7.96195239 Z" id="Combined-Shape-Copy" fill="#FFFFFF"></path>
                                </g>
                            </g>
                        </g>
                    </g>
                </g>
            </g>
        </g>
    </g>
</svg>