<svg xmlns="http://www.w3.org/2000/svg" width="44" height="44" viewBox="0 0 44 44">
    <g fill="none" fill-rule="evenodd">
        <circle cx="22" cy="22" r="22" fill="#F96657"/>
        <path d="M6 6h32v32H6z"/>
        <path fill="#FFF" d="M14 9h10.741v6.212a1 1 0 0 0 1 1H32V33a2 2 0 0 1-2 2H14a2 2 0 0 1-2-2V11a2 2 0 0 1 2-2zm11.5 0l6.5 6.5h-5.5a1 1 0 0 1-1-1V9zM14.245 28v-6.54h2.06c.36 0 .695.033 1.005.1.31.067.578.18.805.34.227.16.403.368.53.625s.19.575.19.955c0 .36-.063.673-.19.94a1.842 1.842 0 0 1-.525.665 2.193 2.193 0 0 1-.79.39 3.707 3.707 0 0 1-.985.125h-.94V28h-1.16zm1.16-3.33h.85c.96 0 1.44-.397 1.44-1.19 0-.413-.125-.698-.375-.855-.25-.157-.618-.235-1.105-.235h-.81v2.28zm4.66 3.33v-6.54h1.75c1 0 1.78.27 2.34.81.56.54.84 1.35.84 2.43 0 .54-.072 1.017-.215 1.43-.143.413-.35.758-.62 1.035-.27.277-.597.485-.98.625s-.818.21-1.305.21h-1.81zm1.16-.94h.51c.667 0 1.178-.192 1.535-.575.357-.383.535-.978.535-1.785 0-.8-.18-1.383-.54-1.75-.36-.367-.87-.55-1.53-.55h-.51v4.66zm5.09.94v-6.54h3.95v.98h-2.79v1.85h2.38v.98h-2.38V28h-1.16z"/>
    </g>
</svg>
