<svg width="44" height="44" viewBox="0 0 44 44" fill="none" xmlns="http://www.w3.org/2000/svg">
<path fill-rule="evenodd" clip-rule="evenodd" d="M14 9H24.741V15.212C24.741 15.4772 24.8464 15.7316 25.0339 15.9191C25.2214 16.1066 25.4758 16.212 25.741 16.212H32V33C32 33.5304 31.7893 34.0391 31.4142 34.4142C31.0391 34.7893 30.5304 35 30 35H14C13.4696 35 12.9609 34.7893 12.5858 34.4142C12.2107 34.0391 12 33.5304 12 33V11C12 10.4696 12.2107 9.96086 12.5858 9.58579C12.9609 9.21071 13.4696 9 14 9V9ZM25.5 9L32 15.5H26.5C26.2348 15.5 25.9804 15.3946 25.7929 15.2071C25.6054 15.0196 25.5 14.7652 25.5 14.5V9ZM16.7 20.5C16.5143 20.5 16.3363 20.5737 16.205 20.705C16.0737 20.8363 16 21.0143 16 21.2C16 21.3857 16.0737 21.5637 16.205 21.695C16.3363 21.8263 16.5143 21.9 16.7 21.9H27.3C27.4857 21.9 27.6637 21.8263 27.795 21.695C27.9263 21.5637 28 21.3857 28 21.2C28 21.0143 27.9263 20.8363 27.795 20.705C27.6637 20.5737 27.4857 20.5 27.3 20.5H16.7ZM16.7 24C16.5143 24 16.3363 24.0737 16.205 24.205C16.0737 24.3363 16 24.5143 16 24.7C16 24.8857 16.0737 25.0637 16.205 25.195C16.3363 25.3263 16.5143 25.4 16.7 25.4H27.3C27.4857 25.4 27.6637 25.3263 27.795 25.195C27.9263 25.0637 28 24.8857 28 24.7C28 24.5143 27.9263 24.3363 27.795 24.205C27.6637 24.0737 27.4857 24 27.3 24H16.7ZM16.7 27.5C16.5143 27.5 16.3363 27.5737 16.205 27.705C16.0737 27.8363 16 28.0143 16 28.2C16 28.3857 16.0737 28.5637 16.205 28.695C16.3363 28.8263 16.5143 28.9 16.7 28.9H23.3C23.4857 28.9 23.6637 28.8263 23.795 28.695C23.9263 28.5637 24 28.3857 24 28.2C24 28.0143 23.9263 27.8363 23.795 27.705C23.6637 27.5737 23.4857 27.5 23.3 27.5H16.7V27.5Z" fill="white"/>
</svg>
