<svg width="44" height="44" viewBox="0 0 44 44" fill="none" xmlns="http://www.w3.org/2000/svg">
<path fill-rule="evenodd" clip-rule="evenodd" d="M26 30V32.434C26 32.5049 25.9849 32.575 25.9557 32.6396C25.9266 32.7042 25.884 32.7618 25.8309 32.8087C25.7777 32.8556 25.7152 32.8907 25.6475 32.9116C25.5797 32.9325 25.5083 32.9388 25.438 32.93L10.438 31.055C10.3171 31.0399 10.2059 30.9812 10.1252 30.8898C10.0446 30.7985 10 30.6808 10 30.559V13.44C10 13.3182 10.0446 13.2005 10.1252 13.1092C10.2059 13.0178 10.3171 12.9591 10.438 12.944L25.438 11.069C25.5083 11.0602 25.5797 11.0665 25.6475 11.0874C25.7152 11.1083 25.7777 11.1434 25.8309 11.1903C25.884 11.2372 25.9266 11.2948 25.9557 11.3594C25.9849 11.424 26 11.4941 26 11.565V14H33.5C33.6326 14 33.7598 14.0527 33.8536 14.1464C33.9473 14.2402 34 14.3674 34 14.5C34 14.6326 33.9473 14.7598 33.8536 14.8536C33.7598 14.9473 33.6326 15 33.5 15H26V17H33.5C33.6326 17 33.7598 17.0527 33.8536 17.1464C33.9473 17.2402 34 17.3674 34 17.5C34 17.6326 33.9473 17.7598 33.8536 17.8536C33.7598 17.9473 33.6326 18 33.5 18H26V20H33.5C33.6326 20 33.7598 20.0527 33.8536 20.1464C33.9473 20.2402 34 20.3674 34 20.5C34 20.6326 33.9473 20.7598 33.8536 20.8536C33.7598 20.9473 33.6326 21 33.5 21H26V23H33.5C33.6326 23 33.7598 23.0527 33.8536 23.1464C33.9473 23.2402 34 23.3674 34 23.5C34 23.6326 33.9473 23.7598 33.8536 23.8536C33.7598 23.9473 33.6326 24 33.5 24H26V26H33.5C33.6326 26 33.7598 26.0527 33.8536 26.1464C33.9473 26.2402 34 26.3674 34 26.5C34 26.6326 33.9473 26.7598 33.8536 26.8536C33.7598 26.9473 33.6326 27 33.5 27H26V29H33.5C33.6326 29 33.7598 29.0527 33.8536 29.1464C33.9473 29.2402 34 29.3674 34 29.5C34 29.6326 33.9473 29.7598 33.8536 29.8536C33.7598 29.9473 33.6326 30 33.5 30H26ZM14.037 27.196L15.865 27.373L17.522 19.834L19.185 27.694L20.973 27.866L23 16.78L21.303 16.921L20.022 24.534L18.559 17.149L16.554 17.316L15.028 24.208L13.77 17.548L12.044 17.691L14.037 27.196V27.196Z" fill="white"/>
</svg>
