<svg xmlns="http://www.w3.org/2000/svg" width="44" height="44" viewBox="0 0 44 44">
    <g fill="none" fill-rule="evenodd">
        <circle cx="22" cy="22" r="22" fill="#F59A36"/>
        <path d="M6 6h32v32H6z"/>
        <path fill="#FFF" d="M27.018 17.548l-9.257 9.161-2.837 1.252a.2.2 0 0 1-.258-.276l1.411-2.703 9.274-9.132a.7.7 0 0 1 .993.01l.684.702a.7.7 0 0 1-.01.986zm.302-3.552l1.703-1.703a1 1 0 0 1 1.02-.243c.232.076.414.18.546.313.089.089.16.195.213.318a1 1 0 0 1-.202 1.096l-1.749 1.792a.5.5 0 0 1-.721-.007l-.82-.87a.5.5 0 0 1 .01-.696zM12.5 30.3h20a.5.5 0 0 1 0 1h-20a.5.5 0 1 1 0-1z"/>
    </g>
</svg>
