<svg xmlns="http://www.w3.org/2000/svg" width="44" height="44" viewBox="0 0 44 44">
    <g fill="none" fill-rule="evenodd">
        <circle cx="22" cy="22" r="22" fill="#8A6AB3"/>
        <path d="M6 6h32v32H6z"/>
        <path fill="#FFF" d="M14 9h10.741v6.212a1 1 0 0 0 1 1H32V33a2 2 0 0 1-2 2H14a2 2 0 0 1-2-2V11a2 2 0 0 1 2-2zm11.5 0l6.5 6.5h-5.5a1 1 0 0 1-1-1V9zm-5.207 20.165a.71.71 0 0 1 0 1.106 1.005 1.005 0 0 1-1.277 0l-4.501-3.898a.71.71 0 0 1 0-1.106l4.662-4.038a1.005 1.005 0 0 1 1.277 0 .71.71 0 0 1 0 1.106L16.43 25.82l3.863 3.345zm3.414 0l3.863-3.345-4.024-3.485a.71.71 0 0 1 0-1.106 1.005 1.005 0 0 1 1.277 0l4.662 4.038a.71.71 0 0 1 0 1.106l-4.5 3.898a1.005 1.005 0 0 1-1.278 0 .71.71 0 0 1 0-1.106z"/>
    </g>
</svg>
