<svg width="44" height="44" viewBox="0 0 44 44" fill="none" xmlns="http://www.w3.org/2000/svg">
<path fill-rule="evenodd" clip-rule="evenodd" d="M13 12C13 10.8954 13.8954 10 15 10H23V17C23 17.5523 23.4477 18 24 18H31V32C31 33.1046 30.1046 34 29 34H15C13.8954 34 13 33.1046 13 32V12ZM26 25.5C26 27.7091 24.2091 29.5 22 29.5C21.2582 29.5 20.5635 29.2981 19.968 28.9462L25.4462 23.468C25.7981 24.0635 26 24.7582 26 25.5ZM18.5538 27.5319L24.0319 22.0538C23.4364 21.7019 22.7418 21.5 22 21.5C19.7909 21.5 18 23.2909 18 25.5C18 26.2418 18.2019 26.9364 18.5538 27.5319ZM28 25.5C28 28.8137 25.3137 31.5 22 31.5C18.6863 31.5 16 28.8137 16 25.5C16 22.1863 18.6863 19.5 22 19.5C25.3137 19.5 28 22.1863 28 25.5Z" fill="#B7BCC9"/>
<path d="M25 10L28 13L31 16H26C25.4477 16 25 15.5523 25 15V10Z" fill="#B7BCC9"/>
</svg>
