<svg xmlns="http://www.w3.org/2000/svg" width="44" height="44" viewBox="0 0 44 44">
    <g fill="none" fill-rule="evenodd">
        <circle cx="22" cy="22" r="22" fill="#D34829"/>
        <path d="M6 6h32v32H6z"/>
        <path fill="#FFF" d="M33.917 19A6.002 6.002 0 0 1 26 23.659V26h7.5a.5.5 0 1 1 0 1H26v2h7.5a.5.5 0 1 1 0 1H26v2.434a.5.5 0 0 1-.562.496l-15-1.875a.5.5 0 0 1-.438-.496V13.44a.5.5 0 0 1 .438-.496l15-1.875a.5.5 0 0 1 .562.496v.775A5.99 5.99 0 0 1 28 12v7h5.917zm-19.971 8.733l2.123.236v-4.215l1.384.046c.961.032 1.695 0 2.202-.098.373-.081.74-.262 1.1-.542.362-.285.66-.683.894-1.197.234-.518.351-1.159.351-1.92 0-.986-.203-1.778-.61-2.37-.406-.583-.91-.936-1.513-1.061-.392-.083-1.234-.062-2.524.061L13.946 17v10.734zm2.123-9.047l1.025-.062c.765-.046 1.275-.05 1.528-.013.344.05.629.208.853.476.225.27.338.624.338 1.059 0 .353-.08.664-.24.933-.16.266-.382.462-.664.587-.282.124-.842.186-1.678.188l-1.162.002v-3.17zM29.5 11.5a6 6 0 0 1 6 6h-6v-6z"/>
    </g>
</svg>
