<svg width="44" height="44" viewBox="0 0 44 44" fill="none" xmlns="http://www.w3.org/2000/svg">
<path fill-rule="evenodd" clip-rule="evenodd" d="M27.018 17.548L17.761 26.709L14.924 27.961C14.886 27.9778 14.8438 27.9824 14.8031 27.9741C14.7624 27.9658 14.7252 27.9451 14.6969 27.9147C14.6685 27.8844 14.6503 27.846 14.6448 27.8048C14.6392 27.7636 14.6467 27.7218 14.666 27.685L16.077 24.982L25.351 15.85C25.4167 15.7852 25.4946 15.734 25.5802 15.6994C25.6657 15.6648 25.7573 15.6475 25.8496 15.6484C25.9419 15.6494 26.0331 15.6685 26.1179 15.7048C26.2028 15.7411 26.2796 15.7939 26.344 15.86L27.028 16.562C27.1568 16.6944 27.2279 16.8724 27.2261 17.0571C27.2242 17.2417 27.1494 17.4182 27.018 17.548V17.548ZM27.32 13.996L29.023 12.293C29.1539 12.162 29.3185 12.07 29.4986 12.0271C29.6787 11.9842 29.8672 11.9921 30.043 12.05C30.275 12.126 30.457 12.23 30.589 12.363C30.678 12.452 30.749 12.558 30.802 12.681C30.8809 12.8631 30.9038 13.0646 30.8678 13.2597C30.8319 13.4549 30.7386 13.635 30.6 13.777L28.851 15.569C28.8039 15.6171 28.7475 15.6552 28.6853 15.681C28.6231 15.7067 28.5563 15.7197 28.489 15.719C28.4217 15.7184 28.3552 15.7041 28.2935 15.6772C28.2318 15.6502 28.1762 15.611 28.13 15.562L27.31 14.692C27.2209 14.5974 27.1721 14.4719 27.174 14.342C27.1759 14.2121 27.2282 14.088 27.32 13.996V13.996ZM12.5 30.3H32.5C32.6326 30.3 32.7598 30.3527 32.8536 30.4464C32.9473 30.5402 33 30.6674 33 30.8C33 30.9326 32.9473 31.0598 32.8536 31.1536C32.7598 31.2473 32.6326 31.3 32.5 31.3H12.5C12.3674 31.3 12.2402 31.2473 12.1464 31.1536C12.0527 31.0598 12 30.9326 12 30.8C12 30.6674 12.0527 30.5402 12.1464 30.4464C12.2402 30.3527 12.3674 30.3 12.5 30.3Z" fill="white"/>
</svg>
