<svg width="44" height="44" viewBox="0 0 44 44" fill="none" xmlns="http://www.w3.org/2000/svg">
<path fill-rule="evenodd" clip-rule="evenodd" d="M13 22.5H16C16.1326 22.5 16.2598 22.5527 16.3536 22.6464C16.4473 22.7402 16.5 22.8674 16.5 23V30.5H12.5V23C12.5 22.8674 12.5527 22.7402 12.6464 22.6464C12.7402 22.5527 12.8674 22.5 13 22.5ZM18 16.5H21C21.1326 16.5 21.2598 16.5527 21.3536 16.6464C21.4473 16.7402 21.5 16.8674 21.5 17V30.5H17.5V17C17.5 16.8674 17.5527 16.7402 17.6464 16.6464C17.7402 16.5527 17.8674 16.5 18 16.5ZM23 11.5H26C26.1326 11.5 26.2598 11.5527 26.3536 11.6464C26.4473 11.7402 26.5 11.8674 26.5 12V30.5H22.5V12C22.5 11.8674 22.5527 11.7402 22.6464 11.6464C22.7402 11.5527 22.8674 11.5 23 11.5ZM28 19.5H31C31.1326 19.5 31.2598 19.5527 31.3536 19.6464C31.4473 19.7402 31.5 19.8674 31.5 20V30.5H27.5V20C27.5 19.8674 27.5527 19.7402 27.6464 19.6464C27.7402 19.5527 27.8674 19.5 28 19.5ZM13 31.5H31C31.1326 31.5 31.2598 31.5527 31.3536 31.6464C31.4473 31.7402 31.5 31.8674 31.5 32C31.5 32.1326 31.4473 32.2598 31.3536 32.3536C31.2598 32.4473 31.1326 32.5 31 32.5H13C12.8674 32.5 12.7402 32.4473 12.6464 32.3536C12.5527 32.2598 12.5 32.1326 12.5 32C12.5 31.8674 12.5527 31.7402 12.6464 31.6464C12.7402 31.5527 12.8674 31.5 13 31.5Z" fill="white"/>
</svg>
