<svg width="44" height="44" viewBox="0 0 44 44" fill="none" xmlns="http://www.w3.org/2000/svg">
<path fill-rule="evenodd" clip-rule="evenodd" d="M14 9H24.741V15.212C24.741 15.4772 24.8464 15.7316 25.0339 15.9191C25.2214 16.1066 25.4758 16.212 25.741 16.212H32V33C32 33.5304 31.7893 34.0391 31.4142 34.4142C31.0391 34.7893 30.5304 35 30 35H14C13.4696 35 12.9609 34.7893 12.5858 34.4142C12.2107 34.0391 12 33.5304 12 33V11C12 10.4696 12.2107 9.96086 12.5858 9.58579C12.9609 9.21071 13.4696 9 14 9V9ZM25.5 9L32 15.5H26.5C26.2348 15.5 25.9804 15.3946 25.7929 15.2071C25.6054 15.0196 25.5 14.7652 25.5 14.5V9ZM20.293 29.165C20.3756 29.2315 20.4423 29.3158 20.4881 29.4115C20.5339 29.5072 20.5577 29.6119 20.5577 29.718C20.5577 29.8241 20.5339 29.9288 20.4881 30.0245C20.4423 30.1202 20.3756 30.2045 20.293 30.271C20.1131 30.419 19.8874 30.4999 19.6545 30.4999C19.4216 30.4999 19.1959 30.419 19.016 30.271L14.515 26.373C14.4324 26.3065 14.3657 26.2222 14.3199 26.1265C14.2741 26.0308 14.2503 25.9261 14.2503 25.82C14.2503 25.7139 14.2741 25.6092 14.3199 25.5135C14.3657 25.4178 14.4324 25.3335 14.515 25.267L19.177 21.229C19.3569 21.081 19.5826 21.0001 19.8155 21.0001C20.0484 21.0001 20.2741 21.081 20.454 21.229C20.5366 21.2955 20.6033 21.3798 20.6491 21.4755C20.6949 21.5712 20.7187 21.6759 20.7187 21.782C20.7187 21.8881 20.6949 21.9928 20.6491 22.0885C20.6033 22.1842 20.5366 22.2685 20.454 22.335L16.43 25.82L20.293 29.165ZM23.707 29.165L27.57 25.82L23.546 22.335C23.4634 22.2685 23.3967 22.1842 23.3509 22.0885C23.3051 21.9928 23.2813 21.8881 23.2813 21.782C23.2813 21.6759 23.3051 21.5712 23.3509 21.4755C23.3967 21.3798 23.4634 21.2955 23.546 21.229C23.7259 21.081 23.9516 21.0001 24.1845 21.0001C24.4174 21.0001 24.6431 21.081 24.823 21.229L29.485 25.267C29.5676 25.3335 29.6343 25.4178 29.6801 25.5135C29.7259 25.6092 29.7497 25.7139 29.7497 25.82C29.7497 25.9261 29.7259 26.0308 29.6801 26.1265C29.6343 26.2222 29.5676 26.3065 29.485 26.373L24.985 30.271C24.805 30.4192 24.5792 30.5003 24.346 30.5003C24.1129 30.5003 23.887 30.4192 23.707 30.271C23.6244 30.2045 23.5577 30.1202 23.5119 30.0245C23.4661 29.9288 23.4423 29.8241 23.4423 29.718C23.4423 29.6119 23.4661 29.5072 23.5119 29.4115C23.5577 29.3158 23.6244 29.2315 23.707 29.165V29.165Z" fill="white"/>
</svg>
