<svg xmlns="http://www.w3.org/2000/svg" width="44" height="44" viewBox="0 0 44 44">
    <g fill="none" fill-rule="evenodd">
        <circle cx="22" cy="22" r="22" fill="#FFBB34"/>
        <path d="M6 6h32v32H6z"/>
        <path fill="#FFF" d="M22 11v2h2v-2h8a1 1 0 0 1 1 1v20a1 1 0 0 1-1 1H12a1 1 0 0 1-1-1V12a1 1 0 0 1 1-1h10zm-2 10v2h2v-2h-2zm2-2v2h2v-2h-2zm-2-2v2h2v-2h-2zm2-2v2h2v-2h-2zm-2-2v2h2v-2h-2zm1.326 14.8h1.348l-.26-2.6h-.828l-.26 2.6zm.079-3.8h1.19a1 1 0 0 1 .995.9l.3 3a1 1 0 0 1-.995 1.1h-1.79a1 1 0 0 1-.995-1.1l.3-3a1 1 0 0 1 .995-.9z"/>
    </g>
</svg>
