<svg xmlns="http://www.w3.org/2000/svg" width="44" height="44" viewBox="0 0 44 44">
    <g fill="none" fill-rule="evenodd">
        <circle cx="22" cy="22" r="22" fill="#1B7346"/>
        <path d="M6 6h32v32H6z"/>
        <path fill="#FFF" d="M26 31v1.434a.5.5 0 0 1-.562.496l-15-1.875a.5.5 0 0 1-.438-.496V13.44a.5.5 0 0 1 .438-.496l15-1.875a.5.5 0 0 1 .562.496V14h1.5a.5.5 0 0 1 .5.5v1a.5.5 0 0 1-.5.5H26v1h1.5a.5.5 0 0 1 .5.5v1a.5.5 0 0 1-.5.5H26v1h1.5a.5.5 0 0 1 .5.5v1a.5.5 0 0 1-.5.5H26v1h1.5a.5.5 0 0 1 .5.5v1a.5.5 0 0 1-.5.5H26v1h1.5a.5.5 0 0 1 .5.5v1a.5.5 0 0 1-.5.5H26v1h1.5a.5.5 0 0 1 .5.5v1a.5.5 0 0 1-.5.5H26zm-13-3.815l2.344.209 2.153-3.414 2.146 3.797 2.357.21-3.308-5.76 3.01-5.391-2.264.174-1.902 3.498-1.941-3.203-2.285.176 2.998 4.66L13 27.186zM29.5 14h3a.5.5 0 0 1 .5.5v1a.5.5 0 0 1-.5.5h-3a.5.5 0 0 1-.5-.5v-1a.5.5 0 0 1 .5-.5zm0 3h3a.5.5 0 0 1 .5.5v1a.5.5 0 0 1-.5.5h-3a.5.5 0 0 1-.5-.5v-1a.5.5 0 0 1 .5-.5zm0 3h3a.5.5 0 0 1 .5.5v1a.5.5 0 0 1-.5.5h-3a.5.5 0 0 1-.5-.5v-1a.5.5 0 0 1 .5-.5zm0 3h3a.5.5 0 0 1 .5.5v1a.5.5 0 0 1-.5.5h-3a.5.5 0 0 1-.5-.5v-1a.5.5 0 0 1 .5-.5zm0 3h3a.5.5 0 0 1 .5.5v1a.5.5 0 0 1-.5.5h-3a.5.5 0 0 1-.5-.5v-1a.5.5 0 0 1 .5-.5zm0 3h3a.5.5 0 0 1 .5.5v1a.5.5 0 0 1-.5.5h-3a.5.5 0 0 1-.5-.5v-1a.5.5 0 0 1 .5-.5z"/>
    </g>
</svg>
