<svg width="44" height="44" viewBox="0 0 44 44" fill="none" xmlns="http://www.w3.org/2000/svg">
<path fill-rule="evenodd" clip-rule="evenodd" d="M26 31V32.434C26 32.5049 25.9849 32.575 25.9557 32.6396C25.9266 32.7042 25.884 32.7618 25.8309 32.8087C25.7777 32.8556 25.7152 32.8907 25.6475 32.9116C25.5797 32.9325 25.5083 32.9388 25.438 32.93L10.438 31.055C10.3171 31.0399 10.2059 30.9812 10.1252 30.8898C10.0446 30.7985 10 30.6808 10 30.559V13.44C10 13.3182 10.0446 13.2005 10.1252 13.1092C10.2059 13.0178 10.3171 12.9591 10.438 12.944L25.438 11.069C25.5083 11.0602 25.5797 11.0665 25.6475 11.0874C25.7152 11.1083 25.7777 11.1434 25.8309 11.1903C25.884 11.2372 25.9266 11.2948 25.9557 11.3594C25.9849 11.424 26 11.4941 26 11.565V14H27.5C27.6326 14 27.7598 14.0527 27.8536 14.1464C27.9473 14.2402 28 14.3674 28 14.5V15.5C28 15.6326 27.9473 15.7598 27.8536 15.8536C27.7598 15.9473 27.6326 16 27.5 16H26V17H27.5C27.6326 17 27.7598 17.0527 27.8536 17.1464C27.9473 17.2402 28 17.3674 28 17.5V18.5C28 18.6326 27.9473 18.7598 27.8536 18.8536C27.7598 18.9473 27.6326 19 27.5 19H26V20H27.5C27.6326 20 27.7598 20.0527 27.8536 20.1464C27.9473 20.2402 28 20.3674 28 20.5V21.5C28 21.6326 27.9473 21.7598 27.8536 21.8536C27.7598 21.9473 27.6326 22 27.5 22H26V23H27.5C27.6326 23 27.7598 23.0527 27.8536 23.1464C27.9473 23.2402 28 23.3674 28 23.5V24.5C28 24.6326 27.9473 24.7598 27.8536 24.8536C27.7598 24.9473 27.6326 25 27.5 25H26V26H27.5C27.6326 26 27.7598 26.0527 27.8536 26.1464C27.9473 26.2402 28 26.3674 28 26.5V27.5C28 27.6326 27.9473 27.7598 27.8536 27.8536C27.7598 27.9473 27.6326 28 27.5 28H26V29H27.5C27.6326 29 27.7598 29.0527 27.8536 29.1464C27.9473 29.2402 28 29.3674 28 29.5V30.5C28 30.6326 27.9473 30.7598 27.8536 30.8536C27.7598 30.9473 27.6326 31 27.5 31H26ZM13 27.185L15.344 27.394L17.497 23.98L19.643 27.777L22 27.987L18.692 22.227L21.702 16.836L19.438 17.01L17.536 20.508L15.595 17.305L13.31 17.481L16.308 22.141L13 27.186V27.185ZM29.5 14H32.5C32.6326 14 32.7598 14.0527 32.8536 14.1464C32.9473 14.2402 33 14.3674 33 14.5V15.5C33 15.6326 32.9473 15.7598 32.8536 15.8536C32.7598 15.9473 32.6326 16 32.5 16H29.5C29.3674 16 29.2402 15.9473 29.1464 15.8536C29.0527 15.7598 29 15.6326 29 15.5V14.5C29 14.3674 29.0527 14.2402 29.1464 14.1464C29.2402 14.0527 29.3674 14 29.5 14ZM29.5 17H32.5C32.6326 17 32.7598 17.0527 32.8536 17.1464C32.9473 17.2402 33 17.3674 33 17.5V18.5C33 18.6326 32.9473 18.7598 32.8536 18.8536C32.7598 18.9473 32.6326 19 32.5 19H29.5C29.3674 19 29.2402 18.9473 29.1464 18.8536C29.0527 18.7598 29 18.6326 29 18.5V17.5C29 17.3674 29.0527 17.2402 29.1464 17.1464C29.2402 17.0527 29.3674 17 29.5 17ZM29.5 20H32.5C32.6326 20 32.7598 20.0527 32.8536 20.1464C32.9473 20.2402 33 20.3674 33 20.5V21.5C33 21.6326 32.9473 21.7598 32.8536 21.8536C32.7598 21.9473 32.6326 22 32.5 22H29.5C29.3674 22 29.2402 21.9473 29.1464 21.8536C29.0527 21.7598 29 21.6326 29 21.5V20.5C29 20.3674 29.0527 20.2402 29.1464 20.1464C29.2402 20.0527 29.3674 20 29.5 20ZM29.5 23H32.5C32.6326 23 32.7598 23.0527 32.8536 23.1464C32.9473 23.2402 33 23.3674 33 23.5V24.5C33 24.6326 32.9473 24.7598 32.8536 24.8536C32.7598 24.9473 32.6326 25 32.5 25H29.5C29.3674 25 29.2402 24.9473 29.1464 24.8536C29.0527 24.7598 29 24.6326 29 24.5V23.5C29 23.3674 29.0527 23.2402 29.1464 23.1464C29.2402 23.0527 29.3674 23 29.5 23ZM29.5 26H32.5C32.6326 26 32.7598 26.0527 32.8536 26.1464C32.9473 26.2402 33 26.3674 33 26.5V27.5C33 27.6326 32.9473 27.7598 32.8536 27.8536C32.7598 27.9473 32.6326 28 32.5 28H29.5C29.3674 28 29.2402 27.9473 29.1464 27.8536C29.0527 27.7598 29 27.6326 29 27.5V26.5C29 26.3674 29.0527 26.2402 29.1464 26.1464C29.2402 26.0527 29.3674 26 29.5 26ZM29.5 29H32.5C32.6326 29 32.7598 29.0527 32.8536 29.1464C32.9473 29.2402 33 29.3674 33 29.5V30.5C33 30.6326 32.9473 30.7598 32.8536 30.8536C32.7598 30.9473 32.6326 31 32.5 31H29.5C29.3674 31 29.2402 30.9473 29.1464 30.8536C29.0527 30.7598 29 30.6326 29 30.5V29.5C29 29.3674 29.0527 29.2402 29.1464 29.1464C29.2402 29.0527 29.3674 29 29.5 29Z" fill="white"/>
</svg>
