<svg width="44" height="44" viewBox="0 0 44 44" fill="none" xmlns="http://www.w3.org/2000/svg">
<path fill-rule="evenodd" clip-rule="evenodd" d="M14 9H24.741V15.212C24.741 15.4772 24.8464 15.7316 25.0339 15.9191C25.2214 16.1066 25.4758 16.212 25.741 16.212H32V33C32 33.5304 31.7893 34.0391 31.4142 34.4142C31.0391 34.7893 30.5304 35 30 35H14C13.4696 35 12.9609 34.7893 12.5858 34.4142C12.2107 34.0391 12 33.5304 12 33V11C12 10.4696 12.2107 9.96086 12.5858 9.58579C12.9609 9.21071 13.4696 9 14 9V9ZM25.5 9L32 15.5H26.5C26.2348 15.5 25.9804 15.3946 25.7929 15.2071C25.6054 15.0196 25.5 14.7652 25.5 14.5V9Z" fill="white"/>
</svg>
