<svg xmlns="http://www.w3.org/2000/svg" width="44" height="44" viewBox="0 0 44 44">
    <g fill="none" fill-rule="evenodd">
        <circle cx="22" cy="22" r="22" fill="#23589B"/>
        <path d="M6 6h32v32H6z"/>
        <path fill="#FFF" d="M26 30v2.434a.5.5 0 0 1-.562.496l-15-1.875a.5.5 0 0 1-.438-.496V13.44a.5.5 0 0 1 .438-.496l15-1.875a.5.5 0 0 1 .562.496V14h7.5a.5.5 0 1 1 0 1H26v2h7.5a.5.5 0 1 1 0 1H26v2h7.5a.5.5 0 1 1 0 1H26v2h7.5a.5.5 0 1 1 0 1H26v2h7.5a.5.5 0 1 1 0 1H26v2h7.5a.5.5 0 1 1 0 1H26zm-11.963-2.804l1.828.177 1.657-7.539 1.663 7.86 1.788.172L23 16.78l-1.697.141-1.281 7.613-1.463-7.385-2.005.167-1.526 6.892-1.258-6.66-1.726.143 1.993 9.505z"/>
    </g>
</svg>
