<svg width="44" height="44" viewBox="0 0 44 44" fill="none" xmlns="http://www.w3.org/2000/svg">
<path fill-rule="evenodd" clip-rule="evenodd" d="M22.5 32.5H25C25.1326 32.5 25.2598 32.5527 25.3536 32.6464C25.4473 32.7402 25.5 32.8674 25.5 33C25.5 33.1326 25.4473 33.2598 25.3536 33.3536C25.2598 33.4473 25.1326 33.5 25 33.5H19C18.8674 33.5 18.7402 33.4473 18.6464 33.3536C18.5527 33.2598 18.5 33.1326 18.5 33C18.5 32.8674 18.5527 32.7402 18.6464 32.6464C18.7402 32.5527 18.8674 32.5 19 32.5H21.5V26C21.5 25.8674 21.5527 25.7402 21.6464 25.6464C21.7402 25.5527 21.8674 25.5 22 25.5C22.1326 25.5 22.2598 25.5527 22.3536 25.6464C22.4473 25.7402 22.5 25.8674 22.5 26V32.5ZM14.405 12.5H29.595C29.8429 12.5 30.082 12.5921 30.2658 12.7584C30.4497 12.9247 30.5652 13.1533 30.59 13.4L31.39 21.4C31.404 21.5391 31.3886 21.6795 31.345 21.8123C31.3014 21.945 31.2304 22.0672 31.1366 22.1708C31.0429 22.2745 30.9284 22.3573 30.8007 22.414C30.673 22.4707 30.5348 22.5 30.395 22.5H13.605C13.4652 22.5 13.327 22.4707 13.1993 22.414C13.0716 22.3573 12.9571 22.2745 12.8634 22.1708C12.7696 22.0672 12.6986 21.945 12.655 21.8123C12.6114 21.6795 12.596 21.5391 12.61 21.4L13.41 13.4C13.4348 13.1533 13.5503 12.9247 13.7342 12.7584C13.918 12.5921 14.1571 12.5 14.405 12.5V12.5ZM12 23.5H32C32.1326 23.5 32.2598 23.5527 32.3536 23.6464C32.4473 23.7402 32.5 23.8674 32.5 24C32.5 24.1326 32.4473 24.2598 32.3536 24.3536C32.2598 24.4473 32.1326 24.5 32 24.5H12C11.8674 24.5 11.7402 24.4473 11.6464 24.3536C11.5527 24.2598 11.5 24.1326 11.5 24C11.5 23.8674 11.5527 23.7402 11.6464 23.6464C11.7402 23.5527 11.8674 23.5 12 23.5Z" fill="white"/>
</svg>
