<svg width="20" height="20" viewBox="0 0 20 20" fill="none" xmlns="http://www.w3.org/2000/svg">
<path d="M16.9832 6.32876L16.9837 6.34121C17.0203 8.2206 17.0658 10.5596 16.2603 12.6849C15.8187 13.8505 15.1504 14.8637 14.2741 15.6965C13.2766 16.6447 11.9702 17.3978 10.3914 17.9352C10.3397 17.9528 10.2859 17.967 10.2315 17.9777C10.1548 17.9926 10.0774 18 10.0002 18C9.92292 18 9.84565 17.9926 9.76889 17.9777C9.71445 17.967 9.66102 17.9529 9.60959 17.9354C8.0289 17.399 6.72116 16.6462 5.72273 15.698C4.84609 14.8654 4.17779 13.8524 3.73653 12.6871C2.93402 10.5681 2.97967 8.23354 3.01643 6.35769L3.01718 6.32876C3.02433 6.17397 3.02922 6.01138 3.03198 5.83169C3.0454 4.94937 3.76613 4.21963 4.67262 4.17044C6.56287 4.06765 8.02514 3.4678 9.27456 2.28262L9.28522 2.27274C9.69287 1.90909 10.3076 1.90909 10.7151 2.27274L10.7258 2.28262C11.9752 3.4678 13.4375 4.06765 15.3277 4.17031C16.2344 4.21963 16.955 4.94937 16.9684 5.83157C16.9713 6.01247 16.976 6.17507 16.9832 6.32876Z" stroke="#40D295" stroke-width="1.3"/>
<path d="M7.14474 9.29038C6.8909 9.03654 6.47934 9.03654 6.2255 9.29038C5.97166 9.54422 5.97166 9.95578 6.2255 10.2096L7.14474 9.29038ZM9.18512 12.25L8.7255 12.7096C8.97934 12.9635 9.3909 12.9635 9.64474 12.7096L9.18512 12.25ZM14.1447 8.20962C14.3986 7.95578 14.3986 7.54422 14.1447 7.29038C13.8909 7.03654 13.4793 7.03654 13.2255 7.29038L14.1447 8.20962ZM6.2255 10.2096L8.7255 12.7096L9.64474 11.7904L7.14474 9.29038L6.2255 10.2096ZM9.64474 12.7096L14.1447 8.20962L13.2255 7.29038L8.7255 11.7904L9.64474 12.7096Z" fill="#40D295"/>
</svg>
