<svg width="20" height="20" viewBox="0 0 20 20" fill="none" xmlns="http://www.w3.org/2000/svg">
<path d="M16.9832 6.32876L16.9837 6.34121C17.0203 8.2206 17.0658 10.5596 16.2603 12.6849C15.8187 13.8505 15.1504 14.8637 14.2741 15.6965C13.2766 16.6447 11.9702 17.3978 10.3914 17.9352C10.3397 17.9528 10.2859 17.967 10.2315 17.9777C10.1548 17.9926 10.0774 18 10.0002 18C9.92292 18 9.84565 17.9926 9.76889 17.9777C9.71445 17.967 9.66102 17.9529 9.60959 17.9354C8.0289 17.399 6.72116 16.6462 5.72273 15.698C4.84609 14.8654 4.17779 13.8524 3.73653 12.6871C2.93402 10.5681 2.97967 8.23354 3.01643 6.35769L3.01718 6.32876C3.02433 6.17397 3.02922 6.01138 3.03198 5.83169C3.0454 4.94937 3.76613 4.21963 4.67262 4.17044C6.56287 4.06765 8.02514 3.4678 9.27456 2.28262L9.28522 2.27274C9.69287 1.90909 10.3076 1.90909 10.7151 2.27274L10.7258 2.28262C11.9752 3.4678 13.4375 4.06765 15.3277 4.17031C16.2344 4.21963 16.955 4.94937 16.9684 5.83157C16.9713 6.01247 16.976 6.17507 16.9832 6.32876Z" stroke="#999BA6" stroke-width="1.3"/>
<path d="M9.27369 12.26C9.16997 12.26 9.07568 12.1937 9.06101 12.091C9.05235 12.039 9.04368 11.9783 9.03501 11.909C9.03501 11.8397 9.03501 11.7617 9.03501 11.675C9.03501 11.363 9.09568 11.0943 9.21701 10.869C9.33835 10.635 9.49001 10.4313 9.67201 10.258C9.85401 10.076 10.0533 9.91133 10.27 9.764C10.4867 9.61667 10.686 9.465 10.868 9.309C11.05 9.14433 11.2017 8.96667 11.323 8.776C11.4443 8.58533 11.505 8.36 11.505 8.1C11.505 7.736 11.3663 7.42833 11.089 7.177C10.8203 6.92567 10.439 6.8 9.94501 6.8C9.56368 6.8 9.25168 6.86933 9.00901 7.008C8.77501 7.138 8.58435 7.28533 8.43701 7.45C8.41612 7.4742 8.39585 7.49881 8.37621 7.52384C8.15304 7.80829 7.78176 7.99179 7.4448 7.86075C7.13186 7.73905 6.95868 7.39195 7.11568 7.09515C7.21276 6.91162 7.32821 6.73957 7.46201 6.579C7.57468 6.449 7.70468 6.319 7.85201 6.189C8.00801 6.059 8.18568 5.942 8.38501 5.838C8.59301 5.734 8.82268 5.65167 9.07401 5.591C9.33401 5.53033 9.62435 5.5 9.94501 5.5C10.3957 5.5 10.803 5.56933 11.167 5.708C11.5397 5.838 11.856 6.02 12.116 6.254C12.376 6.47933 12.5753 6.74367 12.714 7.047C12.8613 7.34167 12.935 7.64933 12.935 7.97C12.935 8.386 12.87 8.73267 12.74 9.01C12.6187 9.28733 12.4627 9.53433 12.272 9.751C12.09 9.959 11.8863 10.1453 11.661 10.31C11.4443 10.466 11.2407 10.635 11.05 10.817C10.868 10.9903 10.712 11.1853 10.582 11.402C10.4607 11.6187 10.4 11.707 10.4 12.019C10.4 12.1521 10.2921 12.26 10.1591 12.26H9.27369ZM8.90501 14.015C8.90501 13.7897 8.98735 13.5947 9.15201 13.43C9.32535 13.2567 9.52468 13.17 9.75001 13.17C9.97535 13.17 10.1703 13.2567 10.335 13.43C10.5083 13.5947 10.595 13.7897 10.595 14.015C10.595 14.2403 10.5083 14.4397 10.335 14.613C10.1703 14.7777 9.97535 14.86 9.75001 14.86C9.52468 14.86 9.32535 14.7777 9.15201 14.613C8.98735 14.4397 8.90501 14.2403 8.90501 14.015Z" fill="#999BA6"/>
</svg>
