<svg width="20" height="20" viewBox="0 0 20 20" fill="none" xmlns="http://www.w3.org/2000/svg">
<path fill-rule="evenodd" clip-rule="evenodd" d="M7.04036 8.15942C6.78652 7.90558 6.78652 7.49403 7.04036 7.24019C7.2942 6.98634 7.70575 6.98634 7.9596 7.24019L9.99998 9.28057L12.0404 7.24019C12.2942 6.98634 12.7058 6.98634 12.9596 7.24019C13.2134 7.49403 13.2134 7.90558 12.9596 8.15942L10.9192 10.1998L12.9596 12.2402C13.2134 12.494 13.2134 12.9056 12.9596 13.1594C12.7058 13.4133 12.2942 13.4133 12.0404 13.1594L9.99998 11.119L7.9596 13.1594C7.70575 13.4133 7.2942 13.4133 7.04036 13.1594C6.78652 12.9056 6.78652 12.494 7.04036 12.2402L9.08074 10.1998L7.04036 8.15942Z" fill="#F75D5D"/>
<path d="M16.9832 6.32876L16.9837 6.34121C17.0203 8.2206 17.0658 10.5596 16.2603 12.6849C15.8187 13.8505 15.1504 14.8637 14.2741 15.6965C13.2766 16.6447 11.9702 17.3978 10.3914 17.9352C10.3397 17.9528 10.2859 17.967 10.2315 17.9777C10.1548 17.9926 10.0774 18 10.0002 18C9.92292 18 9.84565 17.9926 9.76889 17.9777C9.71445 17.967 9.66102 17.9529 9.60959 17.9354C8.0289 17.399 6.72116 16.6462 5.72273 15.698C4.84609 14.8654 4.17779 13.8524 3.73653 12.6871C2.93402 10.5681 2.97967 8.23354 3.01643 6.35769L3.01718 6.32876C3.02433 6.17397 3.02922 6.01138 3.03198 5.83169C3.0454 4.94937 3.76613 4.21963 4.67262 4.17044C6.56287 4.06765 8.02514 3.4678 9.27456 2.28262L9.28522 2.27274C9.69287 1.90909 10.3076 1.90909 10.7151 2.27274L10.7258 2.28262C11.9752 3.4678 13.4375 4.06765 15.3277 4.17031C16.2344 4.21963 16.955 4.94937 16.9684 5.83157C16.9713 6.01247 16.976 6.17507 16.9832 6.32876Z" stroke="#F75D5D" stroke-width="1.3"/>
</svg>
