<svg width="20" height="20" viewBox="0 0 20 20" fill="none" xmlns="http://www.w3.org/2000/svg">
<path d="M6.5 3H13.5C14.0523 3 14.5 3.44771 14.5 4V4.35803C14.5 5.83292 13.8488 7.23256 12.7207 8.18259L11.4708 9.23509C10.9963 9.63466 10.9963 10.3653 11.4708 10.7649L12.7207 11.8174C13.8488 12.7674 14.5 14.1671 14.5 15.642V16C14.5 16.5523 14.0523 17 13.5 17H6.5C5.94772 17 5.5 16.5523 5.5 16V15.642C5.5 14.1671 6.15117 12.7674 7.27932 11.8174L8.52917 10.7649C9.00365 10.3653 9.00365 9.63466 8.52917 9.23509L7.27932 8.18259C6.15117 7.23257 5.5 5.83292 5.5 4.35804V4C5.5 3.44772 5.94772 3 6.5 3Z" stroke="#838690" stroke-width="1.3"/>
</svg>
