<svg xmlns="http://www.w3.org/2000/svg" xmlns:xlink="http://www.w3.org/1999/xlink" width="20" height="20" viewBox="0 0 20 20">
  <defs>
    <path id="pin_icon-a" d="M5.63718054,12.1040173 L2.5254701,8.98153972 C2.2979489,8.75697239 2.16987756,8.45061544 2.16987756,8.13093375 C2.16987756,7.81125206 2.2979489,7.50489511 2.5254701,7.28032778 C2.59470079,7.20766632 2.67457183,7.14594779 2.76234771,7.09728599 L2.977691,6.97884719 C3.64827916,6.59028945 4.49625782,6.70070334 5.04498652,7.24802629 L5.88482532,8.0555636 L12.0221089,3.54412182 L11.2684074,2.77965316 C11.1209356,2.63940756 11.0374514,2.44480604 11.0374514,2.24129496 C11.0374514,2.03778388 11.1209356,1.84318235 11.2684074,1.70293675 L12.3451238,0.626220334 C12.4868867,0.481534155 12.6809214,0.400000006 12.883482,0.400000006 C13.0860427,0.400000006 13.2800773,0.481534155 13.4218402,0.626220334 L19.3437805,6.54816062 C19.4884667,6.68992354 19.5700008,6.88395818 19.5700008,7.08651883 C19.5700008,7.28907948 19.4884667,7.48311411 19.3437805,7.62487703 L18.2670641,8.70159345 C17.9690314,8.99721193 17.4883804,8.99721193 17.1903477,8.70159345 L16.4366462,7.94789196 L11.9898074,14.1713128 L12.7112074,14.8927128 C13.2585303,15.4414415 13.3689442,16.2894202 12.9803865,16.9600084 L12.8511805,17.1753516 C12.5145173,17.7482898 11.7777998,17.9408956 11.2038044,17.6060382 C11.1142382,17.5509425 11.0311659,17.4859293 10.9561596,17.4122293 L7.85521636,14.3220531 L0.501243242,19.824074 C0.42415302,19.8914178 0.30915436,19.8914178 0.232064138,19.824074 C0.189311958,19.7547664 0.189311958,19.6672711 0.232064138,19.5979636 L5.63718054,12.1040173 Z"/>
  </defs>
  <g fill="none" fill-rule="evenodd">
    <path fill="#A8ADB8" fill-rule="nonzero" d="M5.63718054,12.1040173 L2.5254701,8.98153972 C2.2979489,8.75697239 2.16987756,8.45061544 2.16987756,8.13093375 C2.16987756,7.81125206 2.2979489,7.50489511 2.5254701,7.28032778 C2.59470079,7.20766632 2.67457183,7.14594779 2.76234771,7.09728599 L2.977691,6.97884719 C3.64827916,6.59028945 4.49625782,6.70070334 5.04498652,7.24802629 L5.88482532,8.0555636 L12.0221089,3.54412182 L11.2684074,2.77965316 C11.1209356,2.63940756 11.0374514,2.44480604 11.0374514,2.24129496 C11.0374514,2.03778388 11.1209356,1.84318235 11.2684074,1.70293675 L12.3451238,0.626220334 C12.4868867,0.481534155 12.6809214,0.400000006 12.883482,0.400000006 C13.0860427,0.400000006 13.2800773,0.481534155 13.4218402,0.626220334 L19.3437805,6.54816062 C19.4884667,6.68992354 19.5700008,6.88395818 19.5700008,7.08651883 C19.5700008,7.28907948 19.4884667,7.48311411 19.3437805,7.62487703 L18.2670641,8.70159345 C17.9690314,8.99721193 17.4883804,8.99721193 17.1903477,8.70159345 L16.4366462,7.94789196 L11.9898074,14.1713128 L12.7112074,14.8927128 C13.2585303,15.4414415 13.3689442,16.2894202 12.9803865,16.9600084 L12.8511805,17.1753516 C12.5145173,17.7482898 11.7777998,17.9408956 11.2038044,17.6060382 C11.1142382,17.5509425 11.0311659,17.4859293 10.9561596,17.4122293 L7.85521636,14.3220531 L0.501243242,19.824074 C0.42415302,19.8914178 0.30915436,19.8914178 0.232064138,19.824074 C0.189311958,19.7547664 0.189311958,19.6672711 0.232064138,19.5979636 L5.63718054,12.1040173 Z"/>
    <use fill="#A8ADB8" xlink:href="#pin_icon-a"/>
  </g>
</svg>
