<svg xmlns="http://www.w3.org/2000/svg" width="44" height="32" viewBox="0 0 44 32">
  <g fill="none" fill-rule="evenodd">
    <rect id="bg" width="44" height="32" fill="red" fill-rule="nonzero"/>
	<g id="icon" transform="translate(8 2)">
      <g stroke="#FFF" stroke-linecap="round" stroke-linejoin="round" stroke-width="2" transform="rotate(-45 23.9 5.94)">
        <path d="M14.7351768,5.15477272 L14.7351768,5.15477272 C14.7351768,7.860968 12.5168352,10.0547727 9.79930049,10.0547727 L5.67105305,10.0547727 C2.94504386,10.0547727 0.735176772,7.85546143 0.735176772,5.15477272 L0.735176772,5.15477272 L0.735176772,5.15477272 C0.735176772,2.44857745 2.95025952,0.254772721 5.67318442,0.254772721 L6.87075,0.254772721"/>
        <path d="M22.6547727,5.15477272 L22.6547727,5.15477272 C22.6547727,7.860968 20.4364311,10.0547727 17.7188964,10.0547727 L13.590649,10.0547727 C10.8646398,10.0547727 8.65477272,7.85546143 8.65477272,5.15477272 L8.65477272,5.15477272 L8.65477272,5.15477272 C8.65477272,2.44857745 10.8698555,0.254772721 13.5927804,0.254772721 L14.790346,0.254772721" transform="rotate(-180 15.655 5.155)"/>
      </g>
    </g>
  </g>
  
</svg>
