<svg xmlns="http://www.w3.org/2000/svg" width="44" height="32" viewBox="0 0 44 32">
  <g fill="none" fill-rule="evenodd" transform="translate(-500 -965)">
    <rect id="bg" width="44" height="32" x="500" y="965" fill="none"/>
    <path id="icon" fill="#FFF" d="M522.5,991 C517.253295,991 513,986.746705 513,981.5 C513,976.253295 517.253295,972 522.5,972 C527.746705,972 532,976.253295 532,981.5 C532,986.746705 527.746705,991 522.5,991 Z M519,981 C519.828427,981 520.5,980.328427 520.5,979.5 C520.5,978.671573 519.828427,978 519,978 C518.171573,978 517.5,978.671573 517.5,979.5 C517.5,980.328427 518.171573,981 519,981 Z M526,981 C526.828427,981 527.5,980.328427 527.5,979.5 C527.5,978.671573 526.828427,978 526,978 C525.171573,978 524.5,978.671573 524.5,979.5 C524.5,980.328427 525.171573,981 526,981 Z M517.249181,984.866272 C517.249181,984.866272 517.64025,988.5 522.497918,988.5 C527.355586,988.5 527.746655,984.866272 527.746655,984.866272 C528.009039,984.133253 527.522489,983.5 526.729668,983.5 L518.266168,983.5 C517.472509,983.5 517.018027,984.111701 517.249181,984.866272 Z"/>
  </g>
</svg>
