<svg xmlns="http://www.w3.org/2000/svg" width="44" height="32" viewBox="0 0 44 32">
  <g fill="none" fill-rule="evenodd" transform="translate(-450 -965)">
    <rect id="bg" width="44" height="32" x="450" y="965" fill="none"/>
    <path id="icon" fill="#FFF" fill-rule="nonzero" d="M481,972 L463,972 C462,972 461,973 461,974 L461,988 C461,989.1 461.9,990 463,990 L481,990 C482,990 483,989 483,988 L483,974 C483,973 482,972 481,972 Z M463.771429,985.971429 L467.002392,981.663477 C467.215416,981.379445 467.61836,981.321881 467.902392,981.534906 C467.94565,981.567349 467.984642,981.605121 468.018444,981.647326 L470.714286,985.013333 L474.690749,979.6996 C474.90347,979.415342 475.306352,979.357349 475.590611,979.57007 C475.642561,979.608947 475.688326,979.655464 475.726351,979.70804 L480.262623,985.980417 C480.470683,986.268105 480.406132,986.669988 480.118443,986.878048 C480.008827,986.957324 479.876996,987 479.741717,987 L464.285714,987 C463.930674,987 463.642857,986.712183 463.642857,986.357143 C463.642857,986.218048 463.687971,986.082705 463.771429,985.971429 Z"/>
  </g>
</svg>
