<svg width="424" height="424" viewBox="0 0 424 424" fill="none" xmlns="http://www.w3.org/2000/svg">
<g clip-path="url(#clip0)">
<rect width="424" height="424" rx="212" fill="black"/>
<path fill-rule="evenodd" clip-rule="evenodd" d="M224.414 161.717L243.033 124.27L242.953 124.275C246.583 116.839 248.374 108.384 247.773 99.5396C245.94 72.5525 222.538 52.1637 195.503 53.9998C168.468 55.8359 148.038 79.2017 149.871 106.189C150.492 115.33 153.587 123.713 158.46 130.733L181.008 163.902C185.333 171.953 194.098 177.164 203.822 176.503C213.247 175.863 221.033 169.88 224.414 161.717Z" fill="#43FF00"/>
<path fill-rule="evenodd" clip-rule="evenodd" d="M261.583 215.984L308.396 222.928L308.359 222.835C317.578 224.133 327.248 223.108 336.502 219.391C364.749 208.044 378.433 175.906 367.066 147.609C355.699 119.312 323.586 105.57 295.338 116.917C285.563 120.844 277.531 127.262 271.678 135.148L244.433 170.283C237.301 177.711 234.761 188.918 238.855 199.108C242.783 208.888 251.771 215.117 261.583 215.984Z" fill="#43FF00"/>
<path fill-rule="evenodd" clip-rule="evenodd" d="M222.877 265.289L227.889 307.566L227.953 307.518C229.007 315.854 232.189 324.033 237.616 331.214C254.195 353.149 285.448 357.467 307.422 340.859C329.396 324.25 333.77 293.005 317.191 271.07C311.465 263.494 303.989 258.02 295.749 254.783L258.486 239.276C250.344 234.897 240.044 235.365 232.175 241.313C224.531 247.09 221.236 256.482 222.877 265.289Z" fill="#43FF00"/>
<path fill-rule="evenodd" clip-rule="evenodd" d="M160.283 240.468L118.627 262.211L118.701 262.258C110.519 266.606 103.332 273.089 98.0548 281.496C81.9458 307.162 89.7297 341.05 115.441 357.188C141.152 373.325 175.054 365.601 191.163 339.936C196.662 331.174 199.377 321.455 199.544 311.81L200.944 267.088C202.301 256.962 197.789 246.496 188.558 240.702C179.638 235.103 168.705 235.369 160.283 240.468Z" fill="#43FF00"/>
<path fill-rule="evenodd" clip-rule="evenodd" d="M165.905 184.243L141.048 159.869L141.032 159.934C136.078 155.148 129.844 151.557 122.688 149.758C100.843 144.264 78.672 157.552 73.1691 179.437C67.6661 201.321 80.9145 223.515 102.76 229.009C109.917 230.808 117.108 230.592 123.736 228.719L123.735 228.722L156.623 219.163C164.048 217.762 170.359 212.184 172.325 204.364C174.245 196.731 171.506 189.021 165.905 184.243Z" fill="#43FF00"/>
</g>
<defs>
<clipPath id="clip0">
<path d="M0 0H424V424H0V0Z" fill="white"/>
</clipPath>
</defs>
</svg>
