<svg width="40" height="40" viewBox="0 0 40 40" fill="none" xmlns="http://www.w3.org/2000/svg">
<circle cx="20" cy="20" r="20" fill="black" fill-opacity="0.15"/>
<path d="M15 16.5V13.5C15 10.4624 17.4624 8 20.5 8C23.5376 8 26 10.4624 26 13.5V16.5H27C28.1046 16.5 29 17.3954 29 18.5V27.5C29 28.6046 28.1046 29.5 27 29.5H14C12.8954 29.5 12 28.6046 12 27.5V18.5C12 17.3954 12.8954 16.5 14 16.5H15ZM16.5 16.5H24.5V13.5C24.5 11.2909 22.7091 9.5 20.5 9.5C18.2909 9.5 16.5 11.2909 16.5 13.5V16.5ZM20.5 25C21.6046 25 22.5 24.1046 22.5 23C22.5 21.8954 21.6046 21 20.5 21C19.3954 21 18.5 21.8954 18.5 23C18.5 24.1046 19.3954 25 20.5 25Z" fill="white"/>
</svg>
