<svg width="32" height="32" viewBox="0 0 32 32" fill="none" xmlns="http://www.w3.org/2000/svg">
<path fill-rule="evenodd" clip-rule="evenodd" d="M13.1706 7.49232C13.1706 6.72394 13.7921 6.09375 14.5565 6.09375H17.4435C18.2107 6.09375 18.8295 6.72658 18.8295 7.49232V8.78849H23.0935C23.5133 8.78849 23.8597 9.12791 23.8597 9.552C23.8597 9.97656 23.5137 10.3155 23.0944 10.3155H8.90582C8.48894 10.3156 8.14868 9.982 8.14038 9.552C8.14038 9.12743 8.48634 8.78849 8.90569 8.78849H13.1706V7.49232ZM17.4638 8.958C17.4757 8.94744 17.4821 8.93343 17.4821 8.91694V7.49233C17.4821 7.46405 17.4597 7.44113 17.4435 7.44113H14.5566C14.5404 7.44113 14.5179 7.46396 14.5179 7.49233L14.5179 8.91594C14.5179 8.93233 14.525 8.94792 14.5372 8.95881L14.5477 8.96814H17.4523L17.4638 8.958ZM21.7488 12.0186C21.3767 12.0186 21.0751 12.3202 21.0751 12.6923V23.297C21.0751 23.7141 20.7295 24.0587 20.3161 24.0587H11.684C11.4824 24.0587 11.2891 23.9785 11.1467 23.8359C11.0044 23.6932 10.9246 23.4998 10.9249 23.2982L10.9249 12.6923C10.9249 12.3202 10.6233 12.0186 10.2513 12.0186C9.87919 12.0186 9.57757 12.3202 9.57757 12.6923L9.57757 23.297C9.57652 23.855 9.79798 24.3918 10.1931 24.7877C10.5883 25.1836 11.1246 25.406 11.684 25.406H20.3161C21.4727 25.406 22.4225 24.4591 22.4225 23.297V12.6923C22.4225 12.3202 22.1209 12.0186 21.7488 12.0186Z" fill="black"/>
</svg>
