<svg width="32" height="32" viewBox="0 0 32 32" fill="none" xmlns="http://www.w3.org/2000/svg">
<path d="M11.4767 10.8964L9.67106 16.7603C9.65959 16.7947 9.66532 16.8291 9.68825 16.8635C9.71118 16.8864 9.73984 16.8979 9.77423 16.8979H13.2135C13.2479 16.8979 13.2765 16.8864 13.2995 16.8635C13.3224 16.8291 13.3281 16.7947 13.3167 16.7603L11.5111 10.8964C11.5111 10.8849 11.5053 10.8792 11.4939 10.8792C11.4824 10.8792 11.4767 10.8849 11.4767 10.8964ZM7.17759 21.7129C6.93684 21.7129 6.74195 21.6154 6.59292 21.4205C6.45534 21.2256 6.42668 21.0135 6.50693 20.7843L10.1869 10.0881C10.2787 9.81301 10.4449 9.58945 10.6856 9.41749C10.9264 9.24553 11.1901 9.15955 11.4767 9.15955H11.5798C11.8779 9.15955 12.1416 9.24553 12.3709 9.41749C12.6116 9.58945 12.7779 9.81301 12.8696 10.0881L16.5496 20.7843C16.6298 21.0135 16.5954 21.2256 16.4464 21.4205C16.3088 21.6154 16.1197 21.7129 15.8789 21.7129H15.8101C15.5235 21.7129 15.2599 21.6269 15.0191 21.4549C14.7898 21.2829 14.6293 21.0594 14.5376 20.7843L13.8498 18.5143C13.8383 18.4226 13.7752 18.3768 13.6606 18.3768H9.32713C9.22395 18.3768 9.1609 18.4226 9.13797 18.5143L8.45012 20.7843C8.36987 21.0594 8.20937 21.2829 7.96862 21.4549C7.73934 21.6269 7.47566 21.7129 7.17759 21.7129Z" fill="white"/>
<path d="M22.2043 17.2074C21.2643 17.2074 20.5535 17.3679 20.072 17.6889C19.602 17.9985 19.367 18.4226 19.367 18.9614C19.367 19.3856 19.4931 19.7353 19.7453 20.0104C19.9975 20.2856 20.3013 20.4231 20.6567 20.4231C21.4133 20.4231 22.0152 20.1881 22.4623 19.7181C22.9209 19.2366 23.1501 18.5831 23.1501 17.7577V17.345C23.1501 17.2533 23.0986 17.2074 22.9954 17.2074H22.2043ZM20.2268 21.8848C19.4472 21.8848 18.8052 21.6326 18.3008 21.1282C17.8078 20.6238 17.5613 19.9588 17.5613 19.1334C17.5613 18.1246 17.9454 17.345 18.7135 16.7947C19.4816 16.233 20.6452 15.9521 22.2043 15.9521H22.9954C23.0986 15.9521 23.1501 15.9005 23.1501 15.7973V15.6082C23.1501 15.0006 23.0068 14.5764 22.7202 14.3356C22.4336 14.0949 21.9177 13.9745 21.1726 13.9745C20.5076 13.9745 19.7166 14.1121 18.7995 14.3872C18.6275 14.4445 18.4613 14.4216 18.3008 14.3184C18.1517 14.2038 18.0772 14.0548 18.0772 13.8713C18.0772 13.6421 18.146 13.4357 18.2836 13.2523C18.4212 13.0688 18.5989 12.9542 18.8167 12.9083C19.6421 12.702 20.4274 12.5988 21.1726 12.5988C22.6171 12.5988 23.6087 12.8568 24.1475 13.3726C24.6863 13.8885 24.9558 14.8343 24.9558 16.21V20.8702C24.9558 21.0995 24.8698 21.3001 24.6978 21.4721C24.5373 21.6326 24.3424 21.7129 24.1131 21.7129C23.8839 21.7129 23.6832 21.6326 23.5113 21.4721C23.3508 21.3001 23.2648 21.0995 23.2533 20.8702L23.2361 20.4403C23.2361 20.4289 23.2304 20.4231 23.2189 20.4231C23.196 20.4231 23.1845 20.4289 23.1845 20.4403C22.5196 21.4033 21.5337 21.8848 20.2268 21.8848Z" fill="white"/>
</svg>
