<?xml version="1.0" encoding="UTF-8"?>
<svg width="20px" height="20px" viewBox="0 0 20 20" version="1.1" xmlns="http://www.w3.org/2000/svg" xmlns:xlink="http://www.w3.org/1999/xlink">
    <!-- Generator: sketchtool 53.2 (72643) - https://sketchapp.com -->
    <title>19100829-D0A6-4360-9350-AA1C739D3FA7</title>
    <desc>Created with sketchtool.</desc>
    <defs>
        <path d="M2.7912573,7.09332906 L5.19233889,14.8970083 C5.36662832,15.4634608 5.8899834,15.85 6.4826429,15.85 L14.2139875,15.85 C14.8479103,15.85 15.3964463,15.4089276 15.5325196,14.7897812 L17.2592877,6.93282108 L13.9930515,9.47495173 C13.9377212,9.51579521 13.9377212,9.51579521 13.8785261,9.55080353 C13.4443822,9.79284494 12.8962257,9.63711513 12.6541843,9.20297126 L9.92947684,4.31572889 L7.18968501,9.20506725 C7.15506858,9.26335911 7.15506858,9.26335911 7.11478548,9.317889 C6.8094934,9.71014107 6.24402214,9.78063608 5.85177007,9.475344 L2.7912573,7.09332906 Z M16.788623,5.65180055 C17.289834,5.26170512 18.0123806,5.35178207 18.402476,5.85299305 C18.6125084,6.12285153 18.6915501,6.47218407 18.6181473,6.80617395 L16.8022171,15.0688297 C16.5351103,16.2841911 15.4583545,17.15 14.2139875,17.15 L6.4826429,17.15 C5.31927425,17.15 4.29194761,16.3912379 3.94982392,15.2793125 L1.40885293,7.02098322 C1.22207452,6.41394062 1.56276596,5.77042154 2.16980856,5.58364313 C2.52839597,5.47331086 2.91825965,5.54483413 3.21433105,5.77526822 L6.28305189,8.16367155 L8.92658248,3.44611769 C9.23705992,2.89205032 9.93791197,2.69458166 10.4919793,3.0050591 C10.677563,3.10905286 10.8306637,3.26248587 10.9342547,3.44829465 L13.5625761,8.16265164 L16.788623,5.65180055 Z" id="path-1"></path>
    </defs>
    <g id="Page-1" stroke="none" stroke-width="1" fill="none" fill-rule="evenodd">
        <g id="admins_in_goupchat_profile" transform="translate(-80.000000, -316.000000)">
            <g id="Group" transform="translate(80.000000, 316.000000)">
                <mask id="mask-2" fill="white">
                    <use xlink:href="#path-1"></use>
                </mask>
                <use id="Rectangle" fill="#B7BCC9" fill-rule="nonzero" xlink:href="#path-1"></use>
            </g>
        </g>
    </g>
</svg>