<svg xmlns="http://www.w3.org/2000/svg" xmlns:xlink="http://www.w3.org/1999/xlink" width="20" height="20" viewBox="0 0 20 20">
  <defs>
    <path id="copy-a" d="M6.1909668,12.3 C6.57756612,12.3 6.8909668,12.6134006 6.8909668,13 C6.8909668,13.3865993 6.57756612,13.7 6.1909668,13.7 L4.90000005,13.7 C3.850659,13.7 3,12.849341 3,11.7999999 L3,3.2 C3,2.15065895 3.850659,1.29999995 4.90000005,1.29999995 L10.5,1.29999995 C11.549341,1.29999995 12.4,2.15065895 12.4,3.2 L12.4,4.07446284 C12.4,4.46106217 12.0865993,4.77446284 11.7,4.77446284 C11.3134007,4.77446284 11,4.46106217 11,4.07446284 L11,3.2 C11,2.9238576 10.7761424,2.69999995 10.5,2.69999995 L4.90000005,2.69999995 C4.62385765,2.69999995 4.4,2.9238576 4.4,3.2 L4.4,11.7999999 C4.4,12.0761423 4.62385765,12.3 4.90000005,12.3 L6.1909668,12.3 Z M9.99999995,7.69999995 C9.66862913,7.69999995 9.4,7.96862908 9.4,8.2999999 L9.4,16.7 C9.4,17.0313708 9.66862913,17.3 9.99999995,17.3 L15.4,17.3 C15.7313709,17.3 16,17.0313708 16,16.7 L16,8.2999999 C16,7.96862908 15.7313709,7.69999995 15.4,7.69999995 L9.99999995,7.69999995 Z M9.99999995,6.29999995 L15.4,6.29999995 C16.5045695,6.29999995 17.4,7.19543043 17.4,8.2999999 L17.4,16.7 C17.4,17.8045695 16.5045695,18.7 15.4,18.7 L9.99999995,18.7 C8.89543048,18.7 8,17.8045695 8,16.7 L8,8.2999999 C8,7.19543043 8.89543048,6.29999995 9.99999995,6.29999995 Z"/>
  </defs>
  <g fill="none" fill-rule="evenodd">
    <use fill="#979797" fill-rule="nonzero" xlink:href="#copy-a"/>
  </g>
</svg>
