<svg xmlns="http://www.w3.org/2000/svg" xmlns:xlink="http://www.w3.org/1999/xlink" width="20" height="20" viewBox="0 0 20 20">
  <defs>
    <path id="eye-a" d="M10,5.2 C7.45775146,5.2 4.8528178,6.77741061 2.19172626,10 C4.8528179,13.2225895 7.45775148,14.8 10,14.8 C12.5422485,14.8 15.1471822,13.2225894 17.8082737,10 C15.1471821,6.77741052 12.5422485,5.2 10,5.2 Z M10,3.8 C13.0979722,3.8 16.1300065,5.68191522 19.103033,9.37249615 C19.3981903,9.73870081 19.398218,10.2610734 19.1031733,10.6273297 C16.130026,14.3180727 13.0979822,16.2 10,16.2 C6.90202781,16.2 3.86999352,14.3180848 0.896966966,10.6275038 C0.601809735,10.2612992 0.601782002,9.73892661 0.89682666,9.37267029 C3.86997398,5.68192732 6.90201779,3.8 10,3.8 Z M10,12.95 C8.37075999,12.95 7.05,11.62924 7.05,10 C7.05,8.37075999 8.37075999,7.05 10,7.05 C11.62924,7.05 12.95,8.37075999 12.95,10 C12.95,11.62924 11.62924,12.95 10,12.95 Z M10,11.55 C10.8560414,11.55 11.55,10.8560414 11.55,10 C11.55,9.14395864 10.8560414,8.45 10,8.45 C9.14395864,8.45 8.45,9.14395864 8.45,10 C8.45,10.8560414 9.14395864,11.55 10,11.55 Z"/>
  </defs>
  <g fill="none" fill-rule="evenodd">
    <use fill="#454545" fill-rule="nonzero" xlink:href="#eye-a"/>
  </g>
</svg>
