<svg xmlns="http://www.w3.org/2000/svg" xmlns:xlink="http://www.w3.org/1999/xlink" width="20" height="20" viewBox="0 0 20 20">
  <defs>
    <path id="grid_icon-a" d="M12.3,12.3 L12.3,16.7 L16.7,16.7 L16.7,12.3 L12.3,12.3 Z M12,11 L17,11 C17.5522847,11 18,11.4477153 18,12 L18,17 C18,17.5522847 17.5522847,18 17,18 L12,18 C11.4477153,18 11,17.5522847 11,17 L11,12 C11,11.4477153 11.4477153,11 12,11 Z M3.3,3.3 L3.3,7.7 L7.7,7.7 L7.7,3.3 L3.3,3.3 Z M3,2 L8,2 C8.55228475,2 9,2.44771525 9,3 L9,8 C9,8.55228475 8.55228475,9 8,9 L3,9 C2.44771525,9 2,8.55228475 2,8 L2,3 C2,2.44771525 2.44771525,2 3,2 Z M12.3,3.3 L12.3,7.7 L16.7,7.7 L16.7,3.3 L12.3,3.3 Z M12,2 L17,2 C17.5522847,2 18,2.44771525 18,3 L18,8 C18,8.55228475 17.5522847,9 17,9 L12,9 C11.4477153,9 11,8.55228475 11,8 L11,3 C11,2.44771525 11.4477153,2 12,2 Z M3.3,12.3 L3.3,16.7 L7.7,16.7 L7.7,12.3 L3.3,12.3 Z M3,11 L8,11 C8.55228475,11 9,11.4477153 9,12 L9,17 C9,17.5522847 8.55228475,18 8,18 L3,18 C2.44771525,18 2,17.5522847 2,17 L2,12 C2,11.4477153 2.44771525,11 3,11 Z"/>
  </defs>
  <g fill="none" fill-rule="evenodd">
    <use fill="#979797" fill-rule="nonzero" xlink:href="#grid_icon-a"/>
  </g>
</svg>
