<svg xmlns="http://www.w3.org/2000/svg" xmlns:xlink="http://www.w3.org/1999/xlink" width="20" height="20" viewBox="0 0 20 20">
  <defs>
    <path id="list-a" d="M6.94999999,4.20000005 L17.55,4.20000005 C17.9365993,4.20000005 18.25,4.51340072 18.25,4.90000004 C18.25,5.28659935 17.9365993,5.60000002 17.55,5.60000002 L6.94999999,5.60000002 C6.56340067,5.60000002 6.25,5.28659935 6.25,4.90000004 C6.25,4.51340072 6.56340067,4.20000005 6.94999999,4.20000005 Z M6.94999999,9.19999981 L17.55,9.19999981 C17.9365993,9.19999981 18.25,9.51340048 18.25,9.8999998 C18.25,10.2865991 17.9365993,10.5999998 17.55,10.5999998 L6.94999999,10.5999998 C6.56340067,10.5999998 6.25,10.2865991 6.25,9.8999998 C6.25,9.51340048 6.56340067,9.19999981 6.94999999,9.19999981 Z M6.94999999,14.1999998 L17.55,14.1999998 C17.9365993,14.1999998 18.25,14.5134005 18.25,14.8999998 C18.25,15.2865991 17.9365993,15.5999998 17.55,15.5999998 L6.94999999,15.5999998 C6.56340067,15.5999998 6.25,15.2865991 6.25,14.8999998 C6.25,14.5134005 6.56340067,14.1999998 6.94999999,14.1999998 Z M2.75,3.5 L3.54999995,3.5 C4.1022847,3.5 4.54999995,3.94771525 4.54999995,4.5 L4.54999995,5.29999995 C4.54999995,5.8522847 4.1022847,6.29999995 3.54999995,6.29999995 L2.75,6.29999995 C2.19771525,6.29999995 1.75,5.8522847 1.75,5.29999995 L1.75,4.5 C1.75,3.94771525 2.19771525,3.5 2.75,3.5 Z M2.75,8.5 L3.75,8.5 C4.30228475,8.5 4.75,8.94771525 4.75,9.5 L4.75,10.5 C4.75,11.0522847 4.30228475,11.5 3.75,11.5 L2.75,11.5 C2.19771525,11.5 1.75,11.0522847 1.75,10.5 L1.75,9.5 C1.75,8.94771525 2.19771525,8.5 2.75,8.5 Z M2.75,13.5 L3.75,13.5 C4.30228475,13.5 4.75,13.9477153 4.75,14.5 L4.75,15.5 C4.75,16.0522847 4.30228475,16.5 3.75,16.5 L2.75,16.5 C2.19771525,16.5 1.75,16.0522847 1.75,15.5 L1.75,14.5 C1.75,13.9477153 2.19771525,13.5 2.75,13.5 Z"/>
  </defs>
  <g fill="none" fill-rule="evenodd">
    <use fill="#979797" fill-rule="nonzero" xlink:href="#list-a"/>
  </g>
</svg>
