<svg width="16" height="16" viewBox="0 0 16 16" fill="none" xmlns="http://www.w3.org/2000/svg">
<g clip-path="url(#clip0)">
<path fill-rule="evenodd" clip-rule="evenodd" d="M8.0778 14.4632C12.3057 14.4632 14.8327 12.2544 14.8327 8.02648C14.8327 3.79859 12.1311 1.05176 7.90324 1.05176C3.67535 1.05176 1.40896 3.79859 1.40896 8.02648C1.40896 9.44181 1.40843 10.6281 1.40848 12.019V14.0249C1.39891 14.3927 1.63751 14.6992 2.00072 14.6407L5.14423 14.4632C6.1967 14.4632 6.98535 14.4632 8.0778 14.4632Z" fill="#0A0542"/>
<path fill-rule="evenodd" clip-rule="evenodd" d="M1.25707 12.0337C0.549492 10.8543 0.142578 9.47431 0.142578 8C0.142578 3.66336 3.66336 0.142578 8 0.142578C12.3366 0.142578 15.8574 3.66336 15.8574 8C15.8574 12.3366 12.3366 15.8574 8 15.8574C6.82828 15.8574 5.71607 15.6004 4.71681 15.1397H1.87507C1.83502 15.1467 1.79391 15.1504 1.75203 15.1504C1.73465 15.1504 1.71741 15.1497 1.70028 15.1485L1.69901 15.1484L1.69729 15.1483C1.32059 15.1192 1.0293 14.7975 1.04238 14.4163L1.25707 12.0337ZM5.10571 13.5357C5.96024 13.9551 6.98452 14.0353 8 14.0353C11.5532 14.0353 14.0287 11.5532 14.0287 8C14.0287 4.44677 11.5532 1.94612 8 1.94612C4.44677 1.94612 1.99318 4.44677 1.99318 8C1.99318 9.26423 2.02125 10.3626 2.65182 11.3577C2.73561 11.4789 2.78256 11.6269 2.77713 11.7852L2.70754 13.7077L4.6519 13.4557C4.81412 13.4301 4.97223 13.4617 5.10571 13.5357Z" fill="url(#paint0_linear)"/>
<path fill-rule="evenodd" clip-rule="evenodd" d="M8.62251 5.00073C9.3748 5.00073 9.98548 5.61154 9.98548 6.36383V6.78636L11.1224 5.65845C11.2781 5.51963 11.5008 5.48522 11.6911 5.57056C11.8814 5.65591 12.0039 5.84501 12.0039 6.05361C12.0039 7.22602 12.0039 8.82276 12.0039 9.99517C12.0039 10.2038 11.8814 10.3929 11.6911 10.4782C11.5008 10.5636 11.2781 10.5291 11.1224 10.3903L9.98548 9.21614V9.63867C9.98548 10.391 9.37474 11.0018 8.62251 11.0018H5.42059C4.6683 11.0018 4.05762 10.391 4.05762 9.63867V6.36383C4.05762 5.61154 4.6683 5.00073 5.42059 5.00073H8.62251Z" fill="url(#paint1_linear)"/>
</g>
<defs>
<linearGradient id="paint0_linear" x1="1.34136" y1="15.3439" x2="12.5033" y2="1.56198" gradientUnits="userSpaceOnUse">
<stop stop-color="#FF952E"/>
<stop offset="0.43" stop-color="#F04886"/>
<stop offset="1" stop-color="#7747FF"/>
</linearGradient>
<linearGradient id="paint1_linear" x1="3.50491" y1="12.5098" x2="10.49" y2="5.00073" gradientUnits="userSpaceOnUse">
<stop stop-color="#00FF58"/>
<stop offset="1" stop-color="#00D8FF"/>
</linearGradient>
<clipPath id="clip0">
<rect width="16" height="16" fill="white"/>
</clipPath>
</defs>
</svg>
