<svg xmlns="http://www.w3.org/2000/svg" xmlns:xlink="http://www.w3.org/1999/xlink" width="78" height="80" viewBox="0 0 78 80">
  <defs>
    <linearGradient id="icq_icon-b" x1="53.589%" x2="53.589%" y1="-8.034%" y2="110.067%">
      <stop offset="0%" stop-color="#59CF32"/>
      <stop offset="100%" stop-color="#19A260"/>
    </linearGradient>
    <path id="icq_icon-a" d="M77.1103097,51.7701597 C77.1057745,53.3707033 76.6924434,55.0410543 75.8403416,56.680043 C73.0642302,62.0219979 65.0096154,64.3593555 57.7438551,58.0515575 C50.3316129,51.617014 47.1186332,48.1788185 44.4452739,45.4366488 C43.2174033,44.1761547 45.5835371,41.593899 49.3049508,41.5942427 C49.3753137,41.5942427 49.4467934,41.595188 49.5181013,41.5969925 C51.4909248,41.6490655 53.3262013,41.6459721 55.2100188,41.6428786 C58.3003145,41.6378947 61.52137,41.6328249 65.6956319,41.8709345 C72.9722032,42.2871007 77.0959285,46.6452049 77.1103097,51.7169015 L77.1103097,51.7701602 L77.1103097,51.7701597 Z M28.0494946,79.9725886 C27.2474073,79.9689952 26.4324015,79.8683995 25.6174089,79.6661654 C18.500536,77.8998067 15.6898016,70.0838668 19.4942074,63.3992696 C22.0721171,58.8701182 33.2040548,46.2247905 34.7462816,44.4765628 C34.8126065,44.4012889 34.8900143,44.3664876 34.9757556,44.3664876 C35.7464824,44.3665736 37.1886204,47.18058 37.3077819,48.7029001 C37.4739379,50.8354028 38.3450972,60.4168421 38.5507733,66.9986681 C38.8032852,75.0753062 33.8062452,79.9471812 28.1386331,79.9725886 L28.0494946,79.9725886 Z M38.825008,8.41400644 C37.7285845,12.664232 38.7904709,24.2515145 39.3737352,32.4096241 C39.4370532,33.3022556 42.7939374,35.6832653 45.1317199,33.5071106 C50.2481053,28.7436305 58.018949,21.2024919 60.3148059,16.298174 C63.1410905,10.25942 60.3953065,3.19132116 54.62916,0.872953813 C53.2132256,0.303415682 51.7047626,0.0291299678 50.199908,0.0291299678 C45.1804327,0.0290440387 40.2008211,3.0813319 38.825008,8.41400644 Z M21.5169464,3.85486574 C16.1702279,6.44485499 14.8944178,13.2051557 18.9463393,18.8350591 C22.3271073,23.5336627 30.8481446,31.504189 31.9701702,32.5129108 C34.0044216,34.3409667 38.622253,36.564812 38.0711202,30.4906552 C37.8712862,28.2889796 36.3232173,14.59884 35.4660619,10.5394629 C34.491635,5.92223416 30.8488319,2.68700322 26.3198347,2.68665951 C24.796337,2.68648765 23.1732659,3.05245972 21.5169464,3.85486574 Z M0.643403521,26.9593126 C0.24717211,28.1025134 0.0425270053,29.2846402 0.0418397002,30.4494092 L0.0418397002,30.464189 C0.0460494441,35.3678195 3.66591377,39.9517938 11.8172668,39.9517938 C15.9301007,39.9517938 23.0585718,39.368507 30.0503552,38.5802793 C31.9686238,38.3639098 33.6903232,35.7172073 31.4899158,33.6439957 C28.5377684,30.8615252 24.8064747,27.7820838 18.6306085,23.1607304 C15.9076774,21.1232653 12.8916965,20.092116 10.0871479,20.0919441 C5.93178698,20.0916004 2.23958379,22.3541998 0.643403521,26.9593126 Z M59.6632406,23.2225994 C56.4634056,25.193899 47.5171842,32.7267884 45.2682359,34.7408808 C44.3280025,35.6359184 45.3035462,40.8635875 46.6394956,40.7738776 C50.7524154,40.4999356 58.5667312,39.9511923 66.3812187,38.7169925 C79.7080653,36.6125027 77.0220769,20.8700322 66.9238461,20.8693448 C64.8036816,20.8692589 62.3573908,21.5629646 59.6632406,23.2225994 Z M38.4137418,49.1385607 C38.5437284,50.6259936 39.3728761,57.6405585 41.0180269,66.0043824 C42.8153298,75.1399356 48.9698036,77.3859506 54.4538972,74.7804082 C60.7120682,71.8070892 59.5201093,64.4264662 55.5504067,59.559957 C51.3001976,54.3496455 46.1936064,48.9673899 43.8287612,46.396391 C43.7254077,46.2839098 43.536227,46.2334694 43.288883,46.2333835 C41.8243217,46.2332975 38.3137389,48.0018045 38.4137418,49.1385607 Z"/>
    <linearGradient id="icq_icon-d" x1="16.117%" x2="182.175%" y1="358.655%" y2="0%">
      <stop offset="0%" stop-color="#D32C3E"/>
      <stop offset="100%" stop-color="#DF5549"/>
    </linearGradient>
    <path id="icq_icon-c" d="M5.90738764,3.71505908 C-7.35657052,9.37134264 4.54437565,26.71029 14.1331414,18.6614823 C21.810168,12.2162836 27.9383524,5.01413534 29.3506785,3.02977444 C29.3506785,3.02977444 29.4033433,0.0128034372 26.060377,0.0128034372 C22.6006548,0.35179377 10.6322668,1.70019334 5.90738764,3.71505908 Z"/>
    <path id="icq_icon-e" d="M0.00424159256,11.4954035 C0.00424338983,8.51537687 1.6742278,5.52024816 5.90738764,3.71505908 C10.6322668,1.70019334 22.6006548,0.35179377 26.060377,0.0128034372 C29.3012232,0.0128034372 29.3507274,2.84826636 29.3507277,3.02150044 L29.3507277,3.02150189 C29.3507277,3.02150044 29.3507277,3.02150044 29.3507277,3.02150044 L0.00424159256,11.4954035 Z M0.00424159256,11.4954106 C0.00424290177,16.1444989 4.06874359,20.7568286 8.80627217,20.7568318 L0.00424159256,20.7568318 L0.00424159256,11.4954106 Z"/>
    <linearGradient id="icq_icon-f" x1="22.048%" x2="77.443%" y1="84.553%" y2="0%">
      <stop offset="0%" stop-color="#D32C3E"/>
      <stop offset="100%" stop-color="#DF5549"/>
    </linearGradient>
    <linearGradient id="icq_icon-h" x1="50%" x2="50%" y1="0%" y2="100%">
      <stop offset="0%" stop-color="#F5FD38"/>
      <stop offset="100%" stop-color="#FFD900"/>
    </linearGradient>
  </defs>
  <g fill="none" fill-rule="evenodd">
    <use fill="url(#icq_icon-b)" xlink:href="#icq_icon-a"/>
    <g transform="translate(5.498 39.527)">
      <use fill="url(#icq_icon-d)" xlink:href="#icq_icon-c"/>
    </g>
    <g transform="translate(5.498 39.527)">
      <mask id="icq_icon-g" fill="#fff">
        <use xlink:href="#icq_icon-e"/>
      </mask>
      <path fill="url(#icq_icon-f)" fill-rule="nonzero" d="M5.90738764,3.71505908 C-7.35657052,9.37134264 4.54437565,26.71029 14.1331414,18.6614823 C21.810168,12.2162836 27.9383524,5.01413534 29.3506785,3.02977444 C29.3506785,3.02977444 29.4033433,0.0128034372 26.060377,0.0128034372 C22.6006548,0.35179377 10.6322668,1.70019334 5.90738764,3.71505908" mask="url(#icq_icon-g)"/>
    </g>
    <path fill="url(#icq_icon-h)" fill-rule="nonzero" d="M28.6051243,44.0487218 C31.0473772,49.527218 37.4749689,51.9938131 42.9648187,49.5568636 C48.4538093,47.1207734 50.9240699,40.7043609 48.4843085,35.2250054 C46.6812494,31.1804082 42.7048455,28.7773147 38.5385736,28.7773147 C37.0612112,28.7773147 35.5600509,29.0791837 34.1253873,29.7160043 C28.6339052,32.1520945 26.1645897,38.5701396 28.6051243,44.0487218 Z"/>
  </g>
</svg>
