<?xml version="1.0" encoding="UTF-8"?>
<svg width="52px" height="52px" viewBox="0 0 52 52" version="1.1" xmlns="http://www.w3.org/2000/svg" xmlns:xlink="http://www.w3.org/1999/xlink">
    <!-- Generator: Sketch 54.1 (76490) - https://sketchapp.com -->
    <title>logo_dit</title>
    <desc>Created with Sketch.</desc>
    <g id="Page-1" stroke="none" stroke-width="1" fill="none" fill-rule="evenodd">
        <g id="Artboard" transform="translate(-31.000000, -1038.000000)">
            <g id="logo_dit" transform="translate(31.000000, 1038.000000)">
                <rect id="Rectangle" fill="#2E72BF" x="0" y="0" width="52" height="52" rx="8"></rect>
                <path d="M41.1666667,39 C41.1666667,40.1916667 40.196,41.1666667 39,41.1666667 C38.4063333,41.1666667 37.869,40.9283333 37.4768333,40.5383333 L37.4746667,40.5383333 L37.4681667,40.5383333 L37.4616667,40.5166667 L33.7696667,36.8333333 L15.1666667,36.8333333 C12.7746667,36.8333333 10.8333333,34.8833333 10.8333333,32.5 L10.8333333,15.1666667 C10.8333333,12.7833333 12.7746667,10.8333333 15.1666667,10.8333333 L36.8333333,10.8333333 C39.2253333,10.8333333 41.1666667,12.7833333 41.1666667,15.1666667 L41.1666667,39 Z M32.5,21.6666667 C31.304,21.6666667 30.3333333,22.6416667 30.3333333,23.8333333 C30.3333333,25.025 31.304,26 32.5,26 C33.696,26 34.6666667,25.025 34.6666667,23.8333333 C34.6666667,22.6416667 33.696,21.6666667 32.5,21.6666667 Z M26,21.6666667 C24.804,21.6666667 23.8333333,22.6416667 23.8333333,23.8333333 C23.8333333,25.025 24.804,26 26,26 C27.196,26 28.1666667,25.025 28.1666667,23.8333333 C28.1666667,22.6416667 27.196,21.6666667 26,21.6666667 Z M19.5,21.6666667 C18.304,21.6666667 17.3333333,22.6416667 17.3333333,23.8333333 C17.3333333,25.025 18.304,26 19.5,26 C20.696,26 21.6666667,25.025 21.6666667,23.8333333 C21.6666667,22.6416667 20.696,21.6666667 19.5,21.6666667 Z" id="Shape" fill="#FFFFFF" fill-rule="nonzero"></path>
            </g>
        </g>
    </g>
</svg>