<svg xmlns="http://www.w3.org/2000/svg" xmlns:xlink="http://www.w3.org/1999/xlink" width="20" height="20" viewBox="0 0 20 20">
  <defs>
    <path id="users-a" d="M9.78961036,5.75110121 L9.78961036,6.22943537 C9.78961036,7.51930086 10.8154876,8.56229202 12.0725296,8.56229202 C13.3295553,8.56229202 14.3553871,7.51931725 14.3553871,6.22943537 L14.3553871,5.75110121 C14.3553871,4.46116408 13.3295625,3.41818182 12.0725296,3.41818182 C10.8154803,3.41818182 9.78961036,4.46118047 9.78961036,5.75110121 Z M8.37142854,5.75110121 C8.37142854,3.68314859 10.0269355,2 12.0725296,2 C14.1181165,2 15.7735689,3.68314107 15.7735689,5.75110121 L15.7735689,6.22943537 C15.7735689,8.29734469 14.1181046,9.98047385 12.0725296,9.98047385 C10.0269474,9.98047385 8.37142854,8.29733718 8.37142854,6.22943537 L8.37142854,5.75110121 Z M2.20519476,14.5345559 L6.26391723,14.5345559 L6.26391723,15.9527377 L2.13260797,15.9527377 C1.38657875,15.9527377 0.787012936,15.3413677 0.787012936,14.5946112 L0.787012936,14.2790931 C0.787012936,11.8583777 2.71939763,9.88794811 5.1070652,9.88794811 C6.22019591,9.88794811 7.26865476,10.3193014 8.06370679,11.0784244 L7.0843451,12.104139 C6.5498351,11.5937839 5.85065567,11.3061299 5.1070652,11.3061299 C3.50889335,11.3061299 2.20519476,12.6354958 2.20519476,14.2790931 L2.20519476,14.5345559 Z M4.09217985,7.75017144 L4.09217985,8.14101847 C4.09217985,8.65958238 4.53828184,9.09090911 5.0988995,9.09090911 C5.65951716,9.09090911 6.10561914,8.65958238 6.10561914,8.14101847 L6.10561914,7.75017144 C6.10561914,7.23160753 5.65951716,6.8002808 5.0988995,6.8002808 C4.53828184,6.8002808 4.09217985,7.23160753 4.09217985,7.75017144 Z M2.67399803,7.75017144 C2.67399803,6.43747962 3.76553111,5.38209898 5.0988995,5.38209898 C6.43226788,5.38209898 7.52380097,6.43747962 7.52380097,7.75017144 L7.52380097,8.14101847 C7.52380097,9.45371029 6.43226788,10.5090909 5.0988995,10.5090909 C3.76553111,10.5090909 2.67399803,9.45371029 2.67399803,8.14101847 L2.67399803,7.75017144 Z M7.25714282,15.4189507 L7.25714282,15.9004982 C7.25714282,16.0568143 7.38109025,16.1818182 7.53009251,16.1818182 L16.7089369,16.1818182 C16.8579107,16.1818182 16.9818182,16.0568426 16.9818182,15.9004982 L16.9818182,15.4189507 C16.9818182,12.7080487 14.8014632,10.5090909 12.1195147,10.5090909 C9.43750705,10.5090909 7.25714282,12.7080393 7.25714282,15.4189507 Z M5.838961,15.4189507 C5.838961,11.9274809 8.65155981,9.09090911 12.1195147,9.09090911 C15.5874131,9.09090911 18.4,11.9274929 18.4,15.4189507 L18.4,15.9004982 C18.4,16.8373708 17.6438888,17.6 16.7089369,17.6 L7.53009251,17.6 C6.59514301,17.6 5.838961,16.8373728 5.838961,15.9004982 L5.838961,15.4189507 Z"/>
  </defs>
  <g fill="none" fill-rule="evenodd">
    <use fill="#A8ADB8" fill-rule="nonzero" transform="matrix(-1 0 0 1 19.187 0)" xlink:href="#users-a"/>
  </g>
</svg>
