<svg xmlns="http://www.w3.org/2000/svg" xmlns:xlink="http://www.w3.org/1999/xlink" width="20" height="20" viewBox="0 0 20 20">
  <defs>
    <path id="waiting-a" d="M4.18583525,6.57425041 L4.18583525,7.0395646 C4.18583525,8.3259222 5.30208527,9.3836704 6.69156584,9.3836704 C8.08103044,9.3836704 9.19723204,8.32593795 9.19723204,7.0395646 L9.19723204,6.57425041 C9.19723204,5.28782341 8.08103855,4.23008359 6.69156584,4.23008359 C5.30207716,4.23008359 4.18583525,5.28783917 4.18583525,6.57425041 Z M2.95172191,6.57425041 C2.95172191,4.59418758 4.63405669,3 6.69156584,3 C8.74906642,3 10.4313454,4.59418008 10.4313454,6.57425041 L10.4313454,7.0395646 C10.4313454,9.01958541 8.74905461,10.613754 6.69156584,10.613754 C4.6340685,10.613754 2.95172191,9.01957791 2.95172191,7.0395646 L2.95172191,6.57425041 Z M2.23411333,15.7203506 L2.23411333,16.1500878 C2.23411333,16.2979516 2.35567102,16.4188975 2.50537876,16.4188975 L10.8082639,16.4188975 C10.9579466,16.4188975 11.0794674,16.2979766 11.0794674,16.1500878 L11.0794674,15.7203506 C11.0794674,13.2927518 9.09775015,11.3209911 6.65682131,11.3209911 C4.21583901,11.3209911 2.23411333,13.2927435 2.23411333,15.7203506 Z M1,15.7203506 C1,12.6128979 3.53474685,10.0909076 6.65682131,10.0909076 C9.77884465,10.0909076 12.3135808,12.6129086 12.3135808,15.7203506 L12.3135808,16.1500878 C12.3135808,16.9777956 11.6390652,17.6489811 10.8082639,17.6489811 L2.50537876,17.6489811 C1.67457886,17.6489811 1,16.9777971 1,16.1500878 L1,15.7203506 Z M17.5917246,2.22697761 C17.8529699,1.94200407 18.2957678,1.92276855 18.5807413,2.18401388 C18.8657149,2.4452592 18.8849504,2.88805708 18.6237051,3.17303062 L14.9801894,7.1474771 C14.7108878,7.44123861 14.2510215,7.4512224 13.9692244,7.16942534 L12.2050253,5.40522619 C11.9316582,5.13185919 11.9316582,4.6886437 12.2050253,4.4152767 C12.4783923,4.14190969 12.9216077,4.14190969 13.1949747,4.4152767 L14.4422302,5.66253216 L17.5917246,2.22697761 Z"/>
  </defs>
  <g fill="none" fill-rule="evenodd">
    <use fill="#454545" fill-rule="nonzero" xlink:href="#waiting-a"/>
  </g>
</svg>
