<svg width="52" height="52" viewBox="0 0 52 52" fill="none" xmlns="http://www.w3.org/2000/svg">
<circle id="circle" cx="26" cy="26" r="26" fill="#42AAFF"/>
<path id="star" d="M25.0986 11.8763C25.4618 11.1203 26.5382 11.1203 26.9014 11.8763L30.3935 19.1453C30.5393 19.4487 30.8279 19.6584 31.1616 19.7033L39.1539 20.7783C39.9851 20.8901 40.3177 21.9138 39.711 22.4928L33.8769 28.0602C33.6334 28.2926 33.5231 28.632 33.5835 28.9632L35.031 36.8965C35.1815 37.7216 34.3106 38.3543 33.5725 37.9562L26.4747 34.128C26.1784 33.9682 25.8216 33.9682 25.5253 34.128L18.4275 37.9562C17.6894 38.3543 16.8185 37.7216 16.969 36.8965L18.4165 28.9632C18.4769 28.632 18.3666 28.2926 18.1231 28.0602L12.289 22.4928C11.6823 21.9138 12.0149 20.8901 12.8461 20.7783L20.8384 19.7033C21.1721 19.6584 21.4607 19.4487 21.6065 19.1453L25.0986 11.8763Z" fill="white"/>
</svg>
