<svg width="20" height="20" viewBox="0 0 20 20" fill="none" xmlns="http://www.w3.org/2000/svg">
<path d="M6 3C6 2.44772 6.44772 2 7 2C7.55228 2 8 2.44772 8 3V4H6V3Z" fill="#B7BCC9"/>
<path d="M12 3C12 2.44772 12.4477 2 13 2C13.5523 2 14 2.44772 14 3V4H12V3Z" fill="#B7BCC9"/>
<path fill-rule="evenodd" clip-rule="evenodd" d="M3 6C3 4.89543 3.89543 4 5 4H15C16.1046 4 17 4.89543 17 6V7H3V6ZM3 9V16C3 17.1046 3.89543 18 5 18H15C16.1046 18 17 17.1046 17 16V9H3ZM12 14C12 13.4477 12.4477 13 13 13H14C14.5523 13 15 13.4477 15 14V15C15 15.5523 14.5523 16 14 16H13C12.4477 16 12 15.5523 12 15V14Z" fill="#B7BCC9"/>
</svg>
