<svg width="20" height="20" viewBox="0 0 20 20" fill="none" xmlns="http://www.w3.org/2000/svg">
<path fill-rule="evenodd" clip-rule="evenodd" d="M5.50008 6.42531C5.93098 5.39497 6.69785 4.54916 7.68871 4.02653C7.83696 2.88421 8.81396 2 10 2C11.186 2 12.1641 2.88421 12.3113 4.02653C13.3032 4.54916 14.0722 5.39497 14.5063 6.42531C14.5063 6.42531 15.0332 7.4343 15.1836 9.12059C15.2327 9.66456 15.4311 10.4784 15.7062 11.0117C16.0475 11.673 16.8677 12.7971 16.968 14.0173C16.9893 14.1315 17 14.2466 17 14.364C17 14.6872 16.9189 15.0007 16.7664 15.2983C16.7611 15.31 16.7558 15.3218 16.7504 15.3335C16.6608 15.534 16.5776 15.6567 16.4998 15.7154C15.4673 17.055 12.9459 18 10 18C7.04556 18 4.51882 17.0497 3.4917 15.7047C3.42237 15.645 3.34771 15.534 3.26771 15.3623C3.09386 15.0455 3 14.7106 3 14.364C3 14.2328 3.01493 14.1037 3.0416 13.9768C3.15679 12.7715 3.96206 11.6655 4.2991 11.0117C4.57428 10.4784 4.77266 9.66456 4.82173 9.12059C4.97318 7.4343 5.50008 6.42531 5.50008 6.42531ZM10 16.4022C7.26212 16.4022 4.83777 15.4732 4.83777 14.509C4.83777 13.8413 6.1102 13.2611 7.67702 12.9678C7.78048 14.157 8.78093 15.0914 10 15.0914C11.2202 15.0914 12.2196 14.157 12.3231 12.9678C13.8899 13.2611 15.1634 13.8413 15.1634 14.509C15.1634 15.4732 12.739 16.4022 10 16.4022Z" fill="#B7BCC9"/>
</svg>
