<svg width="33" height="32" viewBox="0 0 33 32" fill="none" xmlns="http://www.w3.org/2000/svg">
<path d="M13.2212 13.1973C13.2212 13.6115 12.8854 13.9473 12.4712 13.9473C12.057 13.9473 11.7212 13.6115 11.7212 13.1973C11.7212 12.7831 12.057 12.4473 12.4712 12.4473C12.8854 12.4473 13.2212 12.7831 13.2212 13.1973Z" stroke="white" stroke-width="1.5"/>
<path d="M21.3511 13.1973C21.3511 13.6115 21.0153 13.9473 20.6011 13.9473C20.1869 13.9473 19.8511 13.6115 19.8511 13.1973C19.8511 12.7831 20.1869 12.4473 20.6011 12.4473C21.0153 12.4473 21.3511 12.7831 21.3511 13.1973Z" stroke="white" stroke-width="1.5"/>
<path d="M11.3604 17.7721C11.3604 17.7721 10.0422 17.7721 10.3316 19.0601C10.7492 20.9188 12.7595 23.3792 16.5363 23.3978C20.3132 23.4165 22.3369 20.8702 22.7416 19.0601C23.0296 17.7721 21.7123 17.7721 21.7123 17.7721C21.7123 17.7721 20.0393 17.7721 16.5363 17.7721C13.0334 17.7721 11.3604 17.7721 11.3604 17.7721Z" stroke="white" stroke-width="1.3" stroke-linecap="round" stroke-linejoin="round"/>
<path d="M26.7861 21V27.5" stroke="white" stroke-width="1.3" stroke-linecap="round"/>
<path d="M23.5361 24.25L30.0361 24.25" stroke="white" stroke-width="1.3" stroke-linecap="round"/>
<path fill-rule="evenodd" clip-rule="evenodd" d="M16.5362 4.35001C10.1055 4.35001 4.88623 9.56923 4.88623 16C4.88623 22.4308 10.1055 27.65 16.5362 27.65C18.0779 27.65 19.5499 27.35 20.8971 26.8054C20.6166 26.4638 20.3731 26.0907 20.1727 25.6922C19.0412 26.1174 17.8157 26.35 16.5362 26.35C10.8234 26.35 6.18623 21.7128 6.18623 16C6.18623 10.2872 10.8234 5.65001 16.5362 5.65001C22.249 5.65001 26.8862 10.2872 26.8862 16C26.8862 16.3848 26.8652 16.7647 26.8242 17.1386C27.2633 17.2346 27.6845 17.3788 28.0818 17.5652C28.1507 17.0532 28.1862 16.5307 28.1862 16C28.1862 9.56923 22.967 4.35001 16.5362 4.35001Z" fill="white"/>
</svg>
