<?xml version="1.0" encoding="UTF-8"?>
<svg width="20px" height="20px" viewBox="0 0 20 20" version="1.1" xmlns="http://www.w3.org/2000/svg" xmlns:xlink="http://www.w3.org/1999/xlink">
    <!-- Generator: Sketch 53 (72520) - https://sketchapp.com -->
    <title>Rectangle</title>
    <desc>Created with Sketch.</desc>
    <g id="Page-1" stroke="none" stroke-width="1" fill="none" fill-rule="evenodd">
        <g id="-add_user_icon">
            <rect id="Rectangle" x="0" y="0" width="20" height="20"></rect>
            <path d="M8.37795288,5.88597214 C8.37795288,3.80546064 10.177332,2.13039987 12.3779873,2.13039987 C14.5786335,2.13039987 16.3779529,3.80545276 16.3779529,5.88597214 L16.3779529,6.37489173 C16.3779529,8.45535907 14.5786209,10.1303999 12.3779873,10.1303999 C10.1773446,10.1303999 8.37795288,8.45535119 8.37795288,6.37489173 L8.37795288,5.88597214 Z M6.68641924,17.0438735 C6.68641924,13.9364208 9.22116609,11.4144304 12.3432406,11.4144304 C15.4652639,11.4144304 18,13.9364315 18,17.0438735 L18,17.4736107 C18,18.3013185 17.3254845,18.972504 16.4946831,18.972504 L8.191798,18.972504 C7.36099811,18.972504 6.68641924,18.30132 6.68641924,17.4736107 L6.68641924,17.0438735 Z M5.32976227,9.70756519 L7.43622891,9.70756519 C7.79029786,9.70756519 8.07732745,9.99459478 8.07732745,10.3486637 C8.07732745,10.7027327 7.79029786,10.9897623 7.43622891,10.9897623 L5.32976227,10.9897623 L5.32976227,13.0962289 C5.32976227,13.4502978 5.04273267,13.7373274 4.68866373,13.7373274 C4.33459478,13.7373274 4.04756518,13.4502978 4.04756518,13.0962289 L4.04756518,10.9897623 L1.94109854,10.9897623 C1.58702959,10.9897623 1.3,10.7027327 1.3,10.3486637 C1.3,9.99459478 1.58702959,9.70756519 1.94109854,9.70756519 L4.04756518,9.70756519 L4.04756518,7.60109855 C4.04756518,7.2470296 4.33459478,6.96 4.68866373,6.96 C5.04273267,6.96 5.32976227,7.2470296 5.32976227,7.60109855 L5.32976227,9.70756519 Z" id="path-1" fill="#A8ADB8" fill-rule="nonzero"></path>
        </g>
    </g>
</svg>