<?xml version="1.0" encoding="UTF-8"?>
<svg width="20px" height="20px" viewBox="0 0 20 20" version="1.1" xmlns="http://www.w3.org/2000/svg" xmlns:xlink="http://www.w3.org/1999/xlink">
    <!-- Generator: Sketch 53 (72520) - https://sketchapp.com -->
    <title>Rectangle</title>
    <desc>Created with Sketch.</desc>
    <g id="Page-2" stroke="none" stroke-width="1" fill="none" fill-rule="evenodd">
        <g id="Group-32">
            <rect id="Rectangle" x="0" y="0" width="20" height="20"></rect>
            <path d="M10,17.6 C14.1973641,17.6 17.6,14.1973641 17.6,10 C17.6,5.8026359 14.1973641,2.4 10,2.4 C5.8026359,2.4 2.4,5.8026359 2.4,10 C2.4,14.1973641 5.8026359,17.6 10,17.6 Z M10,19 C5.02943725,19 1,14.9705627 1,10 C1,5.02943725 5.02943725,1 10,1 C14.9705627,1 19,5.02943725 19,10 C19,14.9705627 14.9705627,19 10,19 Z M10.0000004,8 C9.5029441,8 9.10000038,8.40294371 9.10000038,8.89999998 L9.10000038,14.6 C9.10000038,15.0970563 9.5029441,15.5 10.0000004,15.5 C10.4970566,15.5 10.9000003,15.0970563 10.9000003,14.6 L10.9000003,8.89999998 C10.9000003,8.40294371 10.4970566,8 10.0000004,8 Z M10,5 C9.44771525,5 9,5.44771525 9,6 C9,6.55228475 9.44771525,7 10,7 C10.5522848,7 11,6.55228475 11,6 C11,5.44771525 10.5522848,5 10,5 Z" id="path-3" fill="#B7BCC9" fill-rule="nonzero" transform="translate(10.000000, 10.000000) scale(1, -1) translate(-10.000000, -10.000000) "></path>
        </g>
    </g>
</svg>