<?xml version="1.0" encoding="UTF-8"?>
<svg width="20px" height="20px" viewBox="0 0 20 20" version="1.1" xmlns="http://www.w3.org/2000/svg" xmlns:xlink="http://www.w3.org/1999/xlink">
    <!-- Generator: Sketch 52.5 (67469) - http://www.bohemiancoding.com/sketch -->
    <title>wallpaper_icon</title>
    <desc>Created with Sketch.</desc>
    <defs>
        <path d="M2.24721724,10 C2.24721724,14.2927587 5.78373904,17.7727273 10.1462598,17.7727273 C10.7622122,17.7727273 10.9649491,17.5909181 10.9649491,17.0921742 C10.9649491,16.9847496 10.8695683,16.8048117 10.5911299,16.4699602 C10.5513083,16.4220705 10.3495869,16.1851524 10.2926288,16.1161715 C10.1529092,15.9469597 10.0479523,15.8066185 9.95519428,15.6549473 C9.60178565,15.0770793 9.51139732,14.4353022 9.89912988,13.811047 C10.5252754,12.8029435 11.0841579,12.7234142 12.592927,12.8773776 C13.5580619,12.9758654 14.2141439,12.9374193 15.1801014,12.6203008 C16.6086577,12.1513137 17.7527828,10.6707477 17.7527828,9.16144354 C17.7527828,5.29060986 14.4697204,2.22727273 10.1462598,2.22727273 C5.78373904,2.22727273 2.24721724,5.70724126 2.24721724,10 Z M1,10 C1,5.02943725 5.09491998,1 10.1462598,1 C15.1975996,1 19,4.64766069 19,9.16144354 C19,11.3073952 17.4020029,13.1846369 15.5748215,13.7844904 C12.7326583,14.7175569 11.5804709,13.4574469 10.9633251,14.4510609 C10.5628334,15.0958585 12.2121663,15.8613059 12.2121663,17.0921742 C12.2121663,18.3230424 11.3957608,19 10.1462598,19 C5.09491998,19 1,14.9705627 1,10 Z M4.94952126,7.95454545 C5.7531435,7.95454545 6.40460805,8.59559229 6.40460805,9.38636364 C6.40460805,10.177135 5.7531435,10.8181818 4.94952126,10.8181818 C4.14589902,10.8181818 3.49443448,10.177135 3.49443448,9.38636364 C3.49443448,8.59559229 4.14589902,7.95454545 4.94952126,7.95454545 Z M14.9272592,7.95454545 C15.7308814,7.95454545 16.382346,8.59559229 16.382346,9.38636364 C16.382346,10.177135 15.7308814,10.8181818 14.9272592,10.8181818 C14.123637,10.8181818 13.4721724,10.177135 13.4721724,9.38636364 C13.4721724,8.59559229 14.123637,7.95454545 14.9272592,7.95454545 Z M7.85969483,4.27272727 C8.66331707,4.27272727 9.31478161,4.91377411 9.31478161,5.70454545 C9.31478161,6.4953168 8.66331707,7.13636364 7.85969483,7.13636364 C7.05607259,7.13636364 6.40460805,6.4953168 6.40460805,5.70454545 C6.40460805,4.91377411 7.05607259,4.27272727 7.85969483,4.27272727 Z M12.4328247,4.27272727 C13.236447,4.27272727 13.8879115,4.91377411 13.8879115,5.70454545 C13.8879115,6.4953168 13.236447,7.13636364 12.4328247,7.13636364 C11.6292025,7.13636364 10.9777379,6.4953168 10.9777379,5.70454545 C10.9777379,4.91377411 11.6292025,4.27272727 12.4328247,4.27272727 Z" id="path-1"></path>
        <path d="M1.24721724,9 C1.24721724,13.2927587 4.78373904,16.7727273 9.14625977,16.7727273 C9.76221224,16.7727273 9.96494908,16.5909181 9.96494908,16.0921742 C9.96494908,15.9847496 9.86956829,15.8048117 9.59112993,15.4699602 C9.55130829,15.4220705 9.34958693,15.1851524 9.29262878,15.1161715 C9.15290918,14.9469597 9.04795232,14.8066185 8.95519428,14.6549473 C8.60178565,14.0770793 8.51139732,13.4353022 8.89912988,12.811047 C9.52527538,11.8029435 10.0841579,11.7234142 11.592927,11.8773776 C12.5580619,11.9758654 13.2141439,11.9374193 14.1801014,11.6203008 C15.6086577,11.1513137 16.7527828,9.67074766 16.7527828,8.16144354 C16.7527828,4.29060986 13.4697204,1.22727273 9.14625977,1.22727273 C4.78373904,1.22727273 1.24721724,4.70724126 1.24721724,9 Z M0,9 C3.03950937e-16,4.02943725 4.09491998,0 9.14625977,0 C14.1975996,0 18,3.64766069 18,8.16144354 C18,10.3073952 16.4020029,12.1846369 14.5748215,12.7844904 C11.7326583,13.7175569 10.5804709,12.4574469 9.9633251,13.4510609 C9.5628334,14.0958585 11.2121663,14.8613059 11.2121663,16.0921742 C11.2121663,17.3230424 10.3957608,18 9.14625977,18 C4.09491998,18 0,13.9705627 0,9 Z M3.94952126,6.95454545 C4.7531435,6.95454545 5.40460805,7.59559229 5.40460805,8.38636364 C5.40460805,9.17713498 4.7531435,9.81818182 3.94952126,9.81818182 C3.14589902,9.81818182 2.49443448,9.17713498 2.49443448,8.38636364 C2.49443448,7.59559229 3.14589902,6.95454545 3.94952126,6.95454545 Z M13.9272592,6.95454545 C14.7308814,6.95454545 15.382346,7.59559229 15.382346,8.38636364 C15.382346,9.17713498 14.7308814,9.81818182 13.9272592,9.81818182 C13.123637,9.81818182 12.4721724,9.17713498 12.4721724,8.38636364 C12.4721724,7.59559229 13.123637,6.95454545 13.9272592,6.95454545 Z M6.85969483,3.27272727 C7.66331707,3.27272727 8.31478161,3.91377411 8.31478161,4.70454545 C8.31478161,5.4953168 7.66331707,6.13636364 6.85969483,6.13636364 C6.05607259,6.13636364 5.40460805,5.4953168 5.40460805,4.70454545 C5.40460805,3.91377411 6.05607259,3.27272727 6.85969483,3.27272727 Z M11.4328247,3.27272727 C12.236447,3.27272727 12.8879115,3.91377411 12.8879115,4.70454545 C12.8879115,5.4953168 12.236447,6.13636364 11.4328247,6.13636364 C10.6292025,6.13636364 9.97773793,5.4953168 9.97773793,4.70454545 C9.97773793,3.91377411 10.6292025,3.27272727 11.4328247,3.27272727 Z" id="path-3"></path>
    </defs>
    <g id="Icons" stroke="none" stroke-width="1" fill="none" fill-rule="evenodd">
        <g id="🔔icons-/-line-/-colors">
            <g id="icons-/-tapbar-/-ic_chats_line-copy-2">
                <g id="Group">
                    <mask id="mask-2" fill="white">
                        <use xlink:href="#path-1"></use>
                    </mask>
                    <use id="Combined-Shape" fill="#FFFFFF" fill-rule="nonzero" xlink:href="#path-1"></use>
                   
                </g>
                <g id="Group-Copy" transform="translate(1.000000, 1.000000)">
                    <mask id="mask-4" fill="white">
                        <use xlink:href="#path-3"></use>
                    </mask>
                    <use id="Combined-Shape" fill="#FFFFFF" fill-rule="nonzero" xlink:href="#path-3"></use>
                    <g id="🎨colors-/-{seven_color}" mask="url(#mask-4)" fill="#B7BCC9" fill-rule="nonzero">
                        <g transform="translate(-2.000000, -2.000000)" id="Rectangle">
                          
                        </g>
                    </g>
                </g>
            </g>
        </g>
    </g>
</svg>
