<svg xmlns="http://www.w3.org/2000/svg" width="24" height="24" viewBox="0 0 24 24">
  <path fill="#57B359" fill-rule="evenodd" d="M462,549.5 C468.351275,549.5 473.5,544.351275 473.5,538 C473.5,531.648725 468.351275,526.5 462,526.5 C455.648725,526.5 450.5,531.648725 450.5,538 C450.5,544.351275 455.648725,549.5 462,549.5 Z M461.144309,542.602401 C461.123297,542.628063 461.100817,542.652925 461.076868,542.676874 C460.686343,543.067398 460.053178,543.067398 459.662654,542.676874 L456.12712,539.14134 C455.736596,538.750816 455.736596,538.117651 456.12712,537.727126 C456.517645,537.336602 457.150809,537.336602 457.541334,537.727126 L460.387598,540.57339 L466.994903,534.411979 C467.398818,534.035322 468.031598,534.057419 468.408255,534.461334 C468.784912,534.86525 468.762815,535.498029 468.3589,535.874686 L461.144309,542.602401 Z" transform="translate(-450 -526)"/>
</svg>
