<svg width="12" height="12" viewBox="0 0 12 12" fill="none" xmlns="http://www.w3.org/2000/svg">
<g id="ic_edit-draw_shadow">
<path id="Combined Shape" fill-rule="evenodd" clip-rule="evenodd" d="M8.55439 5.47835L9.42685 4.6059C9.72289 4.30985 9.74067 3.84433 9.46451 3.56816L8.34326 2.44692C8.06624 2.16989 7.60249 2.18761 7.30553 2.48457L6.43307 3.35703L8.55439 5.47835ZM5.63758 4.15253L2.53993 7.25018L2.54821 7.25847L2.46967 7.33701C2.32902 7.47766 2.25 7.66843 2.25 7.86734V9.17452C2.25 9.45066 2.47386 9.67452 2.75 9.67452H4.05717C4.25609 9.67452 4.44685 9.5955 4.5875 9.45485L5.42675 8.6156L5.42195 8.6108L7.7589 6.27385L5.63758 4.15253Z" fill="white"/>
</g>
</svg>
