<svg width="48" height="48" viewBox="0 0 48 48" fill="none" xmlns="http://www.w3.org/2000/svg">
<path fill-rule="evenodd" clip-rule="evenodd" d="M27.6198 9C27.8945 9 28.4857 9.00077 29.0849 9.00168C30.0734 9.00317 30.9096 9.72716 31.0846 10.7C31.27 11.7302 31.5044 12.8491 31.6488 12.8522C33.3456 12.8892 34.516 13.0087 35.7472 13.3947C37.6942 14.0975 39.2276 15.6182 39.9363 17.5492C40.5 19.3175 40.5 19.5968 40.5 22.8821V27.5899C40.5 30.8755 40.5 32.5178 39.9363 34.2865C39.2276 36.2174 37.6942 37.7381 35.7472 38.4406C33.9638 39 32.3077 39 28.9948 39H19.0052C15.6923 39 14.0359 39 12.2528 38.4406C10.3058 37.7381 8.77242 36.2174 8.06375 34.2865C7.5 32.5178 7.5 30.8755 7.5 27.5899V22.8821C7.5 19.5968 7.5 19.3175 8.06375 17.5492C8.77242 15.6182 10.3058 14.0975 12.2528 13.3947C13.457 13.0171 14.6033 12.8945 16.2411 12.8547C16.3885 12.8512 16.6283 11.7268 16.8176 10.6944C16.9954 9.72452 17.8301 9.00379 18.816 9.00207C19.4479 9.00096 20.0822 9 20.3802 9H27.6198Z" stroke="#2BB25F" stroke-width="1.5" stroke-linecap="round" stroke-linejoin="round"/>
<path fill-rule="evenodd" clip-rule="evenodd" d="M24 33C28.1421 33 31.5 29.6421 31.5 25.5C31.5 21.3579 28.1421 18 24 18C19.8579 18 16.5 21.3579 16.5 25.5C16.5 29.6421 19.8579 33 24 33Z" stroke="#2BB25F" stroke-width="1.5" stroke-linecap="round" stroke-linejoin="round"/>
</svg>
