<svg xmlns="http://www.w3.org/2000/svg" xmlns:xlink="http://www.w3.org/1999/xlink" width="20" height="20" viewBox="0 0 20 20">
    <defs>
        <path id="a" d="M15.48 4.361h2.08c1.184 0 2.14.976 2.14 2.17v8.99c0 1.199-.96 2.179-2.15 2.179H2.45C1.26 17.7.3 16.72.3 15.52V6.53c0-1.193.956-2.169 2.14-2.169h2.08l.527-1.346A2.7 2.7 0 0 1 7.561 1.3h4.878a2.7 2.7 0 0 1 2.514 1.715l.528 1.346zm2.08 1.4h-3.034l-.877-2.235a1.3 1.3 0 0 0-1.21-.826H7.56a1.3 1.3 0 0 0-1.21.826L5.474 5.76H2.44c-.405 0-.74.342-.74.77v8.99c0 .432.34.779.75.779h15.1c.41 0 .75-.347.75-.78V6.53c0-.427-.335-.769-.74-.769zM16 9a1 1 0 1 1 0-2 1 1 0 0 1 0 2zm-6-2.7a4.454 4.454 0 0 1 4.45 4.45A4.454 4.454 0 0 1 10 15.2a4.454 4.454 0 0 1-4.45-4.45A4.454 4.454 0 0 1 10 6.3zm0 1.4a3.054 3.054 0 0 0-3.05 3.05A3.054 3.054 0 0 0 10 13.8a3.054 3.054 0 0 0 3.05-3.05A3.054 3.054 0 0 0 10 7.7z"/>
    </defs>
    <g fill="none" fill-rule="evenodd">
        <path d="M0 0h20v20H0z"/>
        <use fill="#B7BCC9" fill-rule="nonzero" xlink:href="#a"/>
    </g>
</svg>
