<svg width="32" height="32" viewBox="0 0 32 32" fill="none" xmlns="http://www.w3.org/2000/svg">
<path d="M18.4132 6.65L18.8158 6.65033C19.4727 6.65111 20.0529 7.1375 20.1937 7.82675C20.2433 8.06987 20.2974 8.30879 20.3514 8.4935C20.3773 8.58185 20.4106 8.68406 20.4529 8.77431C20.4726 8.81636 20.5093 8.88883 20.5681 8.96091C20.6048 9.0058 20.7764 9.21125 21.085 9.21799C22.1858 9.242 22.8934 9.31867 23.6236 9.54585C24.7318 9.95011 25.603 10.8154 26.0093 11.9107C26.1908 12.4807 26.2666 12.768 26.3063 13.1628C26.3492 13.5898 26.35 14.1433 26.35 15.2547V18.3933C26.35 20.6044 26.3438 21.5888 26.0092 22.6467C25.6029 23.7419 24.7317 24.607 23.6236 25.0111C22.5542 25.3439 21.5591 25.35 19.3299 25.35H12.6701C10.4409 25.35 9.4456 25.3439 8.37641 25.011C7.26831 24.607 6.39714 23.7419 5.99083 22.6467C5.65623 21.5888 5.65 20.6044 5.65 18.3933V15.2547C5.65 14.1433 5.65083 13.5898 5.69372 13.1628C5.73338 12.768 5.80924 12.4807 5.99072 11.9107C6.39698 10.8153 7.26818 9.95011 8.3764 9.54585C9.09049 9.32366 9.78336 9.2454 10.8432 9.21964C11.1478 9.21224 11.3185 9.0115 11.3566 8.96541C11.4161 8.89344 11.4534 8.82088 11.4736 8.7784C11.5168 8.68748 11.5509 8.58442 11.5774 8.49521C11.6329 8.30879 11.6883 8.06782 11.7392 7.82295C11.882 7.13551 12.4611 6.65138 13.1163 6.65046C13.314 6.65018 13.482 6.65 13.5868 6.65H18.4132Z" stroke="#57B359" stroke-width="1.3"/>
<path d="M20.35 17C20.35 19.4024 18.4024 21.35 16 21.35C13.5976 21.35 11.65 19.4024 11.65 17C11.65 14.5976 13.5976 12.65 16 12.65C18.4024 12.65 20.35 14.5976 20.35 17Z" stroke="#57B359" stroke-width="1.3"/>
</svg>
