<svg width="32" height="32" viewBox="0 0 32 32" fill="none" xmlns="http://www.w3.org/2000/svg">
<path fill-rule="evenodd" clip-rule="evenodd" d="M7.39066 8.93691C7.63582 8.48275 7.99198 8.12991 8.4504 7.88702C8.99159 7.60028 9.51576 7.5 10.8308 7.5H21.1692C22.4842 7.5 23.0084 7.60028 23.5496 7.88702C24.008 8.12991 24.3642 8.48275 24.6093 8.93691C24.8988 9.47307 25 9.99237 25 11.2952V17.7042C25 19.007 24.8988 19.5263 24.6093 20.0625C24.3642 20.5166 24.008 20.8695 23.5496 21.1124C23.0084 21.3991 22.4842 21.4994 21.1692 21.4994H11.8819C11.6326 21.4994 11.5153 21.5069 11.3771 21.534C11.2323 21.5624 11.0993 21.6098 10.9695 21.6793C10.8455 21.7457 10.7503 21.8139 10.5582 21.9713L7.56657 24.4214C7.41926 24.542 7.20112 24.5215 7.07934 24.3756C7.02806 24.3141 7 24.2369 7 24.1571V11.2952C7 9.99237 7.10122 9.47307 7.39066 8.93691ZM12.3412 14.7974C12.3412 15.4937 11.7714 16.0583 11.0684 16.0583C10.3655 16.0583 9.79572 15.4937 9.79572 14.7974C9.79572 14.101 10.3655 13.5365 11.0684 13.5365C11.7714 13.5365 12.3412 14.101 12.3412 14.7974ZM16.011 16.0583C16.7139 16.0583 17.2837 15.4937 17.2837 14.7974C17.2837 14.101 16.7139 13.5365 16.011 13.5365C15.3081 13.5365 14.7383 14.101 14.7383 14.7974C14.7383 15.4937 15.3081 16.0583 16.011 16.0583ZM22.2263 14.7974C22.2263 15.4937 21.6565 16.0583 20.9536 16.0583C20.2506 16.0583 19.6808 15.4937 19.6808 14.7974C19.6808 14.101 20.2506 13.5365 20.9536 13.5365C21.6565 13.5365 22.2263 14.101 22.2263 14.7974Z" fill="black"/>
</svg>
