<svg width="23" height="23" viewBox="0 0 23 23" fill="none" xmlns="http://www.w3.org/2000/svg">
<path d="M8.6695 0.274101H14.2409C16.7113 0.274101 17.8567 0.580426 18.9323 1.15564C20.0078 1.73085 20.8519 2.57495 21.4271 3.65051C22.0024 4.72607 22.3087 5.87152 22.3087 8.3419V11.3419C22.3087 13.2896 22.0024 14.5221 21.4271 15.5977C20.8519 16.6732 20.0078 17.5173 18.9323 18.0926C17.8567 18.6678 16.6241 18.9741 14.6765 18.9741H6.51347C6.23986 18.9741 6.14597 18.9831 6.04162 19.0057C5.93728 19.0282 5.84483 19.0643 5.75276 19.1183C5.6607 19.1723 5.58548 19.2292 5.38407 19.4144L2.05322 22.4771C1.60603 22.8883 0.910156 22.8592 0.498955 22.412C0.31228 22.209 0.208679 21.9432 0.208679 21.6674V13.9026V8.73492C0.208679 5.79291 0.515004 4.72607 1.09022 3.65051C1.66543 2.57495 2.50953 1.73085 3.58509 1.15564C4.66064 0.580426 5.72749 0.274101 8.6695 0.274101ZM5.50969 11.6767C6.42164 11.6767 7.16092 10.9374 7.16092 10.0255C7.16092 9.11351 6.42164 8.37423 5.50969 8.37423C4.59774 8.37423 3.85846 9.11351 3.85846 10.0255C3.85846 10.9374 4.59774 11.6767 5.50969 11.6767ZM11.0138 11.6767C11.9257 11.6767 12.665 10.9374 12.665 10.0255C12.665 9.11351 11.9257 8.37423 11.0138 8.37423C10.1018 8.37423 9.36256 9.11351 9.36256 10.0255C9.36256 10.9374 10.1018 11.6767 11.0138 11.6767ZM16.5179 11.6767C17.4298 11.6767 18.1691 10.9374 18.1691 10.0255C18.1691 9.11351 17.4298 8.37423 16.5179 8.37423C15.606 8.37423 14.8667 9.11351 14.8667 10.0255C14.8667 10.9374 15.606 11.6767 16.5179 11.6767Z" fill="#2D90F5"/>
</svg>
