<svg width="32" height="32" viewBox="0 0 32 32" fill="none" xmlns="http://www.w3.org/2000/svg">
<g id="ic_camera_line">
<path id="Mask" fill-rule="evenodd" clip-rule="evenodd" d="M18.4132 6C18.5041 6 18.6469 6.00013 18.8166 6.00033C19.805 6.0015 20.6327 6.7282 20.8305 7.69664C20.9281 8.17413 21.0294 8.56662 21.0992 8.56814C22.2304 8.59281 23.0107 8.67249 23.8315 8.9298C25.1295 9.39835 26.1517 10.4122 26.6242 11.6994C27 12.8783 27 13.0645 27 15.2547V18.3933C27 20.5836 27 21.6785 26.6242 22.8576C26.1517 24.1449 25.1295 25.1587 23.8315 25.6271C22.6425 26 21.5385 26 19.3299 26H12.6701C10.4615 26 9.35728 26 8.16855 25.6271C6.87055 25.1587 5.84828 24.1449 5.37583 22.8576C5 21.6785 5 20.5836 5 18.3933V15.2547C5 13.0645 5 12.8783 5.37583 11.6994C5.84828 10.4122 6.87055 9.39835 8.16855 8.9298C8.97132 8.67809 9.73554 8.59637 10.8274 8.56983C10.8988 8.56809 11.0028 8.17153 11.1028 7.69068C11.3034 6.72532 12.1294 6.00185 13.1154 6.00046C13.3131 6.00018 13.4814 6 13.5868 6H18.4132Z" stroke="white" stroke-width="1.5" stroke-linecap="round" stroke-linejoin="round"/>
<path id="Oval 53" fill-rule="evenodd" clip-rule="evenodd" d="M16 22C18.7614 22 21 19.7614 21 17C21 14.2386 18.7614 12 16 12C13.2386 12 11 14.2386 11 17C11 19.7614 13.2386 22 16 22Z" stroke="white" stroke-width="1.5" stroke-linecap="round" stroke-linejoin="round"/>
</g>
</svg>
