<?xml version="1.0" encoding="UTF-8"?>
<svg width="20px" height="20px" viewBox="0 0 20 20" version="1.1" xmlns="http://www.w3.org/2000/svg" xmlns:xlink="http://www.w3.org/1999/xlink">
    <!-- Generator: Sketch 53 (72520) - https://sketchapp.com -->
    <title>Rectangle</title>
    <desc>Created with Sketch.</desc>
    <g id="Page-2" stroke="none" stroke-width="1" fill="none" fill-rule="evenodd">
        <g id="Group-31" fill-rule="nonzero">
            <rect id="Rectangle" x="0" y="0" width="20" height="20"></rect>
            <path d="M2.44579832,11.1365733 L9.05579832,17.7465733 L13.4557983,12.4465733 C14.0194763,11.7721689 13.9761185,10.7792747 13.3557983,10.1565733 L10.0057983,6.84657331 C9.38575188,6.22326383 8.39273343,6.17556425 7.71579832,6.73657331 L2.44579832,11.1365733 Z M11.0057983,5.92657331 L14.3157983,9.23657331 C15.3899813,10.326331 15.471851,12.0499044 14.5057983,13.2365733 L9.84579832,18.8265733 C9.68204221,19.0370662 9.44099033,19.1734277 9.17621828,19.2053506 C8.91144623,19.2372735 8.64489166,19.1621127 8.43579832,18.9965733 L8.36579832,18.9365733 L1.29579832,11.8265733 C1.10648567,11.6388067 1,11.3832108 1,11.1165733 C1,10.8499358 1.10648567,10.5943399 1.29579832,10.4065733 L1.36579832,10.3465733 L6.91579832,5.73657331 C8.11718263,4.71513194 9.90428542,4.79815139 11.0057983,5.92657331 Z M7.29579832,6.28657331 L13.6657983,12.6565733 L12.8157983,13.5065733 L6.39579832,7.13657331 L7.29579832,6.28657331 Z M6.64579832,10.3465733 C6.82422642,10.1017871 7.13238865,9.98836528 7.42693555,10.0590689 C7.72148246,10.1297725 7.94458133,10.3707193 7.9924521,10.6698268 C8.04032287,10.9689342 7.90356637,11.2674742 7.64579832,11.4265733 L5.00579832,13.9965733 C4.71298078,14.2890267 4.23861587,14.2890267 3.94579832,13.9965733 C3.658734,13.7015461 3.658734,13.2316006 3.94579832,12.9365733 L6.64579832,10.3465733 Z M8.93579832,12.4465733 C9.22861587,12.1541199 9.70298078,12.1541199 9.99579832,12.4465733 C10.2882517,12.7393909 10.2882517,13.2137558 9.99579832,13.5065733 L7.28579832,16.0565733 C7.10269912,16.2916198 6.79783171,16.3959946 6.50909531,16.3224864 C6.22035891,16.2489782 6.00251518,16.0115286 5.95410032,15.7175419 C5.90568546,15.4235552 6.03588183,15.1287889 6.28579832,14.9665733 L8.93579832,12.4465733 Z M13.2957983,7.93657331 L18.7457983,2.48657331 C19.0219407,2.21043094 19.0219407,1.76271569 18.7457983,1.48657331 C18.4696559,1.21043094 18.0219407,1.21043094 17.7457983,1.48657331 L12.2557983,6.99657331 L13.2957983,7.93657331 Z M19.6157983,0.586573313 C20.3912455,1.36664822 20.3912455,2.6264984 19.6157983,3.40657331 L13.2457983,9.77657331 L10.4157983,6.99657331 L16.7857983,0.586573313 C17.1609348,0.211019227 17.6699798,2.03396328e-16 18.2007983,0 C18.7316168,-2.03396328e-16 19.2406618,0.211019227 19.6157983,0.586573313 Z" id="Shape" fill="#B7BCC9"></path>
        </g>
    </g>
</svg>