<?xml version="1.0" encoding="UTF-8"?>
<svg width="20px" height="20px" viewBox="0 0 20 20" version="1.1" xmlns="http://www.w3.org/2000/svg" xmlns:xlink="http://www.w3.org/1999/xlink">
    <!-- Generator: Sketch 53 (72520) - https://sketchapp.com -->
    <title>Rectangle</title>
    <desc>Created with Sketch.</desc>
    <defs>
        <path d="M2.24721724,10 C2.24721724,14.2927587 5.78373904,17.7727273 10.1462598,17.7727273 C10.7622122,17.7727273 10.9649491,17.5909181 10.9649491,17.0921742 C10.9649491,16.9847496 10.8695683,16.8048117 10.5911299,16.4699602 C10.5513083,16.4220705 10.3495869,16.1851524 10.2926288,16.1161715 C10.1529092,15.9469597 10.0479523,15.8066185 9.95519428,15.6549473 C9.60178565,15.0770793 9.51139732,14.4353022 9.89912988,13.811047 C10.5252754,12.8029435 11.0841579,12.7234142 12.592927,12.8773776 C13.5580619,12.9758654 14.2141439,12.9374193 15.1801014,12.6203008 C16.6086577,12.1513137 17.7527828,10.6707477 17.7527828,9.16144354 C17.7527828,5.29060986 14.4697204,2.22727273 10.1462598,2.22727273 C5.78373904,2.22727273 2.24721724,5.70724126 2.24721724,10 Z M1,10 C1,5.02943725 5.09491998,1 10.1462598,1 C15.1975996,1 19,4.64766069 19,9.16144354 C19,11.3073952 17.4020029,13.1846369 15.5748215,13.7844904 C12.7326583,14.7175569 11.5804709,13.4574469 10.9633251,14.4510609 C10.5628334,15.0958585 12.2121663,15.8613059 12.2121663,17.0921742 C12.2121663,18.3230424 11.3957608,19 10.1462598,19 C5.09491998,19 1,14.9705627 1,10 Z M4.94952126,7.95454545 C5.7531435,7.95454545 6.40460805,8.59559229 6.40460805,9.38636364 C6.40460805,10.177135 5.7531435,10.8181818 4.94952126,10.8181818 C4.14589902,10.8181818 3.49443448,10.177135 3.49443448,9.38636364 C3.49443448,8.59559229 4.14589902,7.95454545 4.94952126,7.95454545 Z M14.9272592,7.95454545 C15.7308814,7.95454545 16.382346,8.59559229 16.382346,9.38636364 C16.382346,10.177135 15.7308814,10.8181818 14.9272592,10.8181818 C14.123637,10.8181818 13.4721724,10.177135 13.4721724,9.38636364 C13.4721724,8.59559229 14.123637,7.95454545 14.9272592,7.95454545 Z M7.85969483,4.27272727 C8.66331707,4.27272727 9.31478161,4.91377411 9.31478161,5.70454545 C9.31478161,6.4953168 8.66331707,7.13636364 7.85969483,7.13636364 C7.05607259,7.13636364 6.40460805,6.4953168 6.40460805,5.70454545 C6.40460805,4.91377411 7.05607259,4.27272727 7.85969483,4.27272727 Z M12.4328247,4.27272727 C13.236447,4.27272727 13.8879115,4.91377411 13.8879115,5.70454545 C13.8879115,6.4953168 13.236447,7.13636364 12.4328247,7.13636364 C11.6292025,7.13636364 10.9777379,6.4953168 10.9777379,5.70454545 C10.9777379,4.91377411 11.6292025,4.27272727 12.4328247,4.27272727 Z" id="path-1"></path>
    </defs>
    <g id="Page-2" stroke="none" stroke-width="1" fill="none" fill-rule="evenodd">
        <g id="color_icon">
            <rect id="Rectangle" fill-rule="nonzero" x="0" y="0" width="20" height="20"></rect>
            <mask id="mask-2" fill="white">
                <use xlink:href="#path-1"></use>
            </mask>
            <use id="path-3" fill="#B7BCC9" xlink:href="#path-1"></use>
        </g>
    </g>
</svg>