<svg xmlns="http://www.w3.org/2000/svg" width="20" height="20" viewBox="0 0 20 20">
  <path fill="#575757" fill-rule="evenodd" d="M8.375,0.833333333 L13.7083333,0.833333333 C14.5367605,0.833333333 15.2083333,1.50490621 15.2083333,2.33333333 L15.2083333,2.66666667 C15.2083333,3.49509379 14.5367605,4.16666667 13.7083333,4.16666667 L8.375,4.16666667 C7.54657288,4.16666667 6.875,3.49509379 6.875,2.66666667 L6.875,2.33333333 C6.875,1.50490621 7.54657288,0.833333333 8.375,0.833333333 Z M2.5,0 C3.88071187,-2.53632657e-16 5,1.11928813 5,2.5 C5,3.88071187 3.88071187,5 2.5,5 C1.11928813,5 1.05726686e-15,3.88071187 8.8817842e-16,2.5 C-1.69088438e-16,1.11928813 1.11928813,2.53632657e-16 2.5,0 Z M2.5,6.25 C3.88071187,6.25 5,7.36928813 5,8.75 C5,10.1307119 3.88071187,11.25 2.5,11.25 C1.11928813,11.25 1.05726686e-15,10.1307119 8.8817842e-16,8.75 C-1.69088438e-16,7.36928813 1.11928813,6.25 2.5,6.25 Z M8.375,6.99999491 L13.7083333,6.99999491 C14.5367605,6.99999491 15.2083333,7.67156779 15.2083333,8.49999491 L15.2083333,8.83332825 C15.2083333,9.66175537 14.5367605,10.3333282 13.7083333,10.3333282 L8.375,10.3333282 C7.54657288,10.3333282 6.875,9.66175537 6.875,8.83332825 L6.875,8.49999491 C6.875,7.67156779 7.54657288,6.99999491 8.375,6.99999491 Z" transform="translate(2.5 4.167)"/>
</svg>
