<svg xmlns="http://www.w3.org/2000/svg" xmlns:xlink="http://www.w3.org/1999/xlink" width="20" height="20"><defs><path id="a" d="M17.692 10.035c-.01.301-.37 1.4.886 2.084a.216.216 0 0 1-.079.404c-.01.001-.235.024-.59.006-.599-.032-1.706-.3-2.568-.876-.567.2-1.177.309-1.812.309h-1.45A5.475 5.475 0 0 1 6.61 6.48C6.609 3.46 9.059 1 12.079 1h1.45A5.475 5.475 0 0 1 19 6.48a5.465 5.465 0 0 1-1.308 3.555zm-2.31 3.362a6.939 6.939 0 0 1-6.628 4.873H6.941a6.918 6.918 0 0 1-2.303-.393c-1.093.73-2.497 1.071-3.255 1.11a5.127 5.127 0 0 1-.749-.007.274.274 0 0 1-.1-.512c1.596-.869 1.132-2.265 1.123-2.643A6.94 6.94 0 0 1 5.205 4.603a7.176 7.176 0 0 0-.248 1.878c0 3.953 3.215 7.173 7.181 7.173h1.332a7.2 7.2 0 0 0 1.912-.257z"/></defs><use fill="#57B359" xlink:href="#a" fill-rule="evenodd"/></svg>