<svg xmlns="http://www.w3.org/2000/svg" width="20" height="20" viewBox="0 0 20 20">
  <g fill="#454545" fill-rule="evenodd" transform="translate(3 2)">
    <path d="M7.0004006 8C4.78988483 8 3 6.21007637 3 4 3 1.78992363 4.78988483 0 7.0004006 0 9.21011517 0 11 1.78992363 11 4 11 6.21007637 9.21011517 8 7.0004006 8zM0 14.3333333C0 11.1463415 2.99502275 9 7 9 11.0049772 9 14 11.1463415 14 14.3333333L14 15C14 16.1045695 13.1045695 17 12 17L2 17C.8954305 17 1.3527075e-16 16.1045695 0 15L0 14.3333333z"/>
  </g>
</svg>
