<svg xmlns="http://www.w3.org/2000/svg" width="48" height="48" viewBox="0 0 48 48">
  <path fill="#57B359" fill-rule="evenodd" d="M924,580 C910.745166,580 900,569.254834 900,556 C900,542.745166 910.745166,532 924,532 C937.254834,532 948,542.745166 948,556 C948,569.254834 937.254834,580 924,580 Z M928.316364,560.372988 C928.051591,561.548781 924.236733,560.509528 922.371547,558.650415 C920.506361,556.791067 919.465547,552.980521 920.643352,552.724958 C922.456803,552.331471 922.351211,547.525579 921.297294,546.475977 C920.243377,545.426374 916.129325,546.341275 915.437762,547.032748 C914.072753,548.397579 915.898754,555.066168 920.932895,560.084858 C925.967742,565.102608 932.663005,566.926324 934.027175,565.562332 C934.726143,564.863455 935.493471,560.624984 934.586236,559.720708 C933.679001,558.816431 928.722613,558.568934 928.316364,560.372988 Z" transform="translate(-900 -532)"/>
</svg>
