<svg xmlns="http://www.w3.org/2000/svg" width="48" height="48" viewBox="0 0 48 48">
  <path fill="#57B359" fill-rule="evenodd" d="M929,645.213429 L929,641 C929,639.895431 928.104569,639 927,639 L915,639 C913.895431,639 913,639.895431 913,641 L913,652 C913,653.104569 913.895431,654 915,654 L927,654 C928.104569,654 929,653.104569 929,652 L929,647.786586 L929,645.213429 Z M924,671 C910.745166,671 900,660.254834 900,647 C900,633.745166 910.745166,623 924,623 C937.254834,623 948,633.745166 948,647 C948,660.254834 937.254834,671 924,671 Z M929,645.213429 L929,647.786586 L933.813036,651.984006 C934.040694,652.182546 934.332546,652.29193 934.634615,652.29193 C935.324971,652.29193 935.884615,651.732286 935.884615,651.04193 L935.884615,641.958084 C935.884615,641.656015 935.775231,641.364163 935.576692,641.136505 C935.122946,640.616211 934.333331,640.562263 933.813036,641.016008 L929,645.213429 Z" transform="translate(-900 -623)"/>
</svg>
