<svg xmlns="http://www.w3.org/2000/svg" width="48" height="48" viewBox="0 0 48 48">
  <path fill="#57B359" fill-rule="evenodd" d="M923,755 C909.745166,755 899,744.254834 899,731 C899,717.745166 909.745166,707 923,707 C936.254834,707 947,717.745166 947,731 C947,744.254834 936.254834,755 923,755 Z M921.5,722 C916.80558,722 913,725.80558 913,730.5 L913,731.004517 C913.011393,731.957153 913.259928,732.990438 913.745605,734.10437 C914.474121,735.775269 914.81441,735.89569 915.05127,736.59516 C915.787842,738.770331 913.177979,739.232422 913.461792,739.767822 C913.745605,740.303223 915.432678,740.037476 916.681641,739.596313 C917.514282,739.302205 918.237203,738.981791 918.850403,738.635071 C919.189799,738.878357 919.815206,739 920.726624,739 C921.984416,739 923.242208,739 924.5,739 C929.19442,739 933,735.19442 933,730.5 C933,725.80558 929.19442,722 924.5,722 L921.5,722 Z" transform="translate(-899 -707)"/>
</svg>
