<svg xmlns="http://www.w3.org/2000/svg" xmlns:xlink="http://www.w3.org/1999/xlink" width="20" height="20" viewBox="0 0 20 20">
  <defs>
    <path id="{contacts}-a" d="M11.8792124,10.4168522 C12.6487474,10.150686 13.5372331,10 14.5,10 C17.6467678,10 20,11.6097561 20,13.6 L20,14.5714286 C20,15.3604068 19.3604068,16 18.5714286,16 L14.339387,16 C14.3424949,15.9527823 14.3440734,15.9051469 14.3440734,15.8571429 L14.3440734,15 C14.3440734,13.0670239 13.4113576,11.4743333 11.8792124,10.4168522 Z M6.50035053,9 C4.56614922,9 3,7.43381682 3,5.5 C3,3.56618318 4.56614922,2 6.50035053,2 C8.43385078,2 10,3.56618318 10,5.5 C10,7.43381682 8.43385078,9 6.50035053,9 Z M-4.4408921e-16,14.6666667 C-4.4408921e-16,11.8780488 2.78109256,10 6.5,10 C10.2189074,10 13,11.8780488 13,14.6666667 L13,15.2857143 C13,16.2324881 12.2324881,17 11.2857143,17 L1.71428571,17 C0.767511857,17 -7.72232062e-16,16.2324881 -8.8817842e-16,15.2857143 L-4.4408921e-16,14.6666667 Z M14.5002504,9 C13.118678,9 12,7.88129773 12,6.5 C12,5.11870227 13.118678,4 14.5002504,4 C15.881322,4 17,5.11870227 17,6.5 C17,7.88129773 15.881322,9 14.5002504,9 Z"/>
  </defs>
  <g fill="none" fill-rule="evenodd">
    <mask id="{contacts}-b" fill="#fff">
      <use xlink:href="#{contacts}-a"/>
    </mask>
    <use fill="#454545" xlink:href="#{contacts}-a"/>
    
  </g>
</svg>
