<svg xmlns="http://www.w3.org/2000/svg" xmlns:xlink="http://www.w3.org/1999/xlink" width="20" height="20"><defs><path id="a" d="M10.884 11.657a.7.7 0 0 1 0 1.4H9.43A4.43 4.43 0 0 1 5 8.627V5.43a4.43 4.43 0 1 1 8.86 0v1.614a.7.7 0 0 1-1.4 0V5.43a3.03 3.03 0 0 0-6.06 0v3.197a3.03 3.03 0 0 0 3.03 3.03h1.454zM8.546 9.063a.7.7 0 1 1 0-1.4h1.453a4.43 4.43 0 0 1 4.43 4.43v3.197a4.43 4.43 0 0 1-8.86 0v-1.614a.7.7 0 1 1 1.4 0v1.614a3.03 3.03 0 1 0 6.06 0v-3.197A3.03 3.03 0 0 0 10 9.063H8.546z"/></defs><use fill="#979797" fill-rule="nonzero" transform="rotate(45 9.715 10.36)" xlink:href="#a"/></svg>