<svg xmlns="http://www.w3.org/2000/svg" xmlns:xlink="http://www.w3.org/1999/xlink" width="20" height="20" viewBox="0 0 20 20">
  <defs>
    <path id="add_channel_icon-a" d="M3.5,10.6 L3.5,11.9636364 C3.5,12.3703188 3.23137085,12.7 2.9,12.7 C2.56862915,12.7 2.3,12.3703188 2.3,11.9636364 L2.3,10.6 L0.936363636,10.6 C0.52968123,10.6 0.2,10.3313708 0.2,10 C0.2,9.66862915 0.52968123,9.4 0.936363636,9.4 L2.3,9.4 L2.3,8.03636364 C2.3,7.62968123 2.56862915,7.3 2.9,7.3 C3.23137085,7.3 3.5,7.62968123 3.5,8.03636364 L3.5,9.4 L4.86363636,9.4 C5.27031877,9.4 5.6,9.66862915 5.6,10 C5.6,10.3313708 5.27031877,10.6 4.86363636,10.6 L3.5,10.6 Z M9.18553706,12.0492398 C9.14627445,12.041271 9.13625622,12.0392377 9.11228277,12.0378758 L9.18553706,12.0492398 Z M9.91115172,12.0365009 C10.1806054,12.0365009 10.4170109,12.2161299 10.4892113,12.4757304 C10.8768962,13.8696733 11.1892997,14.8954253 11.4241242,15.5474115 C11.4876691,15.7238429 11.6255473,15.785051 11.8364133,15.7137329 L12.1311788,15.6314083 C12.3633876,15.5518196 12.3995311,15.4905107 12.3204963,15.2553439 C12.1396336,14.7206722 11.8726877,13.9098044 11.5193449,12.8218354 C11.3934451,12.4341805 11.6824165,12.0365009 12.0900034,12.0365009 L14.2710281,12.0365009 C14.4177075,12.0365009 14.5593059,12.0902311 14.6690622,12.1875367 L17.3210564,14.5386911 C17.3367621,14.5522838 17.3367621,14.5522838 17.3532252,14.565269 C17.4540808,14.6427937 17.5745543,14.6846729 17.7021712,14.6846729 C18.049521,14.6846729 18.1819824,14.5603294 18.1819824,14.2442394 L18.1819824,5.01966096 C18.1819824,4.71243838 18.0585702,4.6 17.7021712,4.6 C17.5559964,4.6 17.4188566,4.65515578 17.2937825,4.77038576 L14.6618111,7.02575539 C14.5530736,7.11893388 14.4145961,7.17014962 14.2713967,7.17014962 L9.10372378,7.17014962 C8.25415092,7.22822513 7.6,7.93748266 7.6,8.79934421 L7.6,10.4073064 C7.6,11.2692169 8.25414115,11.9784638 9.08134506,12.0330764 L9.91115172,12.0365009 Z M14.0495318,5.97014962 L16.4956676,3.87457516 C16.8225692,3.57181165 17.2497629,3.4 17.7021712,3.4 C18.6976616,3.4 19.3819824,4.02347104 19.3819824,5.01966096 L19.3819824,14.2442394 C19.3819824,15.2406297 18.6958921,15.8846729 17.7021712,15.8846729 C17.3070847,15.8846729 16.9302211,15.753667 16.6214843,15.51635 C16.5726548,15.4778689 16.5726548,15.4778689 16.525133,15.4367478 L14.0433555,13.2365009 L12.9164357,13.2365009 C13.1442588,13.9337588 13.3246378,14.4788766 13.457598,14.8719401 C13.7609774,15.7746275 13.3422885,16.4848331 12.4888198,16.776401 L12.1940543,16.8587256 C11.4090264,17.1277911 10.5863254,16.76257 10.2951198,15.9540427 C10.0742099,15.3406903 9.79511332,14.4361708 9.45618835,13.2365009 L9.08099529,13.2365009 C9.02206719,13.2341817 9.00112048,13.2333573 8.96918322,13.2280849 C7.52329645,13.1152426 6.4,11.8861345 6.4,10.4073064 L6.4,8.79934421 C6.4,7.32070417 7.5230888,6.0916936 8.96877408,5.97859881 C8.9999879,5.97348749 9.02116822,5.97261477 9.08099529,5.97014962 L14.0495318,5.97014962 Z M15.1,10.6304757 L15.1,8.34695352 C15.1,8.01558267 14.8313708,7.74695352 14.5,7.74695352 C14.1686292,7.74695352 13.9,8.01558267 13.9,8.34695352 L13.9,10.6304757 C13.9,10.9618465 14.1686292,11.2304757 14.5,11.2304757 C14.8313708,11.2304757 15.1,10.9618465 15.1,10.6304757 Z"/>
  </defs>
  <g fill="none" fill-rule="evenodd">
    <rect width="20" height="20"/>
    <use fill="#A8ADB8" fill-rule="nonzero" xlink:href="#add_channel_icon-a"/>
  </g>
</svg>
