<svg xmlns="http://www.w3.org/2000/svg" width="20" height="20" viewBox="0 0 20 20">
  <g fill="none">
    <rect width="20" height="20"/>
    <path fill="#A8ADB8" d="M8.42297035,7.36020242 L8.42297035,7.7570659 C8.42297035,8.8783319 9.33577691,9.78948699 10.4601795,9.78948699 C11.5845343,9.78948699 12.4973343,8.87832542 12.4973343,7.7570659 L12.4973343,7.36020242 C12.4973343,6.2388951 11.5845408,5.32772705 10.4601795,5.32772705 C9.3357704,5.32772705 8.42297035,6.23888862 8.42297035,7.36020242 Z M7.22297035,7.36020242 C7.22297035,5.57566381 8.67351085,4.12772705 10.4601795,4.12772705 C12.2468042,4.12772705 13.6973343,5.57567413 13.6973343,7.36020242 L13.6973343,7.7570659 C13.6973343,9.54155022 12.2467938,10.989487 10.4601795,10.989487 C8.67352117,10.989487 7.22297035,9.54156054 7.22297035,7.7570659 L7.22297035,7.36020242 Z M6.63031633,14.8113985 L6.63031633,15.1903591 C6.63031633,15.2888975 6.71134102,15.3697767 6.8111356,15.3697767 L14.1092235,15.3697767 C14.2089948,15.3697767 14.2899884,15.2889208 14.2899884,15.1903591 L14.2899884,14.8113985 C14.2899884,12.702493 12.5739165,10.989487 10.4601795,10.989487 C8.3463955,10.989487 6.63031633,12.7024858 6.63031633,14.8113985 Z M5.43031633,14.8113985 C5.43031633,12.039261 7.68413594,9.78948699 10.4601795,9.78948699 C13.2361783,9.78948699 15.4899884,12.0392705 15.4899884,14.8113985 L15.4899884,15.1903591 C15.4899884,15.9521197 14.8712801,16.5697767 14.1092235,16.5697767 L6.8111356,16.5697767 C6.04908147,16.5697767 5.43031633,15.9521223 5.43031633,15.1903591 L5.43031633,14.8113985 Z M3.9,10.6 L3.9,11.9636364 C3.9,12.3703188 3.63137085,12.7 3.3,12.7 C2.96862915,12.7 2.7,12.3703188 2.7,11.9636364 L2.7,10.6 L1.33636364,10.6 C0.92968123,10.6 0.6,10.3313708 0.6,10 C0.6,9.66862915 0.92968123,9.4 1.33636364,9.4 L2.7,9.4 L2.7,8.03636364 C2.7,7.62968123 2.96862915,7.3 3.3,7.3 C3.63137085,7.3 3.9,7.62968123 3.9,8.03636364 L3.9,9.4 L5.26363636,9.4 C5.67031877,9.4 6,9.66862915 6,10 C6,10.3313708 5.67031877,10.6 5.26363636,10.6 L3.9,10.6 Z M17.6189288,10.8656802 C18.8882109,11.426615 19.7741196,12.6700388 19.7741196,14.1177176 L19.7741196,14.3722391 C19.7741196,14.9971338 19.2584899,15.495802 18.6327484,15.495802 L14.6406961,15.495802 L14.6406961,14.295802 L18.5741196,14.295802 L18.5741196,14.1177176 C18.5741196,12.814366 17.4709499,11.7474848 16.1028585,11.7474848 C15.3640863,11.7474848 14.6801249,12.0602887 14.2131484,12.5912573 L13.31206,11.7987678 C13.6419112,11.4237155 14.0436835,11.1223921 14.4911346,10.9094954 C13.9478805,10.4758418 13.6,9.81686946 13.6,9.07652105 L13.6,8.86822854 C13.6,7.55636023 14.6922908,6.5 16.0283724,6.5 C17.3644539,6.5 18.4567447,7.55636023 18.4567447,8.86822854 L18.4567447,9.07652105 C18.4567447,9.79235403 18.1315217,10.432111 17.6189288,10.8656802 Z M17.2567447,8.76822854 C17.2567447,8.12824956 16.7105275,7.6 16.0283724,7.6 C15.3462172,7.6 14.8,8.12824956 14.8,8.76822854 L14.8,8.97652105 C14.8,9.61650002 15.3462172,10.1447496 16.0283724,10.1447496 C16.7105275,10.1447496 17.2567447,9.61650002 17.2567447,8.97652105 L17.2567447,8.76822854 Z"/>
  </g>
</svg>
