<svg width="17" height="16" viewBox="0 0 17 16" fill="none" xmlns="http://www.w3.org/2000/svg">
<path fill-rule="evenodd" clip-rule="evenodd" d="M3.58034 8.53929C3.53511 8.58453 3.4939 8.63227 3.45673 8.68206C3.07543 9.06602 2.86133 9.58527 2.86133 10.1266V11.7867C2.86133 12.7808 3.66721 13.5867 4.66133 13.5867H6.32147C6.86517 13.5867 7.38659 13.3707 7.77104 12.9863L8.78678 11.9706C8.82097 11.9364 8.85285 11.9008 8.88244 11.8639L13.4536 7.29277C14.2416 6.50476 14.3901 5.13618 13.4975 4.24361L12.1894 2.93549C11.2958 2.04189 9.92928 2.19035 9.14022 2.97942L3.58034 8.53929ZM7.86754 11.0513L6.8518 12.0671C6.71115 12.2077 6.52039 12.2867 6.32147 12.2867H4.66133C4.38519 12.2867 4.16133 12.0629 4.16133 11.7867V10.1266C4.16133 9.92785 4.24058 9.73687 4.381 9.59625L4.50915 9.4681L4.49958 9.45853L8.19205 5.76606L10.6669 8.24096L7.86203 11.0458L7.86754 11.0513ZM11.5861 7.32176L12.5343 6.37353C12.8797 6.02815 12.9005 5.48504 12.5783 5.16285L11.2701 3.85472C10.9469 3.53153 10.4059 3.5522 10.0595 3.89866L9.11125 4.84686L11.5861 7.32176Z" fill="white"/>
</svg>
