<svg width="16" height="16" viewBox="0 0 16 16" fill="none" xmlns="http://www.w3.org/2000/svg">
<path fill-rule="evenodd" clip-rule="evenodd" d="M10.9802 7.39139L11.998 6.37354C12.3434 6.02816 12.3641 5.48505 12.0419 5.16286L10.7338 3.85474C10.4106 3.53154 9.86958 3.55222 9.52313 3.89867L8.50528 4.91652L10.9802 7.39139ZM7.5772 5.8446L3.96325 9.45855L3.97282 9.46812L3.84467 9.59627C3.70402 9.73692 3.625 9.92769 3.625 10.1266V11.7867C3.625 12.0629 3.84886 12.2867 4.125 12.2867H5.78515C5.98406 12.2867 6.17482 12.2077 6.31548 12.0671L7.33121 11.0513L7.32571 11.0458L10.0521 8.31947L7.5772 5.8446Z" fill="white"/>
</svg>
