<?xml version="1.0" encoding="UTF-8"?>
<svg width="20px" height="20px" viewBox="0 0 20 20" version="1.1" xmlns="http://www.w3.org/2000/svg" xmlns:xlink="http://www.w3.org/1999/xlink">
    <!-- Generator: Sketch 53 (72520) - https://sketchapp.com -->
    <title>Rectangle</title>
    <desc>Created with Sketch.</desc>
    <g id="Page-2" stroke="none" stroke-width="1" fill="none" fill-rule="evenodd">
        <g id="exit_icon-2" fill-rule="nonzero">
            <g id="exit_icon">
                <g id="Rectangle-37">
                    <rect id="Rectangle" x="0" y="0" width="20" height="20"></rect>
                    <path d="M8.46438566,6.34120009 C8.46438566,6.72779941 8.15098499,7.04120009 7.76438566,7.04120009 C7.37778634,7.04120009 7.06438566,6.72779941 7.06438566,6.34120009 L7.06438566,4.55555556 C7.06438566,3.29159564 8.1715432,2.3 9.50122777,2.3 L17.0275436,2.3 C18.3572281,2.3 19.4643857,3.29159564 19.4643857,4.55555556 L19.4643857,15.4444444 C19.4643857,16.7084044 18.3572281,17.7 17.0275436,17.7 L9.50122777,17.7 C8.1715432,17.7 7.06438566,16.7084044 7.06438566,15.4444444 L7.06438566,13.1643338 C7.06438566,12.7777344 7.37778634,12.4643338 7.76438566,12.4643338 C8.15098499,12.4643338 8.46438566,12.7777344 8.46438566,13.1643338 L8.46438566,15.4444444 C8.46438566,15.8987037 8.91244952,16.3 9.50122777,16.3 L17.0275436,16.3 C17.6163218,16.3 18.0643857,15.8987037 18.0643857,15.4444444 L18.0643857,4.55555556 C18.0643857,4.10129625 17.6163218,3.7 17.0275436,3.7 L9.50122777,3.7 C8.91244952,3.7 8.46438566,4.10129625 8.46438566,4.55555556 L8.46438566,6.34120009 Z M2.73989694,9 L13.9148,9 C14.3013994,9 14.6148,9.31340068 14.6148,9.7 C14.6148,10.0865993 14.3013994,10.4 13.9148,10.4 L2.69459919,10.4 L5.34900306,12.9952547 C5.62543261,13.2655244 5.63042611,13.7087118 5.36015635,13.9851413 C5.0898866,14.2615709 4.64669924,14.2665644 4.37026969,13.9962946 L0.510633318,10.2226642 C0.229788894,9.94807791 0.229788894,9.49621045 0.510633318,9.2216242 L4.31760997,5.49948002 C4.59403953,5.22921026 5.03722688,5.23420377 5.30749664,5.51063332 C5.57776639,5.78706287 5.57277289,6.23025023 5.29634334,6.50051998 L2.73989694,9 Z" id="path-1" fill="#B7BCC9"></path>
                </g>
            </g>
        </g>
    </g>
</svg>