<svg width="20" height="21" viewBox="0 0 20 21" fill="none" xmlns="http://www.w3.org/2000/svg">
<path fill-rule="evenodd" clip-rule="evenodd" d="M9.79988 15.941L5.49312 18.8381C5.31217 18.9598 5.07589 18.8969 4.96537 18.6976C4.9125 18.6023 4.89603 18.4878 4.91956 18.3791L6.09051 12.973C6.12391 12.8188 6.07616 12.6569 5.96683 12.5538L2.13416 8.93809C1.97314 8.78618 1.95442 8.51926 2.09235 8.34192C2.15834 8.25708 2.25213 8.20445 2.35324 8.19553L7.38368 7.75138C7.52718 7.73871 7.65219 7.63869 7.70748 7.4923L9.64552 2.36064C9.72694 2.14504 9.95166 2.04295 10.1474 2.13263C10.2411 2.17553 10.3155 2.2575 10.3545 2.36064L12.2925 7.4923C12.3478 7.63869 12.4728 7.73871 12.6163 7.75138L17.6467 8.19553C17.8581 8.21419 18.0157 8.41801 17.9988 8.65077C17.9906 8.76212 17.9429 8.86542 17.8658 8.93809L14.0332 12.5538C13.9238 12.6569 13.8761 12.8188 13.9095 12.973L15.0804 18.3791C15.1296 18.6063 15.0023 18.8343 14.7961 18.8885C14.6974 18.9144 14.5934 18.8963 14.5069 18.8381L10.2001 15.941C10.0773 15.8584 9.92274 15.8584 9.79988 15.941Z" fill="white" stroke="white" stroke-width="1.3" stroke-linecap="round" stroke-linejoin="round"/>
</svg>
