<svg width="16" height="16" viewBox="0 0 16 16" fill="none" xmlns="http://www.w3.org/2000/svg">
<g id="ic_groupcall_fill">
<g id="Group 214">
<g id="Group 213">
<ellipse id="Ellipse 3" cx="5.66002" cy="4.42217" rx="2.08004" ry="2.22222" fill="#B7BCC9"/>
<ellipse id="Ellipse 4" cx="11.16" cy="5.26664" rx="1.56003" ry="1.66667" fill="#B7BCC9"/>
<path id="Rectangle 790" d="M1.5 10.8805C1.5 9.1546 2.89911 7.75549 4.625 7.75549H6.69515C8.42104 7.75549 9.82015 9.1546 9.82015 10.8805V10.9499C9.82015 11.6403 9.26051 12.1999 8.57015 12.1999H2.75C2.05964 12.1999 1.5 11.6403 1.5 10.9499V10.8805Z" fill="#B7BCC9"/>
<path id="Subtract" fill-rule="evenodd" clip-rule="evenodd" d="M10.8419 11.0888H13.5476C14.0736 11.0888 14.5 10.6624 14.5 10.1364C14.5 8.82148 13.434 7.75549 12.119 7.75549H9.60081C9.56407 7.75549 9.52752 7.75633 9.49118 7.75797C10.2934 8.31609 10.822 9.24085 10.8333 10.2912L10.8419 11.0888Z" fill="#B7BCC9"/>
</g>
</g>
</g>
</svg>
