<svg xmlns="http://www.w3.org/2000/svg" xmlns:xlink="http://www.w3.org/1999/xlink" width="20" height="20"><defs><path id="a" d="M2.1 2a.7.7 0 0 1 .7.7v15.152a.7.7 0 1 1-1.4 0V2.7a.7.7 0 0 1 .7-.7zm12.185 4.08c-.975-.054-1.705-.258-2.65-.666-.121-.052-.545-.24-.633-.279-.875-.38-1.528-.569-2.515-.668-1.241-.124-2.24-.073-2.994.13v6.476c1.14-.132 2.26-.13 3.357.004.947.117 1.583.325 2.62.779l.153.067c1.104.482 1.692.645 2.79.674 1.27.033 2.272-.174 3.032-.6V5.714a9.419 9.419 0 0 1-3.16.368zM4.323 3.538c1.05-.491 2.484-.645 4.304-.463 2.935.294 3.522 1.483 5.737 1.61 1.293.072 2.6-.182 3.92-.764a.4.4 0 0 1 .56.367v8.25a.4.4 0 0 1-.159.32c-1.07.806-2.507 1.186-4.31 1.14-2.84-.075-3.476-1.257-5.695-1.53-1.33-.164-2.7-.109-4.111.165a.4.4 0 0 1-.476-.393v-8.34a.4.4 0 0 1 .23-.362z"/></defs><use fill="#B7BCC9" xlink:href="#a" fill-rule="evenodd"/></svg>