<svg width="24" height="24" viewBox="0 0 24 24" fill="none" xmlns="http://www.w3.org/2000/svg">
<g id="link_icon 1">
<g clip-path="url(#clip0)">
<g id="Group">
<path id="Vector" d="M11.5492 14.524C11.8772 14.852 11.8772 15.3839 11.5492 15.7119C11.2211 16.04 10.6893 16.04 10.3612 15.7119L9.12774 14.4784C7.05176 12.4025 7.05176 9.03663 9.12774 6.96065L11.8405 4.24786C13.9165 2.17188 17.2823 2.17188 19.3583 4.24786C21.4343 6.32384 21.4343 9.68967 19.3583 11.7656L17.9885 13.1355C17.6605 13.4635 17.1286 13.4635 16.8006 13.1354C16.4725 12.8074 16.4725 12.2756 16.8006 11.9475L18.1704 10.5777C19.5903 9.15781 19.5903 6.8557 18.1704 5.4358C16.7505 4.0159 14.4484 4.0159 13.0285 5.4358L10.3157 8.14859C8.89578 9.56849 8.89578 11.8706 10.3157 13.2905L11.5492 14.524ZM11.7659 10.3396C11.4378 10.0116 11.4378 9.47971 11.7659 9.15167C12.0939 8.82363 12.6258 8.82363 12.9538 9.15167L14.1873 10.3852C16.2633 12.4611 16.2633 15.827 14.1873 17.9029L11.4745 20.6157C9.39852 22.6917 6.0327 22.6917 3.95672 20.6157C1.88074 18.5398 1.88074 15.1739 3.95671 13.098L5.32652 11.7281C5.65456 11.4001 6.18642 11.4001 6.51446 11.7281C6.8425 12.0562 6.8425 12.588 6.51446 12.9161L5.14465 14.2859C3.72476 15.7058 3.72475 18.0079 5.14465 19.4278C6.56455 20.8477 8.86666 20.8477 10.2866 19.4278L12.9994 16.715C14.4193 15.2951 14.4193 12.993 12.9994 11.5731L11.7659 10.3396Z" fill="#B7BCC9"/>
</g>
</g>
</g>
<defs>
<clipPath id="clip0">
<rect width="24" height="24" fill="white"/>
</clipPath>
</defs>
</svg>
