<svg width="22" height="22" viewBox="0 0 22 22" fill="none" xmlns="http://www.w3.org/2000/svg">
<path fill-rule="evenodd" clip-rule="evenodd" d="M14.3087 10.9999C14.3087 12.8244 12.8244 14.3088 10.9999 14.3088C9.17548 14.3088 7.6912 12.8244 7.6912 10.9999C7.6912 9.17551 9.17548 7.69127 10.9999 7.69127C12.8244 7.69127 14.3087 9.17551 14.3087 10.9999ZM10.9999 0C4.93453 0 0 4.93456 0 10.9999C0 17.0654 4.93453 22 10.9999 22C13.2221 22 15.3647 21.3384 17.196 20.0868L17.2278 20.065L15.7459 18.3421L15.7207 18.3584C14.3108 19.2654 12.6784 19.7447 10.9999 19.7447C6.17809 19.7447 2.25526 15.8218 2.25526 10.9999C2.25526 6.17805 6.17809 2.25523 10.9999 2.25523C15.8218 2.25523 19.7447 6.17805 19.7447 10.9999C19.7447 11.6248 19.6754 12.2574 19.5389 12.8798C19.2621 14.0146 18.4677 14.3624 17.8708 14.3163C17.2709 14.2679 16.5686 13.8401 16.564 12.7935V10.9999C16.564 7.93195 14.068 5.43599 10.9999 5.43599C7.93199 5.43599 5.43597 7.93195 5.43597 10.9999C5.43597 14.068 7.93199 16.564 10.9999 16.564C12.4901 16.564 13.8882 15.9811 14.942 14.9215C15.5546 15.8751 16.5537 16.473 17.6901 16.5642C17.7876 16.5721 17.8872 16.5761 17.986 16.5761C18.7862 16.5761 19.5791 16.3086 20.2186 15.8232C20.8781 15.3226 21.3702 14.5984 21.6421 13.7289C21.686 13.5885 21.7655 13.2666 21.7659 13.2646L21.7683 13.253C21.9285 12.5548 22 11.8592 22 10.9999C22 4.93456 17.0654 0 10.9999 0Z" fill="#FF9E3A"/>
</svg>
