<svg xmlns="http://www.w3.org/2000/svg" width="20" height="20" viewBox="0 0 20 20">
  <g fill="none" fill-rule="evenodd">
    <rect width="20" height="20"/>
    <path fill="#A8ADB8" fill-rule="nonzero" d="M10,16.5 C13.5898509,16.5 16.5,13.5898509 16.5,10 C16.5,6.41014913 13.5898509,3.5 10,3.5 C6.41014913,3.5 3.5,6.41014913 3.5,10 C3.5,13.5898509 6.41014913,16.5 10,16.5 Z M10,18 C5.581722,18 2,14.418278 2,10 C2,5.581722 5.581722,2 10,2 C14.418278,2 18,5.581722 18,10 C18,14.418278 14.418278,18 10,18 Z M7.25,9.5 C7.94035594,9.5 8.5,8.94035594 8.5,8.25 C8.5,7.55964406 7.94035594,7 7.25,7 C6.55964406,7 6,7.55964406 6,8.25 C6,8.94035594 6.55964406,9.5 7.25,9.5 Z M12.75,9.5 C13.4403559,9.5 14,8.94035594 14,8.25 C14,7.55964406 13.4403559,7 12.75,7 C12.0596441,7 11.5,7.55964406 11.5,8.25 C11.5,8.94035594 12.0596441,9.5 12.75,9.5 Z M6.10532511,11 C6.05138847,11 5.99769804,11.007272 5.94570465,11.0216194 C5.62623808,11.1097753 5.43872377,11.4402187 5.52687972,11.7596853 L5.52694218,11.759668 C6.12304946,13.9198893 7.61350093,15 9.99829658,15 C12.383118,15 13.8735759,13.919866 14.4696703,11.7595981 C14.4840151,11.7076119 14.4912857,11.653929 14.4912857,11.6 C14.4912857,11.2686265 14.2226544,10.9999951 13.8912809,10.9999951 L6.10532511,11 Z"/>
  </g>
</svg>
