<svg xmlns="http://www.w3.org/2000/svg" xmlns:xlink="http://www.w3.org/1999/xlink" width="20" height="20" viewBox="0 0 20 20">
  <defs>
    <path id="message_type_video_icon-a" d="M14.5,8.67803002 L17.6794584,5.69425582 C18.082179,5.31632122 18.7150251,5.33641424 19.0929597,5.73913485 C19.2669356,5.92452059 19.3637695,6.16921085 19.3637695,6.42344597 L19.3637695,13.9527315 C19.3637695,14.5050162 18.9160543,14.9527315 18.3637695,14.9527315 C18.1095344,14.9527315 17.8648442,14.8558976 17.6794584,14.6819216 L14.5,11.6981474 L14.5,15 C14.5,16.1045695 13.6045695,17 12.5,17 L2.5,17 C1.3954305,17 0.5,16.1045695 0.5,15 L0.5,5 C0.5,3.8954305 1.3954305,3 2.5,3 L12.5,3 C13.6045695,3 14.5,3.8954305 14.5,5 L14.5,8.67803002 Z"/>
  </defs>
  <g fill="none" fill-rule="evenodd">
    <rect width="20" height="20"/>
    <use fill="#A8ADB8" xlink:href="#message_type_video_icon-a"/>
  </g>
</svg>
