<svg xmlns="http://www.w3.org/2000/svg" xmlns:xlink="http://www.w3.org/1999/xlink" width="20" height="20" viewBox="0 0 20 20">
  <defs>
    <path id="photo}-copy-a" d="M7.60139696,2.07640905 L12.398603,2.07640905 C13.989528,2.07640905 14.7847925,2.07640905 15.6412006,2.34713174 C16.5761843,2.68744997 17.31255,3.42381569 17.6528683,4.35879942 C17.923591,5.21507548 17.923591,6.01060401 17.923591,7.60139696 L17.923591,12.398603 C17.923591,13.989528 17.923591,14.7847925 17.6528683,15.6412006 C17.31255,16.5761843 16.5761843,17.31255 15.6412006,17.6527362 C14.7847925,17.923591 13.989528,17.923591 12.398603,17.923591 L7.60139696,17.923591 C6.01047195,17.923591 5.21507548,17.923591 4.35879942,17.6527362 C3.42381569,17.31255 2.68744997,16.5761843 2.34713174,15.6412006 C2.07640905,14.7847925 2.07640905,13.989528 2.07640905,12.398603 L2.07640905,7.60139696 C2.07640905,6.01060401 2.07640905,5.21507548 2.34713174,4.35879942 C2.68744997,3.42381569 3.42381569,2.68744997 4.35879942,2.34713174 C5.21507548,2.07640905 6.01047195,2.07640905 7.60139696,2.07640905 Z M10,14.7541546 C12.6256471,14.7541546 14.7541546,12.6256471 14.7541546,10 C14.7541546,7.37435293 12.6256471,5.24584543 10,5.24584543 C7.37435293,5.24584543 5.24584543,7.37435293 5.24584543,10 C5.24584543,12.6256471 7.37435293,14.7541546 10,14.7541546 Z M10,13.48638 C8.07452548,13.48638 6.51361998,11.9254745 6.51361998,10 C6.51361998,8.07452548 8.07452548,6.51361998 10,6.51361998 C11.9254745,6.51361998 13.48638,8.07452548 13.48638,10 C13.48638,11.9254745 11.9254745,13.48638 10,13.48638 Z"/>
  </defs>
  <g fill="none" fill-rule="evenodd">
    <rect width="20" height="20"/>
    <use fill="#A8ADB8" xlink:href="#photo}-copy-a"/>
  </g>
</svg>
