<svg xmlns="http://www.w3.org/2000/svg" width="20" height="20" viewBox="0 0 20 20">
  <g fill="none" fill-rule="evenodd">
    <rect width="20" height="20"/>
    <path fill="#A8ADB8" fill-rule="nonzero" d="M3.33452324,10.3703704 C3.33373342,10.3559464 3.33333333,10.3414186 3.33333333,10.3267974 L3.33333333,10.043573 C3.33333333,9.61040848 3.68448255,9.25925926 4.11764706,9.25925926 C4.55081157,9.25925926 4.90196078,9.61040848 4.90196078,10.043573 L4.90196078,10.3267974 C4.90196078,10.3414186 4.9015607,10.3559464 4.90077088,10.3703704 L4.90329842,10.3703704 C4.96597633,13.0400526 7.22339363,15.1851852 10,15.1851852 C12.7763931,15.1851852 15.0340209,13.0401857 15.0967016,10.3703704 L15.0980392,10.3703704 L15.0980392,9.98842593 C15.0980392,9.5857183 15.4244983,9.25925926 15.8272059,9.25925926 L15.9375,9.25925926 C16.3402076,9.25925926 16.6666667,9.5857183 16.6666667,9.98842593 L16.6666667,10.3703704 L16.6666667,10.6286353 C16.6666667,13.723635 14.096604,16.2738343 10.7843137,16.6253312 L10.7843137,18.1045752 C10.7843137,18.5377397 10.4331645,18.8888889 10,18.8888889 C9.56683549,18.8888889 9.21568627,18.5377397 9.21568627,18.1045752 L9.21568627,16.6253377 C5.90277683,16.2738237 3.33333333,13.7230715 3.33333333,10.6286353 L3.33333333,10.3703704 L3.33452324,10.3703704 Z M6.8627451,4.34185152 C6.8627451,2.55845158 8.26734196,1.11111111 10,1.11111111 C11.733039,1.11111111 13.1372549,2.55756286 13.1372549,4.34185152 L13.1372549,9.73222255 C13.1372549,11.5156225 11.732658,12.962963 10,12.962963 C8.266961,12.962963 6.8627451,11.5165112 6.8627451,9.73222255 L6.8627451,4.34185152 Z"/>
  </g>
</svg>
