<svg width="12" height="12" viewBox="0 0 12 12" fill="none" xmlns="http://www.w3.org/2000/svg">
<path fill-rule="evenodd" clip-rule="evenodd" d="M1 3V9C1 10.1046 1.89543 11 3 11H9C10.1046 11 11 10.1046 11 9V3C11 1.89543 10.1046 1 9 1H3C1.89543 1 1 1.89543 1 3ZM8.95962 4.95962C9.21346 4.70578 9.21346 4.29422 8.95962 4.04038C8.70578 3.78654 8.29422 3.78654 8.04038 4.04038L5 7.08076L3.95962 6.04038C3.70578 5.78654 3.29422 5.78654 3.04038 6.04038C2.78654 6.29422 2.78654 6.70578 3.04038 6.95962L4.54038 8.45962C4.79422 8.71346 5.20578 8.71346 5.45962 8.45962L8.95962 4.95962Z" fill="#B7BCC9"/>
</svg>
