<svg xmlns="http://www.w3.org/2000/svg" width="20" height="20" viewBox="0 0 20 20">
  <g fill="none" fill-rule="evenodd">
    <rect width="20" height="20"/>
    <path fill="#A8ADB8" d="M14.7696866,17.6714013 L14.7696866,17.9306955 C14.7696866,18.2659088 14.4979424,18.5376529 14.1627291,18.5376529 C14.0434133,18.5376529 13.926744,18.5024862 13.8273034,18.4365482 L8.55433977,14.9401007 L4.06776832,14.9401007 C3.39734161,14.9401007 2.85385337,14.3966125 2.85385337,13.7261858 L2.85385337,7.48795519 C2.85385337,6.9073557 3.2614596,6.42195775 3.80612497,6.30230844 L14.7696866,17.6714013 Z M14.7696866,10.4029027 L9.71771021,5.16405871 L13.8634836,2.81470573 C14.1551242,2.64943699 14.5255224,2.75188163 14.6907911,3.04352224 C14.7425045,3.13477804 14.7696866,3.23787782 14.7696866,3.34276775 L14.7696866,10.4029027 Z M2.76062732,1.88026654 L2.90034273,1.74055113 C3.25589019,1.38500367 3.83234652,1.38500367 4.18789398,1.74055113 C4.18949463,1.74215178 4.19108931,1.7437584 4.19267798,1.74537095 L18.4613756,16.2285342 C18.8124013,16.584836 18.8102652,17.157592 18.4565916,17.5112656 L18.3168762,17.650981 C17.9613287,18.0065285 17.3848724,18.0065285 17.0293249,17.650981 C17.0277243,17.6493804 17.0261296,17.6477738 17.0245409,17.6461612 L2.75584331,3.16299797 C2.40481757,2.80669614 2.40695369,2.23394016 2.76062732,1.88026654 Z"/>
  </g>
</svg>
