<svg xmlns="http://www.w3.org/2000/svg" xmlns:xlink="http://www.w3.org/1999/xlink" width="20" height="20" viewBox="0 0 20 20">
    <defs>
        <path id="a" d="M10.205 2.549L5.419 8.227H2.214a.245.245 0 0 0-.245.245v3.246c0 .135.11.245.245.245h3.457l4.533 5.487a.245.245 0 0 0 .427-.164V2.714a.245.245 0 0 0-.426-.165zM4.77 6.758l4.349-5.2a1.714 1.714 0 0 1 2.98 1.156v14.572a1.714 1.714 0 0 1-2.99 1.146l-4.094-5H2.214A1.714 1.714 0 0 1 .5 11.718V8.472c0-.947.768-1.714 1.714-1.714h2.557zm8.773 1.705a.65.65 0 0 1 .912-.926c.827.814 1.25 1.814 1.25 2.963 0 1.15-.423 2.15-1.25 2.964a.65.65 0 1 1-.912-.927c.58-.57.862-1.237.862-2.037 0-.8-.282-1.466-.862-2.037zm2.495-2.005a.65.65 0 0 1 .922-.916c1.293 1.303 1.942 2.969 1.942 4.958 0 1.99-.649 3.655-1.942 4.958a.65.65 0 1 1-.922-.915c1.044-1.053 1.564-2.388 1.564-4.043 0-1.655-.52-2.99-1.564-4.042z"/>
        <path id="b" d="M10.375 2.379L5.419 8.057H2.044a.245.245 0 0 0-.245.245v3.586c0 .135.11.245.245.245h3.627l4.703 5.487a.245.245 0 0 0 .427-.164V2.544a.245.245 0 0 0-.426-.165zM4.77 6.758l4.349-5.2a1.714 1.714 0 0 1 2.98 1.156v14.572a1.714 1.714 0 0 1-2.99 1.146l-4.094-5H2.214A1.714 1.714 0 0 1 .5 11.718V8.472c0-.947.768-1.714 1.714-1.714h2.557zm8.773 1.705a.65.65 0 0 1 .912-.926c.827.814 1.25 1.814 1.25 2.963 0 1.15-.423 2.15-1.25 2.964a.65.65 0 1 1-.912-.927c.58-.57.862-1.237.862-2.037 0-.8-.282-1.466-.862-2.037zm2.495-2.005a.65.65 0 0 1 .922-.916c1.293 1.303 1.942 2.969 1.942 4.958 0 1.99-.649 3.655-1.942 4.958a.65.65 0 1 1-.922-.915c1.044-1.053 1.564-2.388 1.564-4.043 0-1.655-.52-2.99-1.564-4.042z"/>
    </defs>
    <g fill="none" fill-rule="evenodd">
        <path d="M0 0h20v20H0z"/>
        <use fill="#B7BCC9" fill-rule="nonzero" xlink:href="#a"/>
        <g>
            <path d="M0 0h20v20H0z"/>
            <use fill="#B7BCC9" fill-rule="nonzero" xlink:href="#b"/>
        </g>
    </g>
</svg>
