<svg width="200" height="200" viewBox="0 0 200 200" fill="none" xmlns="http://www.w3.org/2000/svg">
<g clip-path="url(#clip0)">
<path d="M119.131 2.42822C146.907 8.61733 172.087 24.6592 185.826 50.927C200.607 79.1879 205.435 113.478 192.52 142.744C179.418 172.429 151.395 190.99 121.066 197.664C91.4465 204.182 60.6347 196.994 37.0495 176.956C13.5333 156.976 -0.905377 126.727 0.044128 94.8431C0.961572 64.0359 18.26 37.0618 41.7586 18.8261C64.0694 1.51223 92.0514 -3.60554 119.131 2.42822V2.42822Z" fill="#2E7CF6" fill-opacity="0.13"/>
<path d="M72.201 127.415C114.921 121.922 159.244 124.583 195.019 136.399C194.274 138.537 193.442 140.653 192.52 142.743C179.418 172.428 151.395 190.989 121.066 197.663C91.447 204.181 60.635 196.993 37.05 176.955C25.666 167.283 16.409 155.205 9.996 141.7C28.39 135.068 49.74 130.304 72.201 127.415Z" fill="#2E7CF6" fill-opacity="0.13"/>
<path fill-rule="evenodd" clip-rule="evenodd" d="M100 36.0474C66.8629 36.0474 40 62.9102 40 96.0473V127.721C40 160.859 66.8629 187.721 100 187.721C133.137 187.721 160 160.859 160 127.721V96.0474C160 62.9103 133.137 36.0474 100 36.0474V36.0474ZM100.156 56.0355C77.5755 56.0355 59.2707 74.3404 59.2707 96.9205V117.442C59.2707 140.023 77.5755 158.327 100.156 158.327C122.736 158.327 141.041 140.022 141.041 117.442V96.9205C141.041 74.3403 122.736 56.0355 100.156 56.0355V56.0355Z" fill="white"/>
<path d="M100 96C139.922 96 172.839 126.565 177.448 165.985C162.771 182.299 142.494 192.948 121.066 197.663C91.447 204.181 60.635 196.993 37.05 176.955C31.925 172.601 27.231 167.759 23.033 162.518C29.11 124.787 61.256 96 100 96Z" fill="#2E7CF6"/>
<path d="M150 176C150 180.092 149.509 184.068 148.581 187.874C139.898 192.295 130.596 195.566 121.066 197.663C97.071 202.943 72.292 199.228 51.208 186.973C50.417 183.442 50 179.77 50 176C50 148.386 72.386 126 100 126C127.614 126 150 148.386 150 176Z" fill="white" fill-opacity="0.15"/>
<path fill-rule="evenodd" clip-rule="evenodd" d="M107.219 169C107.219 172.981 103.981 176.219 100 176.219C96.0197 176.219 92.7812 172.981 92.7812 169C92.7812 165.019 96.0197 161.781 100 161.781C103.981 161.781 107.219 165.019 107.219 169ZM99.9999 145C86.7662 145 76 155.766 76 169C76 182.234 86.7662 193 99.9999 193C104.848 193 109.523 191.557 113.519 188.826L113.588 188.778L110.355 185.019L110.3 185.055C107.224 187.034 103.662 188.079 99.9999 188.079C89.4795 188.079 80.9206 179.52 80.9206 169C80.9206 158.479 89.4795 149.92 99.9999 149.92C110.52 149.92 119.079 158.479 119.079 169C119.079 170.363 118.928 171.744 118.63 173.101C118.026 175.577 116.293 176.336 114.991 176.235C113.682 176.13 112.15 175.197 112.14 172.913V169C112.14 162.306 106.694 156.86 99.9999 156.86C93.3062 156.86 87.8603 162.306 87.8603 169C87.8603 175.694 93.3062 181.14 99.9999 181.14C103.251 181.14 106.302 179.868 108.601 177.556C109.937 179.637 112.117 180.941 114.597 181.14C114.809 181.157 115.027 181.166 115.242 181.166C116.988 181.166 118.718 180.582 120.113 179.523C121.552 178.431 122.626 176.851 123.219 174.954C123.315 174.648 123.488 173.945 123.489 173.941L123.494 173.916C123.844 172.392 124 170.875 124 169C124 155.766 113.234 145 99.9999 145V145Z" fill="#FF9E3A"/>
</g>
<defs>
<clipPath id="clip0">
<rect width="200" height="200" fill="white"/>
</clipPath>
</defs>
</svg>
