<svg xmlns="http://www.w3.org/2000/svg" width="20" height="20" viewBox="0 0 20 20">
  <g fill="none" fill-rule="evenodd">
    <rect width="20" height="20"/>
    <path fill="#FFF" d="M7.38883472,3.75 L9.28172796,1.85710676 C9.67225225,1.46658247 10.3054172,1.46658247 10.6959415,1.85710676 L12.5888348,3.75 L15.2570465,3.75 C15.8093312,3.75 16.2570465,4.19771525 16.2570465,4.75 L16.2570465,7.41821169 L18.1255453,9.28671056 C18.5160696,9.67723485 18.5160696,10.3103998 18.1255453,10.7009241 L16.2570465,12.569423 L16.2570465,15.25 C16.2570465,15.8022847 15.8093312,16.25 15.2570465,16.25 L12.5764694,16.25 L10.7009241,18.1255453 C10.3103998,18.5160696 9.67723485,18.5160696 9.28671056,18.1255453 L7.41116524,16.25 L4.75,16.25 C4.19771525,16.25 3.75,15.8022847 3.75,15.25 L3.75,12.5888348 L1.85710676,10.6959415 C1.46658247,10.3054172 1.46658247,9.67225225 1.85710676,9.28172796 L3.75,7.38883472 L3.75,4.75 C3.75,4.19771525 4.19771525,3.75 4.75,3.75 L7.38883472,3.75 Z M12.7931686,7.41430543 L8.74403137,11.6705648 L7.50061711,10.6165375 C7.14240511,10.3128855 6.60571956,10.3569515 6.30189639,10.7149617 C5.99807322,11.0729719 6.04216408,11.6093551 6.40037607,11.9130071 L8.25658543,13.4864934 C8.60050467,13.7780296 9.11231662,13.7505896 9.42305626,13.423955 L14.0258692,8.58569815 C14.3495227,8.24548906 14.3359463,7.7074699 13.9955454,7.38399873 C13.6551446,7.06052756 13.1168221,7.07409633 12.7931686,7.41430543 Z"/>
  </g>
</svg>
