<svg xmlns="http://www.w3.org/2000/svg" xmlns:xlink="http://www.w3.org/1999/xlink" width="20" height="20"><defs><path id="a" d="M12.194 15.865zm1.434.411a1.94 1.94 0 0 0 2.346-1.366l.357-1.295a.525.525 0 0 0-.358-.643l-2.756-.815a.525.525 0 0 0-.55.164l-1.304 1.54-.448-.173c-1.022-.396-1.999-1.026-2.895-1.923a8.796 8.796 0 0 1-2.14-3.39l-.14-.408L7.12 6.653a.525.525 0 0 0 .14-.531l-.682-2.263a.525.525 0 0 0-.535-.373L4.55 3.58a1.5 1.5 0 0 0-1.38 1.786c.151.771.268 1.283.343 1.51.792 2.13 1.89 4.146 3.447 5.702 1.475 1.475 3.541 2.69 5.127 3.239l.136.064c.154.062.646.205 1.405.396zM3.542 7.004c-.01-.06-.011-.07-.025-.114l.025.114zm8.096 4.445a1.875 1.875 0 0 1 1.962-.587l2.756.815a1.875 1.875 0 0 1 1.276 2.296l-.357 1.296a3.29 3.29 0 0 1-3.977 2.316c-.831-.21-1.364-.364-1.636-.48a1.08 1.08 0 0 1-.073-.033c-1.76-.62-3.972-1.929-5.584-3.54-1.727-1.728-2.91-3.903-3.762-6.198-.01-.028-.016-.046-.02-.062-.097-.303-.22-.845-.377-1.648a2.85 2.85 0 0 1 2.62-3.392l1.492-.093a1.875 1.875 0 0 1 1.912 1.33l.682 2.264c.203.676.01 1.41-.502 1.897l-.742.708c.36.876.904 1.71 1.666 2.473.631.63 1.3 1.1 1.993 1.43l.67-.792z"/></defs><use fill="#A8ADB8" fill-rule="nonzero" xlink:href="#a"/></svg>