<svg xmlns="http://www.w3.org/2000/svg" width="20" height="20" viewBox="0 0 20 20">
  <g fill="none">
    <circle id="bg" cx="10" cy="10" r="10" fill="#57B359"/>
    <path id="dog" fill="#FFF" d="M16.9604064,9.13985506 C17.2188191,11.3634916 16.1973051,13.1312896 14.3352245,13.1517231 C12.3916894,13.1730504 11.6478396,11.8210112 11.6478396,9.58270484 L11.6478396,8.01799539 C11.6478396,7.59582519 11.9900762,7.25358862 12.4122464,7.25358862 C12.8344166,7.25358862 13.1766532,7.59582519 13.1766532,8.01799539 L13.1766532,9.58270484 C13.1766532,11.0838593 13.4783444,11.6322205 14.3184492,11.6230016 C15.3554855,11.6116217 15.9252318,10.0425464 15.0790532,7.92086351 C15.0628295,7.88018457 15.0503453,7.83894027 15.0414372,7.7975111 C14.1837987,5.8589156 12.2417129,4.52881355 10.018644,4.52881355 C6.98669436,4.52881355 4.52881355,6.98669436 4.52881355,10.018644 C4.52881355,13.0505936 6.98669436,15.5084745 10.018644,15.5084745 C10.870989,15.5084745 11.694097,15.3146107 12.4408604,14.9467761 C12.8195794,14.7602297 13.2778176,14.9160165 13.464364,15.2947355 C13.6509103,15.6734546 13.4951236,16.1316928 13.1164045,16.3182391 C12.1606346,16.7890245 11.1065558,17.037288 10.018644,17.037288 C6.14235396,17.037288 3,13.8949341 3,10.018644 C3,6.14235396 6.14235396,3 10.018644,3 C13.4946929,3 16.4324736,5.54254517 16.9554736,8.94432269 C16.9656602,9.0105801 16.9670117,9.07615675 16.9604064,9.13985506 Z M10.018644,13.1283897 C8.30117886,13.1283897 6.90889827,11.7361092 6.90889827,10.018644 C6.90889827,8.30117886 8.30117886,6.90889827 10.018644,6.90889827 C11.7361092,6.90889827 13.1283897,8.30117886 13.1283897,10.018644 C13.1283897,11.7361092 11.7361092,13.1283897 10.018644,13.1283897 Z M10.018644,11.5995762 C10.8917687,11.5995762 11.5995762,10.8917687 11.5995762,10.018644 C11.5995762,9.14551927 10.8917687,8.43771182 10.018644,8.43771182 C9.14551927,8.43771182 8.43771182,9.14551927 8.43771182,10.018644 C8.43771182,10.8917687 9.14551927,11.5995762 10.018644,11.5995762 Z"/>
  </g>
</svg>
