<svg xmlns="http://www.w3.org/2000/svg" xmlns:xlink="http://www.w3.org/1999/xlink" width="20" height="20" viewBox="0 0 20 20">
  <defs>
    <path id="spam-a" d="M10.0063318,4.10236648 L3.60597527,16.2185341 L16.4783736,16.2185341 L10.0063318,4.10236648 Z M10.8869042,2.9917179 L17.8607888,16.0473743 C18.1210032,16.5345159 17.9370423,17.1403676 17.4499007,17.400582 C17.3049272,17.4780218 17.143101,17.5185341 16.9787409,17.5185341 L3.10821558,17.5185341 C2.55593083,17.5185341 2.10821558,17.0708189 2.10821558,16.5185341 C2.10821558,16.3557353 2.14796216,16.1953982 2.22400297,16.0514495 L9.12064376,2.99579302 C9.37860749,2.50745589 9.98360388,2.32070134 10.471941,2.57866507 C10.6483739,2.67186559 10.7928906,2.81571699 10.8869042,2.9917179 Z M10.0499996,13.2958922 C10.5217104,13.2958922 10.9041076,13.6782894 10.9041076,14.1500002 C10.9041076,14.621711 10.5217104,15.0041082 10.0499996,15.0041082 C9.57828878,15.0041082 9.19589162,14.621711 9.19589162,14.1500002 C9.19589162,13.6782894 9.57828878,13.2958922 10.0499996,13.2958922 Z M10.0121686,12.5999999 C9.66830304,12.5999999 9.38393035,12.3321781 9.36333551,11.9889298 L9.1568979,8.54829433 C9.15582739,8.53045238 9.15529177,8.51258236 9.15529177,8.49470833 C9.15529177,8.00057451 9.55586637,7.5999999 10.0500002,7.5999999 C10.0678743,7.5999999 10.0857444,7.60053553 10.1035864,7.60160605 C10.596833,7.63120089 10.9726971,8.05504766 10.9431023,8.54829431 L10.7366638,11.98893 C10.7160689,12.3321782 10.4316962,12.5999999 10.0878307,12.5999999 L10.0121686,12.5999999 Z"/>
  </defs>
  <g fill="none" fill-rule="evenodd">
    <use fill="#979797" fill-rule="nonzero" xlink:href="#spam-a"/>
  </g>
</svg>
