<svg xmlns="http://www.w3.org/2000/svg" width="14" height="14" viewBox="0 0 14 14">
  <g fill="none" fill-rule="evenodd" transform="translate(-1 -1)">
    <path fill="#FFF" d="M11.5518885,10.8042466 L14.1322949,13.384653 C14.4235144,13.6758725 14.4241995,14.1473474 14.1292643,14.4422826 C13.8363711,14.7351758 13.3617105,14.735389 13.0716347,14.4453132 L10.4079182,11.7815967 C9.52042372,12.356271 8.46230941,12.6899416 7.32625303,12.6899416 C4.19102003,12.6899416 1.6494115,10.1486304 1.6494115,7.0137643 C1.6494115,3.87889816 4.19102003,1.33758703 7.32625303,1.33758703 C10.461486,1.33758703 13.0030946,3.87889816 13.0030946,7.0137643 C13.0030946,8.47060942 12.4541893,9.79926583 11.5518885,10.8042466 Z M7.32625303,11.3160514 C9.70261865,11.3160514 11.6290436,9.38985186 11.6290436,7.0137643 C11.6290436,4.63767675 9.70261865,2.71147721 7.32625303,2.71147721 C4.94988741,2.71147721 3.02346245,4.63767675 3.02346245,7.0137643 C3.02346245,9.38985186 4.94988741,11.3160514 7.32625303,11.3160514 Z"/>
    <path fill="#A8ADB8" d="M11.5518885,10.8042466 L14.1322949,13.384653 C14.4235144,13.6758725 14.4241995,14.1473474 14.1292643,14.4422826 C13.8363711,14.7351758 13.3617105,14.735389 13.0716347,14.4453132 L10.4079182,11.7815967 C9.52042372,12.356271 8.46230941,12.6899416 7.32625303,12.6899416 C4.19102003,12.6899416 1.6494115,10.1486304 1.6494115,7.0137643 C1.6494115,3.87889816 4.19102003,1.33758703 7.32625303,1.33758703 C10.461486,1.33758703 13.0030946,3.87889816 13.0030946,7.0137643 C13.0030946,8.47060942 12.4541893,9.79926583 11.5518885,10.8042466 Z M7.32625303,11.3160514 C9.70261865,11.3160514 11.6290436,9.38985186 11.6290436,7.0137643 C11.6290436,4.63767675 9.70261865,2.71147721 7.32625303,2.71147721 C4.94988741,2.71147721 3.02346245,4.63767675 3.02346245,7.0137643 C3.02346245,9.38985186 4.94988741,11.3160514 7.32625303,11.3160514 Z"/>
  </g>
</svg>
