<svg xmlns="http://www.w3.org/2000/svg" xmlns:xlink="http://www.w3.org/1999/xlink" width="20" height="20"><defs><path id="a" d="M10 15.628a5.628 5.628 0 1 0 0-11.256 5.628 5.628 0 0 0 0 11.256zm0 1.4a7.028 7.028 0 1 1 0-14.056 7.028 7.028 0 0 1 0 14.056zm0-3.616a3.412 3.412 0 1 1 0-6.824 3.412 3.412 0 0 1 0 6.824zm0-1.4a2.012 2.012 0 1 0 0-4.024 2.012 2.012 0 0 0 0 4.024zm.7-9.847v1.28c0 .933-1.4.933-1.4 0v-1.28c0-.933 1.4-.933 1.4 0zm3.824 1.4l-.64 1.108c-.467.808-1.68.108-1.213-.7l.64-1.108c.467-.808 1.68-.108 1.213.7zm2.611 3.124l-1.108.64c-.808.466-1.508-.746-.7-1.213l1.108-.64c.808-.466 1.508.746.7 1.213zm.7 4.011h-1.28c-.933 0-.933-1.4 0-1.4h1.28c.933 0 .933 1.4 0 1.4zm-1.4 3.824l-1.108-.64c-.808-.467-.108-1.68.7-1.213l1.108.64c.808.467.108 1.68-.7 1.213zm-3.124 2.611l-.64-1.108c-.466-.808.746-1.508 1.213-.7l.64 1.108c.466.808-.746 1.508-1.213.7zm-4.011.7v-1.28c0-.933 1.4-.933 1.4 0v1.28c0 .933-1.4.933-1.4 0zm-3.824-1.4l.64-1.108c.467-.808 1.68-.108 1.213.7l-.64 1.108c-.467.808-1.68.108-1.213-.7zm-2.611-3.124l1.108-.64c.808-.466 1.508.746.7 1.213l-1.108.64c-.808.466-1.508-.746-.7-1.213zm-.7-4.011h1.28c.933 0 .933 1.4 0 1.4h-1.28c-.933 0-.933-1.4 0-1.4zm1.4-3.824l1.108.64c.808.467.108 1.68-.7 1.213l-1.108-.64c-.808-.467-.108-1.68.7-1.213zm3.124-2.611l.64 1.108c.466.808-.746 1.508-1.213.7l-.64-1.108c-.466-.808.746-1.508 1.213-.7zm1.067 1.472a.7.7 0 0 1 1.352-.362l.78 2.91a.7.7 0 1 1-1.352.363l-.78-2.91zm7.874 6.425a.7.7 0 1 1-.362 1.353l-2.562-.687a.7.7 0 0 1 .363-1.352l2.56.686zm-9.143 3.725a.7.7 0 0 1-.99-.99l2-2a.7.7 0 0 1 .99.99l-2 2z"/></defs><use fill="#CCCFD8" fill-rule="nonzero" xlink:href="#a"/></svg>