<svg width="32" height="32" viewBox="0 0 32 32" fill="none" xmlns="http://www.w3.org/2000/svg">
<path d="M5.83554 16.0035C5.83554 16.0035 7.05089 15.8736 7.31257 17.2019" stroke="#B7BCC9" stroke-width="1.3" stroke-linecap="round" stroke-linejoin="round"/>
<path d="M5.83554 15.9965C5.83554 15.9965 7.05089 16.1264 7.31257 14.798" stroke="#B7BCC9" stroke-width="1.3" stroke-linecap="round" stroke-linejoin="round"/>
<path d="M26.1645 16.0035C26.1645 16.0035 24.9497 15.8736 24.6882 17.2019" stroke="#B7BCC9" stroke-width="1.3" stroke-linecap="round" stroke-linejoin="round"/>
<path d="M26.1645 15.9965C26.1645 15.9965 24.9497 16.1264 24.6882 14.798" stroke="#B7BCC9" stroke-width="1.3" stroke-linecap="round" stroke-linejoin="round"/>
<path d="M7.21974 16.0034H4.99994M27 16.0034H24.9477H27Z" stroke="#B7BCC9" stroke-width="1.3" stroke-linecap="round" stroke-linejoin="round"/>
<path d="M7.1991 21.0853C7.1991 21.0853 8.18668 20.3652 9.07743 21.3847" stroke="#B7BCC9" stroke-width="1.3" stroke-linecap="round" stroke-linejoin="round"/>
<path d="M7.19553 21.0793C7.19553 21.0793 8.31303 20.584 7.87539 19.3029" stroke="#B7BCC9" stroke-width="1.3" stroke-linecap="round" stroke-linejoin="round"/>
<path d="M24.8052 10.9207C24.8052 10.9207 23.6872 11.4159 24.125 12.6971" stroke="#B7BCC9" stroke-width="1.3" stroke-linecap="round" stroke-linejoin="round"/>
<path d="M24.8009 10.9146C24.8009 10.9146 23.8133 11.6348 22.9227 10.6152" stroke="#B7BCC9" stroke-width="1.3" stroke-linecap="round" stroke-linejoin="round"/>
<path d="M8.41207 20.3849L6.4754 21.503M25.5287 10.5029L23.8364 11.4798L25.5287 10.5029Z" stroke="#B7BCC9" stroke-width="1.3" stroke-linecap="round" stroke-linejoin="round"/>
<path d="M10.9208 24.8046C10.9208 24.8046 11.4161 23.6871 12.6973 24.1247" stroke="#B7BCC9" stroke-width="1.3" stroke-linecap="round" stroke-linejoin="round"/>
<path d="M10.9148 24.8011C10.9148 24.8011 11.6349 23.8135 10.6154 22.9227" stroke="#B7BCC9" stroke-width="1.3" stroke-linecap="round" stroke-linejoin="round"/>
<path d="M21.0854 7.19885C21.0854 7.19885 20.3652 8.18652 21.3845 9.07727" stroke="#B7BCC9" stroke-width="1.3" stroke-linecap="round" stroke-linejoin="round"/>
<path d="M21.0796 7.19531C21.0796 7.19531 20.5841 8.31282 19.3033 7.87526" stroke="#B7BCC9" stroke-width="1.3" stroke-linecap="round" stroke-linejoin="round"/>
<path d="M11.6056 23.6184L10.503 25.5281M21.5031 6.47528L20.4979 8.21624L21.5031 6.47528Z" stroke="#B7BCC9" stroke-width="1.3" stroke-linecap="round" stroke-linejoin="round"/>
<path d="M16.0036 26.1646C16.0036 26.1646 15.8738 24.9492 17.2019 24.6876" stroke="#B7BCC9" stroke-width="1.3" stroke-linecap="round" stroke-linejoin="round"/>
<path d="M15.9967 26.1646C15.9967 26.1646 16.1265 24.9492 14.7982 24.6876" stroke="#B7BCC9" stroke-width="1.3" stroke-linecap="round" stroke-linejoin="round"/>
<path d="M16.0036 5.83527C16.0036 5.83527 15.8738 7.0507 17.2019 7.3123" stroke="#B7BCC9" stroke-width="1.3" stroke-linecap="round" stroke-linejoin="round"/>
<path d="M15.9967 5.83527C15.9967 5.83527 16.1265 7.0507 14.7982 7.3123" stroke="#B7BCC9" stroke-width="1.3" stroke-linecap="round" stroke-linejoin="round"/>
<path d="M16.0036 24.7996V27.0001M16.0036 4.99976V6.97829V4.99976Z" stroke="#B7BCC9" stroke-width="1.3" stroke-linecap="round" stroke-linejoin="round"/>
<path d="M21.0854 24.8011C21.0854 24.8011 20.3652 23.8135 21.3845 22.9227" stroke="#B7BCC9" stroke-width="1.3" stroke-linecap="round" stroke-linejoin="round"/>
<path d="M21.0796 24.8046C21.0796 24.8046 20.5841 23.6871 19.3033 24.1247" stroke="#B7BCC9" stroke-width="1.3" stroke-linecap="round" stroke-linejoin="round"/>
<path d="M10.9208 7.19531C10.9208 7.19531 11.4161 8.31282 12.6973 7.87526" stroke="#B7BCC9" stroke-width="1.3" stroke-linecap="round" stroke-linejoin="round"/>
<path d="M10.9148 7.19885C10.9148 7.19885 11.6349 8.18652 10.6154 9.07727" stroke="#B7BCC9" stroke-width="1.3" stroke-linecap="round" stroke-linejoin="round"/>
<path d="M20.3959 23.6069L21.5031 25.5247M10.503 6.4718L11.4759 8.15687L10.503 6.4718Z" stroke="#B7BCC9" stroke-width="1.3" stroke-linecap="round" stroke-linejoin="round"/>
<path d="M24.8052 21.0793C24.8052 21.0793 23.6872 20.584 24.125 19.3029" stroke="#B7BCC9" stroke-width="1.3" stroke-linecap="round" stroke-linejoin="round"/>
<path d="M24.8009 21.0853C24.8009 21.0853 23.8133 20.3652 22.9227 21.3847" stroke="#B7BCC9" stroke-width="1.3" stroke-linecap="round" stroke-linejoin="round"/>
<path d="M7.1991 10.9146C7.1991 10.9146 8.18668 11.6348 9.07743 10.6152" stroke="#B7BCC9" stroke-width="1.3" stroke-linecap="round" stroke-linejoin="round"/>
<path d="M7.19553 10.9207C7.19553 10.9207 8.31303 11.4159 7.87539 12.6971" stroke="#B7BCC9" stroke-width="1.3" stroke-linecap="round" stroke-linejoin="round"/>
<path d="M23.7173 20.4514L25.5287 21.4971M6.4754 10.4969L8.4075 11.6125L6.4754 10.4969Z" stroke="#B7BCC9" stroke-width="1.3" stroke-linecap="round" stroke-linejoin="round"/>
<path fill-rule="evenodd" clip-rule="evenodd" d="M16.0002 7.23438C20.8398 7.23438 24.7692 11.1637 24.7692 16.0034C24.7692 20.8432 20.8398 24.7725 16.0002 24.7725C11.1604 24.7725 7.23117 20.8432 7.23117 16.0034C7.23117 11.1637 11.1604 7.23438 16.0002 7.23438Z" stroke="#B7BCC9" stroke-width="1.3" stroke-linecap="round" stroke-linejoin="round"/>
<path d="M19.8497 17.1332L24.4308 18.4221" stroke="#B7BCC9" stroke-width="1.3" stroke-linecap="round" stroke-linejoin="round"/>
<path d="M9.79977 22.2019L13.1865 18.8614" stroke="#B7BCC9" stroke-width="1.3" stroke-linecap="round" stroke-linejoin="round"/>
<path d="M15.0573 12.1037L13.8831 7.49213" stroke="#B7BCC9" stroke-width="1.3" stroke-linecap="round" stroke-linejoin="round"/>
<path fill-rule="evenodd" clip-rule="evenodd" d="M16.0002 11.9921C18.2137 11.9921 20.0118 13.7895 20.0118 16.0034C20.0118 18.2173 18.2137 20.0148 16.0002 20.0148C13.7862 20.0148 11.9889 18.2173 11.9889 16.0034C11.9889 13.7895 13.7862 11.9921 16.0002 11.9921Z" stroke="#B7BCC9" stroke-width="1.3" stroke-linecap="round" stroke-linejoin="round"/>
</svg>
