<?xml version="1.0" encoding="UTF-8"?>
<svg width="20px" height="20px" viewBox="0 0 20 20" version="1.1" xmlns="http://www.w3.org/2000/svg" xmlns:xlink="http://www.w3.org/1999/xlink">
    <!-- Generator: Sketch 52.3 (67297) - http://www.bohemiancoding.com/sketch -->
    <title>Clipped</title>
    <desc>Created with Sketch.</desc>
    <defs>
        <path d="M13.852,15.318 C14.995614,14.6567819 15.6999506,13.436008 15.7,12.115 L15.7,5.09 C15.7001099,4.33859812 15.2069099,3.67625453 14.487,3.461 C13.0541428,3.02622975 11.5653618,2.80353587 10.068,2.8 C8.578,2.8 7.063,3.026 5.519,3.481 C4.79635839,3.69417598 4.30023639,4.35757127 4.3,5.111 L4.3,12.082 C4.2997938,13.4164379 5.01816323,14.6476008 6.18,15.304 L10.072,17.503 L13.852,15.318 Z M5.152,2.234 C6.812,1.744 8.452,1.5 10.068,1.5 C11.666,1.5 13.263,1.739 14.86,2.217 C16.1295917,2.59689352 16.999518,3.76478983 17,5.09 L17,12.114 C17.0000101,13.8995129 16.047887,15.5495293 14.502,16.443 L10.08,19 L5.54,16.435 C3.97048699,15.5480201 2.99999134,13.8848046 3,12.082 L3,5.112 C2.99984683,3.78162576 3.87588081,2.61005244 5.152,2.234 Z M12.908,7.527 L9.418,11.002 L7.593,9.233 C7.33508302,8.98309115 6.92340885,8.98958302 6.6735,9.2475 C6.42359115,9.50541698 6.43008302,9.91709115 6.688,10.167 L8.971,12.38 C9.22537872,12.626084 9.62988832,12.6234169 9.881,12.374 L13.825,8.449 C13.9896994,8.28519373 14.0544984,8.04596439 13.9949877,7.82142735 C13.935477,7.59689032 13.7606978,7.42115811 13.5364877,7.36042735 C13.3122776,7.29969659 13.0726994,7.36319373 12.908,7.527 Z" id="path-1"></path>
    </defs>
    <g id="Page-1" stroke="none" stroke-width="1" fill="none" fill-rule="evenodd">
        <g id="Artboard">
            <g id="shield_icon">
                <g id="Group">
                    <g id="Clipped">
                        <polygon id="Path" points="0 0 20 0 20 20 0 20"></polygon>
                        <mask id="mask-2" fill="white">
                            <use xlink:href="#path-1"></use>
                        </mask>
                        <use id="a" fill="#777777" xlink:href="#path-1"></use>
                    </g>
                </g>
            </g>
        </g>
    </g>
</svg>