<svg width="32" height="32" viewBox="0 0 32 32" fill="none" xmlns="http://www.w3.org/2000/svg">
<path fill-rule="evenodd" clip-rule="evenodd" d="M14.135 17.7434C15.9582 19.5687 17.4948 19.9207 17.4948 19.9207C17.4948 19.9207 18.3034 18.3478 19.3937 18.0482C19.9859 17.8855 21.6828 18.3964 23.2045 19.0876C24.7262 19.7787 25.0128 20.3899 24.9996 21.2821C24.9872 22.123 24.4985 23.1479 23.8432 23.8889C23.3951 24.3956 22.5628 25.1421 20.7286 24.9765C18.5309 24.778 15.3865 23.6193 11.8169 20.0756L11.7325 19.9914C8.18874 16.325 7.11901 13.1782 7.00737 11.0099C6.91485 9.21451 7.71429 8.43441 8.25181 8.01878C9.03806 7.41098 10.1078 6.97762 10.9692 7.00089C11.8831 7.02553 12.4968 7.33067 13.1403 8.84347C13.7839 10.3564 14.2356 12.0324 14.0441 12.6031C13.6916 13.6535 12.0472 14.3758 12.0472 14.3758C12.0472 14.3758 12.343 15.8889 14.135 17.7434Z" fill="black"/>
</svg>
