<svg width="32" height="32" viewBox="0 0 32 32" fill="none" xmlns="http://www.w3.org/2000/svg">
<path fill-rule="evenodd" clip-rule="evenodd" d="M9 9C7.34315 9 6 10.3431 6 12V19.913C6 21.5699 7.34315 22.913 9 22.913H16.9159C18.5728 22.913 19.9159 21.5699 19.9159 19.913V17.264C20.0005 17.3614 20.0961 17.4524 20.2027 17.5353L24.3861 20.7885C25.043 21.2993 26 20.8312 26 19.9991V11.914C26 11.0819 25.043 10.6137 24.3861 11.1245L20.2027 14.3777C20.0961 14.4606 20.0005 14.5516 19.9159 14.6491V12C19.9159 10.3431 18.5728 9 16.9159 9H9Z" fill="black"/>
</svg>
