<svg xmlns="http://www.w3.org/2000/svg" xmlns:xlink="http://www.w3.org/1999/xlink" width="20" height="20"><defs><path id="a" d="M8.464 6.341a.7.7 0 1 1-1.4 0V4.556c0-1.264 1.108-2.256 2.437-2.256h7.527c1.33 0 2.436.992 2.436 2.256v10.888c0 1.264-1.107 2.256-2.436 2.256H9.5c-1.33 0-2.437-.992-2.437-2.256v-2.28a.7.7 0 1 1 1.4 0v2.28c0 .455.448.856 1.037.856h7.527c.588 0 1.036-.401 1.036-.856V4.556c0-.455-.448-.856-1.036-.856H9.5c-.589 0-1.037.401-1.037.856V6.34zM2.74 9h11.175a.7.7 0 1 1 0 1.4H2.695l2.654 2.595a.7.7 0 1 1-.979 1.001L.51 10.223a.7.7 0 0 1 0-1.001l3.808-3.723a.7.7 0 0 1 .978 1.002L2.74 9z"/></defs><use fill="#B7BCC9" fill-rule="nonzero" xlink:href="#a"/></svg>