<svg xmlns="http://www.w3.org/2000/svg" width="101" height="64" viewBox="0 0 101 64">
    <g fill="none" fill-rule="evenodd">
        <path d="M1 0h100v64H1z"/>
        <g transform="translate(33 9)">
            <rect width="18" height="1.983" x="7" y="37.118" fill="#B7BCC9" rx=".992"/>
            <path stroke="#B7BCC9" stroke-width="2" d="M35 16.696L19.69 1.429H3.375C2.066 1.429 1 2.509 1 3.849v38.772c0 1.34 1.066 2.421 2.375 2.421h29.25c1.309 0 2.375-1.08 2.375-2.421V16.696z"/>
            <path stroke="#B7BCC9" stroke-width="2" d="M21 2.828v10.466a2 2 0 0 0 2 2h10.571L21 2.828zM11.17 29.878l-.936 4.46 4.512-.892 9.496-9.496a1 1 0 0 0 0-1.414l-2.158-2.158a1 1 0 0 0-1.414 0l-9.5 9.5z"/>
        </g>
    </g>
</svg>
