<svg width="32" height="32" viewBox="0 0 32 32" fill="none" xmlns="http://www.w3.org/2000/svg">
<path d="M12.6852 13.1973C12.6852 13.6115 12.3494 13.9473 11.9352 13.9473C11.521 13.9473 11.1852 13.6115 11.1852 13.1973C11.1852 12.7831 11.521 12.4473 11.9352 12.4473C12.3494 12.4473 12.6852 12.7831 12.6852 13.1973Z" stroke="black" stroke-width="1.5"/>
<path d="M20.8148 13.1973C20.8148 13.6115 20.479 13.9473 20.0648 13.9473C19.6506 13.9473 19.3148 13.6115 19.3148 13.1973C19.3148 12.7831 19.6506 12.4473 20.0648 12.4473C20.479 12.4473 20.8148 12.7831 20.8148 13.1973Z" stroke="black" stroke-width="1.5"/>
<path d="M5 16C5 22.0718 9.92821 27 16 27C22.0718 27 27 22.0718 27 16C27 9.92821 22.0718 5 16 5C9.92821 5 5 9.92821 5 16Z" stroke="black" stroke-width="1.3" stroke-linecap="round"/>
<path d="M10.824 17.7722C10.824 17.7722 9.50579 17.7722 9.79518 19.0602C10.2128 20.9189 12.2231 23.3793 16 23.398C19.7768 23.4166 21.8005 20.8704 22.2052 19.0602C22.4932 17.7722 21.1759 17.7722 21.1759 17.7722C21.1759 17.7722 19.503 17.7722 16 17.7722C12.497 17.7722 10.824 17.7722 10.824 17.7722Z" stroke="black" stroke-width="1.3" stroke-linecap="round" stroke-linejoin="round"/>
</svg>
