<svg width="24" height="24" viewBox="0 0 24 24" fill="none" xmlns="http://www.w3.org/2000/svg">
<path d="M3.30402 12C2.58383 12 1.99124 11.4137 2.0849 10.6997C2.28382 9.18289 2.82899 7.72586 3.6853 6.4443C4.78411 4.79981 6.3459 3.51809 8.17316 2.76121C10.0004 2.00433 12.0111 1.8063 13.9509 2.19215C15.8907 2.578 17.6725 3.53041 19.0711 4.92894C20.4696 6.32746 21.422 8.10929 21.8078 10.0491C22.1937 11.9889 21.9957 13.9996 21.2388 15.8268C20.4819 17.6541 19.2002 19.2159 17.5557 20.3147C16.2741 21.171 14.8171 21.7162 13.3003 21.9151C12.5863 22.0088 12 21.4162 12 20.696V20.696C12 19.9758 12.5883 19.4036 13.2973 19.2772C14.2972 19.099 15.2545 18.7157 16.1067 18.1462C17.3223 17.3339 18.2698 16.1795 18.8293 14.8288C19.3887 13.4781 19.5351 11.9918 19.2499 10.5579C18.9647 9.12401 18.2607 7.80689 17.2269 6.77311C16.1931 5.73932 14.876 5.03531 13.4421 4.75009C12.0082 4.46487 10.5219 4.61125 9.17122 5.17073C7.82052 5.73021 6.66605 6.67766 5.85381 7.89326C5.28435 8.74553 4.90103 9.70277 4.72277 10.7027C4.59637 11.4117 4.02421 12 3.30402 12V12Z" fill="url(#paint0_linear)"/>
<defs>
<linearGradient id="paint0_linear" x1="20.5" y1="19.5" x2="5" y2="21" gradientUnits="userSpaceOnUse">
<stop stop-color="white"/>
<stop offset="1" stop-color="white" stop-opacity="0"/>
</linearGradient>
</defs>
</svg>
