<svg width="20" height="20" viewBox="0 0 20 20" fill="none" xmlns="http://www.w3.org/2000/svg">
<path d="M4.45006 16.3559L3.4446 17.441C2.92953 17.9969 2 17.6324 2 16.8746V8.86841C2 7.4877 3.11929 6.36841 4.5 6.36841H12.1313C13.512 6.36841 14.6313 7.4877 14.6313 8.86841V13.0551C14.6313 14.4358 13.512 15.5551 12.1313 15.5551H6.28386C5.58776 15.5551 4.92318 15.8453 4.45006 16.3559Z" fill="white" stroke="white" stroke-width="1.3" stroke-linejoin="round"/>
<path fill-rule="evenodd" clip-rule="evenodd" d="M6.5 4C6.50022 4 6.50043 4 6.50065 4H13.0006C15.2098 4 17.0006 5.79086 17.0006 8V11.4998C17.6076 11.0437 18.0002 10.3177 18.0002 9.5V5.5C18.0002 4.11929 16.8809 3 15.5002 3H8.50018C7.68227 3 6.9561 3.39278 6.5 4Z" fill="white"/>
<path d="M6.5 4L6.10022 3.69971L5.4991 4.5H6.5V4ZM17.0006 11.4998H16.5006V12.501L17.301 11.8995L17.0006 11.4998ZM6.5 4.5C6.50019 4.5 6.50037 4.5 6.50046 4.5C6.50058 4.5 6.50062 4.5 6.50065 4.5V3.5C6.50046 3.5 6.50028 3.5 6.50018 3.5C6.50007 3.5 6.50003 3.5 6.5 3.5V4.5ZM6.50065 4.5H13.0006V3.5H6.50065V4.5ZM13.0006 4.5C14.9336 4.5 16.5006 6.067 16.5006 8H17.5006C17.5006 5.51472 15.4859 3.5 13.0006 3.5V4.5ZM16.5006 8V11.4998H17.5006V8H16.5006ZM17.5002 9.5C17.5002 10.1538 17.187 10.7344 16.7003 11.1001L17.301 11.8995C18.0283 11.353 18.5002 10.4816 18.5002 9.5H17.5002ZM17.5002 5.5V9.5H18.5002V5.5H17.5002ZM15.5002 3.5C16.6048 3.5 17.5002 4.39543 17.5002 5.5H18.5002C18.5002 3.84315 17.157 2.5 15.5002 2.5V3.5ZM8.50018 3.5H15.5002V2.5H8.50018V3.5ZM6.89978 4.30029C7.26551 3.81338 7.84618 3.5 8.50018 3.5V2.5C7.51837 2.5 6.64669 2.97217 6.10022 3.69971L6.89978 4.30029Z" fill="white"/>
</svg>
