<svg width="20" height="20" viewBox="0 0 20 20" fill="none" xmlns="http://www.w3.org/2000/svg">
<path d="M4.45006 16.3559L3.4446 17.441C2.92953 17.9969 2 17.6324 2 16.8746V8.86841C2 7.4877 3.11929 6.36841 4.5 6.36841H12.1313C13.512 6.36841 14.6313 7.4877 14.6313 8.86841V13.0551C14.6313 14.4358 13.512 15.5551 12.1313 15.5551H6.28386C5.58776 15.5551 4.92318 15.8453 4.45006 16.3559Z" stroke="white" stroke-width="1.3" stroke-linejoin="round"/>
<path d="M14.6318 12.1867H15.5002C16.8809 12.1867 18.0002 11.0674 18.0002 9.68665V5.5C18.0002 4.11929 16.8809 3 15.5002 3H8.71093C7.33022 3 6.21094 4.11929 6.21094 5.5V6.36844" stroke="white" stroke-width="1.3" stroke-linejoin="round"/>
</svg>
