<svg width="20" height="20" viewBox="0 0 20 20" fill="none" xmlns="http://www.w3.org/2000/svg">
<path fill-rule="evenodd" clip-rule="evenodd" d="M9.45962 9.54036C9.20578 9.28652 8.79422 9.28652 8.54038 9.54036C8.28654 9.7942 8.28654 10.2058 8.54038 10.4596L9.28862 11.2078C7.84669 12.203 7 13.5248 7 14C7 14.8 9.4 18 13 18C13.9322 18 14.7839 17.7854 15.5343 17.4535L16.5404 18.4596C16.7942 18.7134 17.2058 18.7134 17.4596 18.4596C17.7135 18.2058 17.7135 17.7942 17.4596 17.5404L9.45962 9.54036ZM14.6116 16.5308L13.4966 15.4158C13.3412 15.4703 13.174 15.5 13 15.5C12.1716 15.5 11.5 14.8284 11.5 14C11.5 13.8259 11.5296 13.6588 11.5842 13.5034L10.4692 12.3884C10.1721 12.8539 10 13.4068 10 14C10 15.6568 11.3431 17 13 17C13.5931 17 14.1461 16.8278 14.6116 16.5308ZM16 14C16 14.1023 15.9949 14.2035 15.9849 14.3032L17.681 15.9993C18.5251 15.1866 19 14.3558 19 14C19 13.2 16.6 9.99998 13 9.99998C12.5838 9.99998 12.1836 10.0427 11.8013 10.1196L12.6968 11.0151C12.7965 11.0051 12.8977 11 13 11C14.6569 11 16 12.3431 16 14Z" fill="#A8ADB8"/>
<path fill-rule="evenodd" clip-rule="evenodd" d="M11.3956 5.62531H6.75968C6.88913 4.51316 7.8344 3.64998 8.98129 3.64998H15.1914C16.4268 3.64998 17.4282 4.65139 17.4282 5.8867V9.04608C17.4282 9.28292 17.3914 9.51116 17.3231 9.72539C17.7195 9.98724 18.0706 10.2761 18.3809 10.5763C18.6035 10.1132 18.7282 9.59421 18.7282 9.04608V5.8867C18.7282 3.93342 17.1447 2.34998 15.1914 2.34998H8.98129C7.11593 2.34998 5.58786 3.79409 5.45408 5.62531H4.8867C2.93342 5.62531 1.34998 7.20875 1.34998 9.16203V17.2662C1.34998 18.3179 2.63991 18.8236 3.35469 18.0522L5.12971 16.1366C5.29422 15.959 5.52532 15.8581 5.76737 15.8581H6.36299C6.10924 15.4499 5.92045 15.0711 5.78523 14.7635C5.75568 14.6963 5.73018 14.628 5.70873 14.5589C5.12614 14.5747 4.57337 14.8243 4.17613 15.253L2.64998 16.9001V9.16203C2.64998 7.92672 3.65139 6.92531 4.8867 6.92531H11.3956C12.4059 6.92531 13.2598 7.59521 13.5373 8.51508C14.0236 8.54274 14.4782 8.60763 14.9028 8.703C14.6777 6.96658 13.1933 5.62531 11.3956 5.62531Z" fill="#A8ADB8"/>
</svg>
