<svg width="16" height="16" viewBox="0 0 16 16" fill="none" xmlns="http://www.w3.org/2000/svg">
<path fill-rule="evenodd" clip-rule="evenodd" d="M2.23267 2.28943C1.81845 2.28943 1.48267 2.62522 1.48267 3.03943V4.37484C1.48267 4.73383 1.77368 5.02484 2.13267 5.02484L13.9027 5.02484C14.2617 5.02484 14.5527 4.73383 14.5527 4.37484V3.03943C14.5527 2.62521 14.2169 2.28943 13.8027 2.28943H2.23267ZM2.02661 6.59964C2.02661 6.18542 2.3624 5.84963 2.77661 5.84963H13.2227C13.6369 5.84963 13.9727 6.18542 13.9727 6.59963V13.3482C13.9727 13.7624 13.6369 14.0982 13.2227 14.0982H2.77665C2.36243 14.0982 2.02665 13.7624 2.02665 13.3482L2.02661 6.59964ZM5.85962 8.35042C5.85962 7.99144 6.15063 7.70042 6.50962 7.70042H9.49014C9.84913 7.70042 10.1401 7.99144 10.1401 8.35042C10.1401 8.70941 9.84913 9.00042 9.49014 9.00042H6.50962C6.15063 9.00042 5.85962 8.70941 5.85962 8.35042Z" fill="#CCCFD8"/>
</svg>
