<svg xmlns="http://www.w3.org/2000/svg" xmlns:xlink="http://www.w3.org/1999/xlink" width="20" height="20"><defs><path id="a" d="M5.227 2.562l1.128-1.128c.444-.444 1.23.336.786.78l-1.13 1.13 1.13 1.132c.444.443-.342 1.223-.786.78L5.227 4.128 4.1 5.256c-.443.443-1.23-.337-.786-.78l1.131-1.131-1.13-1.131c-.445-.444.342-1.224.785-.78l1.128 1.128zm-.732 4.943l1.276 1.277a.812.812 0 0 1 .126-.157l5.932-5.806-.347-.347c-.66-.66.33-1.65.99-.99L18.13 7.14c.66.66-.33 1.65-.99.99l-.153-.153-5.897 5.773a.787.787 0 0 1-.204.146l1.11 1.11c.66.66-.33 1.65-.99.99l-3.077-3.077-5.52 5.52c-.66.66-1.65-.33-.99-.99l5.52-5.52-3.433-3.433c-.66-.66.33-1.65.99-.99zM6.73 9.74l3.222 3.222a.78.78 0 0 1 .157-.213l5.887-5.763-3.177-3.177-5.942 5.816a.82.82 0 0 1-.147.115z"/></defs><use fill="#979797" fill-rule="nonzero" xlink:href="#a"/></svg>