<svg xmlns="http://www.w3.org/2000/svg" xmlns:xlink="http://www.w3.org/1999/xlink" width="20" height="20"><defs><path id="a" d="M12.77 8.564a.71.71 0 0 1-.002-.052v-2.22c0-.891-.648-1.592-1.42-1.592H3.42C2.648 4.7 2 5.401 2 6.292v7.416c0 .891.648 1.592 1.42 1.592h7.929c.77 0 1.419-.701 1.419-1.592v-2.204-.01a.7.7 0 0 1 1.126-.594l3.727 2.871c.024.02.05.029.074.029.074 0 .153-.085.153-.212V6.412a.254.254 0 0 0-.044-.146c-.053-.074-.124-.085-.189-.033l-3.713 2.943a.7.7 0 0 1-1.132-.612zm1.398-1.385L16.74 5.14a1.517 1.517 0 0 1 2.207.316c.196.278.301.612.301.955v7.176c0 .88-.684 1.612-1.553 1.612-.347 0-.683-.12-.942-.33l-2.585-1.992v.83c0 1.64-1.25 2.992-2.82 2.992H3.42C1.85 16.7.6 15.349.6 13.708V6.292C.6 4.652 1.85 3.3 3.42 3.3h7.929c1.57 0 2.819 1.351 2.819 2.992v.887z"/></defs><use fill="#B7BCC9" fill-rule="nonzero" xlink:href="#a"/></svg>